M48
; DRILL file {KiCad 5.1.8} date Thu Jan  7 21:56:07 2021
; FORMAT={-:-/ absolute / inch / decimal}
; #@! TF.CreationDate,2021-01-07T21:56:07-06:00
; #@! TF.GenerationSoftware,Kicad,Pcbnew,5.1.8
FMAT,2
INCH
T1C0.0118
T2C0.0394
T3C0.0400
T4C0.0520
%
G90
G05
T1
X4.3524Y-2.7244
X4.3524Y-2.7638
X4.3524Y-2.8228
X4.3524Y-2.8839
X4.3524Y-2.9409
X4.3524Y-3.0
X4.3524Y-3.0591
T2
X3.8248Y-2.5984
X3.8248Y-2.6984
X3.8248Y-2.7984
X3.8248Y-2.8984
X3.9248Y-2.5984
X3.9248Y-2.6984
X3.9248Y-2.7984
X3.9248Y-2.8984
T3
X3.491Y-2.666
X3.491Y-2.766
X3.491Y-2.866
X3.491Y-2.966
X3.491Y-3.066
X3.491Y-3.166
X3.591Y-2.666
X3.591Y-2.766
X3.591Y-2.866
X3.591Y-2.966
X3.591Y-3.066
X3.591Y-3.166
T4
X4.322Y-2.6144
X4.322Y-3.1912
X4.5149Y-2.5908
X4.5149Y-3.2148
T0
M30
