M48
; DRILL file {KiCad 5.1.9} date Sun Jan 31 15:25:30 2021
; FORMAT={-:-/ absolute / inch / decimal}
; #@! TF.CreationDate,2021-01-31T15:25:30-06:00
; #@! TF.GenerationSoftware,Kicad,Pcbnew,5.1.9
FMAT,2
INCH
T1C0.0118
T2C0.0394
T3C0.0400
T4C0.0520
%
G90
G05
T1
X4.1378Y-3.0394
X4.3583Y-2.748
X4.3583Y-2.8051
X4.3583Y-2.8642
X4.3583Y-2.9232
X4.3583Y-2.9623
X4.3583Y-3.0016
X4.3583Y-3.0413
X4.3583Y-3.0807
X4.3819Y-2.9823
X4.3819Y-3.0197
X4.3819Y-3.061
T2
X3.8396Y-3.1411
X3.8396Y-3.2411
X3.9396Y-3.1411
X3.9396Y-3.2411
X4.0396Y-3.1411
X4.0396Y-3.2411
X4.1396Y-3.1411
X4.1396Y-3.2411
T3
X3.491Y-2.666
X3.491Y-2.766
X3.491Y-2.866
X3.491Y-2.966
X3.491Y-3.066
X3.491Y-3.166
X3.591Y-2.666
X3.591Y-2.766
X3.591Y-2.866
X3.591Y-2.966
X3.591Y-3.066
X3.591Y-3.166
T4
X4.322Y-2.6144
X4.322Y-3.1912
X4.5149Y-2.5908
X4.5149Y-3.2148
T0
M30
