%TF.GenerationSoftware,KiCad,Pcbnew,5.1.8*%
%TF.CreationDate,2021-01-07T21:55:06-06:00*%
%TF.ProjectId,hdmi_pmod,68646d69-5f70-46d6-9f64-2e6b69636164,rev?*%
%TF.SameCoordinates,Original*%
%TF.FileFunction,Copper,L2,Inr*%
%TF.FilePolarity,Positive*%
%FSLAX46Y46*%
G04 Gerber Fmt 4.6, Leading zero omitted, Abs format (unit mm)*
G04 Created by KiCad (PCBNEW 5.1.8) date 2021-01-07 21:55:06*
%MOMM*%
%LPD*%
G01*
G04 APERTURE LIST*
%TA.AperFunction,ComponentPad*%
%ADD10R,1.700000X1.700000*%
%TD*%
%TA.AperFunction,ComponentPad*%
%ADD11O,1.700000X1.700000*%
%TD*%
%TA.AperFunction,ComponentPad*%
%ADD12R,1.524000X1.524000*%
%TD*%
%TA.AperFunction,ComponentPad*%
%ADD13C,1.524000*%
%TD*%
%TA.AperFunction,ComponentPad*%
%ADD14C,1.828800*%
%TD*%
%TA.AperFunction,ViaPad*%
%ADD15C,0.600000*%
%TD*%
%TA.AperFunction,Conductor*%
%ADD16C,0.127000*%
%TD*%
%TA.AperFunction,Conductor*%
%ADD17C,0.100000*%
%TD*%
G04 APERTURE END LIST*
D10*
%TO.N,+5V*%
%TO.C,J1*%
X97150000Y-66000000D03*
D11*
%TO.N,+3V3*%
X99690000Y-66000000D03*
%TO.N,GND*%
X97150000Y-68540000D03*
%TO.N,/HEAC-*%
X99690000Y-68540000D03*
%TO.N,/HEAC+*%
X97150000Y-71080000D03*
%TO.N,/SDA*%
X99690000Y-71080000D03*
%TO.N,/SCL*%
X97150000Y-73620000D03*
%TO.N,/CEC*%
X99690000Y-73620000D03*
%TD*%
D12*
%TO.N,/TMDS_CLK+*%
%TO.C,PMOD0*%
X91211001Y-67716001D03*
D13*
%TO.N,/TMDS_B+*%
X88671001Y-67716001D03*
%TO.N,/TMDS_CLK-*%
X91211001Y-70256001D03*
%TO.N,/TMDS_B-*%
X88671001Y-70256001D03*
%TO.N,/TMDS_R+*%
X91211001Y-72796001D03*
%TO.N,/TMDS_G+*%
X88671001Y-72796001D03*
%TO.N,/TMDS_R-*%
X91211001Y-75336001D03*
%TO.N,/TMDS_G-*%
X88671001Y-75336001D03*
%TO.N,GND*%
X91211001Y-77876001D03*
X88671001Y-77876001D03*
%TO.N,+3V3*%
X91211001Y-80416001D03*
X88671001Y-80416001D03*
%TD*%
D14*
%TO.N,GND*%
%TO.C,J0*%
X109778800Y-66407020D03*
X109778800Y-81056978D03*
X114678790Y-65806945D03*
X114678790Y-81657053D03*
%TD*%
D15*
%TO.N,GND*%
X110550000Y-70200000D03*
X110550000Y-77700000D03*
X110550000Y-76200000D03*
X110550000Y-74700000D03*
X110550000Y-73250000D03*
%TO.N,/HEAC+*%
X110550000Y-71700000D03*
%TO.N,/HEAC-*%
X110550000Y-69200000D03*
%TD*%
D16*
%TO.N,GND*%
X116490451Y-83990457D02*
X85045550Y-83991444D01*
X85045550Y-82519896D01*
X113905750Y-82519896D01*
X114003524Y-82694509D01*
X114218897Y-82806312D01*
X114451943Y-82873950D01*
X114693706Y-82894823D01*
X114934896Y-82868130D01*
X115166244Y-82794895D01*
X115354056Y-82694509D01*
X115451830Y-82519896D01*
X114678790Y-81746856D01*
X113905750Y-82519896D01*
X85045550Y-82519896D01*
X85045550Y-81919821D01*
X109005760Y-81919821D01*
X109103534Y-82094434D01*
X109318907Y-82206237D01*
X109551953Y-82273875D01*
X109793716Y-82294748D01*
X110034906Y-82268055D01*
X110266254Y-82194820D01*
X110454066Y-82094434D01*
X110551840Y-81919821D01*
X109778800Y-81146781D01*
X109005760Y-81919821D01*
X85045550Y-81919821D01*
X85045550Y-80322188D01*
X87718501Y-80322188D01*
X87718501Y-80509814D01*
X87755105Y-80693835D01*
X87826906Y-80867179D01*
X87931146Y-81023185D01*
X88063817Y-81155856D01*
X88219823Y-81260096D01*
X88393167Y-81331897D01*
X88577188Y-81368501D01*
X88764814Y-81368501D01*
X88948835Y-81331897D01*
X89122179Y-81260096D01*
X89278185Y-81155856D01*
X89410856Y-81023185D01*
X89515096Y-80867179D01*
X89586897Y-80693835D01*
X89623501Y-80509814D01*
X89623501Y-80322188D01*
X90258501Y-80322188D01*
X90258501Y-80509814D01*
X90295105Y-80693835D01*
X90366906Y-80867179D01*
X90471146Y-81023185D01*
X90603817Y-81155856D01*
X90759823Y-81260096D01*
X90933167Y-81331897D01*
X91117188Y-81368501D01*
X91304814Y-81368501D01*
X91488835Y-81331897D01*
X91662179Y-81260096D01*
X91818185Y-81155856D01*
X91902147Y-81071894D01*
X108541030Y-81071894D01*
X108567723Y-81313084D01*
X108640958Y-81544432D01*
X108741344Y-81732244D01*
X108915957Y-81830018D01*
X109688997Y-81056978D01*
X109868603Y-81056978D01*
X110641643Y-81830018D01*
X110816256Y-81732244D01*
X110847545Y-81671969D01*
X113441020Y-81671969D01*
X113467713Y-81913159D01*
X113540948Y-82144507D01*
X113641334Y-82332319D01*
X113815947Y-82430093D01*
X114588987Y-81657053D01*
X114768593Y-81657053D01*
X115541633Y-82430093D01*
X115716246Y-82332319D01*
X115828049Y-82116946D01*
X115895687Y-81883900D01*
X115916560Y-81642137D01*
X115889867Y-81400947D01*
X115816632Y-81169599D01*
X115716246Y-80981787D01*
X115541633Y-80884013D01*
X114768593Y-81657053D01*
X114588987Y-81657053D01*
X113815947Y-80884013D01*
X113641334Y-80981787D01*
X113529531Y-81197160D01*
X113461893Y-81430206D01*
X113441020Y-81671969D01*
X110847545Y-81671969D01*
X110928059Y-81516871D01*
X110995697Y-81283825D01*
X111016570Y-81042062D01*
X110989877Y-80800872D01*
X110987769Y-80794210D01*
X113905750Y-80794210D01*
X114678790Y-81567250D01*
X115451830Y-80794210D01*
X115354056Y-80619597D01*
X115138683Y-80507794D01*
X114905637Y-80440156D01*
X114663874Y-80419283D01*
X114422684Y-80445976D01*
X114191336Y-80519211D01*
X114003524Y-80619597D01*
X113905750Y-80794210D01*
X110987769Y-80794210D01*
X110916642Y-80569524D01*
X110816256Y-80381712D01*
X110641643Y-80283938D01*
X109868603Y-81056978D01*
X109688997Y-81056978D01*
X108915957Y-80283938D01*
X108741344Y-80381712D01*
X108629541Y-80597085D01*
X108561903Y-80830131D01*
X108541030Y-81071894D01*
X91902147Y-81071894D01*
X91950856Y-81023185D01*
X92055096Y-80867179D01*
X92126897Y-80693835D01*
X92163501Y-80509814D01*
X92163501Y-80322188D01*
X92138030Y-80194135D01*
X109005760Y-80194135D01*
X109778800Y-80967175D01*
X110551840Y-80194135D01*
X110454066Y-80019522D01*
X110238693Y-79907719D01*
X110005647Y-79840081D01*
X109763884Y-79819208D01*
X109522694Y-79845901D01*
X109291346Y-79919136D01*
X109103534Y-80019522D01*
X109005760Y-80194135D01*
X92138030Y-80194135D01*
X92126897Y-80138167D01*
X92055096Y-79964823D01*
X91950856Y-79808817D01*
X91818185Y-79676146D01*
X91662179Y-79571906D01*
X91488835Y-79500105D01*
X91304814Y-79463501D01*
X91117188Y-79463501D01*
X90933167Y-79500105D01*
X90759823Y-79571906D01*
X90603817Y-79676146D01*
X90471146Y-79808817D01*
X90366906Y-79964823D01*
X90295105Y-80138167D01*
X90258501Y-80322188D01*
X89623501Y-80322188D01*
X89586897Y-80138167D01*
X89515096Y-79964823D01*
X89410856Y-79808817D01*
X89278185Y-79676146D01*
X89122179Y-79571906D01*
X88948835Y-79500105D01*
X88764814Y-79463501D01*
X88577188Y-79463501D01*
X88393167Y-79500105D01*
X88219823Y-79571906D01*
X88063817Y-79676146D01*
X87931146Y-79808817D01*
X87826906Y-79964823D01*
X87755105Y-80138167D01*
X87718501Y-80322188D01*
X85045550Y-80322188D01*
X85045550Y-78630372D01*
X88006433Y-78630372D01*
X88085882Y-78789380D01*
X88275316Y-78885981D01*
X88479956Y-78943769D01*
X88691938Y-78960523D01*
X88903116Y-78935599D01*
X89105373Y-78869956D01*
X89256120Y-78789380D01*
X89335569Y-78630372D01*
X90546433Y-78630372D01*
X90625882Y-78789380D01*
X90815316Y-78885981D01*
X91019956Y-78943769D01*
X91231938Y-78960523D01*
X91443116Y-78935599D01*
X91645373Y-78869956D01*
X91796120Y-78789380D01*
X91875569Y-78630372D01*
X91211001Y-77965804D01*
X90546433Y-78630372D01*
X89335569Y-78630372D01*
X88671001Y-77965804D01*
X88006433Y-78630372D01*
X85045550Y-78630372D01*
X85045550Y-77896938D01*
X87586479Y-77896938D01*
X87611403Y-78108116D01*
X87677046Y-78310373D01*
X87757622Y-78461120D01*
X87916630Y-78540569D01*
X88581198Y-77876001D01*
X88760804Y-77876001D01*
X89425372Y-78540569D01*
X89584380Y-78461120D01*
X89680981Y-78271686D01*
X89738769Y-78067046D01*
X89752213Y-77896938D01*
X90126479Y-77896938D01*
X90151403Y-78108116D01*
X90217046Y-78310373D01*
X90297622Y-78461120D01*
X90456630Y-78540569D01*
X91121198Y-77876001D01*
X91300804Y-77876001D01*
X91965372Y-78540569D01*
X92124380Y-78461120D01*
X92220981Y-78271686D01*
X92278769Y-78067046D01*
X92295523Y-77855064D01*
X92270599Y-77643886D01*
X92204956Y-77441629D01*
X92124380Y-77290882D01*
X91965372Y-77211433D01*
X91300804Y-77876001D01*
X91121198Y-77876001D01*
X90456630Y-77211433D01*
X90297622Y-77290882D01*
X90201021Y-77480316D01*
X90143233Y-77684956D01*
X90126479Y-77896938D01*
X89752213Y-77896938D01*
X89755523Y-77855064D01*
X89730599Y-77643886D01*
X89664956Y-77441629D01*
X89584380Y-77290882D01*
X89425372Y-77211433D01*
X88760804Y-77876001D01*
X88581198Y-77876001D01*
X87916630Y-77211433D01*
X87757622Y-77290882D01*
X87661021Y-77480316D01*
X87603233Y-77684956D01*
X87586479Y-77896938D01*
X85045550Y-77896938D01*
X85045550Y-77121630D01*
X88006433Y-77121630D01*
X88671001Y-77786198D01*
X89335569Y-77121630D01*
X90546433Y-77121630D01*
X91211001Y-77786198D01*
X91875569Y-77121630D01*
X91796120Y-76962622D01*
X91606686Y-76866021D01*
X91402046Y-76808233D01*
X91190064Y-76791479D01*
X90978886Y-76816403D01*
X90776629Y-76882046D01*
X90625882Y-76962622D01*
X90546433Y-77121630D01*
X89335569Y-77121630D01*
X89256120Y-76962622D01*
X89066686Y-76866021D01*
X88862046Y-76808233D01*
X88650064Y-76791479D01*
X88438886Y-76816403D01*
X88236629Y-76882046D01*
X88085882Y-76962622D01*
X88006433Y-77121630D01*
X85045550Y-77121630D01*
X85045550Y-75242188D01*
X87718501Y-75242188D01*
X87718501Y-75429814D01*
X87755105Y-75613835D01*
X87826906Y-75787179D01*
X87931146Y-75943185D01*
X88063817Y-76075856D01*
X88219823Y-76180096D01*
X88393167Y-76251897D01*
X88577188Y-76288501D01*
X88764814Y-76288501D01*
X88948835Y-76251897D01*
X89122179Y-76180096D01*
X89278185Y-76075856D01*
X89410856Y-75943185D01*
X89515096Y-75787179D01*
X89586897Y-75613835D01*
X89623501Y-75429814D01*
X89623501Y-75242188D01*
X90258501Y-75242188D01*
X90258501Y-75429814D01*
X90295105Y-75613835D01*
X90366906Y-75787179D01*
X90471146Y-75943185D01*
X90603817Y-76075856D01*
X90759823Y-76180096D01*
X90933167Y-76251897D01*
X91117188Y-76288501D01*
X91304814Y-76288501D01*
X91488835Y-76251897D01*
X91662179Y-76180096D01*
X91818185Y-76075856D01*
X91950856Y-75943185D01*
X92055096Y-75787179D01*
X92126897Y-75613835D01*
X92163501Y-75429814D01*
X92163501Y-75242188D01*
X92126897Y-75058167D01*
X92055096Y-74884823D01*
X91950856Y-74728817D01*
X91818185Y-74596146D01*
X91662179Y-74491906D01*
X91488835Y-74420105D01*
X91304814Y-74383501D01*
X91117188Y-74383501D01*
X90933167Y-74420105D01*
X90759823Y-74491906D01*
X90603817Y-74596146D01*
X90471146Y-74728817D01*
X90366906Y-74884823D01*
X90295105Y-75058167D01*
X90258501Y-75242188D01*
X89623501Y-75242188D01*
X89586897Y-75058167D01*
X89515096Y-74884823D01*
X89410856Y-74728817D01*
X89278185Y-74596146D01*
X89122179Y-74491906D01*
X88948835Y-74420105D01*
X88764814Y-74383501D01*
X88577188Y-74383501D01*
X88393167Y-74420105D01*
X88219823Y-74491906D01*
X88063817Y-74596146D01*
X87931146Y-74728817D01*
X87826906Y-74884823D01*
X87755105Y-75058167D01*
X87718501Y-75242188D01*
X85045550Y-75242188D01*
X85045550Y-72702188D01*
X87718501Y-72702188D01*
X87718501Y-72889814D01*
X87755105Y-73073835D01*
X87826906Y-73247179D01*
X87931146Y-73403185D01*
X88063817Y-73535856D01*
X88219823Y-73640096D01*
X88393167Y-73711897D01*
X88577188Y-73748501D01*
X88764814Y-73748501D01*
X88948835Y-73711897D01*
X89122179Y-73640096D01*
X89278185Y-73535856D01*
X89410856Y-73403185D01*
X89515096Y-73247179D01*
X89586897Y-73073835D01*
X89623501Y-72889814D01*
X89623501Y-72702188D01*
X90258501Y-72702188D01*
X90258501Y-72889814D01*
X90295105Y-73073835D01*
X90366906Y-73247179D01*
X90471146Y-73403185D01*
X90603817Y-73535856D01*
X90759823Y-73640096D01*
X90933167Y-73711897D01*
X91117188Y-73748501D01*
X91304814Y-73748501D01*
X91488835Y-73711897D01*
X91662179Y-73640096D01*
X91818185Y-73535856D01*
X91836521Y-73517520D01*
X96109500Y-73517520D01*
X96109500Y-73722480D01*
X96149485Y-73923503D01*
X96227920Y-74112862D01*
X96341791Y-74283280D01*
X96486720Y-74428209D01*
X96657138Y-74542080D01*
X96846497Y-74620515D01*
X97047520Y-74660500D01*
X97252480Y-74660500D01*
X97453503Y-74620515D01*
X97642862Y-74542080D01*
X97813280Y-74428209D01*
X97958209Y-74283280D01*
X98072080Y-74112862D01*
X98150515Y-73923503D01*
X98190500Y-73722480D01*
X98190500Y-73517520D01*
X98649500Y-73517520D01*
X98649500Y-73722480D01*
X98689485Y-73923503D01*
X98767920Y-74112862D01*
X98881791Y-74283280D01*
X99026720Y-74428209D01*
X99197138Y-74542080D01*
X99386497Y-74620515D01*
X99587520Y-74660500D01*
X99792480Y-74660500D01*
X99993503Y-74620515D01*
X100182862Y-74542080D01*
X100353280Y-74428209D01*
X100498209Y-74283280D01*
X100612080Y-74112862D01*
X100690515Y-73923503D01*
X100730500Y-73722480D01*
X100730500Y-73517520D01*
X100690515Y-73316497D01*
X100612080Y-73127138D01*
X100498209Y-72956720D01*
X100353280Y-72811791D01*
X100182862Y-72697920D01*
X99993503Y-72619485D01*
X99792480Y-72579500D01*
X99587520Y-72579500D01*
X99386497Y-72619485D01*
X99197138Y-72697920D01*
X99026720Y-72811791D01*
X98881791Y-72956720D01*
X98767920Y-73127138D01*
X98689485Y-73316497D01*
X98649500Y-73517520D01*
X98190500Y-73517520D01*
X98150515Y-73316497D01*
X98072080Y-73127138D01*
X97958209Y-72956720D01*
X97813280Y-72811791D01*
X97642862Y-72697920D01*
X97453503Y-72619485D01*
X97252480Y-72579500D01*
X97047520Y-72579500D01*
X96846497Y-72619485D01*
X96657138Y-72697920D01*
X96486720Y-72811791D01*
X96341791Y-72956720D01*
X96227920Y-73127138D01*
X96149485Y-73316497D01*
X96109500Y-73517520D01*
X91836521Y-73517520D01*
X91950856Y-73403185D01*
X92055096Y-73247179D01*
X92126897Y-73073835D01*
X92163501Y-72889814D01*
X92163501Y-72702188D01*
X92126897Y-72518167D01*
X92055096Y-72344823D01*
X91950856Y-72188817D01*
X91818185Y-72056146D01*
X91662179Y-71951906D01*
X91488835Y-71880105D01*
X91304814Y-71843501D01*
X91117188Y-71843501D01*
X90933167Y-71880105D01*
X90759823Y-71951906D01*
X90603817Y-72056146D01*
X90471146Y-72188817D01*
X90366906Y-72344823D01*
X90295105Y-72518167D01*
X90258501Y-72702188D01*
X89623501Y-72702188D01*
X89586897Y-72518167D01*
X89515096Y-72344823D01*
X89410856Y-72188817D01*
X89278185Y-72056146D01*
X89122179Y-71951906D01*
X88948835Y-71880105D01*
X88764814Y-71843501D01*
X88577188Y-71843501D01*
X88393167Y-71880105D01*
X88219823Y-71951906D01*
X88063817Y-72056146D01*
X87931146Y-72188817D01*
X87826906Y-72344823D01*
X87755105Y-72518167D01*
X87718501Y-72702188D01*
X85045550Y-72702188D01*
X85045550Y-70162188D01*
X87718501Y-70162188D01*
X87718501Y-70349814D01*
X87755105Y-70533835D01*
X87826906Y-70707179D01*
X87931146Y-70863185D01*
X88063817Y-70995856D01*
X88219823Y-71100096D01*
X88393167Y-71171897D01*
X88577188Y-71208501D01*
X88764814Y-71208501D01*
X88948835Y-71171897D01*
X89122179Y-71100096D01*
X89278185Y-70995856D01*
X89410856Y-70863185D01*
X89515096Y-70707179D01*
X89586897Y-70533835D01*
X89623501Y-70349814D01*
X89623501Y-70162188D01*
X90258501Y-70162188D01*
X90258501Y-70349814D01*
X90295105Y-70533835D01*
X90366906Y-70707179D01*
X90471146Y-70863185D01*
X90603817Y-70995856D01*
X90759823Y-71100096D01*
X90933167Y-71171897D01*
X91117188Y-71208501D01*
X91304814Y-71208501D01*
X91488835Y-71171897D01*
X91662179Y-71100096D01*
X91818185Y-70995856D01*
X91836521Y-70977520D01*
X96109500Y-70977520D01*
X96109500Y-71182480D01*
X96149485Y-71383503D01*
X96227920Y-71572862D01*
X96341791Y-71743280D01*
X96486720Y-71888209D01*
X96657138Y-72002080D01*
X96846497Y-72080515D01*
X97047520Y-72120500D01*
X97252480Y-72120500D01*
X97453503Y-72080515D01*
X97642862Y-72002080D01*
X97813280Y-71888209D01*
X97958209Y-71743280D01*
X98072080Y-71572862D01*
X98150515Y-71383503D01*
X98190500Y-71182480D01*
X98190500Y-70977520D01*
X98649500Y-70977520D01*
X98649500Y-71182480D01*
X98689485Y-71383503D01*
X98767920Y-71572862D01*
X98881791Y-71743280D01*
X99026720Y-71888209D01*
X99197138Y-72002080D01*
X99386497Y-72080515D01*
X99587520Y-72120500D01*
X99792480Y-72120500D01*
X99993503Y-72080515D01*
X100182862Y-72002080D01*
X100353280Y-71888209D01*
X100498209Y-71743280D01*
X100559408Y-71651690D01*
X110059500Y-71651690D01*
X110059500Y-71748310D01*
X110078350Y-71843073D01*
X110115325Y-71932339D01*
X110169004Y-72012675D01*
X110237325Y-72080996D01*
X110317661Y-72134675D01*
X110406927Y-72171650D01*
X110501690Y-72190500D01*
X110598310Y-72190500D01*
X110693073Y-72171650D01*
X110782339Y-72134675D01*
X110862675Y-72080996D01*
X110930996Y-72012675D01*
X110984675Y-71932339D01*
X111021650Y-71843073D01*
X111040500Y-71748310D01*
X111040500Y-71651690D01*
X111021650Y-71556927D01*
X110984675Y-71467661D01*
X110930996Y-71387325D01*
X110862675Y-71319004D01*
X110782339Y-71265325D01*
X110693073Y-71228350D01*
X110598310Y-71209500D01*
X110501690Y-71209500D01*
X110406927Y-71228350D01*
X110317661Y-71265325D01*
X110237325Y-71319004D01*
X110169004Y-71387325D01*
X110115325Y-71467661D01*
X110078350Y-71556927D01*
X110059500Y-71651690D01*
X100559408Y-71651690D01*
X100612080Y-71572862D01*
X100690515Y-71383503D01*
X100730500Y-71182480D01*
X100730500Y-70977520D01*
X100690515Y-70776497D01*
X100612080Y-70587138D01*
X100498209Y-70416720D01*
X100353280Y-70271791D01*
X100182862Y-70157920D01*
X99993503Y-70079485D01*
X99792480Y-70039500D01*
X99587520Y-70039500D01*
X99386497Y-70079485D01*
X99197138Y-70157920D01*
X99026720Y-70271791D01*
X98881791Y-70416720D01*
X98767920Y-70587138D01*
X98689485Y-70776497D01*
X98649500Y-70977520D01*
X98190500Y-70977520D01*
X98150515Y-70776497D01*
X98072080Y-70587138D01*
X97958209Y-70416720D01*
X97813280Y-70271791D01*
X97642862Y-70157920D01*
X97453503Y-70079485D01*
X97252480Y-70039500D01*
X97047520Y-70039500D01*
X96846497Y-70079485D01*
X96657138Y-70157920D01*
X96486720Y-70271791D01*
X96341791Y-70416720D01*
X96227920Y-70587138D01*
X96149485Y-70776497D01*
X96109500Y-70977520D01*
X91836521Y-70977520D01*
X91950856Y-70863185D01*
X92055096Y-70707179D01*
X92126897Y-70533835D01*
X92163501Y-70349814D01*
X92163501Y-70162188D01*
X92126897Y-69978167D01*
X92055096Y-69804823D01*
X91950856Y-69648817D01*
X91818185Y-69516146D01*
X91662179Y-69411906D01*
X91488835Y-69340105D01*
X91304814Y-69303501D01*
X91117188Y-69303501D01*
X90933167Y-69340105D01*
X90759823Y-69411906D01*
X90603817Y-69516146D01*
X90471146Y-69648817D01*
X90366906Y-69804823D01*
X90295105Y-69978167D01*
X90258501Y-70162188D01*
X89623501Y-70162188D01*
X89586897Y-69978167D01*
X89515096Y-69804823D01*
X89410856Y-69648817D01*
X89278185Y-69516146D01*
X89122179Y-69411906D01*
X88948835Y-69340105D01*
X88764814Y-69303501D01*
X88577188Y-69303501D01*
X88393167Y-69340105D01*
X88219823Y-69411906D01*
X88063817Y-69516146D01*
X87931146Y-69648817D01*
X87826906Y-69804823D01*
X87755105Y-69978167D01*
X87718501Y-70162188D01*
X85045550Y-70162188D01*
X85045550Y-68785085D01*
X96008514Y-68785085D01*
X96064724Y-68970396D01*
X96169543Y-69173853D01*
X96312041Y-69352951D01*
X96486741Y-69500808D01*
X96686930Y-69611742D01*
X96904914Y-69681489D01*
X97086500Y-69626400D01*
X97086500Y-68603500D01*
X97213500Y-68603500D01*
X97213500Y-69626400D01*
X97395086Y-69681489D01*
X97613070Y-69611742D01*
X97813259Y-69500808D01*
X97987959Y-69352951D01*
X98130457Y-69173853D01*
X98235276Y-68970396D01*
X98291486Y-68785085D01*
X98236271Y-68603500D01*
X97213500Y-68603500D01*
X97086500Y-68603500D01*
X96063729Y-68603500D01*
X96008514Y-68785085D01*
X85045550Y-68785085D01*
X85045550Y-67622188D01*
X87718501Y-67622188D01*
X87718501Y-67809814D01*
X87755105Y-67993835D01*
X87826906Y-68167179D01*
X87931146Y-68323185D01*
X88063817Y-68455856D01*
X88219823Y-68560096D01*
X88393167Y-68631897D01*
X88577188Y-68668501D01*
X88764814Y-68668501D01*
X88948835Y-68631897D01*
X89122179Y-68560096D01*
X89278185Y-68455856D01*
X89410856Y-68323185D01*
X89515096Y-68167179D01*
X89586897Y-67993835D01*
X89623501Y-67809814D01*
X89623501Y-67622188D01*
X89586897Y-67438167D01*
X89515096Y-67264823D01*
X89410856Y-67108817D01*
X89278185Y-66976146D01*
X89245043Y-66954001D01*
X90257580Y-66954001D01*
X90257580Y-68478001D01*
X90261258Y-68515345D01*
X90272151Y-68551255D01*
X90289840Y-68584349D01*
X90313646Y-68613356D01*
X90342653Y-68637162D01*
X90375747Y-68654851D01*
X90411657Y-68665744D01*
X90449001Y-68669422D01*
X91973001Y-68669422D01*
X92010345Y-68665744D01*
X92046255Y-68654851D01*
X92079349Y-68637162D01*
X92108356Y-68613356D01*
X92132162Y-68584349D01*
X92149851Y-68551255D01*
X92160744Y-68515345D01*
X92164422Y-68478001D01*
X92164422Y-68294915D01*
X96008514Y-68294915D01*
X96063729Y-68476500D01*
X97086500Y-68476500D01*
X97086500Y-67453600D01*
X97213500Y-67453600D01*
X97213500Y-68476500D01*
X98236271Y-68476500D01*
X98248123Y-68437520D01*
X98649500Y-68437520D01*
X98649500Y-68642480D01*
X98689485Y-68843503D01*
X98767920Y-69032862D01*
X98881791Y-69203280D01*
X99026720Y-69348209D01*
X99197138Y-69462080D01*
X99386497Y-69540515D01*
X99587520Y-69580500D01*
X99792480Y-69580500D01*
X99993503Y-69540515D01*
X100182862Y-69462080D01*
X100353280Y-69348209D01*
X100498209Y-69203280D01*
X100532680Y-69151690D01*
X110059500Y-69151690D01*
X110059500Y-69248310D01*
X110078350Y-69343073D01*
X110115325Y-69432339D01*
X110169004Y-69512675D01*
X110237325Y-69580996D01*
X110317661Y-69634675D01*
X110406927Y-69671650D01*
X110501690Y-69690500D01*
X110598310Y-69690500D01*
X110693073Y-69671650D01*
X110782339Y-69634675D01*
X110862675Y-69580996D01*
X110930996Y-69512675D01*
X110984675Y-69432339D01*
X111021650Y-69343073D01*
X111040500Y-69248310D01*
X111040500Y-69151690D01*
X111021650Y-69056927D01*
X110984675Y-68967661D01*
X110930996Y-68887325D01*
X110862675Y-68819004D01*
X110782339Y-68765325D01*
X110693073Y-68728350D01*
X110598310Y-68709500D01*
X110501690Y-68709500D01*
X110406927Y-68728350D01*
X110317661Y-68765325D01*
X110237325Y-68819004D01*
X110169004Y-68887325D01*
X110115325Y-68967661D01*
X110078350Y-69056927D01*
X110059500Y-69151690D01*
X100532680Y-69151690D01*
X100612080Y-69032862D01*
X100690515Y-68843503D01*
X100730500Y-68642480D01*
X100730500Y-68437520D01*
X100690515Y-68236497D01*
X100612080Y-68047138D01*
X100498209Y-67876720D01*
X100353280Y-67731791D01*
X100182862Y-67617920D01*
X99993503Y-67539485D01*
X99792480Y-67499500D01*
X99587520Y-67499500D01*
X99386497Y-67539485D01*
X99197138Y-67617920D01*
X99026720Y-67731791D01*
X98881791Y-67876720D01*
X98767920Y-68047138D01*
X98689485Y-68236497D01*
X98649500Y-68437520D01*
X98248123Y-68437520D01*
X98291486Y-68294915D01*
X98235276Y-68109604D01*
X98130457Y-67906147D01*
X97987959Y-67727049D01*
X97813259Y-67579192D01*
X97613070Y-67468258D01*
X97395086Y-67398511D01*
X97213500Y-67453600D01*
X97086500Y-67453600D01*
X96904914Y-67398511D01*
X96686930Y-67468258D01*
X96486741Y-67579192D01*
X96312041Y-67727049D01*
X96169543Y-67906147D01*
X96064724Y-68109604D01*
X96008514Y-68294915D01*
X92164422Y-68294915D01*
X92164422Y-67269863D01*
X109005760Y-67269863D01*
X109103534Y-67444476D01*
X109318907Y-67556279D01*
X109551953Y-67623917D01*
X109793716Y-67644790D01*
X110034906Y-67618097D01*
X110266254Y-67544862D01*
X110454066Y-67444476D01*
X110551840Y-67269863D01*
X109778800Y-66496823D01*
X109005760Y-67269863D01*
X92164422Y-67269863D01*
X92164422Y-66954001D01*
X92160744Y-66916657D01*
X92149851Y-66880747D01*
X92132162Y-66847653D01*
X92108356Y-66818646D01*
X92079349Y-66794840D01*
X92046255Y-66777151D01*
X92010345Y-66766258D01*
X91973001Y-66762580D01*
X90449001Y-66762580D01*
X90411657Y-66766258D01*
X90375747Y-66777151D01*
X90342653Y-66794840D01*
X90313646Y-66818646D01*
X90289840Y-66847653D01*
X90272151Y-66880747D01*
X90261258Y-66916657D01*
X90257580Y-66954001D01*
X89245043Y-66954001D01*
X89122179Y-66871906D01*
X88948835Y-66800105D01*
X88764814Y-66763501D01*
X88577188Y-66763501D01*
X88393167Y-66800105D01*
X88219823Y-66871906D01*
X88063817Y-66976146D01*
X87931146Y-67108817D01*
X87826906Y-67264823D01*
X87755105Y-67438167D01*
X87718501Y-67622188D01*
X85045550Y-67622188D01*
X85045550Y-65150000D01*
X96108579Y-65150000D01*
X96108579Y-66850000D01*
X96112257Y-66887344D01*
X96123150Y-66923254D01*
X96140839Y-66956348D01*
X96164645Y-66985355D01*
X96193652Y-67009161D01*
X96226746Y-67026850D01*
X96262656Y-67037743D01*
X96300000Y-67041421D01*
X98000000Y-67041421D01*
X98037344Y-67037743D01*
X98073254Y-67026850D01*
X98106348Y-67009161D01*
X98135355Y-66985355D01*
X98159161Y-66956348D01*
X98176850Y-66923254D01*
X98187743Y-66887344D01*
X98191421Y-66850000D01*
X98191421Y-65897520D01*
X98649500Y-65897520D01*
X98649500Y-66102480D01*
X98689485Y-66303503D01*
X98767920Y-66492862D01*
X98881791Y-66663280D01*
X99026720Y-66808209D01*
X99197138Y-66922080D01*
X99386497Y-67000515D01*
X99587520Y-67040500D01*
X99792480Y-67040500D01*
X99993503Y-67000515D01*
X100182862Y-66922080D01*
X100353280Y-66808209D01*
X100498209Y-66663280D01*
X100612080Y-66492862D01*
X100641458Y-66421936D01*
X108541030Y-66421936D01*
X108567723Y-66663126D01*
X108640958Y-66894474D01*
X108741344Y-67082286D01*
X108915957Y-67180060D01*
X109688997Y-66407020D01*
X109868603Y-66407020D01*
X110641643Y-67180060D01*
X110816256Y-67082286D01*
X110928059Y-66866913D01*
X110985271Y-66669788D01*
X113905750Y-66669788D01*
X114003524Y-66844401D01*
X114218897Y-66956204D01*
X114451943Y-67023842D01*
X114693706Y-67044715D01*
X114934896Y-67018022D01*
X115166244Y-66944787D01*
X115354056Y-66844401D01*
X115451830Y-66669788D01*
X114678790Y-65896748D01*
X113905750Y-66669788D01*
X110985271Y-66669788D01*
X110995697Y-66633867D01*
X111016570Y-66392104D01*
X110989877Y-66150914D01*
X110916642Y-65919566D01*
X110864419Y-65821861D01*
X113441020Y-65821861D01*
X113467713Y-66063051D01*
X113540948Y-66294399D01*
X113641334Y-66482211D01*
X113815947Y-66579985D01*
X114588987Y-65806945D01*
X114768593Y-65806945D01*
X115541633Y-66579985D01*
X115716246Y-66482211D01*
X115828049Y-66266838D01*
X115895687Y-66033792D01*
X115916560Y-65792029D01*
X115889867Y-65550839D01*
X115816632Y-65319491D01*
X115716246Y-65131679D01*
X115541633Y-65033905D01*
X114768593Y-65806945D01*
X114588987Y-65806945D01*
X113815947Y-65033905D01*
X113641334Y-65131679D01*
X113529531Y-65347052D01*
X113461893Y-65580098D01*
X113441020Y-65821861D01*
X110864419Y-65821861D01*
X110816256Y-65731754D01*
X110641643Y-65633980D01*
X109868603Y-66407020D01*
X109688997Y-66407020D01*
X108915957Y-65633980D01*
X108741344Y-65731754D01*
X108629541Y-65947127D01*
X108561903Y-66180173D01*
X108541030Y-66421936D01*
X100641458Y-66421936D01*
X100690515Y-66303503D01*
X100730500Y-66102480D01*
X100730500Y-65897520D01*
X100690515Y-65696497D01*
X100627423Y-65544177D01*
X109005760Y-65544177D01*
X109778800Y-66317217D01*
X110551840Y-65544177D01*
X110454066Y-65369564D01*
X110238693Y-65257761D01*
X110005647Y-65190123D01*
X109763884Y-65169250D01*
X109522694Y-65195943D01*
X109291346Y-65269178D01*
X109103534Y-65369564D01*
X109005760Y-65544177D01*
X100627423Y-65544177D01*
X100612080Y-65507138D01*
X100498209Y-65336720D01*
X100353280Y-65191791D01*
X100182862Y-65077920D01*
X99993503Y-64999485D01*
X99792480Y-64959500D01*
X99587520Y-64959500D01*
X99386497Y-64999485D01*
X99197138Y-65077920D01*
X99026720Y-65191791D01*
X98881791Y-65336720D01*
X98767920Y-65507138D01*
X98689485Y-65696497D01*
X98649500Y-65897520D01*
X98191421Y-65897520D01*
X98191421Y-65150000D01*
X98187743Y-65112656D01*
X98176850Y-65076746D01*
X98159161Y-65043652D01*
X98135355Y-65014645D01*
X98106348Y-64990839D01*
X98073254Y-64973150D01*
X98037344Y-64962257D01*
X98000000Y-64958579D01*
X96300000Y-64958579D01*
X96262656Y-64962257D01*
X96226746Y-64973150D01*
X96193652Y-64990839D01*
X96164645Y-65014645D01*
X96140839Y-65043652D01*
X96123150Y-65076746D01*
X96112257Y-65112656D01*
X96108579Y-65150000D01*
X85045550Y-65150000D01*
X85045550Y-64944102D01*
X113905750Y-64944102D01*
X114678790Y-65717142D01*
X115451830Y-64944102D01*
X115354056Y-64769489D01*
X115138683Y-64657686D01*
X114905637Y-64590048D01*
X114663874Y-64569175D01*
X114422684Y-64595868D01*
X114191336Y-64669103D01*
X114003524Y-64769489D01*
X113905750Y-64944102D01*
X85045550Y-64944102D01*
X85045550Y-64090543D01*
X116490450Y-64089556D01*
X116490451Y-83990457D01*
%TA.AperFunction,Conductor*%
D17*
G36*
X116490451Y-83990457D02*
G01*
X85045550Y-83991444D01*
X85045550Y-82519896D01*
X113905750Y-82519896D01*
X114003524Y-82694509D01*
X114218897Y-82806312D01*
X114451943Y-82873950D01*
X114693706Y-82894823D01*
X114934896Y-82868130D01*
X115166244Y-82794895D01*
X115354056Y-82694509D01*
X115451830Y-82519896D01*
X114678790Y-81746856D01*
X113905750Y-82519896D01*
X85045550Y-82519896D01*
X85045550Y-81919821D01*
X109005760Y-81919821D01*
X109103534Y-82094434D01*
X109318907Y-82206237D01*
X109551953Y-82273875D01*
X109793716Y-82294748D01*
X110034906Y-82268055D01*
X110266254Y-82194820D01*
X110454066Y-82094434D01*
X110551840Y-81919821D01*
X109778800Y-81146781D01*
X109005760Y-81919821D01*
X85045550Y-81919821D01*
X85045550Y-80322188D01*
X87718501Y-80322188D01*
X87718501Y-80509814D01*
X87755105Y-80693835D01*
X87826906Y-80867179D01*
X87931146Y-81023185D01*
X88063817Y-81155856D01*
X88219823Y-81260096D01*
X88393167Y-81331897D01*
X88577188Y-81368501D01*
X88764814Y-81368501D01*
X88948835Y-81331897D01*
X89122179Y-81260096D01*
X89278185Y-81155856D01*
X89410856Y-81023185D01*
X89515096Y-80867179D01*
X89586897Y-80693835D01*
X89623501Y-80509814D01*
X89623501Y-80322188D01*
X90258501Y-80322188D01*
X90258501Y-80509814D01*
X90295105Y-80693835D01*
X90366906Y-80867179D01*
X90471146Y-81023185D01*
X90603817Y-81155856D01*
X90759823Y-81260096D01*
X90933167Y-81331897D01*
X91117188Y-81368501D01*
X91304814Y-81368501D01*
X91488835Y-81331897D01*
X91662179Y-81260096D01*
X91818185Y-81155856D01*
X91902147Y-81071894D01*
X108541030Y-81071894D01*
X108567723Y-81313084D01*
X108640958Y-81544432D01*
X108741344Y-81732244D01*
X108915957Y-81830018D01*
X109688997Y-81056978D01*
X109868603Y-81056978D01*
X110641643Y-81830018D01*
X110816256Y-81732244D01*
X110847545Y-81671969D01*
X113441020Y-81671969D01*
X113467713Y-81913159D01*
X113540948Y-82144507D01*
X113641334Y-82332319D01*
X113815947Y-82430093D01*
X114588987Y-81657053D01*
X114768593Y-81657053D01*
X115541633Y-82430093D01*
X115716246Y-82332319D01*
X115828049Y-82116946D01*
X115895687Y-81883900D01*
X115916560Y-81642137D01*
X115889867Y-81400947D01*
X115816632Y-81169599D01*
X115716246Y-80981787D01*
X115541633Y-80884013D01*
X114768593Y-81657053D01*
X114588987Y-81657053D01*
X113815947Y-80884013D01*
X113641334Y-80981787D01*
X113529531Y-81197160D01*
X113461893Y-81430206D01*
X113441020Y-81671969D01*
X110847545Y-81671969D01*
X110928059Y-81516871D01*
X110995697Y-81283825D01*
X111016570Y-81042062D01*
X110989877Y-80800872D01*
X110987769Y-80794210D01*
X113905750Y-80794210D01*
X114678790Y-81567250D01*
X115451830Y-80794210D01*
X115354056Y-80619597D01*
X115138683Y-80507794D01*
X114905637Y-80440156D01*
X114663874Y-80419283D01*
X114422684Y-80445976D01*
X114191336Y-80519211D01*
X114003524Y-80619597D01*
X113905750Y-80794210D01*
X110987769Y-80794210D01*
X110916642Y-80569524D01*
X110816256Y-80381712D01*
X110641643Y-80283938D01*
X109868603Y-81056978D01*
X109688997Y-81056978D01*
X108915957Y-80283938D01*
X108741344Y-80381712D01*
X108629541Y-80597085D01*
X108561903Y-80830131D01*
X108541030Y-81071894D01*
X91902147Y-81071894D01*
X91950856Y-81023185D01*
X92055096Y-80867179D01*
X92126897Y-80693835D01*
X92163501Y-80509814D01*
X92163501Y-80322188D01*
X92138030Y-80194135D01*
X109005760Y-80194135D01*
X109778800Y-80967175D01*
X110551840Y-80194135D01*
X110454066Y-80019522D01*
X110238693Y-79907719D01*
X110005647Y-79840081D01*
X109763884Y-79819208D01*
X109522694Y-79845901D01*
X109291346Y-79919136D01*
X109103534Y-80019522D01*
X109005760Y-80194135D01*
X92138030Y-80194135D01*
X92126897Y-80138167D01*
X92055096Y-79964823D01*
X91950856Y-79808817D01*
X91818185Y-79676146D01*
X91662179Y-79571906D01*
X91488835Y-79500105D01*
X91304814Y-79463501D01*
X91117188Y-79463501D01*
X90933167Y-79500105D01*
X90759823Y-79571906D01*
X90603817Y-79676146D01*
X90471146Y-79808817D01*
X90366906Y-79964823D01*
X90295105Y-80138167D01*
X90258501Y-80322188D01*
X89623501Y-80322188D01*
X89586897Y-80138167D01*
X89515096Y-79964823D01*
X89410856Y-79808817D01*
X89278185Y-79676146D01*
X89122179Y-79571906D01*
X88948835Y-79500105D01*
X88764814Y-79463501D01*
X88577188Y-79463501D01*
X88393167Y-79500105D01*
X88219823Y-79571906D01*
X88063817Y-79676146D01*
X87931146Y-79808817D01*
X87826906Y-79964823D01*
X87755105Y-80138167D01*
X87718501Y-80322188D01*
X85045550Y-80322188D01*
X85045550Y-78630372D01*
X88006433Y-78630372D01*
X88085882Y-78789380D01*
X88275316Y-78885981D01*
X88479956Y-78943769D01*
X88691938Y-78960523D01*
X88903116Y-78935599D01*
X89105373Y-78869956D01*
X89256120Y-78789380D01*
X89335569Y-78630372D01*
X90546433Y-78630372D01*
X90625882Y-78789380D01*
X90815316Y-78885981D01*
X91019956Y-78943769D01*
X91231938Y-78960523D01*
X91443116Y-78935599D01*
X91645373Y-78869956D01*
X91796120Y-78789380D01*
X91875569Y-78630372D01*
X91211001Y-77965804D01*
X90546433Y-78630372D01*
X89335569Y-78630372D01*
X88671001Y-77965804D01*
X88006433Y-78630372D01*
X85045550Y-78630372D01*
X85045550Y-77896938D01*
X87586479Y-77896938D01*
X87611403Y-78108116D01*
X87677046Y-78310373D01*
X87757622Y-78461120D01*
X87916630Y-78540569D01*
X88581198Y-77876001D01*
X88760804Y-77876001D01*
X89425372Y-78540569D01*
X89584380Y-78461120D01*
X89680981Y-78271686D01*
X89738769Y-78067046D01*
X89752213Y-77896938D01*
X90126479Y-77896938D01*
X90151403Y-78108116D01*
X90217046Y-78310373D01*
X90297622Y-78461120D01*
X90456630Y-78540569D01*
X91121198Y-77876001D01*
X91300804Y-77876001D01*
X91965372Y-78540569D01*
X92124380Y-78461120D01*
X92220981Y-78271686D01*
X92278769Y-78067046D01*
X92295523Y-77855064D01*
X92270599Y-77643886D01*
X92204956Y-77441629D01*
X92124380Y-77290882D01*
X91965372Y-77211433D01*
X91300804Y-77876001D01*
X91121198Y-77876001D01*
X90456630Y-77211433D01*
X90297622Y-77290882D01*
X90201021Y-77480316D01*
X90143233Y-77684956D01*
X90126479Y-77896938D01*
X89752213Y-77896938D01*
X89755523Y-77855064D01*
X89730599Y-77643886D01*
X89664956Y-77441629D01*
X89584380Y-77290882D01*
X89425372Y-77211433D01*
X88760804Y-77876001D01*
X88581198Y-77876001D01*
X87916630Y-77211433D01*
X87757622Y-77290882D01*
X87661021Y-77480316D01*
X87603233Y-77684956D01*
X87586479Y-77896938D01*
X85045550Y-77896938D01*
X85045550Y-77121630D01*
X88006433Y-77121630D01*
X88671001Y-77786198D01*
X89335569Y-77121630D01*
X90546433Y-77121630D01*
X91211001Y-77786198D01*
X91875569Y-77121630D01*
X91796120Y-76962622D01*
X91606686Y-76866021D01*
X91402046Y-76808233D01*
X91190064Y-76791479D01*
X90978886Y-76816403D01*
X90776629Y-76882046D01*
X90625882Y-76962622D01*
X90546433Y-77121630D01*
X89335569Y-77121630D01*
X89256120Y-76962622D01*
X89066686Y-76866021D01*
X88862046Y-76808233D01*
X88650064Y-76791479D01*
X88438886Y-76816403D01*
X88236629Y-76882046D01*
X88085882Y-76962622D01*
X88006433Y-77121630D01*
X85045550Y-77121630D01*
X85045550Y-75242188D01*
X87718501Y-75242188D01*
X87718501Y-75429814D01*
X87755105Y-75613835D01*
X87826906Y-75787179D01*
X87931146Y-75943185D01*
X88063817Y-76075856D01*
X88219823Y-76180096D01*
X88393167Y-76251897D01*
X88577188Y-76288501D01*
X88764814Y-76288501D01*
X88948835Y-76251897D01*
X89122179Y-76180096D01*
X89278185Y-76075856D01*
X89410856Y-75943185D01*
X89515096Y-75787179D01*
X89586897Y-75613835D01*
X89623501Y-75429814D01*
X89623501Y-75242188D01*
X90258501Y-75242188D01*
X90258501Y-75429814D01*
X90295105Y-75613835D01*
X90366906Y-75787179D01*
X90471146Y-75943185D01*
X90603817Y-76075856D01*
X90759823Y-76180096D01*
X90933167Y-76251897D01*
X91117188Y-76288501D01*
X91304814Y-76288501D01*
X91488835Y-76251897D01*
X91662179Y-76180096D01*
X91818185Y-76075856D01*
X91950856Y-75943185D01*
X92055096Y-75787179D01*
X92126897Y-75613835D01*
X92163501Y-75429814D01*
X92163501Y-75242188D01*
X92126897Y-75058167D01*
X92055096Y-74884823D01*
X91950856Y-74728817D01*
X91818185Y-74596146D01*
X91662179Y-74491906D01*
X91488835Y-74420105D01*
X91304814Y-74383501D01*
X91117188Y-74383501D01*
X90933167Y-74420105D01*
X90759823Y-74491906D01*
X90603817Y-74596146D01*
X90471146Y-74728817D01*
X90366906Y-74884823D01*
X90295105Y-75058167D01*
X90258501Y-75242188D01*
X89623501Y-75242188D01*
X89586897Y-75058167D01*
X89515096Y-74884823D01*
X89410856Y-74728817D01*
X89278185Y-74596146D01*
X89122179Y-74491906D01*
X88948835Y-74420105D01*
X88764814Y-74383501D01*
X88577188Y-74383501D01*
X88393167Y-74420105D01*
X88219823Y-74491906D01*
X88063817Y-74596146D01*
X87931146Y-74728817D01*
X87826906Y-74884823D01*
X87755105Y-75058167D01*
X87718501Y-75242188D01*
X85045550Y-75242188D01*
X85045550Y-72702188D01*
X87718501Y-72702188D01*
X87718501Y-72889814D01*
X87755105Y-73073835D01*
X87826906Y-73247179D01*
X87931146Y-73403185D01*
X88063817Y-73535856D01*
X88219823Y-73640096D01*
X88393167Y-73711897D01*
X88577188Y-73748501D01*
X88764814Y-73748501D01*
X88948835Y-73711897D01*
X89122179Y-73640096D01*
X89278185Y-73535856D01*
X89410856Y-73403185D01*
X89515096Y-73247179D01*
X89586897Y-73073835D01*
X89623501Y-72889814D01*
X89623501Y-72702188D01*
X90258501Y-72702188D01*
X90258501Y-72889814D01*
X90295105Y-73073835D01*
X90366906Y-73247179D01*
X90471146Y-73403185D01*
X90603817Y-73535856D01*
X90759823Y-73640096D01*
X90933167Y-73711897D01*
X91117188Y-73748501D01*
X91304814Y-73748501D01*
X91488835Y-73711897D01*
X91662179Y-73640096D01*
X91818185Y-73535856D01*
X91836521Y-73517520D01*
X96109500Y-73517520D01*
X96109500Y-73722480D01*
X96149485Y-73923503D01*
X96227920Y-74112862D01*
X96341791Y-74283280D01*
X96486720Y-74428209D01*
X96657138Y-74542080D01*
X96846497Y-74620515D01*
X97047520Y-74660500D01*
X97252480Y-74660500D01*
X97453503Y-74620515D01*
X97642862Y-74542080D01*
X97813280Y-74428209D01*
X97958209Y-74283280D01*
X98072080Y-74112862D01*
X98150515Y-73923503D01*
X98190500Y-73722480D01*
X98190500Y-73517520D01*
X98649500Y-73517520D01*
X98649500Y-73722480D01*
X98689485Y-73923503D01*
X98767920Y-74112862D01*
X98881791Y-74283280D01*
X99026720Y-74428209D01*
X99197138Y-74542080D01*
X99386497Y-74620515D01*
X99587520Y-74660500D01*
X99792480Y-74660500D01*
X99993503Y-74620515D01*
X100182862Y-74542080D01*
X100353280Y-74428209D01*
X100498209Y-74283280D01*
X100612080Y-74112862D01*
X100690515Y-73923503D01*
X100730500Y-73722480D01*
X100730500Y-73517520D01*
X100690515Y-73316497D01*
X100612080Y-73127138D01*
X100498209Y-72956720D01*
X100353280Y-72811791D01*
X100182862Y-72697920D01*
X99993503Y-72619485D01*
X99792480Y-72579500D01*
X99587520Y-72579500D01*
X99386497Y-72619485D01*
X99197138Y-72697920D01*
X99026720Y-72811791D01*
X98881791Y-72956720D01*
X98767920Y-73127138D01*
X98689485Y-73316497D01*
X98649500Y-73517520D01*
X98190500Y-73517520D01*
X98150515Y-73316497D01*
X98072080Y-73127138D01*
X97958209Y-72956720D01*
X97813280Y-72811791D01*
X97642862Y-72697920D01*
X97453503Y-72619485D01*
X97252480Y-72579500D01*
X97047520Y-72579500D01*
X96846497Y-72619485D01*
X96657138Y-72697920D01*
X96486720Y-72811791D01*
X96341791Y-72956720D01*
X96227920Y-73127138D01*
X96149485Y-73316497D01*
X96109500Y-73517520D01*
X91836521Y-73517520D01*
X91950856Y-73403185D01*
X92055096Y-73247179D01*
X92126897Y-73073835D01*
X92163501Y-72889814D01*
X92163501Y-72702188D01*
X92126897Y-72518167D01*
X92055096Y-72344823D01*
X91950856Y-72188817D01*
X91818185Y-72056146D01*
X91662179Y-71951906D01*
X91488835Y-71880105D01*
X91304814Y-71843501D01*
X91117188Y-71843501D01*
X90933167Y-71880105D01*
X90759823Y-71951906D01*
X90603817Y-72056146D01*
X90471146Y-72188817D01*
X90366906Y-72344823D01*
X90295105Y-72518167D01*
X90258501Y-72702188D01*
X89623501Y-72702188D01*
X89586897Y-72518167D01*
X89515096Y-72344823D01*
X89410856Y-72188817D01*
X89278185Y-72056146D01*
X89122179Y-71951906D01*
X88948835Y-71880105D01*
X88764814Y-71843501D01*
X88577188Y-71843501D01*
X88393167Y-71880105D01*
X88219823Y-71951906D01*
X88063817Y-72056146D01*
X87931146Y-72188817D01*
X87826906Y-72344823D01*
X87755105Y-72518167D01*
X87718501Y-72702188D01*
X85045550Y-72702188D01*
X85045550Y-70162188D01*
X87718501Y-70162188D01*
X87718501Y-70349814D01*
X87755105Y-70533835D01*
X87826906Y-70707179D01*
X87931146Y-70863185D01*
X88063817Y-70995856D01*
X88219823Y-71100096D01*
X88393167Y-71171897D01*
X88577188Y-71208501D01*
X88764814Y-71208501D01*
X88948835Y-71171897D01*
X89122179Y-71100096D01*
X89278185Y-70995856D01*
X89410856Y-70863185D01*
X89515096Y-70707179D01*
X89586897Y-70533835D01*
X89623501Y-70349814D01*
X89623501Y-70162188D01*
X90258501Y-70162188D01*
X90258501Y-70349814D01*
X90295105Y-70533835D01*
X90366906Y-70707179D01*
X90471146Y-70863185D01*
X90603817Y-70995856D01*
X90759823Y-71100096D01*
X90933167Y-71171897D01*
X91117188Y-71208501D01*
X91304814Y-71208501D01*
X91488835Y-71171897D01*
X91662179Y-71100096D01*
X91818185Y-70995856D01*
X91836521Y-70977520D01*
X96109500Y-70977520D01*
X96109500Y-71182480D01*
X96149485Y-71383503D01*
X96227920Y-71572862D01*
X96341791Y-71743280D01*
X96486720Y-71888209D01*
X96657138Y-72002080D01*
X96846497Y-72080515D01*
X97047520Y-72120500D01*
X97252480Y-72120500D01*
X97453503Y-72080515D01*
X97642862Y-72002080D01*
X97813280Y-71888209D01*
X97958209Y-71743280D01*
X98072080Y-71572862D01*
X98150515Y-71383503D01*
X98190500Y-71182480D01*
X98190500Y-70977520D01*
X98649500Y-70977520D01*
X98649500Y-71182480D01*
X98689485Y-71383503D01*
X98767920Y-71572862D01*
X98881791Y-71743280D01*
X99026720Y-71888209D01*
X99197138Y-72002080D01*
X99386497Y-72080515D01*
X99587520Y-72120500D01*
X99792480Y-72120500D01*
X99993503Y-72080515D01*
X100182862Y-72002080D01*
X100353280Y-71888209D01*
X100498209Y-71743280D01*
X100559408Y-71651690D01*
X110059500Y-71651690D01*
X110059500Y-71748310D01*
X110078350Y-71843073D01*
X110115325Y-71932339D01*
X110169004Y-72012675D01*
X110237325Y-72080996D01*
X110317661Y-72134675D01*
X110406927Y-72171650D01*
X110501690Y-72190500D01*
X110598310Y-72190500D01*
X110693073Y-72171650D01*
X110782339Y-72134675D01*
X110862675Y-72080996D01*
X110930996Y-72012675D01*
X110984675Y-71932339D01*
X111021650Y-71843073D01*
X111040500Y-71748310D01*
X111040500Y-71651690D01*
X111021650Y-71556927D01*
X110984675Y-71467661D01*
X110930996Y-71387325D01*
X110862675Y-71319004D01*
X110782339Y-71265325D01*
X110693073Y-71228350D01*
X110598310Y-71209500D01*
X110501690Y-71209500D01*
X110406927Y-71228350D01*
X110317661Y-71265325D01*
X110237325Y-71319004D01*
X110169004Y-71387325D01*
X110115325Y-71467661D01*
X110078350Y-71556927D01*
X110059500Y-71651690D01*
X100559408Y-71651690D01*
X100612080Y-71572862D01*
X100690515Y-71383503D01*
X100730500Y-71182480D01*
X100730500Y-70977520D01*
X100690515Y-70776497D01*
X100612080Y-70587138D01*
X100498209Y-70416720D01*
X100353280Y-70271791D01*
X100182862Y-70157920D01*
X99993503Y-70079485D01*
X99792480Y-70039500D01*
X99587520Y-70039500D01*
X99386497Y-70079485D01*
X99197138Y-70157920D01*
X99026720Y-70271791D01*
X98881791Y-70416720D01*
X98767920Y-70587138D01*
X98689485Y-70776497D01*
X98649500Y-70977520D01*
X98190500Y-70977520D01*
X98150515Y-70776497D01*
X98072080Y-70587138D01*
X97958209Y-70416720D01*
X97813280Y-70271791D01*
X97642862Y-70157920D01*
X97453503Y-70079485D01*
X97252480Y-70039500D01*
X97047520Y-70039500D01*
X96846497Y-70079485D01*
X96657138Y-70157920D01*
X96486720Y-70271791D01*
X96341791Y-70416720D01*
X96227920Y-70587138D01*
X96149485Y-70776497D01*
X96109500Y-70977520D01*
X91836521Y-70977520D01*
X91950856Y-70863185D01*
X92055096Y-70707179D01*
X92126897Y-70533835D01*
X92163501Y-70349814D01*
X92163501Y-70162188D01*
X92126897Y-69978167D01*
X92055096Y-69804823D01*
X91950856Y-69648817D01*
X91818185Y-69516146D01*
X91662179Y-69411906D01*
X91488835Y-69340105D01*
X91304814Y-69303501D01*
X91117188Y-69303501D01*
X90933167Y-69340105D01*
X90759823Y-69411906D01*
X90603817Y-69516146D01*
X90471146Y-69648817D01*
X90366906Y-69804823D01*
X90295105Y-69978167D01*
X90258501Y-70162188D01*
X89623501Y-70162188D01*
X89586897Y-69978167D01*
X89515096Y-69804823D01*
X89410856Y-69648817D01*
X89278185Y-69516146D01*
X89122179Y-69411906D01*
X88948835Y-69340105D01*
X88764814Y-69303501D01*
X88577188Y-69303501D01*
X88393167Y-69340105D01*
X88219823Y-69411906D01*
X88063817Y-69516146D01*
X87931146Y-69648817D01*
X87826906Y-69804823D01*
X87755105Y-69978167D01*
X87718501Y-70162188D01*
X85045550Y-70162188D01*
X85045550Y-68785085D01*
X96008514Y-68785085D01*
X96064724Y-68970396D01*
X96169543Y-69173853D01*
X96312041Y-69352951D01*
X96486741Y-69500808D01*
X96686930Y-69611742D01*
X96904914Y-69681489D01*
X97086500Y-69626400D01*
X97086500Y-68603500D01*
X97213500Y-68603500D01*
X97213500Y-69626400D01*
X97395086Y-69681489D01*
X97613070Y-69611742D01*
X97813259Y-69500808D01*
X97987959Y-69352951D01*
X98130457Y-69173853D01*
X98235276Y-68970396D01*
X98291486Y-68785085D01*
X98236271Y-68603500D01*
X97213500Y-68603500D01*
X97086500Y-68603500D01*
X96063729Y-68603500D01*
X96008514Y-68785085D01*
X85045550Y-68785085D01*
X85045550Y-67622188D01*
X87718501Y-67622188D01*
X87718501Y-67809814D01*
X87755105Y-67993835D01*
X87826906Y-68167179D01*
X87931146Y-68323185D01*
X88063817Y-68455856D01*
X88219823Y-68560096D01*
X88393167Y-68631897D01*
X88577188Y-68668501D01*
X88764814Y-68668501D01*
X88948835Y-68631897D01*
X89122179Y-68560096D01*
X89278185Y-68455856D01*
X89410856Y-68323185D01*
X89515096Y-68167179D01*
X89586897Y-67993835D01*
X89623501Y-67809814D01*
X89623501Y-67622188D01*
X89586897Y-67438167D01*
X89515096Y-67264823D01*
X89410856Y-67108817D01*
X89278185Y-66976146D01*
X89245043Y-66954001D01*
X90257580Y-66954001D01*
X90257580Y-68478001D01*
X90261258Y-68515345D01*
X90272151Y-68551255D01*
X90289840Y-68584349D01*
X90313646Y-68613356D01*
X90342653Y-68637162D01*
X90375747Y-68654851D01*
X90411657Y-68665744D01*
X90449001Y-68669422D01*
X91973001Y-68669422D01*
X92010345Y-68665744D01*
X92046255Y-68654851D01*
X92079349Y-68637162D01*
X92108356Y-68613356D01*
X92132162Y-68584349D01*
X92149851Y-68551255D01*
X92160744Y-68515345D01*
X92164422Y-68478001D01*
X92164422Y-68294915D01*
X96008514Y-68294915D01*
X96063729Y-68476500D01*
X97086500Y-68476500D01*
X97086500Y-67453600D01*
X97213500Y-67453600D01*
X97213500Y-68476500D01*
X98236271Y-68476500D01*
X98248123Y-68437520D01*
X98649500Y-68437520D01*
X98649500Y-68642480D01*
X98689485Y-68843503D01*
X98767920Y-69032862D01*
X98881791Y-69203280D01*
X99026720Y-69348209D01*
X99197138Y-69462080D01*
X99386497Y-69540515D01*
X99587520Y-69580500D01*
X99792480Y-69580500D01*
X99993503Y-69540515D01*
X100182862Y-69462080D01*
X100353280Y-69348209D01*
X100498209Y-69203280D01*
X100532680Y-69151690D01*
X110059500Y-69151690D01*
X110059500Y-69248310D01*
X110078350Y-69343073D01*
X110115325Y-69432339D01*
X110169004Y-69512675D01*
X110237325Y-69580996D01*
X110317661Y-69634675D01*
X110406927Y-69671650D01*
X110501690Y-69690500D01*
X110598310Y-69690500D01*
X110693073Y-69671650D01*
X110782339Y-69634675D01*
X110862675Y-69580996D01*
X110930996Y-69512675D01*
X110984675Y-69432339D01*
X111021650Y-69343073D01*
X111040500Y-69248310D01*
X111040500Y-69151690D01*
X111021650Y-69056927D01*
X110984675Y-68967661D01*
X110930996Y-68887325D01*
X110862675Y-68819004D01*
X110782339Y-68765325D01*
X110693073Y-68728350D01*
X110598310Y-68709500D01*
X110501690Y-68709500D01*
X110406927Y-68728350D01*
X110317661Y-68765325D01*
X110237325Y-68819004D01*
X110169004Y-68887325D01*
X110115325Y-68967661D01*
X110078350Y-69056927D01*
X110059500Y-69151690D01*
X100532680Y-69151690D01*
X100612080Y-69032862D01*
X100690515Y-68843503D01*
X100730500Y-68642480D01*
X100730500Y-68437520D01*
X100690515Y-68236497D01*
X100612080Y-68047138D01*
X100498209Y-67876720D01*
X100353280Y-67731791D01*
X100182862Y-67617920D01*
X99993503Y-67539485D01*
X99792480Y-67499500D01*
X99587520Y-67499500D01*
X99386497Y-67539485D01*
X99197138Y-67617920D01*
X99026720Y-67731791D01*
X98881791Y-67876720D01*
X98767920Y-68047138D01*
X98689485Y-68236497D01*
X98649500Y-68437520D01*
X98248123Y-68437520D01*
X98291486Y-68294915D01*
X98235276Y-68109604D01*
X98130457Y-67906147D01*
X97987959Y-67727049D01*
X97813259Y-67579192D01*
X97613070Y-67468258D01*
X97395086Y-67398511D01*
X97213500Y-67453600D01*
X97086500Y-67453600D01*
X96904914Y-67398511D01*
X96686930Y-67468258D01*
X96486741Y-67579192D01*
X96312041Y-67727049D01*
X96169543Y-67906147D01*
X96064724Y-68109604D01*
X96008514Y-68294915D01*
X92164422Y-68294915D01*
X92164422Y-67269863D01*
X109005760Y-67269863D01*
X109103534Y-67444476D01*
X109318907Y-67556279D01*
X109551953Y-67623917D01*
X109793716Y-67644790D01*
X110034906Y-67618097D01*
X110266254Y-67544862D01*
X110454066Y-67444476D01*
X110551840Y-67269863D01*
X109778800Y-66496823D01*
X109005760Y-67269863D01*
X92164422Y-67269863D01*
X92164422Y-66954001D01*
X92160744Y-66916657D01*
X92149851Y-66880747D01*
X92132162Y-66847653D01*
X92108356Y-66818646D01*
X92079349Y-66794840D01*
X92046255Y-66777151D01*
X92010345Y-66766258D01*
X91973001Y-66762580D01*
X90449001Y-66762580D01*
X90411657Y-66766258D01*
X90375747Y-66777151D01*
X90342653Y-66794840D01*
X90313646Y-66818646D01*
X90289840Y-66847653D01*
X90272151Y-66880747D01*
X90261258Y-66916657D01*
X90257580Y-66954001D01*
X89245043Y-66954001D01*
X89122179Y-66871906D01*
X88948835Y-66800105D01*
X88764814Y-66763501D01*
X88577188Y-66763501D01*
X88393167Y-66800105D01*
X88219823Y-66871906D01*
X88063817Y-66976146D01*
X87931146Y-67108817D01*
X87826906Y-67264823D01*
X87755105Y-67438167D01*
X87718501Y-67622188D01*
X85045550Y-67622188D01*
X85045550Y-65150000D01*
X96108579Y-65150000D01*
X96108579Y-66850000D01*
X96112257Y-66887344D01*
X96123150Y-66923254D01*
X96140839Y-66956348D01*
X96164645Y-66985355D01*
X96193652Y-67009161D01*
X96226746Y-67026850D01*
X96262656Y-67037743D01*
X96300000Y-67041421D01*
X98000000Y-67041421D01*
X98037344Y-67037743D01*
X98073254Y-67026850D01*
X98106348Y-67009161D01*
X98135355Y-66985355D01*
X98159161Y-66956348D01*
X98176850Y-66923254D01*
X98187743Y-66887344D01*
X98191421Y-66850000D01*
X98191421Y-65897520D01*
X98649500Y-65897520D01*
X98649500Y-66102480D01*
X98689485Y-66303503D01*
X98767920Y-66492862D01*
X98881791Y-66663280D01*
X99026720Y-66808209D01*
X99197138Y-66922080D01*
X99386497Y-67000515D01*
X99587520Y-67040500D01*
X99792480Y-67040500D01*
X99993503Y-67000515D01*
X100182862Y-66922080D01*
X100353280Y-66808209D01*
X100498209Y-66663280D01*
X100612080Y-66492862D01*
X100641458Y-66421936D01*
X108541030Y-66421936D01*
X108567723Y-66663126D01*
X108640958Y-66894474D01*
X108741344Y-67082286D01*
X108915957Y-67180060D01*
X109688997Y-66407020D01*
X109868603Y-66407020D01*
X110641643Y-67180060D01*
X110816256Y-67082286D01*
X110928059Y-66866913D01*
X110985271Y-66669788D01*
X113905750Y-66669788D01*
X114003524Y-66844401D01*
X114218897Y-66956204D01*
X114451943Y-67023842D01*
X114693706Y-67044715D01*
X114934896Y-67018022D01*
X115166244Y-66944787D01*
X115354056Y-66844401D01*
X115451830Y-66669788D01*
X114678790Y-65896748D01*
X113905750Y-66669788D01*
X110985271Y-66669788D01*
X110995697Y-66633867D01*
X111016570Y-66392104D01*
X110989877Y-66150914D01*
X110916642Y-65919566D01*
X110864419Y-65821861D01*
X113441020Y-65821861D01*
X113467713Y-66063051D01*
X113540948Y-66294399D01*
X113641334Y-66482211D01*
X113815947Y-66579985D01*
X114588987Y-65806945D01*
X114768593Y-65806945D01*
X115541633Y-66579985D01*
X115716246Y-66482211D01*
X115828049Y-66266838D01*
X115895687Y-66033792D01*
X115916560Y-65792029D01*
X115889867Y-65550839D01*
X115816632Y-65319491D01*
X115716246Y-65131679D01*
X115541633Y-65033905D01*
X114768593Y-65806945D01*
X114588987Y-65806945D01*
X113815947Y-65033905D01*
X113641334Y-65131679D01*
X113529531Y-65347052D01*
X113461893Y-65580098D01*
X113441020Y-65821861D01*
X110864419Y-65821861D01*
X110816256Y-65731754D01*
X110641643Y-65633980D01*
X109868603Y-66407020D01*
X109688997Y-66407020D01*
X108915957Y-65633980D01*
X108741344Y-65731754D01*
X108629541Y-65947127D01*
X108561903Y-66180173D01*
X108541030Y-66421936D01*
X100641458Y-66421936D01*
X100690515Y-66303503D01*
X100730500Y-66102480D01*
X100730500Y-65897520D01*
X100690515Y-65696497D01*
X100627423Y-65544177D01*
X109005760Y-65544177D01*
X109778800Y-66317217D01*
X110551840Y-65544177D01*
X110454066Y-65369564D01*
X110238693Y-65257761D01*
X110005647Y-65190123D01*
X109763884Y-65169250D01*
X109522694Y-65195943D01*
X109291346Y-65269178D01*
X109103534Y-65369564D01*
X109005760Y-65544177D01*
X100627423Y-65544177D01*
X100612080Y-65507138D01*
X100498209Y-65336720D01*
X100353280Y-65191791D01*
X100182862Y-65077920D01*
X99993503Y-64999485D01*
X99792480Y-64959500D01*
X99587520Y-64959500D01*
X99386497Y-64999485D01*
X99197138Y-65077920D01*
X99026720Y-65191791D01*
X98881791Y-65336720D01*
X98767920Y-65507138D01*
X98689485Y-65696497D01*
X98649500Y-65897520D01*
X98191421Y-65897520D01*
X98191421Y-65150000D01*
X98187743Y-65112656D01*
X98176850Y-65076746D01*
X98159161Y-65043652D01*
X98135355Y-65014645D01*
X98106348Y-64990839D01*
X98073254Y-64973150D01*
X98037344Y-64962257D01*
X98000000Y-64958579D01*
X96300000Y-64958579D01*
X96262656Y-64962257D01*
X96226746Y-64973150D01*
X96193652Y-64990839D01*
X96164645Y-65014645D01*
X96140839Y-65043652D01*
X96123150Y-65076746D01*
X96112257Y-65112656D01*
X96108579Y-65150000D01*
X85045550Y-65150000D01*
X85045550Y-64944102D01*
X113905750Y-64944102D01*
X114678790Y-65717142D01*
X115451830Y-64944102D01*
X115354056Y-64769489D01*
X115138683Y-64657686D01*
X114905637Y-64590048D01*
X114663874Y-64569175D01*
X114422684Y-64595868D01*
X114191336Y-64669103D01*
X114003524Y-64769489D01*
X113905750Y-64944102D01*
X85045550Y-64944102D01*
X85045550Y-64090543D01*
X116490450Y-64089556D01*
X116490451Y-83990457D01*
G37*
%TD.AperFunction*%
%TD*%
M02*
