%TF.GenerationSoftware,KiCad,Pcbnew,5.1.8*%
%TF.CreationDate,2021-01-07T21:55:06-06:00*%
%TF.ProjectId,hdmi_pmod,68646d69-5f70-46d6-9f64-2e6b69636164,rev?*%
%TF.SameCoordinates,Original*%
%TF.FileFunction,Copper,L4,Bot*%
%TF.FilePolarity,Positive*%
%FSLAX46Y46*%
G04 Gerber Fmt 4.6, Leading zero omitted, Abs format (unit mm)*
G04 Created by KiCad (PCBNEW 5.1.8) date 2021-01-07 21:55:06*
%MOMM*%
%LPD*%
G01*
G04 APERTURE LIST*
%TA.AperFunction,ComponentPad*%
%ADD10R,1.700000X1.700000*%
%TD*%
%TA.AperFunction,ComponentPad*%
%ADD11O,1.700000X1.700000*%
%TD*%
%TA.AperFunction,ComponentPad*%
%ADD12R,1.524000X1.524000*%
%TD*%
%TA.AperFunction,ComponentPad*%
%ADD13C,1.524000*%
%TD*%
%TA.AperFunction,ComponentPad*%
%ADD14C,1.828800*%
%TD*%
%TA.AperFunction,ViaPad*%
%ADD15C,0.600000*%
%TD*%
%TA.AperFunction,Conductor*%
%ADD16C,0.127000*%
%TD*%
%TA.AperFunction,Conductor*%
%ADD17C,0.100000*%
%TD*%
G04 APERTURE END LIST*
D10*
%TO.P,J1,1*%
%TO.N,+5V*%
X97150000Y-66000000D03*
D11*
%TO.P,J1,2*%
%TO.N,+3V3*%
X99690000Y-66000000D03*
%TO.P,J1,3*%
%TO.N,GND*%
X97150000Y-68540000D03*
%TO.P,J1,4*%
%TO.N,/HEAC-*%
X99690000Y-68540000D03*
%TO.P,J1,5*%
%TO.N,/HEAC+*%
X97150000Y-71080000D03*
%TO.P,J1,6*%
%TO.N,/SDA*%
X99690000Y-71080000D03*
%TO.P,J1,7*%
%TO.N,/SCL*%
X97150000Y-73620000D03*
%TO.P,J1,8*%
%TO.N,/CEC*%
X99690000Y-73620000D03*
%TD*%
D12*
%TO.P,PMOD0,1*%
%TO.N,/TMDS_CLK+*%
X91211001Y-67716001D03*
D13*
%TO.P,PMOD0,7*%
%TO.N,/TMDS_B+*%
X88671001Y-67716001D03*
%TO.P,PMOD0,2*%
%TO.N,/TMDS_CLK-*%
X91211001Y-70256001D03*
%TO.P,PMOD0,8*%
%TO.N,/TMDS_B-*%
X88671001Y-70256001D03*
%TO.P,PMOD0,3*%
%TO.N,/TMDS_R+*%
X91211001Y-72796001D03*
%TO.P,PMOD0,9*%
%TO.N,/TMDS_G+*%
X88671001Y-72796001D03*
%TO.P,PMOD0,4*%
%TO.N,/TMDS_R-*%
X91211001Y-75336001D03*
%TO.P,PMOD0,10*%
%TO.N,/TMDS_G-*%
X88671001Y-75336001D03*
%TO.P,PMOD0,5*%
%TO.N,GND*%
X91211001Y-77876001D03*
%TO.P,PMOD0,11*%
X88671001Y-77876001D03*
%TO.P,PMOD0,6*%
%TO.N,+3V3*%
X91211001Y-80416001D03*
%TO.P,PMOD0,12*%
X88671001Y-80416001D03*
%TD*%
D14*
%TO.P,J0,SH*%
%TO.N,GND*%
X109778800Y-66407020D03*
X109778800Y-81056978D03*
X114678790Y-65806945D03*
X114678790Y-81657053D03*
%TD*%
%TO.P,R4,2*%
%TO.N,GND*%
%TA.AperFunction,SMDPad,CuDef*%
G36*
G01*
X105250001Y-66800000D02*
X104349999Y-66800000D01*
G75*
G02*
X104100000Y-66550001I0J249999D01*
G01*
X104100000Y-66024999D01*
G75*
G02*
X104349999Y-65775000I249999J0D01*
G01*
X105250001Y-65775000D01*
G75*
G02*
X105500000Y-66024999I0J-249999D01*
G01*
X105500000Y-66550001D01*
G75*
G02*
X105250001Y-66800000I-249999J0D01*
G01*
G37*
%TD.AperFunction*%
%TO.P,R4,1*%
%TO.N,/HEAC-*%
%TA.AperFunction,SMDPad,CuDef*%
G36*
G01*
X105250001Y-68625000D02*
X104349999Y-68625000D01*
G75*
G02*
X104100000Y-68375001I0J249999D01*
G01*
X104100000Y-67849999D01*
G75*
G02*
X104349999Y-67600000I249999J0D01*
G01*
X105250001Y-67600000D01*
G75*
G02*
X105500000Y-67849999I0J-249999D01*
G01*
X105500000Y-68375001D01*
G75*
G02*
X105250001Y-68625000I-249999J0D01*
G01*
G37*
%TD.AperFunction*%
%TD*%
D15*
%TO.N,GND*%
X110550000Y-70200000D03*
X110550000Y-77700000D03*
X110550000Y-76200000D03*
X110550000Y-74700000D03*
X110550000Y-73250000D03*
%TO.N,/HEAC+*%
X110550000Y-71700000D03*
%TO.N,/HEAC-*%
X110550000Y-69200000D03*
%TD*%
D16*
%TO.N,GND*%
X109659280Y-66287500D02*
X109778800Y-66407020D01*
X104800000Y-66287500D02*
X104800000Y-65900000D01*
%TO.N,/HEAC+*%
X97150000Y-71080000D02*
X98430000Y-69800000D01*
X98430000Y-69800000D02*
X108750000Y-69800000D01*
X108750000Y-69800000D02*
X110650000Y-71700000D01*
X110650000Y-71700000D02*
X110750000Y-71700000D01*
%TO.N,/HEAC-*%
X99690000Y-68540000D02*
X101090000Y-68540000D01*
X101090000Y-68540000D02*
X101800000Y-69250000D01*
X110700000Y-69250000D02*
X110750000Y-69200000D01*
X104800000Y-69200000D02*
X104750000Y-69250000D01*
X104800000Y-68112500D02*
X104800000Y-69200000D01*
X101800000Y-69250000D02*
X104750000Y-69250000D01*
X104750000Y-69250000D02*
X110700000Y-69250000D01*
%TD*%
%TO.N,GND*%
X116490451Y-83990457D02*
X85045550Y-83991444D01*
X85045550Y-82551266D01*
X113942262Y-82551266D01*
X114044357Y-82719970D01*
X114263912Y-82823318D01*
X114499410Y-82881848D01*
X114741802Y-82893308D01*
X114981773Y-82857261D01*
X115210100Y-82775091D01*
X115313223Y-82719970D01*
X115415318Y-82551266D01*
X114678790Y-81814738D01*
X113942262Y-82551266D01*
X85045550Y-82551266D01*
X85045550Y-81951191D01*
X109042272Y-81951191D01*
X109144367Y-82119895D01*
X109363922Y-82223243D01*
X109599420Y-82281773D01*
X109841812Y-82293233D01*
X110081783Y-82257186D01*
X110310110Y-82175016D01*
X110413233Y-82119895D01*
X110515328Y-81951191D01*
X109778800Y-81214663D01*
X109042272Y-81951191D01*
X85045550Y-81951191D01*
X85045550Y-80322188D01*
X87718501Y-80322188D01*
X87718501Y-80509814D01*
X87755105Y-80693835D01*
X87826906Y-80867179D01*
X87931146Y-81023185D01*
X88063817Y-81155856D01*
X88219823Y-81260096D01*
X88393167Y-81331897D01*
X88577188Y-81368501D01*
X88764814Y-81368501D01*
X88948835Y-81331897D01*
X89122179Y-81260096D01*
X89278185Y-81155856D01*
X89410856Y-81023185D01*
X89515096Y-80867179D01*
X89586897Y-80693835D01*
X89623501Y-80509814D01*
X89623501Y-80322188D01*
X90258501Y-80322188D01*
X90258501Y-80509814D01*
X90295105Y-80693835D01*
X90366906Y-80867179D01*
X90471146Y-81023185D01*
X90603817Y-81155856D01*
X90759823Y-81260096D01*
X90933167Y-81331897D01*
X91117188Y-81368501D01*
X91304814Y-81368501D01*
X91488835Y-81331897D01*
X91662179Y-81260096D01*
X91818185Y-81155856D01*
X91854051Y-81119990D01*
X108542545Y-81119990D01*
X108578592Y-81359961D01*
X108660762Y-81588288D01*
X108715883Y-81691411D01*
X108884587Y-81793506D01*
X109621115Y-81056978D01*
X109936485Y-81056978D01*
X110673013Y-81793506D01*
X110794368Y-81720065D01*
X113442535Y-81720065D01*
X113478582Y-81960036D01*
X113560752Y-82188363D01*
X113615873Y-82291486D01*
X113784577Y-82393581D01*
X114521105Y-81657053D01*
X114836475Y-81657053D01*
X115573003Y-82393581D01*
X115741707Y-82291486D01*
X115845055Y-82071931D01*
X115903585Y-81836433D01*
X115915045Y-81594041D01*
X115878998Y-81354070D01*
X115796828Y-81125743D01*
X115741707Y-81022620D01*
X115573003Y-80920525D01*
X114836475Y-81657053D01*
X114521105Y-81657053D01*
X113784577Y-80920525D01*
X113615873Y-81022620D01*
X113512525Y-81242175D01*
X113453995Y-81477673D01*
X113442535Y-81720065D01*
X110794368Y-81720065D01*
X110841717Y-81691411D01*
X110945065Y-81471856D01*
X111003595Y-81236358D01*
X111015055Y-80993966D01*
X110980337Y-80762840D01*
X113942262Y-80762840D01*
X114678790Y-81499368D01*
X115415318Y-80762840D01*
X115313223Y-80594136D01*
X115093668Y-80490788D01*
X114858170Y-80432258D01*
X114615778Y-80420798D01*
X114375807Y-80456845D01*
X114147480Y-80539015D01*
X114044357Y-80594136D01*
X113942262Y-80762840D01*
X110980337Y-80762840D01*
X110979008Y-80753995D01*
X110896838Y-80525668D01*
X110841717Y-80422545D01*
X110673013Y-80320450D01*
X109936485Y-81056978D01*
X109621115Y-81056978D01*
X108884587Y-80320450D01*
X108715883Y-80422545D01*
X108612535Y-80642100D01*
X108554005Y-80877598D01*
X108542545Y-81119990D01*
X91854051Y-81119990D01*
X91950856Y-81023185D01*
X92055096Y-80867179D01*
X92126897Y-80693835D01*
X92163501Y-80509814D01*
X92163501Y-80322188D01*
X92131790Y-80162765D01*
X109042272Y-80162765D01*
X109778800Y-80899293D01*
X110515328Y-80162765D01*
X110413233Y-79994061D01*
X110193678Y-79890713D01*
X109958180Y-79832183D01*
X109715788Y-79820723D01*
X109475817Y-79856770D01*
X109247490Y-79938940D01*
X109144367Y-79994061D01*
X109042272Y-80162765D01*
X92131790Y-80162765D01*
X92126897Y-80138167D01*
X92055096Y-79964823D01*
X91950856Y-79808817D01*
X91818185Y-79676146D01*
X91662179Y-79571906D01*
X91488835Y-79500105D01*
X91304814Y-79463501D01*
X91117188Y-79463501D01*
X90933167Y-79500105D01*
X90759823Y-79571906D01*
X90603817Y-79676146D01*
X90471146Y-79808817D01*
X90366906Y-79964823D01*
X90295105Y-80138167D01*
X90258501Y-80322188D01*
X89623501Y-80322188D01*
X89586897Y-80138167D01*
X89515096Y-79964823D01*
X89410856Y-79808817D01*
X89278185Y-79676146D01*
X89122179Y-79571906D01*
X88948835Y-79500105D01*
X88764814Y-79463501D01*
X88577188Y-79463501D01*
X88393167Y-79500105D01*
X88219823Y-79571906D01*
X88063817Y-79676146D01*
X87931146Y-79808817D01*
X87826906Y-79964823D01*
X87755105Y-80138167D01*
X87718501Y-80322188D01*
X85045550Y-80322188D01*
X85045550Y-78661346D01*
X88043340Y-78661346D01*
X88126999Y-78814450D01*
X88320534Y-78902547D01*
X88527538Y-78951195D01*
X88740054Y-78958523D01*
X88949916Y-78924251D01*
X89149061Y-78849696D01*
X89215003Y-78814450D01*
X89298662Y-78661346D01*
X90583340Y-78661346D01*
X90666999Y-78814450D01*
X90860534Y-78902547D01*
X91067538Y-78951195D01*
X91280054Y-78958523D01*
X91489916Y-78924251D01*
X91689061Y-78849696D01*
X91755003Y-78814450D01*
X91838662Y-78661346D01*
X91211001Y-78033686D01*
X90583340Y-78661346D01*
X89298662Y-78661346D01*
X88671001Y-78033686D01*
X88043340Y-78661346D01*
X85045550Y-78661346D01*
X85045550Y-77945054D01*
X87588479Y-77945054D01*
X87622751Y-78154916D01*
X87697306Y-78354061D01*
X87732552Y-78420003D01*
X87885656Y-78503662D01*
X88513316Y-77876001D01*
X88828686Y-77876001D01*
X89456346Y-78503662D01*
X89609450Y-78420003D01*
X89697547Y-78226468D01*
X89746195Y-78019464D01*
X89748760Y-77945054D01*
X90128479Y-77945054D01*
X90162751Y-78154916D01*
X90237306Y-78354061D01*
X90272552Y-78420003D01*
X90425656Y-78503662D01*
X91053316Y-77876001D01*
X91368686Y-77876001D01*
X91996346Y-78503662D01*
X92149450Y-78420003D01*
X92237547Y-78226468D01*
X92286195Y-78019464D01*
X92293523Y-77806948D01*
X92259251Y-77597086D01*
X92184696Y-77397941D01*
X92149450Y-77331999D01*
X91996346Y-77248340D01*
X91368686Y-77876001D01*
X91053316Y-77876001D01*
X90425656Y-77248340D01*
X90272552Y-77331999D01*
X90184455Y-77525534D01*
X90135807Y-77732538D01*
X90128479Y-77945054D01*
X89748760Y-77945054D01*
X89753523Y-77806948D01*
X89719251Y-77597086D01*
X89644696Y-77397941D01*
X89609450Y-77331999D01*
X89456346Y-77248340D01*
X88828686Y-77876001D01*
X88513316Y-77876001D01*
X87885656Y-77248340D01*
X87732552Y-77331999D01*
X87644455Y-77525534D01*
X87595807Y-77732538D01*
X87588479Y-77945054D01*
X85045550Y-77945054D01*
X85045550Y-77090656D01*
X88043340Y-77090656D01*
X88671001Y-77718316D01*
X89298662Y-77090656D01*
X90583340Y-77090656D01*
X91211001Y-77718316D01*
X91838662Y-77090656D01*
X91755003Y-76937552D01*
X91561468Y-76849455D01*
X91354464Y-76800807D01*
X91141948Y-76793479D01*
X90932086Y-76827751D01*
X90732941Y-76902306D01*
X90666999Y-76937552D01*
X90583340Y-77090656D01*
X89298662Y-77090656D01*
X89215003Y-76937552D01*
X89021468Y-76849455D01*
X88814464Y-76800807D01*
X88601948Y-76793479D01*
X88392086Y-76827751D01*
X88192941Y-76902306D01*
X88126999Y-76937552D01*
X88043340Y-77090656D01*
X85045550Y-77090656D01*
X85045550Y-75242188D01*
X87718501Y-75242188D01*
X87718501Y-75429814D01*
X87755105Y-75613835D01*
X87826906Y-75787179D01*
X87931146Y-75943185D01*
X88063817Y-76075856D01*
X88219823Y-76180096D01*
X88393167Y-76251897D01*
X88577188Y-76288501D01*
X88764814Y-76288501D01*
X88948835Y-76251897D01*
X89122179Y-76180096D01*
X89278185Y-76075856D01*
X89410856Y-75943185D01*
X89515096Y-75787179D01*
X89586897Y-75613835D01*
X89623501Y-75429814D01*
X89623501Y-75242188D01*
X90258501Y-75242188D01*
X90258501Y-75429814D01*
X90295105Y-75613835D01*
X90366906Y-75787179D01*
X90471146Y-75943185D01*
X90603817Y-76075856D01*
X90759823Y-76180096D01*
X90933167Y-76251897D01*
X91117188Y-76288501D01*
X91304814Y-76288501D01*
X91488835Y-76251897D01*
X91662179Y-76180096D01*
X91818185Y-76075856D01*
X91950856Y-75943185D01*
X92055096Y-75787179D01*
X92126897Y-75613835D01*
X92163501Y-75429814D01*
X92163501Y-75242188D01*
X92126897Y-75058167D01*
X92055096Y-74884823D01*
X91950856Y-74728817D01*
X91818185Y-74596146D01*
X91662179Y-74491906D01*
X91488835Y-74420105D01*
X91304814Y-74383501D01*
X91117188Y-74383501D01*
X90933167Y-74420105D01*
X90759823Y-74491906D01*
X90603817Y-74596146D01*
X90471146Y-74728817D01*
X90366906Y-74884823D01*
X90295105Y-75058167D01*
X90258501Y-75242188D01*
X89623501Y-75242188D01*
X89586897Y-75058167D01*
X89515096Y-74884823D01*
X89410856Y-74728817D01*
X89278185Y-74596146D01*
X89122179Y-74491906D01*
X88948835Y-74420105D01*
X88764814Y-74383501D01*
X88577188Y-74383501D01*
X88393167Y-74420105D01*
X88219823Y-74491906D01*
X88063817Y-74596146D01*
X87931146Y-74728817D01*
X87826906Y-74884823D01*
X87755105Y-75058167D01*
X87718501Y-75242188D01*
X85045550Y-75242188D01*
X85045550Y-72702188D01*
X87718501Y-72702188D01*
X87718501Y-72889814D01*
X87755105Y-73073835D01*
X87826906Y-73247179D01*
X87931146Y-73403185D01*
X88063817Y-73535856D01*
X88219823Y-73640096D01*
X88393167Y-73711897D01*
X88577188Y-73748501D01*
X88764814Y-73748501D01*
X88948835Y-73711897D01*
X89122179Y-73640096D01*
X89278185Y-73535856D01*
X89410856Y-73403185D01*
X89515096Y-73247179D01*
X89586897Y-73073835D01*
X89623501Y-72889814D01*
X89623501Y-72702188D01*
X90258501Y-72702188D01*
X90258501Y-72889814D01*
X90295105Y-73073835D01*
X90366906Y-73247179D01*
X90471146Y-73403185D01*
X90603817Y-73535856D01*
X90759823Y-73640096D01*
X90933167Y-73711897D01*
X91117188Y-73748501D01*
X91304814Y-73748501D01*
X91488835Y-73711897D01*
X91662179Y-73640096D01*
X91818185Y-73535856D01*
X91836521Y-73517520D01*
X96109500Y-73517520D01*
X96109500Y-73722480D01*
X96149485Y-73923503D01*
X96227920Y-74112862D01*
X96341791Y-74283280D01*
X96486720Y-74428209D01*
X96657138Y-74542080D01*
X96846497Y-74620515D01*
X97047520Y-74660500D01*
X97252480Y-74660500D01*
X97453503Y-74620515D01*
X97642862Y-74542080D01*
X97813280Y-74428209D01*
X97958209Y-74283280D01*
X98072080Y-74112862D01*
X98150515Y-73923503D01*
X98190500Y-73722480D01*
X98190500Y-73517520D01*
X98649500Y-73517520D01*
X98649500Y-73722480D01*
X98689485Y-73923503D01*
X98767920Y-74112862D01*
X98881791Y-74283280D01*
X99026720Y-74428209D01*
X99197138Y-74542080D01*
X99386497Y-74620515D01*
X99587520Y-74660500D01*
X99792480Y-74660500D01*
X99993503Y-74620515D01*
X100182862Y-74542080D01*
X100353280Y-74428209D01*
X100498209Y-74283280D01*
X100612080Y-74112862D01*
X100690515Y-73923503D01*
X100730500Y-73722480D01*
X100730500Y-73517520D01*
X100690515Y-73316497D01*
X100612080Y-73127138D01*
X100498209Y-72956720D01*
X100353280Y-72811791D01*
X100182862Y-72697920D01*
X99993503Y-72619485D01*
X99792480Y-72579500D01*
X99587520Y-72579500D01*
X99386497Y-72619485D01*
X99197138Y-72697920D01*
X99026720Y-72811791D01*
X98881791Y-72956720D01*
X98767920Y-73127138D01*
X98689485Y-73316497D01*
X98649500Y-73517520D01*
X98190500Y-73517520D01*
X98150515Y-73316497D01*
X98072080Y-73127138D01*
X97958209Y-72956720D01*
X97813280Y-72811791D01*
X97642862Y-72697920D01*
X97453503Y-72619485D01*
X97252480Y-72579500D01*
X97047520Y-72579500D01*
X96846497Y-72619485D01*
X96657138Y-72697920D01*
X96486720Y-72811791D01*
X96341791Y-72956720D01*
X96227920Y-73127138D01*
X96149485Y-73316497D01*
X96109500Y-73517520D01*
X91836521Y-73517520D01*
X91950856Y-73403185D01*
X92055096Y-73247179D01*
X92126897Y-73073835D01*
X92163501Y-72889814D01*
X92163501Y-72702188D01*
X92126897Y-72518167D01*
X92055096Y-72344823D01*
X91950856Y-72188817D01*
X91818185Y-72056146D01*
X91662179Y-71951906D01*
X91488835Y-71880105D01*
X91304814Y-71843501D01*
X91117188Y-71843501D01*
X90933167Y-71880105D01*
X90759823Y-71951906D01*
X90603817Y-72056146D01*
X90471146Y-72188817D01*
X90366906Y-72344823D01*
X90295105Y-72518167D01*
X90258501Y-72702188D01*
X89623501Y-72702188D01*
X89586897Y-72518167D01*
X89515096Y-72344823D01*
X89410856Y-72188817D01*
X89278185Y-72056146D01*
X89122179Y-71951906D01*
X88948835Y-71880105D01*
X88764814Y-71843501D01*
X88577188Y-71843501D01*
X88393167Y-71880105D01*
X88219823Y-71951906D01*
X88063817Y-72056146D01*
X87931146Y-72188817D01*
X87826906Y-72344823D01*
X87755105Y-72518167D01*
X87718501Y-72702188D01*
X85045550Y-72702188D01*
X85045550Y-70162188D01*
X87718501Y-70162188D01*
X87718501Y-70349814D01*
X87755105Y-70533835D01*
X87826906Y-70707179D01*
X87931146Y-70863185D01*
X88063817Y-70995856D01*
X88219823Y-71100096D01*
X88393167Y-71171897D01*
X88577188Y-71208501D01*
X88764814Y-71208501D01*
X88948835Y-71171897D01*
X89122179Y-71100096D01*
X89278185Y-70995856D01*
X89410856Y-70863185D01*
X89515096Y-70707179D01*
X89586897Y-70533835D01*
X89623501Y-70349814D01*
X89623501Y-70162188D01*
X90258501Y-70162188D01*
X90258501Y-70349814D01*
X90295105Y-70533835D01*
X90366906Y-70707179D01*
X90471146Y-70863185D01*
X90603817Y-70995856D01*
X90759823Y-71100096D01*
X90933167Y-71171897D01*
X91117188Y-71208501D01*
X91304814Y-71208501D01*
X91488835Y-71171897D01*
X91662179Y-71100096D01*
X91818185Y-70995856D01*
X91836521Y-70977520D01*
X96109500Y-70977520D01*
X96109500Y-71182480D01*
X96149485Y-71383503D01*
X96227920Y-71572862D01*
X96341791Y-71743280D01*
X96486720Y-71888209D01*
X96657138Y-72002080D01*
X96846497Y-72080515D01*
X97047520Y-72120500D01*
X97252480Y-72120500D01*
X97453503Y-72080515D01*
X97642862Y-72002080D01*
X97813280Y-71888209D01*
X97958209Y-71743280D01*
X98072080Y-71572862D01*
X98150515Y-71383503D01*
X98190500Y-71182480D01*
X98190500Y-70977520D01*
X98150515Y-70776497D01*
X98072080Y-70587138D01*
X98044039Y-70545171D01*
X98535210Y-70054000D01*
X99514622Y-70054000D01*
X99386497Y-70079485D01*
X99197138Y-70157920D01*
X99026720Y-70271791D01*
X98881791Y-70416720D01*
X98767920Y-70587138D01*
X98689485Y-70776497D01*
X98649500Y-70977520D01*
X98649500Y-71182480D01*
X98689485Y-71383503D01*
X98767920Y-71572862D01*
X98881791Y-71743280D01*
X99026720Y-71888209D01*
X99197138Y-72002080D01*
X99386497Y-72080515D01*
X99587520Y-72120500D01*
X99792480Y-72120500D01*
X99993503Y-72080515D01*
X100182862Y-72002080D01*
X100353280Y-71888209D01*
X100498209Y-71743280D01*
X100612080Y-71572862D01*
X100690515Y-71383503D01*
X100730500Y-71182480D01*
X100730500Y-70977520D01*
X100690515Y-70776497D01*
X100612080Y-70587138D01*
X100498209Y-70416720D01*
X100353280Y-70271791D01*
X100182862Y-70157920D01*
X99993503Y-70079485D01*
X99865378Y-70054000D01*
X108644790Y-70054000D01*
X110098667Y-71507878D01*
X110078350Y-71556927D01*
X110059500Y-71651690D01*
X110059500Y-71748310D01*
X110078350Y-71843073D01*
X110115325Y-71932339D01*
X110169004Y-72012675D01*
X110237325Y-72080996D01*
X110317661Y-72134675D01*
X110406927Y-72171650D01*
X110501690Y-72190500D01*
X110598310Y-72190500D01*
X110693073Y-72171650D01*
X110782339Y-72134675D01*
X110862675Y-72080996D01*
X110930996Y-72012675D01*
X110984675Y-71932339D01*
X111021650Y-71843073D01*
X111040500Y-71748310D01*
X111040500Y-71651690D01*
X111021650Y-71556927D01*
X110984675Y-71467661D01*
X110930996Y-71387325D01*
X110862675Y-71319004D01*
X110782339Y-71265325D01*
X110693073Y-71228350D01*
X110598310Y-71209500D01*
X110518711Y-71209500D01*
X108938419Y-69629208D01*
X108930473Y-69619527D01*
X108920791Y-69611581D01*
X108920788Y-69611578D01*
X108908323Y-69601349D01*
X108891797Y-69587786D01*
X108847672Y-69564200D01*
X108799793Y-69549676D01*
X108762469Y-69546000D01*
X108762458Y-69546000D01*
X108750000Y-69544773D01*
X108737542Y-69546000D01*
X99965927Y-69546000D01*
X99993503Y-69540515D01*
X100182862Y-69462080D01*
X100353280Y-69348209D01*
X100498209Y-69203280D01*
X100612080Y-69032862D01*
X100690515Y-68843503D01*
X100700362Y-68794000D01*
X100984790Y-68794000D01*
X101611581Y-69420791D01*
X101619527Y-69430473D01*
X101629209Y-69438419D01*
X101629212Y-69438422D01*
X101658203Y-69462215D01*
X101677732Y-69472653D01*
X101702328Y-69485800D01*
X101750207Y-69500324D01*
X101787531Y-69504000D01*
X101787542Y-69504000D01*
X101800000Y-69505227D01*
X101812458Y-69504000D01*
X104737542Y-69504000D01*
X104750000Y-69505227D01*
X104762458Y-69504000D01*
X110163208Y-69504000D01*
X110169004Y-69512675D01*
X110237325Y-69580996D01*
X110317661Y-69634675D01*
X110406927Y-69671650D01*
X110501690Y-69690500D01*
X110598310Y-69690500D01*
X110693073Y-69671650D01*
X110782339Y-69634675D01*
X110862675Y-69580996D01*
X110930996Y-69512675D01*
X110984675Y-69432339D01*
X111021650Y-69343073D01*
X111040500Y-69248310D01*
X111040500Y-69151690D01*
X111021650Y-69056927D01*
X110984675Y-68967661D01*
X110930996Y-68887325D01*
X110862675Y-68819004D01*
X110782339Y-68765325D01*
X110693073Y-68728350D01*
X110598310Y-68709500D01*
X110501690Y-68709500D01*
X110406927Y-68728350D01*
X110317661Y-68765325D01*
X110237325Y-68819004D01*
X110169004Y-68887325D01*
X110115325Y-68967661D01*
X110103587Y-68996000D01*
X105054000Y-68996000D01*
X105054000Y-68816421D01*
X105250001Y-68816421D01*
X105336118Y-68807939D01*
X105418925Y-68782820D01*
X105495241Y-68742028D01*
X105562132Y-68687132D01*
X105617028Y-68620241D01*
X105657820Y-68543925D01*
X105682939Y-68461118D01*
X105691421Y-68375001D01*
X105691421Y-67849999D01*
X105682939Y-67763882D01*
X105657820Y-67681075D01*
X105617028Y-67604759D01*
X105562132Y-67537868D01*
X105495241Y-67482972D01*
X105418925Y-67442180D01*
X105336118Y-67417061D01*
X105250001Y-67408579D01*
X104349999Y-67408579D01*
X104263882Y-67417061D01*
X104181075Y-67442180D01*
X104104759Y-67482972D01*
X104037868Y-67537868D01*
X103982972Y-67604759D01*
X103942180Y-67681075D01*
X103917061Y-67763882D01*
X103908579Y-67849999D01*
X103908579Y-68375001D01*
X103917061Y-68461118D01*
X103942180Y-68543925D01*
X103982972Y-68620241D01*
X104037868Y-68687132D01*
X104104759Y-68742028D01*
X104181075Y-68782820D01*
X104263882Y-68807939D01*
X104349999Y-68816421D01*
X104546001Y-68816421D01*
X104546001Y-68996000D01*
X101905210Y-68996000D01*
X101278419Y-68369209D01*
X101270473Y-68359527D01*
X101260791Y-68351581D01*
X101260788Y-68351578D01*
X101248323Y-68341349D01*
X101231797Y-68327786D01*
X101187672Y-68304200D01*
X101139793Y-68289676D01*
X101102469Y-68286000D01*
X101102458Y-68286000D01*
X101090000Y-68284773D01*
X101077542Y-68286000D01*
X100700362Y-68286000D01*
X100690515Y-68236497D01*
X100612080Y-68047138D01*
X100498209Y-67876720D01*
X100353280Y-67731791D01*
X100182862Y-67617920D01*
X99993503Y-67539485D01*
X99792480Y-67499500D01*
X99587520Y-67499500D01*
X99386497Y-67539485D01*
X99197138Y-67617920D01*
X99026720Y-67731791D01*
X98881791Y-67876720D01*
X98767920Y-68047138D01*
X98689485Y-68236497D01*
X98649500Y-68437520D01*
X98649500Y-68642480D01*
X98689485Y-68843503D01*
X98767920Y-69032862D01*
X98881791Y-69203280D01*
X99026720Y-69348209D01*
X99197138Y-69462080D01*
X99386497Y-69540515D01*
X99414073Y-69546000D01*
X98442457Y-69546000D01*
X98429999Y-69544773D01*
X98417541Y-69546000D01*
X98417531Y-69546000D01*
X98380207Y-69549676D01*
X98332328Y-69564200D01*
X98288202Y-69587786D01*
X98259211Y-69611579D01*
X98259209Y-69611581D01*
X98249527Y-69619527D01*
X98241581Y-69629209D01*
X97684829Y-70185961D01*
X97642862Y-70157920D01*
X97453503Y-70079485D01*
X97252480Y-70039500D01*
X97047520Y-70039500D01*
X96846497Y-70079485D01*
X96657138Y-70157920D01*
X96486720Y-70271791D01*
X96341791Y-70416720D01*
X96227920Y-70587138D01*
X96149485Y-70776497D01*
X96109500Y-70977520D01*
X91836521Y-70977520D01*
X91950856Y-70863185D01*
X92055096Y-70707179D01*
X92126897Y-70533835D01*
X92163501Y-70349814D01*
X92163501Y-70162188D01*
X92126897Y-69978167D01*
X92055096Y-69804823D01*
X91950856Y-69648817D01*
X91818185Y-69516146D01*
X91662179Y-69411906D01*
X91488835Y-69340105D01*
X91304814Y-69303501D01*
X91117188Y-69303501D01*
X90933167Y-69340105D01*
X90759823Y-69411906D01*
X90603817Y-69516146D01*
X90471146Y-69648817D01*
X90366906Y-69804823D01*
X90295105Y-69978167D01*
X90258501Y-70162188D01*
X89623501Y-70162188D01*
X89586897Y-69978167D01*
X89515096Y-69804823D01*
X89410856Y-69648817D01*
X89278185Y-69516146D01*
X89122179Y-69411906D01*
X88948835Y-69340105D01*
X88764814Y-69303501D01*
X88577188Y-69303501D01*
X88393167Y-69340105D01*
X88219823Y-69411906D01*
X88063817Y-69516146D01*
X87931146Y-69648817D01*
X87826906Y-69804823D01*
X87755105Y-69978167D01*
X87718501Y-70162188D01*
X85045550Y-70162188D01*
X85045550Y-68831930D01*
X96019588Y-68831930D01*
X96047904Y-68925295D01*
X96144248Y-69132900D01*
X96279242Y-69317720D01*
X96447699Y-69472653D01*
X96643145Y-69591744D01*
X96858069Y-69670418D01*
X97038500Y-69622794D01*
X97038500Y-68651500D01*
X97261500Y-68651500D01*
X97261500Y-69622794D01*
X97441931Y-69670418D01*
X97656855Y-69591744D01*
X97852301Y-69472653D01*
X98020758Y-69317720D01*
X98155752Y-69132900D01*
X98252096Y-68925295D01*
X98280412Y-68831930D01*
X98232397Y-68651500D01*
X97261500Y-68651500D01*
X97038500Y-68651500D01*
X96067603Y-68651500D01*
X96019588Y-68831930D01*
X85045550Y-68831930D01*
X85045550Y-67622188D01*
X87718501Y-67622188D01*
X87718501Y-67809814D01*
X87755105Y-67993835D01*
X87826906Y-68167179D01*
X87931146Y-68323185D01*
X88063817Y-68455856D01*
X88219823Y-68560096D01*
X88393167Y-68631897D01*
X88577188Y-68668501D01*
X88764814Y-68668501D01*
X88948835Y-68631897D01*
X89122179Y-68560096D01*
X89278185Y-68455856D01*
X89410856Y-68323185D01*
X89515096Y-68167179D01*
X89586897Y-67993835D01*
X89623501Y-67809814D01*
X89623501Y-67622188D01*
X89586897Y-67438167D01*
X89515096Y-67264823D01*
X89410856Y-67108817D01*
X89278185Y-66976146D01*
X89245043Y-66954001D01*
X90257580Y-66954001D01*
X90257580Y-68478001D01*
X90261258Y-68515345D01*
X90272151Y-68551255D01*
X90289840Y-68584349D01*
X90313646Y-68613356D01*
X90342653Y-68637162D01*
X90375747Y-68654851D01*
X90411657Y-68665744D01*
X90449001Y-68669422D01*
X91973001Y-68669422D01*
X92010345Y-68665744D01*
X92046255Y-68654851D01*
X92079349Y-68637162D01*
X92108356Y-68613356D01*
X92132162Y-68584349D01*
X92149851Y-68551255D01*
X92160744Y-68515345D01*
X92164422Y-68478001D01*
X92164422Y-68248070D01*
X96019588Y-68248070D01*
X96067603Y-68428500D01*
X97038500Y-68428500D01*
X97038500Y-67457206D01*
X97261500Y-67457206D01*
X97261500Y-68428500D01*
X98232397Y-68428500D01*
X98280412Y-68248070D01*
X98252096Y-68154705D01*
X98155752Y-67947100D01*
X98020758Y-67762280D01*
X97852301Y-67607347D01*
X97656855Y-67488256D01*
X97441931Y-67409582D01*
X97261500Y-67457206D01*
X97038500Y-67457206D01*
X96858069Y-67409582D01*
X96643145Y-67488256D01*
X96447699Y-67607347D01*
X96279242Y-67762280D01*
X96144248Y-67947100D01*
X96047904Y-68154705D01*
X96019588Y-68248070D01*
X92164422Y-68248070D01*
X92164422Y-67301233D01*
X109042272Y-67301233D01*
X109144367Y-67469937D01*
X109363922Y-67573285D01*
X109599420Y-67631815D01*
X109841812Y-67643275D01*
X110081783Y-67607228D01*
X110310110Y-67525058D01*
X110413233Y-67469937D01*
X110515328Y-67301233D01*
X109778800Y-66564705D01*
X109042272Y-67301233D01*
X92164422Y-67301233D01*
X92164422Y-66954001D01*
X92160744Y-66916657D01*
X92149851Y-66880747D01*
X92132162Y-66847653D01*
X92108356Y-66818646D01*
X92079349Y-66794840D01*
X92046255Y-66777151D01*
X92010345Y-66766258D01*
X91973001Y-66762580D01*
X90449001Y-66762580D01*
X90411657Y-66766258D01*
X90375747Y-66777151D01*
X90342653Y-66794840D01*
X90313646Y-66818646D01*
X90289840Y-66847653D01*
X90272151Y-66880747D01*
X90261258Y-66916657D01*
X90257580Y-66954001D01*
X89245043Y-66954001D01*
X89122179Y-66871906D01*
X88948835Y-66800105D01*
X88764814Y-66763501D01*
X88577188Y-66763501D01*
X88393167Y-66800105D01*
X88219823Y-66871906D01*
X88063817Y-66976146D01*
X87931146Y-67108817D01*
X87826906Y-67264823D01*
X87755105Y-67438167D01*
X87718501Y-67622188D01*
X85045550Y-67622188D01*
X85045550Y-65150000D01*
X96108579Y-65150000D01*
X96108579Y-66850000D01*
X96112257Y-66887344D01*
X96123150Y-66923254D01*
X96140839Y-66956348D01*
X96164645Y-66985355D01*
X96193652Y-67009161D01*
X96226746Y-67026850D01*
X96262656Y-67037743D01*
X96300000Y-67041421D01*
X98000000Y-67041421D01*
X98037344Y-67037743D01*
X98073254Y-67026850D01*
X98106348Y-67009161D01*
X98135355Y-66985355D01*
X98159161Y-66956348D01*
X98176850Y-66923254D01*
X98187743Y-66887344D01*
X98191421Y-66850000D01*
X98191421Y-65897520D01*
X98649500Y-65897520D01*
X98649500Y-66102480D01*
X98689485Y-66303503D01*
X98767920Y-66492862D01*
X98881791Y-66663280D01*
X99026720Y-66808209D01*
X99197138Y-66922080D01*
X99386497Y-67000515D01*
X99587520Y-67040500D01*
X99792480Y-67040500D01*
X99993503Y-67000515D01*
X100182862Y-66922080D01*
X100353280Y-66808209D01*
X100361489Y-66800000D01*
X103780964Y-66800000D01*
X103787094Y-66862241D01*
X103805249Y-66922090D01*
X103834731Y-66977247D01*
X103874407Y-67025593D01*
X103922753Y-67065269D01*
X103977910Y-67094751D01*
X104037759Y-67112906D01*
X104100000Y-67119036D01*
X104609125Y-67117500D01*
X104688500Y-67038125D01*
X104688500Y-66399000D01*
X104911500Y-66399000D01*
X104911500Y-67038125D01*
X104990875Y-67117500D01*
X105500000Y-67119036D01*
X105562241Y-67112906D01*
X105622090Y-67094751D01*
X105677247Y-67065269D01*
X105725593Y-67025593D01*
X105765269Y-66977247D01*
X105794751Y-66922090D01*
X105812906Y-66862241D01*
X105819036Y-66800000D01*
X105817500Y-66478375D01*
X105809157Y-66470032D01*
X108542545Y-66470032D01*
X108578592Y-66710003D01*
X108660762Y-66938330D01*
X108715883Y-67041453D01*
X108884587Y-67143548D01*
X109621115Y-66407020D01*
X109936485Y-66407020D01*
X110673013Y-67143548D01*
X110841717Y-67041453D01*
X110945065Y-66821898D01*
X110975073Y-66701158D01*
X113942262Y-66701158D01*
X114044357Y-66869862D01*
X114263912Y-66973210D01*
X114499410Y-67031740D01*
X114741802Y-67043200D01*
X114981773Y-67007153D01*
X115210100Y-66924983D01*
X115313223Y-66869862D01*
X115415318Y-66701158D01*
X114678790Y-65964630D01*
X113942262Y-66701158D01*
X110975073Y-66701158D01*
X111003595Y-66586400D01*
X111015055Y-66344008D01*
X110979008Y-66104037D01*
X110896838Y-65875710D01*
X110893763Y-65869957D01*
X113442535Y-65869957D01*
X113478582Y-66109928D01*
X113560752Y-66338255D01*
X113615873Y-66441378D01*
X113784577Y-66543473D01*
X114521105Y-65806945D01*
X114836475Y-65806945D01*
X115573003Y-66543473D01*
X115741707Y-66441378D01*
X115845055Y-66221823D01*
X115903585Y-65986325D01*
X115915045Y-65743933D01*
X115878998Y-65503962D01*
X115796828Y-65275635D01*
X115741707Y-65172512D01*
X115573003Y-65070417D01*
X114836475Y-65806945D01*
X114521105Y-65806945D01*
X113784577Y-65070417D01*
X113615873Y-65172512D01*
X113512525Y-65392067D01*
X113453995Y-65627565D01*
X113442535Y-65869957D01*
X110893763Y-65869957D01*
X110841717Y-65772587D01*
X110673013Y-65670492D01*
X109936485Y-66407020D01*
X109621115Y-66407020D01*
X108884587Y-65670492D01*
X108715883Y-65772587D01*
X108612535Y-65992142D01*
X108554005Y-66227640D01*
X108542545Y-66470032D01*
X105809157Y-66470032D01*
X105738125Y-66399000D01*
X104911500Y-66399000D01*
X104688500Y-66399000D01*
X103861875Y-66399000D01*
X103782500Y-66478375D01*
X103780964Y-66800000D01*
X100361489Y-66800000D01*
X100498209Y-66663280D01*
X100612080Y-66492862D01*
X100690515Y-66303503D01*
X100730500Y-66102480D01*
X100730500Y-65897520D01*
X100706130Y-65775000D01*
X103780964Y-65775000D01*
X103782500Y-66096625D01*
X103861875Y-66176000D01*
X104688500Y-66176000D01*
X104688500Y-65536875D01*
X104911500Y-65536875D01*
X104911500Y-66176000D01*
X105738125Y-66176000D01*
X105817500Y-66096625D01*
X105819036Y-65775000D01*
X105812906Y-65712759D01*
X105794751Y-65652910D01*
X105765269Y-65597753D01*
X105725593Y-65549407D01*
X105680996Y-65512807D01*
X109042272Y-65512807D01*
X109778800Y-66249335D01*
X110515328Y-65512807D01*
X110413233Y-65344103D01*
X110193678Y-65240755D01*
X109958180Y-65182225D01*
X109715788Y-65170765D01*
X109475817Y-65206812D01*
X109247490Y-65288982D01*
X109144367Y-65344103D01*
X109042272Y-65512807D01*
X105680996Y-65512807D01*
X105677247Y-65509731D01*
X105622090Y-65480249D01*
X105562241Y-65462094D01*
X105500000Y-65455964D01*
X104990875Y-65457500D01*
X104911500Y-65536875D01*
X104688500Y-65536875D01*
X104609125Y-65457500D01*
X104100000Y-65455964D01*
X104037759Y-65462094D01*
X103977910Y-65480249D01*
X103922753Y-65509731D01*
X103874407Y-65549407D01*
X103834731Y-65597753D01*
X103805249Y-65652910D01*
X103787094Y-65712759D01*
X103780964Y-65775000D01*
X100706130Y-65775000D01*
X100690515Y-65696497D01*
X100612080Y-65507138D01*
X100498209Y-65336720D01*
X100353280Y-65191791D01*
X100182862Y-65077920D01*
X99993503Y-64999485D01*
X99792480Y-64959500D01*
X99587520Y-64959500D01*
X99386497Y-64999485D01*
X99197138Y-65077920D01*
X99026720Y-65191791D01*
X98881791Y-65336720D01*
X98767920Y-65507138D01*
X98689485Y-65696497D01*
X98649500Y-65897520D01*
X98191421Y-65897520D01*
X98191421Y-65150000D01*
X98187743Y-65112656D01*
X98176850Y-65076746D01*
X98159161Y-65043652D01*
X98135355Y-65014645D01*
X98106348Y-64990839D01*
X98073254Y-64973150D01*
X98037344Y-64962257D01*
X98000000Y-64958579D01*
X96300000Y-64958579D01*
X96262656Y-64962257D01*
X96226746Y-64973150D01*
X96193652Y-64990839D01*
X96164645Y-65014645D01*
X96140839Y-65043652D01*
X96123150Y-65076746D01*
X96112257Y-65112656D01*
X96108579Y-65150000D01*
X85045550Y-65150000D01*
X85045550Y-64912732D01*
X113942262Y-64912732D01*
X114678790Y-65649260D01*
X115415318Y-64912732D01*
X115313223Y-64744028D01*
X115093668Y-64640680D01*
X114858170Y-64582150D01*
X114615778Y-64570690D01*
X114375807Y-64606737D01*
X114147480Y-64688907D01*
X114044357Y-64744028D01*
X113942262Y-64912732D01*
X85045550Y-64912732D01*
X85045550Y-64090543D01*
X116490450Y-64089556D01*
X116490451Y-83990457D01*
%TA.AperFunction,Conductor*%
D17*
G36*
X116490451Y-83990457D02*
G01*
X85045550Y-83991444D01*
X85045550Y-82551266D01*
X113942262Y-82551266D01*
X114044357Y-82719970D01*
X114263912Y-82823318D01*
X114499410Y-82881848D01*
X114741802Y-82893308D01*
X114981773Y-82857261D01*
X115210100Y-82775091D01*
X115313223Y-82719970D01*
X115415318Y-82551266D01*
X114678790Y-81814738D01*
X113942262Y-82551266D01*
X85045550Y-82551266D01*
X85045550Y-81951191D01*
X109042272Y-81951191D01*
X109144367Y-82119895D01*
X109363922Y-82223243D01*
X109599420Y-82281773D01*
X109841812Y-82293233D01*
X110081783Y-82257186D01*
X110310110Y-82175016D01*
X110413233Y-82119895D01*
X110515328Y-81951191D01*
X109778800Y-81214663D01*
X109042272Y-81951191D01*
X85045550Y-81951191D01*
X85045550Y-80322188D01*
X87718501Y-80322188D01*
X87718501Y-80509814D01*
X87755105Y-80693835D01*
X87826906Y-80867179D01*
X87931146Y-81023185D01*
X88063817Y-81155856D01*
X88219823Y-81260096D01*
X88393167Y-81331897D01*
X88577188Y-81368501D01*
X88764814Y-81368501D01*
X88948835Y-81331897D01*
X89122179Y-81260096D01*
X89278185Y-81155856D01*
X89410856Y-81023185D01*
X89515096Y-80867179D01*
X89586897Y-80693835D01*
X89623501Y-80509814D01*
X89623501Y-80322188D01*
X90258501Y-80322188D01*
X90258501Y-80509814D01*
X90295105Y-80693835D01*
X90366906Y-80867179D01*
X90471146Y-81023185D01*
X90603817Y-81155856D01*
X90759823Y-81260096D01*
X90933167Y-81331897D01*
X91117188Y-81368501D01*
X91304814Y-81368501D01*
X91488835Y-81331897D01*
X91662179Y-81260096D01*
X91818185Y-81155856D01*
X91854051Y-81119990D01*
X108542545Y-81119990D01*
X108578592Y-81359961D01*
X108660762Y-81588288D01*
X108715883Y-81691411D01*
X108884587Y-81793506D01*
X109621115Y-81056978D01*
X109936485Y-81056978D01*
X110673013Y-81793506D01*
X110794368Y-81720065D01*
X113442535Y-81720065D01*
X113478582Y-81960036D01*
X113560752Y-82188363D01*
X113615873Y-82291486D01*
X113784577Y-82393581D01*
X114521105Y-81657053D01*
X114836475Y-81657053D01*
X115573003Y-82393581D01*
X115741707Y-82291486D01*
X115845055Y-82071931D01*
X115903585Y-81836433D01*
X115915045Y-81594041D01*
X115878998Y-81354070D01*
X115796828Y-81125743D01*
X115741707Y-81022620D01*
X115573003Y-80920525D01*
X114836475Y-81657053D01*
X114521105Y-81657053D01*
X113784577Y-80920525D01*
X113615873Y-81022620D01*
X113512525Y-81242175D01*
X113453995Y-81477673D01*
X113442535Y-81720065D01*
X110794368Y-81720065D01*
X110841717Y-81691411D01*
X110945065Y-81471856D01*
X111003595Y-81236358D01*
X111015055Y-80993966D01*
X110980337Y-80762840D01*
X113942262Y-80762840D01*
X114678790Y-81499368D01*
X115415318Y-80762840D01*
X115313223Y-80594136D01*
X115093668Y-80490788D01*
X114858170Y-80432258D01*
X114615778Y-80420798D01*
X114375807Y-80456845D01*
X114147480Y-80539015D01*
X114044357Y-80594136D01*
X113942262Y-80762840D01*
X110980337Y-80762840D01*
X110979008Y-80753995D01*
X110896838Y-80525668D01*
X110841717Y-80422545D01*
X110673013Y-80320450D01*
X109936485Y-81056978D01*
X109621115Y-81056978D01*
X108884587Y-80320450D01*
X108715883Y-80422545D01*
X108612535Y-80642100D01*
X108554005Y-80877598D01*
X108542545Y-81119990D01*
X91854051Y-81119990D01*
X91950856Y-81023185D01*
X92055096Y-80867179D01*
X92126897Y-80693835D01*
X92163501Y-80509814D01*
X92163501Y-80322188D01*
X92131790Y-80162765D01*
X109042272Y-80162765D01*
X109778800Y-80899293D01*
X110515328Y-80162765D01*
X110413233Y-79994061D01*
X110193678Y-79890713D01*
X109958180Y-79832183D01*
X109715788Y-79820723D01*
X109475817Y-79856770D01*
X109247490Y-79938940D01*
X109144367Y-79994061D01*
X109042272Y-80162765D01*
X92131790Y-80162765D01*
X92126897Y-80138167D01*
X92055096Y-79964823D01*
X91950856Y-79808817D01*
X91818185Y-79676146D01*
X91662179Y-79571906D01*
X91488835Y-79500105D01*
X91304814Y-79463501D01*
X91117188Y-79463501D01*
X90933167Y-79500105D01*
X90759823Y-79571906D01*
X90603817Y-79676146D01*
X90471146Y-79808817D01*
X90366906Y-79964823D01*
X90295105Y-80138167D01*
X90258501Y-80322188D01*
X89623501Y-80322188D01*
X89586897Y-80138167D01*
X89515096Y-79964823D01*
X89410856Y-79808817D01*
X89278185Y-79676146D01*
X89122179Y-79571906D01*
X88948835Y-79500105D01*
X88764814Y-79463501D01*
X88577188Y-79463501D01*
X88393167Y-79500105D01*
X88219823Y-79571906D01*
X88063817Y-79676146D01*
X87931146Y-79808817D01*
X87826906Y-79964823D01*
X87755105Y-80138167D01*
X87718501Y-80322188D01*
X85045550Y-80322188D01*
X85045550Y-78661346D01*
X88043340Y-78661346D01*
X88126999Y-78814450D01*
X88320534Y-78902547D01*
X88527538Y-78951195D01*
X88740054Y-78958523D01*
X88949916Y-78924251D01*
X89149061Y-78849696D01*
X89215003Y-78814450D01*
X89298662Y-78661346D01*
X90583340Y-78661346D01*
X90666999Y-78814450D01*
X90860534Y-78902547D01*
X91067538Y-78951195D01*
X91280054Y-78958523D01*
X91489916Y-78924251D01*
X91689061Y-78849696D01*
X91755003Y-78814450D01*
X91838662Y-78661346D01*
X91211001Y-78033686D01*
X90583340Y-78661346D01*
X89298662Y-78661346D01*
X88671001Y-78033686D01*
X88043340Y-78661346D01*
X85045550Y-78661346D01*
X85045550Y-77945054D01*
X87588479Y-77945054D01*
X87622751Y-78154916D01*
X87697306Y-78354061D01*
X87732552Y-78420003D01*
X87885656Y-78503662D01*
X88513316Y-77876001D01*
X88828686Y-77876001D01*
X89456346Y-78503662D01*
X89609450Y-78420003D01*
X89697547Y-78226468D01*
X89746195Y-78019464D01*
X89748760Y-77945054D01*
X90128479Y-77945054D01*
X90162751Y-78154916D01*
X90237306Y-78354061D01*
X90272552Y-78420003D01*
X90425656Y-78503662D01*
X91053316Y-77876001D01*
X91368686Y-77876001D01*
X91996346Y-78503662D01*
X92149450Y-78420003D01*
X92237547Y-78226468D01*
X92286195Y-78019464D01*
X92293523Y-77806948D01*
X92259251Y-77597086D01*
X92184696Y-77397941D01*
X92149450Y-77331999D01*
X91996346Y-77248340D01*
X91368686Y-77876001D01*
X91053316Y-77876001D01*
X90425656Y-77248340D01*
X90272552Y-77331999D01*
X90184455Y-77525534D01*
X90135807Y-77732538D01*
X90128479Y-77945054D01*
X89748760Y-77945054D01*
X89753523Y-77806948D01*
X89719251Y-77597086D01*
X89644696Y-77397941D01*
X89609450Y-77331999D01*
X89456346Y-77248340D01*
X88828686Y-77876001D01*
X88513316Y-77876001D01*
X87885656Y-77248340D01*
X87732552Y-77331999D01*
X87644455Y-77525534D01*
X87595807Y-77732538D01*
X87588479Y-77945054D01*
X85045550Y-77945054D01*
X85045550Y-77090656D01*
X88043340Y-77090656D01*
X88671001Y-77718316D01*
X89298662Y-77090656D01*
X90583340Y-77090656D01*
X91211001Y-77718316D01*
X91838662Y-77090656D01*
X91755003Y-76937552D01*
X91561468Y-76849455D01*
X91354464Y-76800807D01*
X91141948Y-76793479D01*
X90932086Y-76827751D01*
X90732941Y-76902306D01*
X90666999Y-76937552D01*
X90583340Y-77090656D01*
X89298662Y-77090656D01*
X89215003Y-76937552D01*
X89021468Y-76849455D01*
X88814464Y-76800807D01*
X88601948Y-76793479D01*
X88392086Y-76827751D01*
X88192941Y-76902306D01*
X88126999Y-76937552D01*
X88043340Y-77090656D01*
X85045550Y-77090656D01*
X85045550Y-75242188D01*
X87718501Y-75242188D01*
X87718501Y-75429814D01*
X87755105Y-75613835D01*
X87826906Y-75787179D01*
X87931146Y-75943185D01*
X88063817Y-76075856D01*
X88219823Y-76180096D01*
X88393167Y-76251897D01*
X88577188Y-76288501D01*
X88764814Y-76288501D01*
X88948835Y-76251897D01*
X89122179Y-76180096D01*
X89278185Y-76075856D01*
X89410856Y-75943185D01*
X89515096Y-75787179D01*
X89586897Y-75613835D01*
X89623501Y-75429814D01*
X89623501Y-75242188D01*
X90258501Y-75242188D01*
X90258501Y-75429814D01*
X90295105Y-75613835D01*
X90366906Y-75787179D01*
X90471146Y-75943185D01*
X90603817Y-76075856D01*
X90759823Y-76180096D01*
X90933167Y-76251897D01*
X91117188Y-76288501D01*
X91304814Y-76288501D01*
X91488835Y-76251897D01*
X91662179Y-76180096D01*
X91818185Y-76075856D01*
X91950856Y-75943185D01*
X92055096Y-75787179D01*
X92126897Y-75613835D01*
X92163501Y-75429814D01*
X92163501Y-75242188D01*
X92126897Y-75058167D01*
X92055096Y-74884823D01*
X91950856Y-74728817D01*
X91818185Y-74596146D01*
X91662179Y-74491906D01*
X91488835Y-74420105D01*
X91304814Y-74383501D01*
X91117188Y-74383501D01*
X90933167Y-74420105D01*
X90759823Y-74491906D01*
X90603817Y-74596146D01*
X90471146Y-74728817D01*
X90366906Y-74884823D01*
X90295105Y-75058167D01*
X90258501Y-75242188D01*
X89623501Y-75242188D01*
X89586897Y-75058167D01*
X89515096Y-74884823D01*
X89410856Y-74728817D01*
X89278185Y-74596146D01*
X89122179Y-74491906D01*
X88948835Y-74420105D01*
X88764814Y-74383501D01*
X88577188Y-74383501D01*
X88393167Y-74420105D01*
X88219823Y-74491906D01*
X88063817Y-74596146D01*
X87931146Y-74728817D01*
X87826906Y-74884823D01*
X87755105Y-75058167D01*
X87718501Y-75242188D01*
X85045550Y-75242188D01*
X85045550Y-72702188D01*
X87718501Y-72702188D01*
X87718501Y-72889814D01*
X87755105Y-73073835D01*
X87826906Y-73247179D01*
X87931146Y-73403185D01*
X88063817Y-73535856D01*
X88219823Y-73640096D01*
X88393167Y-73711897D01*
X88577188Y-73748501D01*
X88764814Y-73748501D01*
X88948835Y-73711897D01*
X89122179Y-73640096D01*
X89278185Y-73535856D01*
X89410856Y-73403185D01*
X89515096Y-73247179D01*
X89586897Y-73073835D01*
X89623501Y-72889814D01*
X89623501Y-72702188D01*
X90258501Y-72702188D01*
X90258501Y-72889814D01*
X90295105Y-73073835D01*
X90366906Y-73247179D01*
X90471146Y-73403185D01*
X90603817Y-73535856D01*
X90759823Y-73640096D01*
X90933167Y-73711897D01*
X91117188Y-73748501D01*
X91304814Y-73748501D01*
X91488835Y-73711897D01*
X91662179Y-73640096D01*
X91818185Y-73535856D01*
X91836521Y-73517520D01*
X96109500Y-73517520D01*
X96109500Y-73722480D01*
X96149485Y-73923503D01*
X96227920Y-74112862D01*
X96341791Y-74283280D01*
X96486720Y-74428209D01*
X96657138Y-74542080D01*
X96846497Y-74620515D01*
X97047520Y-74660500D01*
X97252480Y-74660500D01*
X97453503Y-74620515D01*
X97642862Y-74542080D01*
X97813280Y-74428209D01*
X97958209Y-74283280D01*
X98072080Y-74112862D01*
X98150515Y-73923503D01*
X98190500Y-73722480D01*
X98190500Y-73517520D01*
X98649500Y-73517520D01*
X98649500Y-73722480D01*
X98689485Y-73923503D01*
X98767920Y-74112862D01*
X98881791Y-74283280D01*
X99026720Y-74428209D01*
X99197138Y-74542080D01*
X99386497Y-74620515D01*
X99587520Y-74660500D01*
X99792480Y-74660500D01*
X99993503Y-74620515D01*
X100182862Y-74542080D01*
X100353280Y-74428209D01*
X100498209Y-74283280D01*
X100612080Y-74112862D01*
X100690515Y-73923503D01*
X100730500Y-73722480D01*
X100730500Y-73517520D01*
X100690515Y-73316497D01*
X100612080Y-73127138D01*
X100498209Y-72956720D01*
X100353280Y-72811791D01*
X100182862Y-72697920D01*
X99993503Y-72619485D01*
X99792480Y-72579500D01*
X99587520Y-72579500D01*
X99386497Y-72619485D01*
X99197138Y-72697920D01*
X99026720Y-72811791D01*
X98881791Y-72956720D01*
X98767920Y-73127138D01*
X98689485Y-73316497D01*
X98649500Y-73517520D01*
X98190500Y-73517520D01*
X98150515Y-73316497D01*
X98072080Y-73127138D01*
X97958209Y-72956720D01*
X97813280Y-72811791D01*
X97642862Y-72697920D01*
X97453503Y-72619485D01*
X97252480Y-72579500D01*
X97047520Y-72579500D01*
X96846497Y-72619485D01*
X96657138Y-72697920D01*
X96486720Y-72811791D01*
X96341791Y-72956720D01*
X96227920Y-73127138D01*
X96149485Y-73316497D01*
X96109500Y-73517520D01*
X91836521Y-73517520D01*
X91950856Y-73403185D01*
X92055096Y-73247179D01*
X92126897Y-73073835D01*
X92163501Y-72889814D01*
X92163501Y-72702188D01*
X92126897Y-72518167D01*
X92055096Y-72344823D01*
X91950856Y-72188817D01*
X91818185Y-72056146D01*
X91662179Y-71951906D01*
X91488835Y-71880105D01*
X91304814Y-71843501D01*
X91117188Y-71843501D01*
X90933167Y-71880105D01*
X90759823Y-71951906D01*
X90603817Y-72056146D01*
X90471146Y-72188817D01*
X90366906Y-72344823D01*
X90295105Y-72518167D01*
X90258501Y-72702188D01*
X89623501Y-72702188D01*
X89586897Y-72518167D01*
X89515096Y-72344823D01*
X89410856Y-72188817D01*
X89278185Y-72056146D01*
X89122179Y-71951906D01*
X88948835Y-71880105D01*
X88764814Y-71843501D01*
X88577188Y-71843501D01*
X88393167Y-71880105D01*
X88219823Y-71951906D01*
X88063817Y-72056146D01*
X87931146Y-72188817D01*
X87826906Y-72344823D01*
X87755105Y-72518167D01*
X87718501Y-72702188D01*
X85045550Y-72702188D01*
X85045550Y-70162188D01*
X87718501Y-70162188D01*
X87718501Y-70349814D01*
X87755105Y-70533835D01*
X87826906Y-70707179D01*
X87931146Y-70863185D01*
X88063817Y-70995856D01*
X88219823Y-71100096D01*
X88393167Y-71171897D01*
X88577188Y-71208501D01*
X88764814Y-71208501D01*
X88948835Y-71171897D01*
X89122179Y-71100096D01*
X89278185Y-70995856D01*
X89410856Y-70863185D01*
X89515096Y-70707179D01*
X89586897Y-70533835D01*
X89623501Y-70349814D01*
X89623501Y-70162188D01*
X90258501Y-70162188D01*
X90258501Y-70349814D01*
X90295105Y-70533835D01*
X90366906Y-70707179D01*
X90471146Y-70863185D01*
X90603817Y-70995856D01*
X90759823Y-71100096D01*
X90933167Y-71171897D01*
X91117188Y-71208501D01*
X91304814Y-71208501D01*
X91488835Y-71171897D01*
X91662179Y-71100096D01*
X91818185Y-70995856D01*
X91836521Y-70977520D01*
X96109500Y-70977520D01*
X96109500Y-71182480D01*
X96149485Y-71383503D01*
X96227920Y-71572862D01*
X96341791Y-71743280D01*
X96486720Y-71888209D01*
X96657138Y-72002080D01*
X96846497Y-72080515D01*
X97047520Y-72120500D01*
X97252480Y-72120500D01*
X97453503Y-72080515D01*
X97642862Y-72002080D01*
X97813280Y-71888209D01*
X97958209Y-71743280D01*
X98072080Y-71572862D01*
X98150515Y-71383503D01*
X98190500Y-71182480D01*
X98190500Y-70977520D01*
X98150515Y-70776497D01*
X98072080Y-70587138D01*
X98044039Y-70545171D01*
X98535210Y-70054000D01*
X99514622Y-70054000D01*
X99386497Y-70079485D01*
X99197138Y-70157920D01*
X99026720Y-70271791D01*
X98881791Y-70416720D01*
X98767920Y-70587138D01*
X98689485Y-70776497D01*
X98649500Y-70977520D01*
X98649500Y-71182480D01*
X98689485Y-71383503D01*
X98767920Y-71572862D01*
X98881791Y-71743280D01*
X99026720Y-71888209D01*
X99197138Y-72002080D01*
X99386497Y-72080515D01*
X99587520Y-72120500D01*
X99792480Y-72120500D01*
X99993503Y-72080515D01*
X100182862Y-72002080D01*
X100353280Y-71888209D01*
X100498209Y-71743280D01*
X100612080Y-71572862D01*
X100690515Y-71383503D01*
X100730500Y-71182480D01*
X100730500Y-70977520D01*
X100690515Y-70776497D01*
X100612080Y-70587138D01*
X100498209Y-70416720D01*
X100353280Y-70271791D01*
X100182862Y-70157920D01*
X99993503Y-70079485D01*
X99865378Y-70054000D01*
X108644790Y-70054000D01*
X110098667Y-71507878D01*
X110078350Y-71556927D01*
X110059500Y-71651690D01*
X110059500Y-71748310D01*
X110078350Y-71843073D01*
X110115325Y-71932339D01*
X110169004Y-72012675D01*
X110237325Y-72080996D01*
X110317661Y-72134675D01*
X110406927Y-72171650D01*
X110501690Y-72190500D01*
X110598310Y-72190500D01*
X110693073Y-72171650D01*
X110782339Y-72134675D01*
X110862675Y-72080996D01*
X110930996Y-72012675D01*
X110984675Y-71932339D01*
X111021650Y-71843073D01*
X111040500Y-71748310D01*
X111040500Y-71651690D01*
X111021650Y-71556927D01*
X110984675Y-71467661D01*
X110930996Y-71387325D01*
X110862675Y-71319004D01*
X110782339Y-71265325D01*
X110693073Y-71228350D01*
X110598310Y-71209500D01*
X110518711Y-71209500D01*
X108938419Y-69629208D01*
X108930473Y-69619527D01*
X108920791Y-69611581D01*
X108920788Y-69611578D01*
X108908323Y-69601349D01*
X108891797Y-69587786D01*
X108847672Y-69564200D01*
X108799793Y-69549676D01*
X108762469Y-69546000D01*
X108762458Y-69546000D01*
X108750000Y-69544773D01*
X108737542Y-69546000D01*
X99965927Y-69546000D01*
X99993503Y-69540515D01*
X100182862Y-69462080D01*
X100353280Y-69348209D01*
X100498209Y-69203280D01*
X100612080Y-69032862D01*
X100690515Y-68843503D01*
X100700362Y-68794000D01*
X100984790Y-68794000D01*
X101611581Y-69420791D01*
X101619527Y-69430473D01*
X101629209Y-69438419D01*
X101629212Y-69438422D01*
X101658203Y-69462215D01*
X101677732Y-69472653D01*
X101702328Y-69485800D01*
X101750207Y-69500324D01*
X101787531Y-69504000D01*
X101787542Y-69504000D01*
X101800000Y-69505227D01*
X101812458Y-69504000D01*
X104737542Y-69504000D01*
X104750000Y-69505227D01*
X104762458Y-69504000D01*
X110163208Y-69504000D01*
X110169004Y-69512675D01*
X110237325Y-69580996D01*
X110317661Y-69634675D01*
X110406927Y-69671650D01*
X110501690Y-69690500D01*
X110598310Y-69690500D01*
X110693073Y-69671650D01*
X110782339Y-69634675D01*
X110862675Y-69580996D01*
X110930996Y-69512675D01*
X110984675Y-69432339D01*
X111021650Y-69343073D01*
X111040500Y-69248310D01*
X111040500Y-69151690D01*
X111021650Y-69056927D01*
X110984675Y-68967661D01*
X110930996Y-68887325D01*
X110862675Y-68819004D01*
X110782339Y-68765325D01*
X110693073Y-68728350D01*
X110598310Y-68709500D01*
X110501690Y-68709500D01*
X110406927Y-68728350D01*
X110317661Y-68765325D01*
X110237325Y-68819004D01*
X110169004Y-68887325D01*
X110115325Y-68967661D01*
X110103587Y-68996000D01*
X105054000Y-68996000D01*
X105054000Y-68816421D01*
X105250001Y-68816421D01*
X105336118Y-68807939D01*
X105418925Y-68782820D01*
X105495241Y-68742028D01*
X105562132Y-68687132D01*
X105617028Y-68620241D01*
X105657820Y-68543925D01*
X105682939Y-68461118D01*
X105691421Y-68375001D01*
X105691421Y-67849999D01*
X105682939Y-67763882D01*
X105657820Y-67681075D01*
X105617028Y-67604759D01*
X105562132Y-67537868D01*
X105495241Y-67482972D01*
X105418925Y-67442180D01*
X105336118Y-67417061D01*
X105250001Y-67408579D01*
X104349999Y-67408579D01*
X104263882Y-67417061D01*
X104181075Y-67442180D01*
X104104759Y-67482972D01*
X104037868Y-67537868D01*
X103982972Y-67604759D01*
X103942180Y-67681075D01*
X103917061Y-67763882D01*
X103908579Y-67849999D01*
X103908579Y-68375001D01*
X103917061Y-68461118D01*
X103942180Y-68543925D01*
X103982972Y-68620241D01*
X104037868Y-68687132D01*
X104104759Y-68742028D01*
X104181075Y-68782820D01*
X104263882Y-68807939D01*
X104349999Y-68816421D01*
X104546001Y-68816421D01*
X104546001Y-68996000D01*
X101905210Y-68996000D01*
X101278419Y-68369209D01*
X101270473Y-68359527D01*
X101260791Y-68351581D01*
X101260788Y-68351578D01*
X101248323Y-68341349D01*
X101231797Y-68327786D01*
X101187672Y-68304200D01*
X101139793Y-68289676D01*
X101102469Y-68286000D01*
X101102458Y-68286000D01*
X101090000Y-68284773D01*
X101077542Y-68286000D01*
X100700362Y-68286000D01*
X100690515Y-68236497D01*
X100612080Y-68047138D01*
X100498209Y-67876720D01*
X100353280Y-67731791D01*
X100182862Y-67617920D01*
X99993503Y-67539485D01*
X99792480Y-67499500D01*
X99587520Y-67499500D01*
X99386497Y-67539485D01*
X99197138Y-67617920D01*
X99026720Y-67731791D01*
X98881791Y-67876720D01*
X98767920Y-68047138D01*
X98689485Y-68236497D01*
X98649500Y-68437520D01*
X98649500Y-68642480D01*
X98689485Y-68843503D01*
X98767920Y-69032862D01*
X98881791Y-69203280D01*
X99026720Y-69348209D01*
X99197138Y-69462080D01*
X99386497Y-69540515D01*
X99414073Y-69546000D01*
X98442457Y-69546000D01*
X98429999Y-69544773D01*
X98417541Y-69546000D01*
X98417531Y-69546000D01*
X98380207Y-69549676D01*
X98332328Y-69564200D01*
X98288202Y-69587786D01*
X98259211Y-69611579D01*
X98259209Y-69611581D01*
X98249527Y-69619527D01*
X98241581Y-69629209D01*
X97684829Y-70185961D01*
X97642862Y-70157920D01*
X97453503Y-70079485D01*
X97252480Y-70039500D01*
X97047520Y-70039500D01*
X96846497Y-70079485D01*
X96657138Y-70157920D01*
X96486720Y-70271791D01*
X96341791Y-70416720D01*
X96227920Y-70587138D01*
X96149485Y-70776497D01*
X96109500Y-70977520D01*
X91836521Y-70977520D01*
X91950856Y-70863185D01*
X92055096Y-70707179D01*
X92126897Y-70533835D01*
X92163501Y-70349814D01*
X92163501Y-70162188D01*
X92126897Y-69978167D01*
X92055096Y-69804823D01*
X91950856Y-69648817D01*
X91818185Y-69516146D01*
X91662179Y-69411906D01*
X91488835Y-69340105D01*
X91304814Y-69303501D01*
X91117188Y-69303501D01*
X90933167Y-69340105D01*
X90759823Y-69411906D01*
X90603817Y-69516146D01*
X90471146Y-69648817D01*
X90366906Y-69804823D01*
X90295105Y-69978167D01*
X90258501Y-70162188D01*
X89623501Y-70162188D01*
X89586897Y-69978167D01*
X89515096Y-69804823D01*
X89410856Y-69648817D01*
X89278185Y-69516146D01*
X89122179Y-69411906D01*
X88948835Y-69340105D01*
X88764814Y-69303501D01*
X88577188Y-69303501D01*
X88393167Y-69340105D01*
X88219823Y-69411906D01*
X88063817Y-69516146D01*
X87931146Y-69648817D01*
X87826906Y-69804823D01*
X87755105Y-69978167D01*
X87718501Y-70162188D01*
X85045550Y-70162188D01*
X85045550Y-68831930D01*
X96019588Y-68831930D01*
X96047904Y-68925295D01*
X96144248Y-69132900D01*
X96279242Y-69317720D01*
X96447699Y-69472653D01*
X96643145Y-69591744D01*
X96858069Y-69670418D01*
X97038500Y-69622794D01*
X97038500Y-68651500D01*
X97261500Y-68651500D01*
X97261500Y-69622794D01*
X97441931Y-69670418D01*
X97656855Y-69591744D01*
X97852301Y-69472653D01*
X98020758Y-69317720D01*
X98155752Y-69132900D01*
X98252096Y-68925295D01*
X98280412Y-68831930D01*
X98232397Y-68651500D01*
X97261500Y-68651500D01*
X97038500Y-68651500D01*
X96067603Y-68651500D01*
X96019588Y-68831930D01*
X85045550Y-68831930D01*
X85045550Y-67622188D01*
X87718501Y-67622188D01*
X87718501Y-67809814D01*
X87755105Y-67993835D01*
X87826906Y-68167179D01*
X87931146Y-68323185D01*
X88063817Y-68455856D01*
X88219823Y-68560096D01*
X88393167Y-68631897D01*
X88577188Y-68668501D01*
X88764814Y-68668501D01*
X88948835Y-68631897D01*
X89122179Y-68560096D01*
X89278185Y-68455856D01*
X89410856Y-68323185D01*
X89515096Y-68167179D01*
X89586897Y-67993835D01*
X89623501Y-67809814D01*
X89623501Y-67622188D01*
X89586897Y-67438167D01*
X89515096Y-67264823D01*
X89410856Y-67108817D01*
X89278185Y-66976146D01*
X89245043Y-66954001D01*
X90257580Y-66954001D01*
X90257580Y-68478001D01*
X90261258Y-68515345D01*
X90272151Y-68551255D01*
X90289840Y-68584349D01*
X90313646Y-68613356D01*
X90342653Y-68637162D01*
X90375747Y-68654851D01*
X90411657Y-68665744D01*
X90449001Y-68669422D01*
X91973001Y-68669422D01*
X92010345Y-68665744D01*
X92046255Y-68654851D01*
X92079349Y-68637162D01*
X92108356Y-68613356D01*
X92132162Y-68584349D01*
X92149851Y-68551255D01*
X92160744Y-68515345D01*
X92164422Y-68478001D01*
X92164422Y-68248070D01*
X96019588Y-68248070D01*
X96067603Y-68428500D01*
X97038500Y-68428500D01*
X97038500Y-67457206D01*
X97261500Y-67457206D01*
X97261500Y-68428500D01*
X98232397Y-68428500D01*
X98280412Y-68248070D01*
X98252096Y-68154705D01*
X98155752Y-67947100D01*
X98020758Y-67762280D01*
X97852301Y-67607347D01*
X97656855Y-67488256D01*
X97441931Y-67409582D01*
X97261500Y-67457206D01*
X97038500Y-67457206D01*
X96858069Y-67409582D01*
X96643145Y-67488256D01*
X96447699Y-67607347D01*
X96279242Y-67762280D01*
X96144248Y-67947100D01*
X96047904Y-68154705D01*
X96019588Y-68248070D01*
X92164422Y-68248070D01*
X92164422Y-67301233D01*
X109042272Y-67301233D01*
X109144367Y-67469937D01*
X109363922Y-67573285D01*
X109599420Y-67631815D01*
X109841812Y-67643275D01*
X110081783Y-67607228D01*
X110310110Y-67525058D01*
X110413233Y-67469937D01*
X110515328Y-67301233D01*
X109778800Y-66564705D01*
X109042272Y-67301233D01*
X92164422Y-67301233D01*
X92164422Y-66954001D01*
X92160744Y-66916657D01*
X92149851Y-66880747D01*
X92132162Y-66847653D01*
X92108356Y-66818646D01*
X92079349Y-66794840D01*
X92046255Y-66777151D01*
X92010345Y-66766258D01*
X91973001Y-66762580D01*
X90449001Y-66762580D01*
X90411657Y-66766258D01*
X90375747Y-66777151D01*
X90342653Y-66794840D01*
X90313646Y-66818646D01*
X90289840Y-66847653D01*
X90272151Y-66880747D01*
X90261258Y-66916657D01*
X90257580Y-66954001D01*
X89245043Y-66954001D01*
X89122179Y-66871906D01*
X88948835Y-66800105D01*
X88764814Y-66763501D01*
X88577188Y-66763501D01*
X88393167Y-66800105D01*
X88219823Y-66871906D01*
X88063817Y-66976146D01*
X87931146Y-67108817D01*
X87826906Y-67264823D01*
X87755105Y-67438167D01*
X87718501Y-67622188D01*
X85045550Y-67622188D01*
X85045550Y-65150000D01*
X96108579Y-65150000D01*
X96108579Y-66850000D01*
X96112257Y-66887344D01*
X96123150Y-66923254D01*
X96140839Y-66956348D01*
X96164645Y-66985355D01*
X96193652Y-67009161D01*
X96226746Y-67026850D01*
X96262656Y-67037743D01*
X96300000Y-67041421D01*
X98000000Y-67041421D01*
X98037344Y-67037743D01*
X98073254Y-67026850D01*
X98106348Y-67009161D01*
X98135355Y-66985355D01*
X98159161Y-66956348D01*
X98176850Y-66923254D01*
X98187743Y-66887344D01*
X98191421Y-66850000D01*
X98191421Y-65897520D01*
X98649500Y-65897520D01*
X98649500Y-66102480D01*
X98689485Y-66303503D01*
X98767920Y-66492862D01*
X98881791Y-66663280D01*
X99026720Y-66808209D01*
X99197138Y-66922080D01*
X99386497Y-67000515D01*
X99587520Y-67040500D01*
X99792480Y-67040500D01*
X99993503Y-67000515D01*
X100182862Y-66922080D01*
X100353280Y-66808209D01*
X100361489Y-66800000D01*
X103780964Y-66800000D01*
X103787094Y-66862241D01*
X103805249Y-66922090D01*
X103834731Y-66977247D01*
X103874407Y-67025593D01*
X103922753Y-67065269D01*
X103977910Y-67094751D01*
X104037759Y-67112906D01*
X104100000Y-67119036D01*
X104609125Y-67117500D01*
X104688500Y-67038125D01*
X104688500Y-66399000D01*
X104911500Y-66399000D01*
X104911500Y-67038125D01*
X104990875Y-67117500D01*
X105500000Y-67119036D01*
X105562241Y-67112906D01*
X105622090Y-67094751D01*
X105677247Y-67065269D01*
X105725593Y-67025593D01*
X105765269Y-66977247D01*
X105794751Y-66922090D01*
X105812906Y-66862241D01*
X105819036Y-66800000D01*
X105817500Y-66478375D01*
X105809157Y-66470032D01*
X108542545Y-66470032D01*
X108578592Y-66710003D01*
X108660762Y-66938330D01*
X108715883Y-67041453D01*
X108884587Y-67143548D01*
X109621115Y-66407020D01*
X109936485Y-66407020D01*
X110673013Y-67143548D01*
X110841717Y-67041453D01*
X110945065Y-66821898D01*
X110975073Y-66701158D01*
X113942262Y-66701158D01*
X114044357Y-66869862D01*
X114263912Y-66973210D01*
X114499410Y-67031740D01*
X114741802Y-67043200D01*
X114981773Y-67007153D01*
X115210100Y-66924983D01*
X115313223Y-66869862D01*
X115415318Y-66701158D01*
X114678790Y-65964630D01*
X113942262Y-66701158D01*
X110975073Y-66701158D01*
X111003595Y-66586400D01*
X111015055Y-66344008D01*
X110979008Y-66104037D01*
X110896838Y-65875710D01*
X110893763Y-65869957D01*
X113442535Y-65869957D01*
X113478582Y-66109928D01*
X113560752Y-66338255D01*
X113615873Y-66441378D01*
X113784577Y-66543473D01*
X114521105Y-65806945D01*
X114836475Y-65806945D01*
X115573003Y-66543473D01*
X115741707Y-66441378D01*
X115845055Y-66221823D01*
X115903585Y-65986325D01*
X115915045Y-65743933D01*
X115878998Y-65503962D01*
X115796828Y-65275635D01*
X115741707Y-65172512D01*
X115573003Y-65070417D01*
X114836475Y-65806945D01*
X114521105Y-65806945D01*
X113784577Y-65070417D01*
X113615873Y-65172512D01*
X113512525Y-65392067D01*
X113453995Y-65627565D01*
X113442535Y-65869957D01*
X110893763Y-65869957D01*
X110841717Y-65772587D01*
X110673013Y-65670492D01*
X109936485Y-66407020D01*
X109621115Y-66407020D01*
X108884587Y-65670492D01*
X108715883Y-65772587D01*
X108612535Y-65992142D01*
X108554005Y-66227640D01*
X108542545Y-66470032D01*
X105809157Y-66470032D01*
X105738125Y-66399000D01*
X104911500Y-66399000D01*
X104688500Y-66399000D01*
X103861875Y-66399000D01*
X103782500Y-66478375D01*
X103780964Y-66800000D01*
X100361489Y-66800000D01*
X100498209Y-66663280D01*
X100612080Y-66492862D01*
X100690515Y-66303503D01*
X100730500Y-66102480D01*
X100730500Y-65897520D01*
X100706130Y-65775000D01*
X103780964Y-65775000D01*
X103782500Y-66096625D01*
X103861875Y-66176000D01*
X104688500Y-66176000D01*
X104688500Y-65536875D01*
X104911500Y-65536875D01*
X104911500Y-66176000D01*
X105738125Y-66176000D01*
X105817500Y-66096625D01*
X105819036Y-65775000D01*
X105812906Y-65712759D01*
X105794751Y-65652910D01*
X105765269Y-65597753D01*
X105725593Y-65549407D01*
X105680996Y-65512807D01*
X109042272Y-65512807D01*
X109778800Y-66249335D01*
X110515328Y-65512807D01*
X110413233Y-65344103D01*
X110193678Y-65240755D01*
X109958180Y-65182225D01*
X109715788Y-65170765D01*
X109475817Y-65206812D01*
X109247490Y-65288982D01*
X109144367Y-65344103D01*
X109042272Y-65512807D01*
X105680996Y-65512807D01*
X105677247Y-65509731D01*
X105622090Y-65480249D01*
X105562241Y-65462094D01*
X105500000Y-65455964D01*
X104990875Y-65457500D01*
X104911500Y-65536875D01*
X104688500Y-65536875D01*
X104609125Y-65457500D01*
X104100000Y-65455964D01*
X104037759Y-65462094D01*
X103977910Y-65480249D01*
X103922753Y-65509731D01*
X103874407Y-65549407D01*
X103834731Y-65597753D01*
X103805249Y-65652910D01*
X103787094Y-65712759D01*
X103780964Y-65775000D01*
X100706130Y-65775000D01*
X100690515Y-65696497D01*
X100612080Y-65507138D01*
X100498209Y-65336720D01*
X100353280Y-65191791D01*
X100182862Y-65077920D01*
X99993503Y-64999485D01*
X99792480Y-64959500D01*
X99587520Y-64959500D01*
X99386497Y-64999485D01*
X99197138Y-65077920D01*
X99026720Y-65191791D01*
X98881791Y-65336720D01*
X98767920Y-65507138D01*
X98689485Y-65696497D01*
X98649500Y-65897520D01*
X98191421Y-65897520D01*
X98191421Y-65150000D01*
X98187743Y-65112656D01*
X98176850Y-65076746D01*
X98159161Y-65043652D01*
X98135355Y-65014645D01*
X98106348Y-64990839D01*
X98073254Y-64973150D01*
X98037344Y-64962257D01*
X98000000Y-64958579D01*
X96300000Y-64958579D01*
X96262656Y-64962257D01*
X96226746Y-64973150D01*
X96193652Y-64990839D01*
X96164645Y-65014645D01*
X96140839Y-65043652D01*
X96123150Y-65076746D01*
X96112257Y-65112656D01*
X96108579Y-65150000D01*
X85045550Y-65150000D01*
X85045550Y-64912732D01*
X113942262Y-64912732D01*
X114678790Y-65649260D01*
X115415318Y-64912732D01*
X115313223Y-64744028D01*
X115093668Y-64640680D01*
X114858170Y-64582150D01*
X114615778Y-64570690D01*
X114375807Y-64606737D01*
X114147480Y-64688907D01*
X114044357Y-64744028D01*
X113942262Y-64912732D01*
X85045550Y-64912732D01*
X85045550Y-64090543D01*
X116490450Y-64089556D01*
X116490451Y-83990457D01*
G37*
%TD.AperFunction*%
%TD*%
M02*
