G04 #@! TF.GenerationSoftware,KiCad,Pcbnew,5.1.9*
G04 #@! TF.CreationDate,2021-01-31T15:24:44-06:00*
G04 #@! TF.ProjectId,hdmi_pmod,68646d69-5f70-46d6-9f64-2e6b69636164,rev?*
G04 #@! TF.SameCoordinates,Original*
G04 #@! TF.FileFunction,Legend,Top*
G04 #@! TF.FilePolarity,Positive*
%FSLAX46Y46*%
G04 Gerber Fmt 4.6, Leading zero omitted, Abs format (unit mm)*
G04 Created by KiCad (PCBNEW 5.1.9) date 2021-01-31 15:24:44*
%MOMM*%
%LPD*%
G01*
G04 APERTURE LIST*
%ADD10C,0.100000*%
G04 #@! TA.AperFunction,Profile*
%ADD11C,0.038100*%
G04 #@! TD*
%ADD12C,0.120000*%
%ADD13C,0.304800*%
%ADD14C,0.203200*%
%ADD15C,0.152400*%
%ADD16C,0.150000*%
%ADD17C,0.254000*%
G04 APERTURE END LIST*
D10*
X113652380Y-76945238D02*
X114366666Y-76945238D01*
X114509523Y-76983333D01*
X114604761Y-77059523D01*
X114652380Y-77173809D01*
X114652380Y-77250000D01*
X114652380Y-76183333D02*
X114652380Y-76564285D01*
X113652380Y-76564285D01*
X114557142Y-75459523D02*
X114604761Y-75497619D01*
X114652380Y-75611904D01*
X114652380Y-75688095D01*
X114604761Y-75802380D01*
X114509523Y-75878571D01*
X114414285Y-75916666D01*
X114223809Y-75954761D01*
X114080952Y-75954761D01*
X113890476Y-75916666D01*
X113795238Y-75878571D01*
X113700000Y-75802380D01*
X113652380Y-75688095D01*
X113652380Y-75611904D01*
X113700000Y-75497619D01*
X113747619Y-75459523D01*
X113652380Y-74888095D02*
X114366666Y-74888095D01*
X114509523Y-74926190D01*
X114604761Y-75002380D01*
X114652380Y-75116666D01*
X114652380Y-75192857D01*
X114652380Y-74126190D02*
X114652380Y-74507142D01*
X113652380Y-74507142D01*
X114557142Y-73402380D02*
X114604761Y-73440476D01*
X114652380Y-73554761D01*
X114652380Y-73630952D01*
X114604761Y-73745238D01*
X114509523Y-73821428D01*
X114414285Y-73859523D01*
X114223809Y-73897619D01*
X114080952Y-73897619D01*
X113890476Y-73859523D01*
X113795238Y-73821428D01*
X113700000Y-73745238D01*
X113652380Y-73630952D01*
X113652380Y-73554761D01*
X113700000Y-73440476D01*
X113747619Y-73402380D01*
X113652380Y-72830952D02*
X114366666Y-72830952D01*
X114509523Y-72869047D01*
X114604761Y-72945238D01*
X114652380Y-73059523D01*
X114652380Y-73135714D01*
X114652380Y-72069047D02*
X114652380Y-72450000D01*
X113652380Y-72450000D01*
X114557142Y-71345238D02*
X114604761Y-71383333D01*
X114652380Y-71497619D01*
X114652380Y-71573809D01*
X114604761Y-71688095D01*
X114509523Y-71764285D01*
X114414285Y-71802380D01*
X114223809Y-71840476D01*
X114080952Y-71840476D01*
X113890476Y-71802380D01*
X113795238Y-71764285D01*
X113700000Y-71688095D01*
X113652380Y-71573809D01*
X113652380Y-71497619D01*
X113700000Y-71383333D01*
X113747619Y-71345238D01*
X113652380Y-70773809D02*
X114366666Y-70773809D01*
X114509523Y-70811904D01*
X114604761Y-70888095D01*
X114652380Y-71002380D01*
X114652380Y-71078571D01*
X114652380Y-70011904D02*
X114652380Y-70392857D01*
X113652380Y-70392857D01*
X114557142Y-69288095D02*
X114604761Y-69326190D01*
X114652380Y-69440476D01*
X114652380Y-69516666D01*
X114604761Y-69630952D01*
X114509523Y-69707142D01*
X114414285Y-69745238D01*
X114223809Y-69783333D01*
X114080952Y-69783333D01*
X113890476Y-69745238D01*
X113795238Y-69707142D01*
X113700000Y-69630952D01*
X113652380Y-69516666D01*
X113652380Y-69440476D01*
X113700000Y-69326190D01*
X113747619Y-69288095D01*
D11*
X116700000Y-84200000D02*
X84836000Y-84201000D01*
X116700000Y-63880000D02*
X116700000Y-84200000D01*
X84836000Y-63881000D02*
X116700000Y-63880000D01*
X84836000Y-84201000D02*
X84836000Y-63881000D01*
D12*
G04 #@! TO.C,J1*
X96195000Y-83655000D02*
X96195000Y-82325000D01*
X97525000Y-83655000D02*
X96195000Y-83655000D01*
X96195000Y-81055000D02*
X96195000Y-78455000D01*
X98795000Y-81055000D02*
X96195000Y-81055000D01*
X98795000Y-83655000D02*
X98795000Y-81055000D01*
X96195000Y-78455000D02*
X106475000Y-78455000D01*
X98795000Y-83655000D02*
X106475000Y-83655000D01*
X106475000Y-83655000D02*
X106475000Y-78455000D01*
D13*
G04 #@! TO.C,PMOD0*
X89941001Y-71526001D02*
X89941001Y-76606001D01*
X89941001Y-66446001D02*
X89941001Y-71526001D01*
X87401001Y-71526001D02*
X92481001Y-71526001D01*
X92481001Y-76606001D02*
X87401001Y-76606001D01*
X87401001Y-66446001D02*
X87401001Y-81686001D01*
X87401001Y-81686001D02*
X92481001Y-81686001D01*
X92481001Y-81686001D02*
X92481001Y-66446001D01*
X92481001Y-66446001D02*
X87401001Y-66446001D01*
D14*
X85369001Y-66446001D02*
X87401001Y-66446001D01*
X92481001Y-66446001D02*
X94513001Y-66446001D01*
X92481001Y-71526001D02*
X94513001Y-71526001D01*
X85369001Y-71526001D02*
X87401001Y-71526001D01*
X85369001Y-76606001D02*
X87401001Y-76606001D01*
X92481001Y-76606001D02*
X94513001Y-76606001D01*
D15*
G04 #@! TO.C,J0*
X118555262Y-81364699D02*
X118555262Y-66099299D01*
X118555262Y-66099299D02*
X115891179Y-66099299D01*
X109208062Y-67515900D02*
X109208062Y-68734158D01*
X110987380Y-81364699D02*
X113466401Y-81364699D01*
X109208062Y-78729840D02*
X109208062Y-79948097D01*
X115891179Y-81364699D02*
X118555262Y-81364699D01*
X113466401Y-66099299D02*
X110987380Y-66099299D01*
X108308180Y-81737914D02*
G75*
G03*
X108966000Y-81999699I276820J-261785D01*
G01*
G04 #@! TD*
G04 #@! TO.C,J1*
D16*
X97266666Y-77027380D02*
X97266666Y-77741666D01*
X97219047Y-77884523D01*
X97123809Y-77979761D01*
X96980952Y-78027380D01*
X96885714Y-78027380D01*
X98266666Y-78027380D02*
X97695238Y-78027380D01*
X97980952Y-78027380D02*
X97980952Y-77027380D01*
X97885714Y-77170238D01*
X97790476Y-77265476D01*
X97695238Y-77313095D01*
G04 #@! TO.C,PMOD0*
D17*
X86808334Y-65889620D02*
X86808334Y-64873620D01*
X87195381Y-64873620D01*
X87292143Y-64922001D01*
X87340524Y-64970381D01*
X87388905Y-65067143D01*
X87388905Y-65212286D01*
X87340524Y-65309048D01*
X87292143Y-65357429D01*
X87195381Y-65405810D01*
X86808334Y-65405810D01*
X87824334Y-65889620D02*
X87824334Y-64873620D01*
X88163001Y-65599334D01*
X88501667Y-64873620D01*
X88501667Y-65889620D01*
X89179001Y-64873620D02*
X89372524Y-64873620D01*
X89469286Y-64922001D01*
X89566048Y-65018762D01*
X89614429Y-65212286D01*
X89614429Y-65550953D01*
X89566048Y-65744477D01*
X89469286Y-65841239D01*
X89372524Y-65889620D01*
X89179001Y-65889620D01*
X89082239Y-65841239D01*
X88985477Y-65744477D01*
X88937096Y-65550953D01*
X88937096Y-65212286D01*
X88985477Y-65018762D01*
X89082239Y-64922001D01*
X89179001Y-64873620D01*
X90049858Y-65889620D02*
X90049858Y-64873620D01*
X90291762Y-64873620D01*
X90436905Y-64922001D01*
X90533667Y-65018762D01*
X90582048Y-65115524D01*
X90630429Y-65309048D01*
X90630429Y-65454191D01*
X90582048Y-65647715D01*
X90533667Y-65744477D01*
X90436905Y-65841239D01*
X90291762Y-65889620D01*
X90049858Y-65889620D01*
X91259381Y-64873620D02*
X91356143Y-64873620D01*
X91452905Y-64922001D01*
X91501286Y-64970381D01*
X91549667Y-65067143D01*
X91598048Y-65260667D01*
X91598048Y-65502572D01*
X91549667Y-65696096D01*
X91501286Y-65792858D01*
X91452905Y-65841239D01*
X91356143Y-65889620D01*
X91259381Y-65889620D01*
X91162620Y-65841239D01*
X91114239Y-65792858D01*
X91065858Y-65696096D01*
X91017477Y-65502572D01*
X91017477Y-65260667D01*
X91065858Y-65067143D01*
X91114239Y-64970381D01*
X91162620Y-64922001D01*
X91259381Y-64873620D01*
D16*
X93497096Y-77376001D02*
X93401858Y-77328381D01*
X93259001Y-77328381D01*
X93116143Y-77376001D01*
X93020905Y-77471239D01*
X92973286Y-77566477D01*
X92925667Y-77756953D01*
X92925667Y-77899810D01*
X92973286Y-78090286D01*
X93020905Y-78185524D01*
X93116143Y-78280762D01*
X93259001Y-78328381D01*
X93354239Y-78328381D01*
X93497096Y-78280762D01*
X93544715Y-78233143D01*
X93544715Y-77899810D01*
X93354239Y-77899810D01*
X93973286Y-78328381D02*
X93973286Y-77328381D01*
X94544715Y-78328381D01*
X94544715Y-77328381D01*
X95020905Y-78328381D02*
X95020905Y-77328381D01*
X95259001Y-77328381D01*
X95401858Y-77376001D01*
X95497096Y-77471239D01*
X95544715Y-77566477D01*
X95592334Y-77756953D01*
X95592334Y-77899810D01*
X95544715Y-78090286D01*
X95497096Y-78185524D01*
X95401858Y-78280762D01*
X95259001Y-78328381D01*
X95020905Y-78328381D01*
X92925667Y-79868381D02*
X93259001Y-80868381D01*
X93592334Y-79868381D01*
X94497096Y-80773143D02*
X94449477Y-80820762D01*
X94306620Y-80868381D01*
X94211381Y-80868381D01*
X94068524Y-80820762D01*
X93973286Y-80725524D01*
X93925667Y-80630286D01*
X93878048Y-80439810D01*
X93878048Y-80296953D01*
X93925667Y-80106477D01*
X93973286Y-80011239D01*
X94068524Y-79916001D01*
X94211381Y-79868381D01*
X94306620Y-79868381D01*
X94449477Y-79916001D01*
X94497096Y-79963620D01*
X95497096Y-80773143D02*
X95449477Y-80820762D01*
X95306620Y-80868381D01*
X95211381Y-80868381D01*
X95068524Y-80820762D01*
X94973286Y-80725524D01*
X94925667Y-80630286D01*
X94878048Y-80439810D01*
X94878048Y-80296953D01*
X94925667Y-80106477D01*
X94973286Y-80011239D01*
X95068524Y-79916001D01*
X95211381Y-79868381D01*
X95306620Y-79868381D01*
X95449477Y-79916001D01*
X95497096Y-79963620D01*
X85273858Y-69708381D02*
X85892905Y-69708381D01*
X85559572Y-70089334D01*
X85702429Y-70089334D01*
X85797667Y-70136953D01*
X85845286Y-70184572D01*
X85892905Y-70279810D01*
X85892905Y-70517905D01*
X85845286Y-70613143D01*
X85797667Y-70660762D01*
X85702429Y-70708381D01*
X85416715Y-70708381D01*
X85321477Y-70660762D01*
X85273858Y-70613143D01*
X86321477Y-70708381D02*
X86321477Y-69708381D01*
X86892905Y-70708381D01*
X86892905Y-69708381D01*
X85297667Y-67168381D02*
X85916715Y-67168381D01*
X85583381Y-67549334D01*
X85726239Y-67549334D01*
X85821477Y-67596953D01*
X85869096Y-67644572D01*
X85916715Y-67739810D01*
X85916715Y-67977905D01*
X85869096Y-68073143D01*
X85821477Y-68120762D01*
X85726239Y-68168381D01*
X85440524Y-68168381D01*
X85345286Y-68120762D01*
X85297667Y-68073143D01*
X86345286Y-68168381D02*
X86345286Y-67168381D01*
X86726239Y-67168381D01*
X86821477Y-67216001D01*
X86869096Y-67263620D01*
X86916715Y-67358858D01*
X86916715Y-67501715D01*
X86869096Y-67596953D01*
X86821477Y-67644572D01*
X86726239Y-67692191D01*
X86345286Y-67692191D01*
X85821477Y-72581715D02*
X85821477Y-73248381D01*
X85583381Y-72200762D02*
X85345286Y-72915048D01*
X85964334Y-72915048D01*
X86345286Y-73248381D02*
X86345286Y-72248381D01*
X86726239Y-72248381D01*
X86821477Y-72296001D01*
X86869096Y-72343620D01*
X86916715Y-72438858D01*
X86916715Y-72581715D01*
X86869096Y-72676953D01*
X86821477Y-72724572D01*
X86726239Y-72772191D01*
X86345286Y-72772191D01*
X85797667Y-75121715D02*
X85797667Y-75788381D01*
X85559572Y-74740762D02*
X85321477Y-75455048D01*
X85940524Y-75455048D01*
X86321477Y-75788381D02*
X86321477Y-74788381D01*
X86892905Y-75788381D01*
X86892905Y-74788381D01*
X93536715Y-68168381D02*
X92965286Y-68168381D01*
X93251001Y-68168381D02*
X93251001Y-67168381D01*
X93155762Y-67311239D01*
X93060524Y-67406477D01*
X92965286Y-67454096D01*
X93965286Y-68168381D02*
X93965286Y-67168381D01*
X94346239Y-67168381D01*
X94441477Y-67216001D01*
X94489096Y-67263620D01*
X94536715Y-67358858D01*
X94536715Y-67501715D01*
X94489096Y-67596953D01*
X94441477Y-67644572D01*
X94346239Y-67692191D01*
X93965286Y-67692191D01*
X93512905Y-70708381D02*
X92941477Y-70708381D01*
X93227191Y-70708381D02*
X93227191Y-69708381D01*
X93131953Y-69851239D01*
X93036715Y-69946477D01*
X92941477Y-69994096D01*
X93941477Y-70708381D02*
X93941477Y-69708381D01*
X94512905Y-70708381D01*
X94512905Y-69708381D01*
X92965286Y-72343620D02*
X93012905Y-72296001D01*
X93108143Y-72248381D01*
X93346239Y-72248381D01*
X93441477Y-72296001D01*
X93489096Y-72343620D01*
X93536715Y-72438858D01*
X93536715Y-72534096D01*
X93489096Y-72676953D01*
X92917667Y-73248381D01*
X93536715Y-73248381D01*
X93965286Y-73248381D02*
X93965286Y-72248381D01*
X94346239Y-72248381D01*
X94441477Y-72296001D01*
X94489096Y-72343620D01*
X94536715Y-72438858D01*
X94536715Y-72581715D01*
X94489096Y-72676953D01*
X94441477Y-72724572D01*
X94346239Y-72772191D01*
X93965286Y-72772191D01*
X92941477Y-74883620D02*
X92989096Y-74836001D01*
X93084334Y-74788381D01*
X93322429Y-74788381D01*
X93417667Y-74836001D01*
X93465286Y-74883620D01*
X93512905Y-74978858D01*
X93512905Y-75074096D01*
X93465286Y-75216953D01*
X92893858Y-75788381D01*
X93512905Y-75788381D01*
X93941477Y-75788381D02*
X93941477Y-74788381D01*
X94512905Y-75788381D01*
X94512905Y-74788381D01*
G04 #@! TO.C,J0*
X107316666Y-65752380D02*
X107316666Y-66466666D01*
X107269047Y-66609523D01*
X107173809Y-66704761D01*
X107030952Y-66752380D01*
X106935714Y-66752380D01*
X107983333Y-65752380D02*
X108078571Y-65752380D01*
X108173809Y-65800000D01*
X108221428Y-65847619D01*
X108269047Y-65942857D01*
X108316666Y-66133333D01*
X108316666Y-66371428D01*
X108269047Y-66561904D01*
X108221428Y-66657142D01*
X108173809Y-66704761D01*
X108078571Y-66752380D01*
X107983333Y-66752380D01*
X107888095Y-66704761D01*
X107840476Y-66657142D01*
X107792857Y-66561904D01*
X107745238Y-66371428D01*
X107745238Y-66133333D01*
X107792857Y-65942857D01*
X107840476Y-65847619D01*
X107888095Y-65800000D01*
X107983333Y-65752380D01*
X107452380Y-68525000D02*
X107690476Y-68525000D01*
X107595238Y-68763095D02*
X107690476Y-68525000D01*
X107595238Y-68286904D01*
X107880952Y-68667857D02*
X107690476Y-68525000D01*
X107880952Y-68382142D01*
G04 #@! TD*
M02*
