G04 #@! TF.GenerationSoftware,KiCad,Pcbnew,5.1.9*
G04 #@! TF.CreationDate,2021-01-31T15:24:44-06:00*
G04 #@! TF.ProjectId,hdmi_pmod,68646d69-5f70-46d6-9f64-2e6b69636164,rev?*
G04 #@! TF.SameCoordinates,Original*
G04 #@! TF.FileFunction,Copper,L4,Bot*
G04 #@! TF.FilePolarity,Positive*
%FSLAX46Y46*%
G04 Gerber Fmt 4.6, Leading zero omitted, Abs format (unit mm)*
G04 Created by KiCad (PCBNEW 5.1.9) date 2021-01-31 15:24:44*
%MOMM*%
%LPD*%
G01*
G04 APERTURE LIST*
G04 #@! TA.AperFunction,Profile*
%ADD10C,0.038100*%
G04 #@! TD*
G04 #@! TA.AperFunction,ComponentPad*
%ADD11R,1.700000X1.700000*%
G04 #@! TD*
G04 #@! TA.AperFunction,ComponentPad*
%ADD12O,1.700000X1.700000*%
G04 #@! TD*
G04 #@! TA.AperFunction,ComponentPad*
%ADD13C,1.524000*%
G04 #@! TD*
G04 #@! TA.AperFunction,ComponentPad*
%ADD14R,1.524000X1.524000*%
G04 #@! TD*
G04 #@! TA.AperFunction,ComponentPad*
%ADD15C,1.828800*%
G04 #@! TD*
G04 #@! TA.AperFunction,ViaPad*
%ADD16C,0.600000*%
G04 #@! TD*
G04 #@! TA.AperFunction,Conductor*
%ADD17C,0.127000*%
G04 #@! TD*
G04 #@! TA.AperFunction,Conductor*
%ADD18C,1.000000*%
G04 #@! TD*
G04 #@! TA.AperFunction,Conductor*
%ADD19C,0.100000*%
G04 #@! TD*
G04 APERTURE END LIST*
D10*
X116700000Y-84200000D02*
X84836000Y-84201000D01*
X116700000Y-63880000D02*
X116700000Y-84200000D01*
X84836000Y-63881000D02*
X116700000Y-63880000D01*
X84836000Y-84201000D02*
X84836000Y-63881000D01*
D11*
G04 #@! TO.P,J1,1*
G04 #@! TO.N,+5V*
X97525000Y-82325000D03*
D12*
G04 #@! TO.P,J1,2*
G04 #@! TO.N,+3V3*
X97525000Y-79785000D03*
G04 #@! TO.P,J1,3*
G04 #@! TO.N,GND*
X100065000Y-82325000D03*
G04 #@! TO.P,J1,4*
G04 #@! TO.N,/CEC*
X100065000Y-79785000D03*
G04 #@! TO.P,J1,5*
G04 #@! TO.N,/HEAC+*
X102605000Y-82325000D03*
G04 #@! TO.P,J1,6*
G04 #@! TO.N,/SCL*
X102605000Y-79785000D03*
G04 #@! TO.P,J1,7*
G04 #@! TO.N,/HEAC-*
X105145000Y-82325000D03*
G04 #@! TO.P,J1,8*
G04 #@! TO.N,/SDA*
X105145000Y-79785000D03*
G04 #@! TD*
D13*
G04 #@! TO.P,PMOD0,12*
G04 #@! TO.N,+3V3*
X88671001Y-80416001D03*
G04 #@! TO.P,PMOD0,6*
X91211001Y-80416001D03*
G04 #@! TO.P,PMOD0,11*
G04 #@! TO.N,GND*
X88671001Y-77876001D03*
G04 #@! TO.P,PMOD0,5*
X91211001Y-77876001D03*
G04 #@! TO.P,PMOD0,10*
G04 #@! TO.N,/TMDS_R-*
X88671001Y-75336001D03*
G04 #@! TO.P,PMOD0,4*
G04 #@! TO.N,/TMDS_CLK-*
X91211001Y-75336001D03*
G04 #@! TO.P,PMOD0,9*
G04 #@! TO.N,/TMDS_R+*
X88671001Y-72796001D03*
G04 #@! TO.P,PMOD0,3*
G04 #@! TO.N,/TMDS_CLK+*
X91211001Y-72796001D03*
G04 #@! TO.P,PMOD0,8*
G04 #@! TO.N,/TMDS_B-*
X88671001Y-70256001D03*
G04 #@! TO.P,PMOD0,2*
G04 #@! TO.N,/TMDS_G-*
X91211001Y-70256001D03*
G04 #@! TO.P,PMOD0,7*
G04 #@! TO.N,/TMDS_B+*
X88671001Y-67716001D03*
D14*
G04 #@! TO.P,PMOD0,1*
G04 #@! TO.N,/TMDS_G+*
X91211001Y-67716001D03*
G04 #@! TD*
D15*
G04 #@! TO.P,J0,SH*
G04 #@! TO.N,GND*
X109778800Y-66407020D03*
X109778800Y-81056978D03*
X114678790Y-65806945D03*
X114678790Y-81657053D03*
G04 #@! TD*
G04 #@! TO.P,R1,2*
G04 #@! TO.N,/SCL*
G04 #@! TA.AperFunction,SMDPad,CuDef*
G36*
G01*
X100550001Y-74700000D02*
X99649999Y-74700000D01*
G75*
G02*
X99400000Y-74450001I0J249999D01*
G01*
X99400000Y-73924999D01*
G75*
G02*
X99649999Y-73675000I249999J0D01*
G01*
X100550001Y-73675000D01*
G75*
G02*
X100800000Y-73924999I0J-249999D01*
G01*
X100800000Y-74450001D01*
G75*
G02*
X100550001Y-74700000I-249999J0D01*
G01*
G37*
G04 #@! TD.AperFunction*
G04 #@! TO.P,R1,1*
G04 #@! TO.N,+5V*
G04 #@! TA.AperFunction,SMDPad,CuDef*
G36*
G01*
X100550001Y-76525000D02*
X99649999Y-76525000D01*
G75*
G02*
X99400000Y-76275001I0J249999D01*
G01*
X99400000Y-75749999D01*
G75*
G02*
X99649999Y-75500000I249999J0D01*
G01*
X100550001Y-75500000D01*
G75*
G02*
X100800000Y-75749999I0J-249999D01*
G01*
X100800000Y-76275001D01*
G75*
G02*
X100550001Y-76525000I-249999J0D01*
G01*
G37*
G04 #@! TD.AperFunction*
G04 #@! TD*
G04 #@! TO.P,R2,2*
G04 #@! TO.N,/SDA*
G04 #@! TA.AperFunction,SMDPad,CuDef*
G36*
G01*
X103050001Y-74700000D02*
X102149999Y-74700000D01*
G75*
G02*
X101900000Y-74450001I0J249999D01*
G01*
X101900000Y-73924999D01*
G75*
G02*
X102149999Y-73675000I249999J0D01*
G01*
X103050001Y-73675000D01*
G75*
G02*
X103300000Y-73924999I0J-249999D01*
G01*
X103300000Y-74450001D01*
G75*
G02*
X103050001Y-74700000I-249999J0D01*
G01*
G37*
G04 #@! TD.AperFunction*
G04 #@! TO.P,R2,1*
G04 #@! TO.N,+5V*
G04 #@! TA.AperFunction,SMDPad,CuDef*
G36*
G01*
X103050001Y-76525000D02*
X102149999Y-76525000D01*
G75*
G02*
X101900000Y-76275001I0J249999D01*
G01*
X101900000Y-75749999D01*
G75*
G02*
X102149999Y-75500000I249999J0D01*
G01*
X103050001Y-75500000D01*
G75*
G02*
X103300000Y-75749999I0J-249999D01*
G01*
X103300000Y-76275001D01*
G75*
G02*
X103050001Y-76525000I-249999J0D01*
G01*
G37*
G04 #@! TD.AperFunction*
G04 #@! TD*
G04 #@! TO.P,R3,2*
G04 #@! TO.N,/CEC*
G04 #@! TA.AperFunction,SMDPad,CuDef*
G36*
G01*
X98050001Y-74700000D02*
X97149999Y-74700000D01*
G75*
G02*
X96900000Y-74450001I0J249999D01*
G01*
X96900000Y-73924999D01*
G75*
G02*
X97149999Y-73675000I249999J0D01*
G01*
X98050001Y-73675000D01*
G75*
G02*
X98300000Y-73924999I0J-249999D01*
G01*
X98300000Y-74450001D01*
G75*
G02*
X98050001Y-74700000I-249999J0D01*
G01*
G37*
G04 #@! TD.AperFunction*
G04 #@! TO.P,R3,1*
G04 #@! TO.N,+3V3*
G04 #@! TA.AperFunction,SMDPad,CuDef*
G36*
G01*
X98050001Y-76525000D02*
X97149999Y-76525000D01*
G75*
G02*
X96900000Y-76275001I0J249999D01*
G01*
X96900000Y-75749999D01*
G75*
G02*
X97149999Y-75500000I249999J0D01*
G01*
X98050001Y-75500000D01*
G75*
G02*
X98300000Y-75749999I0J-249999D01*
G01*
X98300000Y-76275001D01*
G75*
G02*
X98050001Y-76525000I-249999J0D01*
G01*
G37*
G04 #@! TD.AperFunction*
G04 #@! TD*
G04 #@! TO.P,R4,2*
G04 #@! TO.N,GND*
G04 #@! TA.AperFunction,SMDPad,CuDef*
G36*
G01*
X104649999Y-75500000D02*
X105550001Y-75500000D01*
G75*
G02*
X105800000Y-75749999I0J-249999D01*
G01*
X105800000Y-76275001D01*
G75*
G02*
X105550001Y-76525000I-249999J0D01*
G01*
X104649999Y-76525000D01*
G75*
G02*
X104400000Y-76275001I0J249999D01*
G01*
X104400000Y-75749999D01*
G75*
G02*
X104649999Y-75500000I249999J0D01*
G01*
G37*
G04 #@! TD.AperFunction*
G04 #@! TO.P,R4,1*
G04 #@! TO.N,/HEAC-*
G04 #@! TA.AperFunction,SMDPad,CuDef*
G36*
G01*
X104649999Y-73675000D02*
X105550001Y-73675000D01*
G75*
G02*
X105800000Y-73924999I0J-249999D01*
G01*
X105800000Y-74450001D01*
G75*
G02*
X105550001Y-74700000I-249999J0D01*
G01*
X104649999Y-74700000D01*
G75*
G02*
X104400000Y-74450001I0J249999D01*
G01*
X104400000Y-73924999D01*
G75*
G02*
X104649999Y-73675000I249999J0D01*
G01*
G37*
G04 #@! TD.AperFunction*
G04 #@! TD*
D16*
G04 #@! TO.N,GND*
X110700000Y-77250000D03*
X110700000Y-74250000D03*
X110700000Y-72750000D03*
X110700000Y-71250000D03*
X110700000Y-69800000D03*
X105100000Y-77200000D03*
G04 #@! TO.N,/CEC*
X110700000Y-75241500D03*
G04 #@! TO.N,/HEAC+*
X111300000Y-75750000D03*
G04 #@! TO.N,/SCL*
X110700000Y-76241488D03*
G04 #@! TO.N,/SDA*
X111300000Y-76700000D03*
G04 #@! TO.N,+5V*
X111300000Y-77750000D03*
G04 #@! TO.N,/HEAC-*
X110700000Y-78250000D03*
G04 #@! TD*
D17*
G04 #@! TO.N,GND*
X109659280Y-66287500D02*
X109778800Y-66407020D01*
X105100000Y-76012500D02*
X105100000Y-77200000D01*
G04 #@! TO.N,/CEC*
X100065000Y-79785000D02*
X98700000Y-78420000D01*
X97600000Y-74187500D02*
X98687500Y-74187500D01*
X98700000Y-78420000D02*
X98700000Y-74200000D01*
X98687500Y-74187500D02*
X98700000Y-74200000D01*
X110141500Y-75241500D02*
X110700000Y-75241500D01*
X107000000Y-72100000D02*
X110141500Y-75241500D01*
X98700000Y-74200000D02*
X98700000Y-72400000D01*
X99000000Y-72100000D02*
X107000000Y-72100000D01*
X98700000Y-72400000D02*
X99000000Y-72100000D01*
G04 #@! TO.N,/SDA*
X104535000Y-79785000D02*
X105145000Y-79785000D01*
G04 #@! TO.N,/HEAC+*
X106800000Y-72500000D02*
X110050000Y-75750000D01*
X99400000Y-72500000D02*
X106800000Y-72500000D01*
X99100000Y-77280058D02*
X99100000Y-72800000D01*
X101100000Y-80820000D02*
X101100000Y-80289942D01*
X102605000Y-82325000D02*
X101100000Y-80820000D01*
X110050000Y-75750000D02*
X111300000Y-75750000D01*
X99100000Y-72800000D02*
X99400000Y-72500000D01*
X101105501Y-80284441D02*
X101105501Y-79285559D01*
X101100000Y-80289942D02*
X101105501Y-80284441D01*
X101105501Y-79285559D02*
X99100000Y-77280058D01*
G04 #@! TO.N,/SCL*
X102300000Y-79480000D02*
X102605000Y-79785000D01*
X100100000Y-74187500D02*
X101087500Y-74187500D01*
X109941488Y-76241488D02*
X110700000Y-76241488D01*
X101100000Y-78280000D02*
X101100000Y-73200000D01*
X102605000Y-79785000D02*
X101100000Y-78280000D01*
X101400000Y-72900000D02*
X106600000Y-72900000D01*
X101100000Y-73200000D02*
X101400000Y-72900000D01*
X106600000Y-72900000D02*
X109941488Y-76241488D01*
G04 #@! TO.N,/SDA*
X104685000Y-79785000D02*
X105145000Y-79785000D01*
X103687500Y-74187500D02*
X103700000Y-74200000D01*
X102600000Y-74187500D02*
X103687500Y-74187500D01*
X103700000Y-77800000D02*
X103700000Y-77159224D01*
X105145000Y-79785000D02*
X105145000Y-79245000D01*
X103700000Y-77159224D02*
X103700000Y-74200000D01*
X105145000Y-79245000D02*
X103700000Y-77800000D01*
X103700000Y-73700000D02*
X104100000Y-73300000D01*
X103700000Y-74200000D02*
X103700000Y-73700000D01*
X111268011Y-76731989D02*
X111300000Y-76700000D01*
X106400000Y-73300000D02*
X109831989Y-76731989D01*
X104100000Y-73300000D02*
X106400000Y-73300000D01*
X109831989Y-76731989D02*
X111268011Y-76731989D01*
G04 #@! TO.N,/HEAC-*
X106300000Y-81170000D02*
X105145000Y-82325000D01*
X105200000Y-74187500D02*
X104212500Y-74187500D01*
X104000000Y-74400000D02*
X104000000Y-77000000D01*
X106300000Y-79300000D02*
X106300000Y-81170000D01*
X104212500Y-74187500D02*
X104000000Y-74400000D01*
X104000000Y-77000000D02*
X106300000Y-79300000D01*
X110050000Y-78250000D02*
X110700000Y-78250000D01*
X105100000Y-74187500D02*
X105987500Y-74187500D01*
X105987500Y-74187500D02*
X110050000Y-78250000D01*
D18*
G04 #@! TO.N,+3V3*
X97525000Y-76087500D02*
X97600000Y-76012500D01*
X97525000Y-79785000D02*
X97525000Y-76087500D01*
X88671001Y-80416001D02*
X91211001Y-80416001D01*
X91227002Y-80400000D02*
X91211001Y-80416001D01*
X97525000Y-79785000D02*
X96910000Y-80400000D01*
X96910000Y-80400000D02*
X91227002Y-80400000D01*
G04 #@! TD*
D17*
G04 #@! TO.N,GND*
X116490451Y-83990457D02*
X112290500Y-83990589D01*
X112290500Y-82551266D01*
X113942262Y-82551266D01*
X114044357Y-82719970D01*
X114263912Y-82823318D01*
X114499410Y-82881848D01*
X114741802Y-82893308D01*
X114981773Y-82857261D01*
X115210100Y-82775091D01*
X115313223Y-82719970D01*
X115415318Y-82551266D01*
X114678790Y-81814738D01*
X113942262Y-82551266D01*
X112290500Y-82551266D01*
X112290500Y-81720065D01*
X113442535Y-81720065D01*
X113478582Y-81960036D01*
X113560752Y-82188363D01*
X113615873Y-82291486D01*
X113784577Y-82393581D01*
X114521105Y-81657053D01*
X114836475Y-81657053D01*
X115573003Y-82393581D01*
X115741707Y-82291486D01*
X115845055Y-82071931D01*
X115903585Y-81836433D01*
X115915045Y-81594041D01*
X115878998Y-81354070D01*
X115796828Y-81125743D01*
X115741707Y-81022620D01*
X115573003Y-80920525D01*
X114836475Y-81657053D01*
X114521105Y-81657053D01*
X113784577Y-80920525D01*
X113615873Y-81022620D01*
X113512525Y-81242175D01*
X113453995Y-81477673D01*
X113442535Y-81720065D01*
X112290500Y-81720065D01*
X112290500Y-80762840D01*
X113942262Y-80762840D01*
X114678790Y-81499368D01*
X115415318Y-80762840D01*
X115313223Y-80594136D01*
X115093668Y-80490788D01*
X114858170Y-80432258D01*
X114615778Y-80420798D01*
X114375807Y-80456845D01*
X114147480Y-80539015D01*
X114044357Y-80594136D01*
X113942262Y-80762840D01*
X112290500Y-80762840D01*
X112290500Y-68700000D01*
X112286840Y-68662835D01*
X112275999Y-68627099D01*
X112258395Y-68594164D01*
X112234704Y-68565296D01*
X112205836Y-68541605D01*
X112172901Y-68524001D01*
X112137165Y-68513160D01*
X112100000Y-68509500D01*
X95400000Y-68509500D01*
X95362835Y-68513160D01*
X95327099Y-68524001D01*
X95294164Y-68541605D01*
X95265296Y-68565296D01*
X95241605Y-68594164D01*
X95224001Y-68627099D01*
X95213160Y-68662835D01*
X95209500Y-68700000D01*
X95209500Y-79709500D01*
X91851539Y-79709500D01*
X91818185Y-79676146D01*
X91662179Y-79571906D01*
X91488835Y-79500105D01*
X91304814Y-79463501D01*
X91117188Y-79463501D01*
X90933167Y-79500105D01*
X90759823Y-79571906D01*
X90603817Y-79676146D01*
X90554462Y-79725501D01*
X89327540Y-79725501D01*
X89278185Y-79676146D01*
X89122179Y-79571906D01*
X88948835Y-79500105D01*
X88764814Y-79463501D01*
X88577188Y-79463501D01*
X88393167Y-79500105D01*
X88219823Y-79571906D01*
X88063817Y-79676146D01*
X87931146Y-79808817D01*
X87826906Y-79964823D01*
X87755105Y-80138167D01*
X87718501Y-80322188D01*
X87718501Y-80509814D01*
X87755105Y-80693835D01*
X87826906Y-80867179D01*
X87931146Y-81023185D01*
X88063817Y-81155856D01*
X88219823Y-81260096D01*
X88393167Y-81331897D01*
X88577188Y-81368501D01*
X88764814Y-81368501D01*
X88948835Y-81331897D01*
X89122179Y-81260096D01*
X89278185Y-81155856D01*
X89327540Y-81106501D01*
X90554462Y-81106501D01*
X90603817Y-81155856D01*
X90759823Y-81260096D01*
X90933167Y-81331897D01*
X91117188Y-81368501D01*
X91304814Y-81368501D01*
X91488835Y-81331897D01*
X91662179Y-81260096D01*
X91818185Y-81155856D01*
X91883541Y-81090500D01*
X95209500Y-81090500D01*
X95209500Y-83991125D01*
X85045550Y-83991444D01*
X85045550Y-78661346D01*
X88043340Y-78661346D01*
X88126999Y-78814450D01*
X88320534Y-78902547D01*
X88527538Y-78951195D01*
X88740054Y-78958523D01*
X88949916Y-78924251D01*
X89149061Y-78849696D01*
X89215003Y-78814450D01*
X89298662Y-78661346D01*
X90583340Y-78661346D01*
X90666999Y-78814450D01*
X90860534Y-78902547D01*
X91067538Y-78951195D01*
X91280054Y-78958523D01*
X91489916Y-78924251D01*
X91689061Y-78849696D01*
X91755003Y-78814450D01*
X91838662Y-78661346D01*
X91211001Y-78033686D01*
X90583340Y-78661346D01*
X89298662Y-78661346D01*
X88671001Y-78033686D01*
X88043340Y-78661346D01*
X85045550Y-78661346D01*
X85045550Y-77945054D01*
X87588479Y-77945054D01*
X87622751Y-78154916D01*
X87697306Y-78354061D01*
X87732552Y-78420003D01*
X87885656Y-78503662D01*
X88513316Y-77876001D01*
X88828686Y-77876001D01*
X89456346Y-78503662D01*
X89609450Y-78420003D01*
X89697547Y-78226468D01*
X89746195Y-78019464D01*
X89748760Y-77945054D01*
X90128479Y-77945054D01*
X90162751Y-78154916D01*
X90237306Y-78354061D01*
X90272552Y-78420003D01*
X90425656Y-78503662D01*
X91053316Y-77876001D01*
X91368686Y-77876001D01*
X91996346Y-78503662D01*
X92149450Y-78420003D01*
X92237547Y-78226468D01*
X92286195Y-78019464D01*
X92293523Y-77806948D01*
X92259251Y-77597086D01*
X92184696Y-77397941D01*
X92149450Y-77331999D01*
X91996346Y-77248340D01*
X91368686Y-77876001D01*
X91053316Y-77876001D01*
X90425656Y-77248340D01*
X90272552Y-77331999D01*
X90184455Y-77525534D01*
X90135807Y-77732538D01*
X90128479Y-77945054D01*
X89748760Y-77945054D01*
X89753523Y-77806948D01*
X89719251Y-77597086D01*
X89644696Y-77397941D01*
X89609450Y-77331999D01*
X89456346Y-77248340D01*
X88828686Y-77876001D01*
X88513316Y-77876001D01*
X87885656Y-77248340D01*
X87732552Y-77331999D01*
X87644455Y-77525534D01*
X87595807Y-77732538D01*
X87588479Y-77945054D01*
X85045550Y-77945054D01*
X85045550Y-77090656D01*
X88043340Y-77090656D01*
X88671001Y-77718316D01*
X89298662Y-77090656D01*
X90583340Y-77090656D01*
X91211001Y-77718316D01*
X91838662Y-77090656D01*
X91755003Y-76937552D01*
X91561468Y-76849455D01*
X91354464Y-76800807D01*
X91141948Y-76793479D01*
X90932086Y-76827751D01*
X90732941Y-76902306D01*
X90666999Y-76937552D01*
X90583340Y-77090656D01*
X89298662Y-77090656D01*
X89215003Y-76937552D01*
X89021468Y-76849455D01*
X88814464Y-76800807D01*
X88601948Y-76793479D01*
X88392086Y-76827751D01*
X88192941Y-76902306D01*
X88126999Y-76937552D01*
X88043340Y-77090656D01*
X85045550Y-77090656D01*
X85045550Y-75242188D01*
X87718501Y-75242188D01*
X87718501Y-75429814D01*
X87755105Y-75613835D01*
X87826906Y-75787179D01*
X87931146Y-75943185D01*
X88063817Y-76075856D01*
X88219823Y-76180096D01*
X88393167Y-76251897D01*
X88577188Y-76288501D01*
X88764814Y-76288501D01*
X88948835Y-76251897D01*
X89122179Y-76180096D01*
X89278185Y-76075856D01*
X89410856Y-75943185D01*
X89515096Y-75787179D01*
X89586897Y-75613835D01*
X89623501Y-75429814D01*
X89623501Y-75242188D01*
X90258501Y-75242188D01*
X90258501Y-75429814D01*
X90295105Y-75613835D01*
X90366906Y-75787179D01*
X90471146Y-75943185D01*
X90603817Y-76075856D01*
X90759823Y-76180096D01*
X90933167Y-76251897D01*
X91117188Y-76288501D01*
X91304814Y-76288501D01*
X91488835Y-76251897D01*
X91662179Y-76180096D01*
X91818185Y-76075856D01*
X91950856Y-75943185D01*
X92055096Y-75787179D01*
X92126897Y-75613835D01*
X92163501Y-75429814D01*
X92163501Y-75242188D01*
X92126897Y-75058167D01*
X92055096Y-74884823D01*
X91950856Y-74728817D01*
X91818185Y-74596146D01*
X91662179Y-74491906D01*
X91488835Y-74420105D01*
X91304814Y-74383501D01*
X91117188Y-74383501D01*
X90933167Y-74420105D01*
X90759823Y-74491906D01*
X90603817Y-74596146D01*
X90471146Y-74728817D01*
X90366906Y-74884823D01*
X90295105Y-75058167D01*
X90258501Y-75242188D01*
X89623501Y-75242188D01*
X89586897Y-75058167D01*
X89515096Y-74884823D01*
X89410856Y-74728817D01*
X89278185Y-74596146D01*
X89122179Y-74491906D01*
X88948835Y-74420105D01*
X88764814Y-74383501D01*
X88577188Y-74383501D01*
X88393167Y-74420105D01*
X88219823Y-74491906D01*
X88063817Y-74596146D01*
X87931146Y-74728817D01*
X87826906Y-74884823D01*
X87755105Y-75058167D01*
X87718501Y-75242188D01*
X85045550Y-75242188D01*
X85045550Y-72702188D01*
X87718501Y-72702188D01*
X87718501Y-72889814D01*
X87755105Y-73073835D01*
X87826906Y-73247179D01*
X87931146Y-73403185D01*
X88063817Y-73535856D01*
X88219823Y-73640096D01*
X88393167Y-73711897D01*
X88577188Y-73748501D01*
X88764814Y-73748501D01*
X88948835Y-73711897D01*
X89122179Y-73640096D01*
X89278185Y-73535856D01*
X89410856Y-73403185D01*
X89515096Y-73247179D01*
X89586897Y-73073835D01*
X89623501Y-72889814D01*
X89623501Y-72702188D01*
X90258501Y-72702188D01*
X90258501Y-72889814D01*
X90295105Y-73073835D01*
X90366906Y-73247179D01*
X90471146Y-73403185D01*
X90603817Y-73535856D01*
X90759823Y-73640096D01*
X90933167Y-73711897D01*
X91117188Y-73748501D01*
X91304814Y-73748501D01*
X91488835Y-73711897D01*
X91662179Y-73640096D01*
X91818185Y-73535856D01*
X91950856Y-73403185D01*
X92055096Y-73247179D01*
X92126897Y-73073835D01*
X92163501Y-72889814D01*
X92163501Y-72702188D01*
X92126897Y-72518167D01*
X92055096Y-72344823D01*
X91950856Y-72188817D01*
X91818185Y-72056146D01*
X91662179Y-71951906D01*
X91488835Y-71880105D01*
X91304814Y-71843501D01*
X91117188Y-71843501D01*
X90933167Y-71880105D01*
X90759823Y-71951906D01*
X90603817Y-72056146D01*
X90471146Y-72188817D01*
X90366906Y-72344823D01*
X90295105Y-72518167D01*
X90258501Y-72702188D01*
X89623501Y-72702188D01*
X89586897Y-72518167D01*
X89515096Y-72344823D01*
X89410856Y-72188817D01*
X89278185Y-72056146D01*
X89122179Y-71951906D01*
X88948835Y-71880105D01*
X88764814Y-71843501D01*
X88577188Y-71843501D01*
X88393167Y-71880105D01*
X88219823Y-71951906D01*
X88063817Y-72056146D01*
X87931146Y-72188817D01*
X87826906Y-72344823D01*
X87755105Y-72518167D01*
X87718501Y-72702188D01*
X85045550Y-72702188D01*
X85045550Y-70162188D01*
X87718501Y-70162188D01*
X87718501Y-70349814D01*
X87755105Y-70533835D01*
X87826906Y-70707179D01*
X87931146Y-70863185D01*
X88063817Y-70995856D01*
X88219823Y-71100096D01*
X88393167Y-71171897D01*
X88577188Y-71208501D01*
X88764814Y-71208501D01*
X88948835Y-71171897D01*
X89122179Y-71100096D01*
X89278185Y-70995856D01*
X89410856Y-70863185D01*
X89515096Y-70707179D01*
X89586897Y-70533835D01*
X89623501Y-70349814D01*
X89623501Y-70162188D01*
X90258501Y-70162188D01*
X90258501Y-70349814D01*
X90295105Y-70533835D01*
X90366906Y-70707179D01*
X90471146Y-70863185D01*
X90603817Y-70995856D01*
X90759823Y-71100096D01*
X90933167Y-71171897D01*
X91117188Y-71208501D01*
X91304814Y-71208501D01*
X91488835Y-71171897D01*
X91662179Y-71100096D01*
X91818185Y-70995856D01*
X91950856Y-70863185D01*
X92055096Y-70707179D01*
X92126897Y-70533835D01*
X92163501Y-70349814D01*
X92163501Y-70162188D01*
X92126897Y-69978167D01*
X92055096Y-69804823D01*
X91950856Y-69648817D01*
X91818185Y-69516146D01*
X91662179Y-69411906D01*
X91488835Y-69340105D01*
X91304814Y-69303501D01*
X91117188Y-69303501D01*
X90933167Y-69340105D01*
X90759823Y-69411906D01*
X90603817Y-69516146D01*
X90471146Y-69648817D01*
X90366906Y-69804823D01*
X90295105Y-69978167D01*
X90258501Y-70162188D01*
X89623501Y-70162188D01*
X89586897Y-69978167D01*
X89515096Y-69804823D01*
X89410856Y-69648817D01*
X89278185Y-69516146D01*
X89122179Y-69411906D01*
X88948835Y-69340105D01*
X88764814Y-69303501D01*
X88577188Y-69303501D01*
X88393167Y-69340105D01*
X88219823Y-69411906D01*
X88063817Y-69516146D01*
X87931146Y-69648817D01*
X87826906Y-69804823D01*
X87755105Y-69978167D01*
X87718501Y-70162188D01*
X85045550Y-70162188D01*
X85045550Y-67622188D01*
X87718501Y-67622188D01*
X87718501Y-67809814D01*
X87755105Y-67993835D01*
X87826906Y-68167179D01*
X87931146Y-68323185D01*
X88063817Y-68455856D01*
X88219823Y-68560096D01*
X88393167Y-68631897D01*
X88577188Y-68668501D01*
X88764814Y-68668501D01*
X88948835Y-68631897D01*
X89122179Y-68560096D01*
X89278185Y-68455856D01*
X89410856Y-68323185D01*
X89515096Y-68167179D01*
X89586897Y-67993835D01*
X89623501Y-67809814D01*
X89623501Y-67622188D01*
X89586897Y-67438167D01*
X89515096Y-67264823D01*
X89410856Y-67108817D01*
X89278185Y-66976146D01*
X89245043Y-66954001D01*
X90257580Y-66954001D01*
X90257580Y-68478001D01*
X90261258Y-68515345D01*
X90272151Y-68551255D01*
X90289840Y-68584349D01*
X90313646Y-68613356D01*
X90342653Y-68637162D01*
X90375747Y-68654851D01*
X90411657Y-68665744D01*
X90449001Y-68669422D01*
X91973001Y-68669422D01*
X92010345Y-68665744D01*
X92046255Y-68654851D01*
X92079349Y-68637162D01*
X92108356Y-68613356D01*
X92132162Y-68584349D01*
X92149851Y-68551255D01*
X92160744Y-68515345D01*
X92164422Y-68478001D01*
X92164422Y-67301233D01*
X109042272Y-67301233D01*
X109144367Y-67469937D01*
X109363922Y-67573285D01*
X109599420Y-67631815D01*
X109841812Y-67643275D01*
X110081783Y-67607228D01*
X110310110Y-67525058D01*
X110413233Y-67469937D01*
X110515328Y-67301233D01*
X109778800Y-66564705D01*
X109042272Y-67301233D01*
X92164422Y-67301233D01*
X92164422Y-66954001D01*
X92160744Y-66916657D01*
X92149851Y-66880747D01*
X92132162Y-66847653D01*
X92108356Y-66818646D01*
X92079349Y-66794840D01*
X92046255Y-66777151D01*
X92010345Y-66766258D01*
X91973001Y-66762580D01*
X90449001Y-66762580D01*
X90411657Y-66766258D01*
X90375747Y-66777151D01*
X90342653Y-66794840D01*
X90313646Y-66818646D01*
X90289840Y-66847653D01*
X90272151Y-66880747D01*
X90261258Y-66916657D01*
X90257580Y-66954001D01*
X89245043Y-66954001D01*
X89122179Y-66871906D01*
X88948835Y-66800105D01*
X88764814Y-66763501D01*
X88577188Y-66763501D01*
X88393167Y-66800105D01*
X88219823Y-66871906D01*
X88063817Y-66976146D01*
X87931146Y-67108817D01*
X87826906Y-67264823D01*
X87755105Y-67438167D01*
X87718501Y-67622188D01*
X85045550Y-67622188D01*
X85045550Y-66470032D01*
X108542545Y-66470032D01*
X108578592Y-66710003D01*
X108660762Y-66938330D01*
X108715883Y-67041453D01*
X108884587Y-67143548D01*
X109621115Y-66407020D01*
X109936485Y-66407020D01*
X110673013Y-67143548D01*
X110841717Y-67041453D01*
X110945065Y-66821898D01*
X110975073Y-66701158D01*
X113942262Y-66701158D01*
X114044357Y-66869862D01*
X114263912Y-66973210D01*
X114499410Y-67031740D01*
X114741802Y-67043200D01*
X114981773Y-67007153D01*
X115210100Y-66924983D01*
X115313223Y-66869862D01*
X115415318Y-66701158D01*
X114678790Y-65964630D01*
X113942262Y-66701158D01*
X110975073Y-66701158D01*
X111003595Y-66586400D01*
X111015055Y-66344008D01*
X110979008Y-66104037D01*
X110896838Y-65875710D01*
X110893763Y-65869957D01*
X113442535Y-65869957D01*
X113478582Y-66109928D01*
X113560752Y-66338255D01*
X113615873Y-66441378D01*
X113784577Y-66543473D01*
X114521105Y-65806945D01*
X114836475Y-65806945D01*
X115573003Y-66543473D01*
X115741707Y-66441378D01*
X115845055Y-66221823D01*
X115903585Y-65986325D01*
X115915045Y-65743933D01*
X115878998Y-65503962D01*
X115796828Y-65275635D01*
X115741707Y-65172512D01*
X115573003Y-65070417D01*
X114836475Y-65806945D01*
X114521105Y-65806945D01*
X113784577Y-65070417D01*
X113615873Y-65172512D01*
X113512525Y-65392067D01*
X113453995Y-65627565D01*
X113442535Y-65869957D01*
X110893763Y-65869957D01*
X110841717Y-65772587D01*
X110673013Y-65670492D01*
X109936485Y-66407020D01*
X109621115Y-66407020D01*
X108884587Y-65670492D01*
X108715883Y-65772587D01*
X108612535Y-65992142D01*
X108554005Y-66227640D01*
X108542545Y-66470032D01*
X85045550Y-66470032D01*
X85045550Y-65512807D01*
X109042272Y-65512807D01*
X109778800Y-66249335D01*
X110515328Y-65512807D01*
X110413233Y-65344103D01*
X110193678Y-65240755D01*
X109958180Y-65182225D01*
X109715788Y-65170765D01*
X109475817Y-65206812D01*
X109247490Y-65288982D01*
X109144367Y-65344103D01*
X109042272Y-65512807D01*
X85045550Y-65512807D01*
X85045550Y-64912732D01*
X113942262Y-64912732D01*
X114678790Y-65649260D01*
X115415318Y-64912732D01*
X115313223Y-64744028D01*
X115093668Y-64640680D01*
X114858170Y-64582150D01*
X114615778Y-64570690D01*
X114375807Y-64606737D01*
X114147480Y-64688907D01*
X114044357Y-64744028D01*
X113942262Y-64912732D01*
X85045550Y-64912732D01*
X85045550Y-64090543D01*
X116490450Y-64089556D01*
X116490451Y-83990457D01*
G04 #@! TA.AperFunction,Conductor*
D19*
G36*
X116490451Y-83990457D02*
G01*
X112290500Y-83990589D01*
X112290500Y-82551266D01*
X113942262Y-82551266D01*
X114044357Y-82719970D01*
X114263912Y-82823318D01*
X114499410Y-82881848D01*
X114741802Y-82893308D01*
X114981773Y-82857261D01*
X115210100Y-82775091D01*
X115313223Y-82719970D01*
X115415318Y-82551266D01*
X114678790Y-81814738D01*
X113942262Y-82551266D01*
X112290500Y-82551266D01*
X112290500Y-81720065D01*
X113442535Y-81720065D01*
X113478582Y-81960036D01*
X113560752Y-82188363D01*
X113615873Y-82291486D01*
X113784577Y-82393581D01*
X114521105Y-81657053D01*
X114836475Y-81657053D01*
X115573003Y-82393581D01*
X115741707Y-82291486D01*
X115845055Y-82071931D01*
X115903585Y-81836433D01*
X115915045Y-81594041D01*
X115878998Y-81354070D01*
X115796828Y-81125743D01*
X115741707Y-81022620D01*
X115573003Y-80920525D01*
X114836475Y-81657053D01*
X114521105Y-81657053D01*
X113784577Y-80920525D01*
X113615873Y-81022620D01*
X113512525Y-81242175D01*
X113453995Y-81477673D01*
X113442535Y-81720065D01*
X112290500Y-81720065D01*
X112290500Y-80762840D01*
X113942262Y-80762840D01*
X114678790Y-81499368D01*
X115415318Y-80762840D01*
X115313223Y-80594136D01*
X115093668Y-80490788D01*
X114858170Y-80432258D01*
X114615778Y-80420798D01*
X114375807Y-80456845D01*
X114147480Y-80539015D01*
X114044357Y-80594136D01*
X113942262Y-80762840D01*
X112290500Y-80762840D01*
X112290500Y-68700000D01*
X112286840Y-68662835D01*
X112275999Y-68627099D01*
X112258395Y-68594164D01*
X112234704Y-68565296D01*
X112205836Y-68541605D01*
X112172901Y-68524001D01*
X112137165Y-68513160D01*
X112100000Y-68509500D01*
X95400000Y-68509500D01*
X95362835Y-68513160D01*
X95327099Y-68524001D01*
X95294164Y-68541605D01*
X95265296Y-68565296D01*
X95241605Y-68594164D01*
X95224001Y-68627099D01*
X95213160Y-68662835D01*
X95209500Y-68700000D01*
X95209500Y-79709500D01*
X91851539Y-79709500D01*
X91818185Y-79676146D01*
X91662179Y-79571906D01*
X91488835Y-79500105D01*
X91304814Y-79463501D01*
X91117188Y-79463501D01*
X90933167Y-79500105D01*
X90759823Y-79571906D01*
X90603817Y-79676146D01*
X90554462Y-79725501D01*
X89327540Y-79725501D01*
X89278185Y-79676146D01*
X89122179Y-79571906D01*
X88948835Y-79500105D01*
X88764814Y-79463501D01*
X88577188Y-79463501D01*
X88393167Y-79500105D01*
X88219823Y-79571906D01*
X88063817Y-79676146D01*
X87931146Y-79808817D01*
X87826906Y-79964823D01*
X87755105Y-80138167D01*
X87718501Y-80322188D01*
X87718501Y-80509814D01*
X87755105Y-80693835D01*
X87826906Y-80867179D01*
X87931146Y-81023185D01*
X88063817Y-81155856D01*
X88219823Y-81260096D01*
X88393167Y-81331897D01*
X88577188Y-81368501D01*
X88764814Y-81368501D01*
X88948835Y-81331897D01*
X89122179Y-81260096D01*
X89278185Y-81155856D01*
X89327540Y-81106501D01*
X90554462Y-81106501D01*
X90603817Y-81155856D01*
X90759823Y-81260096D01*
X90933167Y-81331897D01*
X91117188Y-81368501D01*
X91304814Y-81368501D01*
X91488835Y-81331897D01*
X91662179Y-81260096D01*
X91818185Y-81155856D01*
X91883541Y-81090500D01*
X95209500Y-81090500D01*
X95209500Y-83991125D01*
X85045550Y-83991444D01*
X85045550Y-78661346D01*
X88043340Y-78661346D01*
X88126999Y-78814450D01*
X88320534Y-78902547D01*
X88527538Y-78951195D01*
X88740054Y-78958523D01*
X88949916Y-78924251D01*
X89149061Y-78849696D01*
X89215003Y-78814450D01*
X89298662Y-78661346D01*
X90583340Y-78661346D01*
X90666999Y-78814450D01*
X90860534Y-78902547D01*
X91067538Y-78951195D01*
X91280054Y-78958523D01*
X91489916Y-78924251D01*
X91689061Y-78849696D01*
X91755003Y-78814450D01*
X91838662Y-78661346D01*
X91211001Y-78033686D01*
X90583340Y-78661346D01*
X89298662Y-78661346D01*
X88671001Y-78033686D01*
X88043340Y-78661346D01*
X85045550Y-78661346D01*
X85045550Y-77945054D01*
X87588479Y-77945054D01*
X87622751Y-78154916D01*
X87697306Y-78354061D01*
X87732552Y-78420003D01*
X87885656Y-78503662D01*
X88513316Y-77876001D01*
X88828686Y-77876001D01*
X89456346Y-78503662D01*
X89609450Y-78420003D01*
X89697547Y-78226468D01*
X89746195Y-78019464D01*
X89748760Y-77945054D01*
X90128479Y-77945054D01*
X90162751Y-78154916D01*
X90237306Y-78354061D01*
X90272552Y-78420003D01*
X90425656Y-78503662D01*
X91053316Y-77876001D01*
X91368686Y-77876001D01*
X91996346Y-78503662D01*
X92149450Y-78420003D01*
X92237547Y-78226468D01*
X92286195Y-78019464D01*
X92293523Y-77806948D01*
X92259251Y-77597086D01*
X92184696Y-77397941D01*
X92149450Y-77331999D01*
X91996346Y-77248340D01*
X91368686Y-77876001D01*
X91053316Y-77876001D01*
X90425656Y-77248340D01*
X90272552Y-77331999D01*
X90184455Y-77525534D01*
X90135807Y-77732538D01*
X90128479Y-77945054D01*
X89748760Y-77945054D01*
X89753523Y-77806948D01*
X89719251Y-77597086D01*
X89644696Y-77397941D01*
X89609450Y-77331999D01*
X89456346Y-77248340D01*
X88828686Y-77876001D01*
X88513316Y-77876001D01*
X87885656Y-77248340D01*
X87732552Y-77331999D01*
X87644455Y-77525534D01*
X87595807Y-77732538D01*
X87588479Y-77945054D01*
X85045550Y-77945054D01*
X85045550Y-77090656D01*
X88043340Y-77090656D01*
X88671001Y-77718316D01*
X89298662Y-77090656D01*
X90583340Y-77090656D01*
X91211001Y-77718316D01*
X91838662Y-77090656D01*
X91755003Y-76937552D01*
X91561468Y-76849455D01*
X91354464Y-76800807D01*
X91141948Y-76793479D01*
X90932086Y-76827751D01*
X90732941Y-76902306D01*
X90666999Y-76937552D01*
X90583340Y-77090656D01*
X89298662Y-77090656D01*
X89215003Y-76937552D01*
X89021468Y-76849455D01*
X88814464Y-76800807D01*
X88601948Y-76793479D01*
X88392086Y-76827751D01*
X88192941Y-76902306D01*
X88126999Y-76937552D01*
X88043340Y-77090656D01*
X85045550Y-77090656D01*
X85045550Y-75242188D01*
X87718501Y-75242188D01*
X87718501Y-75429814D01*
X87755105Y-75613835D01*
X87826906Y-75787179D01*
X87931146Y-75943185D01*
X88063817Y-76075856D01*
X88219823Y-76180096D01*
X88393167Y-76251897D01*
X88577188Y-76288501D01*
X88764814Y-76288501D01*
X88948835Y-76251897D01*
X89122179Y-76180096D01*
X89278185Y-76075856D01*
X89410856Y-75943185D01*
X89515096Y-75787179D01*
X89586897Y-75613835D01*
X89623501Y-75429814D01*
X89623501Y-75242188D01*
X90258501Y-75242188D01*
X90258501Y-75429814D01*
X90295105Y-75613835D01*
X90366906Y-75787179D01*
X90471146Y-75943185D01*
X90603817Y-76075856D01*
X90759823Y-76180096D01*
X90933167Y-76251897D01*
X91117188Y-76288501D01*
X91304814Y-76288501D01*
X91488835Y-76251897D01*
X91662179Y-76180096D01*
X91818185Y-76075856D01*
X91950856Y-75943185D01*
X92055096Y-75787179D01*
X92126897Y-75613835D01*
X92163501Y-75429814D01*
X92163501Y-75242188D01*
X92126897Y-75058167D01*
X92055096Y-74884823D01*
X91950856Y-74728817D01*
X91818185Y-74596146D01*
X91662179Y-74491906D01*
X91488835Y-74420105D01*
X91304814Y-74383501D01*
X91117188Y-74383501D01*
X90933167Y-74420105D01*
X90759823Y-74491906D01*
X90603817Y-74596146D01*
X90471146Y-74728817D01*
X90366906Y-74884823D01*
X90295105Y-75058167D01*
X90258501Y-75242188D01*
X89623501Y-75242188D01*
X89586897Y-75058167D01*
X89515096Y-74884823D01*
X89410856Y-74728817D01*
X89278185Y-74596146D01*
X89122179Y-74491906D01*
X88948835Y-74420105D01*
X88764814Y-74383501D01*
X88577188Y-74383501D01*
X88393167Y-74420105D01*
X88219823Y-74491906D01*
X88063817Y-74596146D01*
X87931146Y-74728817D01*
X87826906Y-74884823D01*
X87755105Y-75058167D01*
X87718501Y-75242188D01*
X85045550Y-75242188D01*
X85045550Y-72702188D01*
X87718501Y-72702188D01*
X87718501Y-72889814D01*
X87755105Y-73073835D01*
X87826906Y-73247179D01*
X87931146Y-73403185D01*
X88063817Y-73535856D01*
X88219823Y-73640096D01*
X88393167Y-73711897D01*
X88577188Y-73748501D01*
X88764814Y-73748501D01*
X88948835Y-73711897D01*
X89122179Y-73640096D01*
X89278185Y-73535856D01*
X89410856Y-73403185D01*
X89515096Y-73247179D01*
X89586897Y-73073835D01*
X89623501Y-72889814D01*
X89623501Y-72702188D01*
X90258501Y-72702188D01*
X90258501Y-72889814D01*
X90295105Y-73073835D01*
X90366906Y-73247179D01*
X90471146Y-73403185D01*
X90603817Y-73535856D01*
X90759823Y-73640096D01*
X90933167Y-73711897D01*
X91117188Y-73748501D01*
X91304814Y-73748501D01*
X91488835Y-73711897D01*
X91662179Y-73640096D01*
X91818185Y-73535856D01*
X91950856Y-73403185D01*
X92055096Y-73247179D01*
X92126897Y-73073835D01*
X92163501Y-72889814D01*
X92163501Y-72702188D01*
X92126897Y-72518167D01*
X92055096Y-72344823D01*
X91950856Y-72188817D01*
X91818185Y-72056146D01*
X91662179Y-71951906D01*
X91488835Y-71880105D01*
X91304814Y-71843501D01*
X91117188Y-71843501D01*
X90933167Y-71880105D01*
X90759823Y-71951906D01*
X90603817Y-72056146D01*
X90471146Y-72188817D01*
X90366906Y-72344823D01*
X90295105Y-72518167D01*
X90258501Y-72702188D01*
X89623501Y-72702188D01*
X89586897Y-72518167D01*
X89515096Y-72344823D01*
X89410856Y-72188817D01*
X89278185Y-72056146D01*
X89122179Y-71951906D01*
X88948835Y-71880105D01*
X88764814Y-71843501D01*
X88577188Y-71843501D01*
X88393167Y-71880105D01*
X88219823Y-71951906D01*
X88063817Y-72056146D01*
X87931146Y-72188817D01*
X87826906Y-72344823D01*
X87755105Y-72518167D01*
X87718501Y-72702188D01*
X85045550Y-72702188D01*
X85045550Y-70162188D01*
X87718501Y-70162188D01*
X87718501Y-70349814D01*
X87755105Y-70533835D01*
X87826906Y-70707179D01*
X87931146Y-70863185D01*
X88063817Y-70995856D01*
X88219823Y-71100096D01*
X88393167Y-71171897D01*
X88577188Y-71208501D01*
X88764814Y-71208501D01*
X88948835Y-71171897D01*
X89122179Y-71100096D01*
X89278185Y-70995856D01*
X89410856Y-70863185D01*
X89515096Y-70707179D01*
X89586897Y-70533835D01*
X89623501Y-70349814D01*
X89623501Y-70162188D01*
X90258501Y-70162188D01*
X90258501Y-70349814D01*
X90295105Y-70533835D01*
X90366906Y-70707179D01*
X90471146Y-70863185D01*
X90603817Y-70995856D01*
X90759823Y-71100096D01*
X90933167Y-71171897D01*
X91117188Y-71208501D01*
X91304814Y-71208501D01*
X91488835Y-71171897D01*
X91662179Y-71100096D01*
X91818185Y-70995856D01*
X91950856Y-70863185D01*
X92055096Y-70707179D01*
X92126897Y-70533835D01*
X92163501Y-70349814D01*
X92163501Y-70162188D01*
X92126897Y-69978167D01*
X92055096Y-69804823D01*
X91950856Y-69648817D01*
X91818185Y-69516146D01*
X91662179Y-69411906D01*
X91488835Y-69340105D01*
X91304814Y-69303501D01*
X91117188Y-69303501D01*
X90933167Y-69340105D01*
X90759823Y-69411906D01*
X90603817Y-69516146D01*
X90471146Y-69648817D01*
X90366906Y-69804823D01*
X90295105Y-69978167D01*
X90258501Y-70162188D01*
X89623501Y-70162188D01*
X89586897Y-69978167D01*
X89515096Y-69804823D01*
X89410856Y-69648817D01*
X89278185Y-69516146D01*
X89122179Y-69411906D01*
X88948835Y-69340105D01*
X88764814Y-69303501D01*
X88577188Y-69303501D01*
X88393167Y-69340105D01*
X88219823Y-69411906D01*
X88063817Y-69516146D01*
X87931146Y-69648817D01*
X87826906Y-69804823D01*
X87755105Y-69978167D01*
X87718501Y-70162188D01*
X85045550Y-70162188D01*
X85045550Y-67622188D01*
X87718501Y-67622188D01*
X87718501Y-67809814D01*
X87755105Y-67993835D01*
X87826906Y-68167179D01*
X87931146Y-68323185D01*
X88063817Y-68455856D01*
X88219823Y-68560096D01*
X88393167Y-68631897D01*
X88577188Y-68668501D01*
X88764814Y-68668501D01*
X88948835Y-68631897D01*
X89122179Y-68560096D01*
X89278185Y-68455856D01*
X89410856Y-68323185D01*
X89515096Y-68167179D01*
X89586897Y-67993835D01*
X89623501Y-67809814D01*
X89623501Y-67622188D01*
X89586897Y-67438167D01*
X89515096Y-67264823D01*
X89410856Y-67108817D01*
X89278185Y-66976146D01*
X89245043Y-66954001D01*
X90257580Y-66954001D01*
X90257580Y-68478001D01*
X90261258Y-68515345D01*
X90272151Y-68551255D01*
X90289840Y-68584349D01*
X90313646Y-68613356D01*
X90342653Y-68637162D01*
X90375747Y-68654851D01*
X90411657Y-68665744D01*
X90449001Y-68669422D01*
X91973001Y-68669422D01*
X92010345Y-68665744D01*
X92046255Y-68654851D01*
X92079349Y-68637162D01*
X92108356Y-68613356D01*
X92132162Y-68584349D01*
X92149851Y-68551255D01*
X92160744Y-68515345D01*
X92164422Y-68478001D01*
X92164422Y-67301233D01*
X109042272Y-67301233D01*
X109144367Y-67469937D01*
X109363922Y-67573285D01*
X109599420Y-67631815D01*
X109841812Y-67643275D01*
X110081783Y-67607228D01*
X110310110Y-67525058D01*
X110413233Y-67469937D01*
X110515328Y-67301233D01*
X109778800Y-66564705D01*
X109042272Y-67301233D01*
X92164422Y-67301233D01*
X92164422Y-66954001D01*
X92160744Y-66916657D01*
X92149851Y-66880747D01*
X92132162Y-66847653D01*
X92108356Y-66818646D01*
X92079349Y-66794840D01*
X92046255Y-66777151D01*
X92010345Y-66766258D01*
X91973001Y-66762580D01*
X90449001Y-66762580D01*
X90411657Y-66766258D01*
X90375747Y-66777151D01*
X90342653Y-66794840D01*
X90313646Y-66818646D01*
X90289840Y-66847653D01*
X90272151Y-66880747D01*
X90261258Y-66916657D01*
X90257580Y-66954001D01*
X89245043Y-66954001D01*
X89122179Y-66871906D01*
X88948835Y-66800105D01*
X88764814Y-66763501D01*
X88577188Y-66763501D01*
X88393167Y-66800105D01*
X88219823Y-66871906D01*
X88063817Y-66976146D01*
X87931146Y-67108817D01*
X87826906Y-67264823D01*
X87755105Y-67438167D01*
X87718501Y-67622188D01*
X85045550Y-67622188D01*
X85045550Y-66470032D01*
X108542545Y-66470032D01*
X108578592Y-66710003D01*
X108660762Y-66938330D01*
X108715883Y-67041453D01*
X108884587Y-67143548D01*
X109621115Y-66407020D01*
X109936485Y-66407020D01*
X110673013Y-67143548D01*
X110841717Y-67041453D01*
X110945065Y-66821898D01*
X110975073Y-66701158D01*
X113942262Y-66701158D01*
X114044357Y-66869862D01*
X114263912Y-66973210D01*
X114499410Y-67031740D01*
X114741802Y-67043200D01*
X114981773Y-67007153D01*
X115210100Y-66924983D01*
X115313223Y-66869862D01*
X115415318Y-66701158D01*
X114678790Y-65964630D01*
X113942262Y-66701158D01*
X110975073Y-66701158D01*
X111003595Y-66586400D01*
X111015055Y-66344008D01*
X110979008Y-66104037D01*
X110896838Y-65875710D01*
X110893763Y-65869957D01*
X113442535Y-65869957D01*
X113478582Y-66109928D01*
X113560752Y-66338255D01*
X113615873Y-66441378D01*
X113784577Y-66543473D01*
X114521105Y-65806945D01*
X114836475Y-65806945D01*
X115573003Y-66543473D01*
X115741707Y-66441378D01*
X115845055Y-66221823D01*
X115903585Y-65986325D01*
X115915045Y-65743933D01*
X115878998Y-65503962D01*
X115796828Y-65275635D01*
X115741707Y-65172512D01*
X115573003Y-65070417D01*
X114836475Y-65806945D01*
X114521105Y-65806945D01*
X113784577Y-65070417D01*
X113615873Y-65172512D01*
X113512525Y-65392067D01*
X113453995Y-65627565D01*
X113442535Y-65869957D01*
X110893763Y-65869957D01*
X110841717Y-65772587D01*
X110673013Y-65670492D01*
X109936485Y-66407020D01*
X109621115Y-66407020D01*
X108884587Y-65670492D01*
X108715883Y-65772587D01*
X108612535Y-65992142D01*
X108554005Y-66227640D01*
X108542545Y-66470032D01*
X85045550Y-66470032D01*
X85045550Y-65512807D01*
X109042272Y-65512807D01*
X109778800Y-66249335D01*
X110515328Y-65512807D01*
X110413233Y-65344103D01*
X110193678Y-65240755D01*
X109958180Y-65182225D01*
X109715788Y-65170765D01*
X109475817Y-65206812D01*
X109247490Y-65288982D01*
X109144367Y-65344103D01*
X109042272Y-65512807D01*
X85045550Y-65512807D01*
X85045550Y-64912732D01*
X113942262Y-64912732D01*
X114678790Y-65649260D01*
X115415318Y-64912732D01*
X115313223Y-64744028D01*
X115093668Y-64640680D01*
X114858170Y-64582150D01*
X114615778Y-64570690D01*
X114375807Y-64606737D01*
X114147480Y-64688907D01*
X114044357Y-64744028D01*
X113942262Y-64912732D01*
X85045550Y-64912732D01*
X85045550Y-64090543D01*
X116490450Y-64089556D01*
X116490451Y-83990457D01*
G37*
G04 #@! TD.AperFunction*
G04 #@! TD*
D17*
G04 #@! TO.N,+5V*
X112036500Y-83990597D02*
X95463500Y-83991117D01*
X95463500Y-83175000D01*
X96355964Y-83175000D01*
X96362094Y-83237241D01*
X96380249Y-83297090D01*
X96409731Y-83352247D01*
X96449407Y-83400593D01*
X96497753Y-83440269D01*
X96552910Y-83469751D01*
X96612759Y-83487906D01*
X96675000Y-83494036D01*
X97334125Y-83492500D01*
X97413500Y-83413125D01*
X97413500Y-82436500D01*
X97636500Y-82436500D01*
X97636500Y-83413125D01*
X97715875Y-83492500D01*
X98375000Y-83494036D01*
X98437241Y-83487906D01*
X98497090Y-83469751D01*
X98552247Y-83440269D01*
X98600593Y-83400593D01*
X98640269Y-83352247D01*
X98669751Y-83297090D01*
X98687906Y-83237241D01*
X98694036Y-83175000D01*
X98692500Y-82515875D01*
X98613125Y-82436500D01*
X97636500Y-82436500D01*
X97413500Y-82436500D01*
X96436875Y-82436500D01*
X96357500Y-82515875D01*
X96355964Y-83175000D01*
X95463500Y-83175000D01*
X95463500Y-82222520D01*
X99024500Y-82222520D01*
X99024500Y-82427480D01*
X99064485Y-82628503D01*
X99142920Y-82817862D01*
X99256791Y-82988280D01*
X99401720Y-83133209D01*
X99572138Y-83247080D01*
X99761497Y-83325515D01*
X99962520Y-83365500D01*
X100167480Y-83365500D01*
X100368503Y-83325515D01*
X100557862Y-83247080D01*
X100728280Y-83133209D01*
X100873209Y-82988280D01*
X100987080Y-82817862D01*
X101065515Y-82628503D01*
X101105500Y-82427480D01*
X101105500Y-82222520D01*
X101065515Y-82021497D01*
X100987080Y-81832138D01*
X100873209Y-81661720D01*
X100728280Y-81516791D01*
X100557862Y-81402920D01*
X100368503Y-81324485D01*
X100167480Y-81284500D01*
X99962520Y-81284500D01*
X99761497Y-81324485D01*
X99572138Y-81402920D01*
X99401720Y-81516791D01*
X99256791Y-81661720D01*
X99142920Y-81832138D01*
X99064485Y-82021497D01*
X99024500Y-82222520D01*
X95463500Y-82222520D01*
X95463500Y-81475000D01*
X96355964Y-81475000D01*
X96357500Y-82134125D01*
X96436875Y-82213500D01*
X97413500Y-82213500D01*
X97413500Y-81236875D01*
X97636500Y-81236875D01*
X97636500Y-82213500D01*
X98613125Y-82213500D01*
X98692500Y-82134125D01*
X98694036Y-81475000D01*
X98687906Y-81412759D01*
X98669751Y-81352910D01*
X98640269Y-81297753D01*
X98600593Y-81249407D01*
X98552247Y-81209731D01*
X98497090Y-81180249D01*
X98437241Y-81162094D01*
X98375000Y-81155964D01*
X97715875Y-81157500D01*
X97636500Y-81236875D01*
X97413500Y-81236875D01*
X97334125Y-81157500D01*
X96675000Y-81155964D01*
X96612759Y-81162094D01*
X96552910Y-81180249D01*
X96497753Y-81209731D01*
X96449407Y-81249407D01*
X96409731Y-81297753D01*
X96380249Y-81352910D01*
X96362094Y-81412759D01*
X96355964Y-81475000D01*
X95463500Y-81475000D01*
X95463500Y-81090500D01*
X96876081Y-81090500D01*
X96910000Y-81093841D01*
X96943919Y-81090500D01*
X96943922Y-81090500D01*
X97045362Y-81080509D01*
X97175521Y-81041025D01*
X97295477Y-80976908D01*
X97400620Y-80890620D01*
X97422252Y-80864261D01*
X97461013Y-80825500D01*
X97627480Y-80825500D01*
X97828503Y-80785515D01*
X98017862Y-80707080D01*
X98188280Y-80593209D01*
X98333209Y-80448280D01*
X98447080Y-80277862D01*
X98525515Y-80088503D01*
X98565500Y-79887480D01*
X98565500Y-79682520D01*
X98525515Y-79481497D01*
X98447080Y-79292138D01*
X98333209Y-79121720D01*
X98215500Y-79004011D01*
X98215500Y-76683859D01*
X98218925Y-76682820D01*
X98295241Y-76642028D01*
X98362132Y-76587132D01*
X98417028Y-76520241D01*
X98446000Y-76466038D01*
X98446000Y-78407542D01*
X98444773Y-78420000D01*
X98446000Y-78432458D01*
X98446000Y-78432468D01*
X98449676Y-78469792D01*
X98464200Y-78517671D01*
X98487786Y-78561797D01*
X98488507Y-78562675D01*
X98511578Y-78590788D01*
X98511581Y-78590791D01*
X98519527Y-78600473D01*
X98529209Y-78608419D01*
X99170961Y-79250171D01*
X99142920Y-79292138D01*
X99064485Y-79481497D01*
X99024500Y-79682520D01*
X99024500Y-79887480D01*
X99064485Y-80088503D01*
X99142920Y-80277862D01*
X99256791Y-80448280D01*
X99401720Y-80593209D01*
X99572138Y-80707080D01*
X99761497Y-80785515D01*
X99962520Y-80825500D01*
X100167480Y-80825500D01*
X100368503Y-80785515D01*
X100557862Y-80707080D01*
X100728280Y-80593209D01*
X100846001Y-80475488D01*
X100846000Y-80807541D01*
X100844773Y-80820000D01*
X100846000Y-80832458D01*
X100846000Y-80832468D01*
X100849676Y-80869792D01*
X100864200Y-80917671D01*
X100887786Y-80961797D01*
X100901349Y-80978323D01*
X100911578Y-80990788D01*
X100911581Y-80990791D01*
X100919527Y-81000473D01*
X100929209Y-81008419D01*
X101710961Y-81790171D01*
X101682920Y-81832138D01*
X101604485Y-82021497D01*
X101564500Y-82222520D01*
X101564500Y-82427480D01*
X101604485Y-82628503D01*
X101682920Y-82817862D01*
X101796791Y-82988280D01*
X101941720Y-83133209D01*
X102112138Y-83247080D01*
X102301497Y-83325515D01*
X102502520Y-83365500D01*
X102707480Y-83365500D01*
X102908503Y-83325515D01*
X103097862Y-83247080D01*
X103268280Y-83133209D01*
X103413209Y-82988280D01*
X103527080Y-82817862D01*
X103605515Y-82628503D01*
X103645500Y-82427480D01*
X103645500Y-82222520D01*
X103605515Y-82021497D01*
X103527080Y-81832138D01*
X103413209Y-81661720D01*
X103268280Y-81516791D01*
X103097862Y-81402920D01*
X102908503Y-81324485D01*
X102707480Y-81284500D01*
X102502520Y-81284500D01*
X102301497Y-81324485D01*
X102112138Y-81402920D01*
X102070171Y-81430961D01*
X101354000Y-80714790D01*
X101354000Y-80340250D01*
X101355825Y-80334234D01*
X101359501Y-80296910D01*
X101359501Y-80296899D01*
X101360728Y-80284441D01*
X101359501Y-80271983D01*
X101359501Y-79298017D01*
X101360728Y-79285559D01*
X101359501Y-79273101D01*
X101359501Y-79273090D01*
X101355825Y-79235766D01*
X101341301Y-79187887D01*
X101317715Y-79143762D01*
X101293923Y-79114770D01*
X101293915Y-79114762D01*
X101285974Y-79105086D01*
X101276298Y-79097145D01*
X99354000Y-77174848D01*
X99354000Y-76839506D01*
X99400000Y-76844036D01*
X99909125Y-76842500D01*
X99988500Y-76763125D01*
X99988500Y-76124000D01*
X99968500Y-76124000D01*
X99968500Y-75901000D01*
X99988500Y-75901000D01*
X99988500Y-75261875D01*
X99909125Y-75182500D01*
X99400000Y-75180964D01*
X99354000Y-75185494D01*
X99354000Y-74775371D01*
X99404759Y-74817028D01*
X99481075Y-74857820D01*
X99563882Y-74882939D01*
X99649999Y-74891421D01*
X100550001Y-74891421D01*
X100636118Y-74882939D01*
X100718925Y-74857820D01*
X100795241Y-74817028D01*
X100846001Y-74775371D01*
X100846001Y-75185495D01*
X100800000Y-75180964D01*
X100290875Y-75182500D01*
X100211500Y-75261875D01*
X100211500Y-75901000D01*
X100231500Y-75901000D01*
X100231500Y-76124000D01*
X100211500Y-76124000D01*
X100211500Y-76763125D01*
X100290875Y-76842500D01*
X100800000Y-76844036D01*
X100846000Y-76839506D01*
X100846000Y-78267542D01*
X100844773Y-78280000D01*
X100846000Y-78292458D01*
X100846000Y-78292468D01*
X100849676Y-78329792D01*
X100864200Y-78377671D01*
X100887786Y-78421797D01*
X100901349Y-78438323D01*
X100911578Y-78450788D01*
X100911581Y-78450791D01*
X100919527Y-78460473D01*
X100929209Y-78468419D01*
X101710961Y-79250171D01*
X101682920Y-79292138D01*
X101604485Y-79481497D01*
X101564500Y-79682520D01*
X101564500Y-79887480D01*
X101604485Y-80088503D01*
X101682920Y-80277862D01*
X101796791Y-80448280D01*
X101941720Y-80593209D01*
X102112138Y-80707080D01*
X102301497Y-80785515D01*
X102502520Y-80825500D01*
X102707480Y-80825500D01*
X102908503Y-80785515D01*
X103097862Y-80707080D01*
X103268280Y-80593209D01*
X103413209Y-80448280D01*
X103527080Y-80277862D01*
X103605515Y-80088503D01*
X103645500Y-79887480D01*
X103645500Y-79682520D01*
X103605515Y-79481497D01*
X103527080Y-79292138D01*
X103413209Y-79121720D01*
X103268280Y-78976791D01*
X103097862Y-78862920D01*
X102908503Y-78784485D01*
X102707480Y-78744500D01*
X102502520Y-78744500D01*
X102301497Y-78784485D01*
X102112138Y-78862920D01*
X102070171Y-78890961D01*
X101354000Y-78174790D01*
X101354000Y-76525000D01*
X101580964Y-76525000D01*
X101587094Y-76587241D01*
X101605249Y-76647090D01*
X101634731Y-76702247D01*
X101674407Y-76750593D01*
X101722753Y-76790269D01*
X101777910Y-76819751D01*
X101837759Y-76837906D01*
X101900000Y-76844036D01*
X102409125Y-76842500D01*
X102488500Y-76763125D01*
X102488500Y-76124000D01*
X101661875Y-76124000D01*
X101582500Y-76203375D01*
X101580964Y-76525000D01*
X101354000Y-76525000D01*
X101354000Y-75500000D01*
X101580964Y-75500000D01*
X101582500Y-75821625D01*
X101661875Y-75901000D01*
X102488500Y-75901000D01*
X102488500Y-75261875D01*
X102409125Y-75182500D01*
X101900000Y-75180964D01*
X101837759Y-75187094D01*
X101777910Y-75205249D01*
X101722753Y-75234731D01*
X101674407Y-75274407D01*
X101634731Y-75322753D01*
X101605249Y-75377910D01*
X101587094Y-75437759D01*
X101580964Y-75500000D01*
X101354000Y-75500000D01*
X101354000Y-73305210D01*
X101505210Y-73154000D01*
X103886790Y-73154000D01*
X103529204Y-73511586D01*
X103519528Y-73519527D01*
X103511587Y-73529203D01*
X103511578Y-73529212D01*
X103487786Y-73558204D01*
X103464200Y-73602329D01*
X103454083Y-73635684D01*
X103449677Y-73650207D01*
X103446001Y-73687531D01*
X103444773Y-73700000D01*
X103446001Y-73712468D01*
X103446001Y-73733963D01*
X103417028Y-73679759D01*
X103362132Y-73612868D01*
X103295241Y-73557972D01*
X103218925Y-73517180D01*
X103136118Y-73492061D01*
X103050001Y-73483579D01*
X102149999Y-73483579D01*
X102063882Y-73492061D01*
X101981075Y-73517180D01*
X101904759Y-73557972D01*
X101837868Y-73612868D01*
X101782972Y-73679759D01*
X101742180Y-73756075D01*
X101717061Y-73838882D01*
X101708579Y-73924999D01*
X101708579Y-74450001D01*
X101717061Y-74536118D01*
X101742180Y-74618925D01*
X101782972Y-74695241D01*
X101837868Y-74762132D01*
X101904759Y-74817028D01*
X101981075Y-74857820D01*
X102063882Y-74882939D01*
X102149999Y-74891421D01*
X103050001Y-74891421D01*
X103136118Y-74882939D01*
X103218925Y-74857820D01*
X103295241Y-74817028D01*
X103362132Y-74762132D01*
X103417028Y-74695241D01*
X103446001Y-74641037D01*
X103446001Y-75218029D01*
X103422090Y-75205249D01*
X103362241Y-75187094D01*
X103300000Y-75180964D01*
X102790875Y-75182500D01*
X102711500Y-75261875D01*
X102711500Y-75901000D01*
X102731500Y-75901000D01*
X102731500Y-76124000D01*
X102711500Y-76124000D01*
X102711500Y-76763125D01*
X102790875Y-76842500D01*
X103300000Y-76844036D01*
X103362241Y-76837906D01*
X103422090Y-76819751D01*
X103446000Y-76806971D01*
X103446000Y-77171692D01*
X103446001Y-77171702D01*
X103446000Y-77787541D01*
X103444773Y-77800000D01*
X103446000Y-77812458D01*
X103446000Y-77812468D01*
X103449676Y-77849792D01*
X103464200Y-77897671D01*
X103487786Y-77941797D01*
X103501349Y-77958323D01*
X103511578Y-77970788D01*
X103511581Y-77970791D01*
X103519527Y-77980473D01*
X103529209Y-77988419D01*
X104503217Y-78962427D01*
X104481720Y-78976791D01*
X104336791Y-79121720D01*
X104222920Y-79292138D01*
X104144485Y-79481497D01*
X104104500Y-79682520D01*
X104104500Y-79887480D01*
X104144485Y-80088503D01*
X104222920Y-80277862D01*
X104336791Y-80448280D01*
X104481720Y-80593209D01*
X104652138Y-80707080D01*
X104841497Y-80785515D01*
X105042520Y-80825500D01*
X105247480Y-80825500D01*
X105448503Y-80785515D01*
X105637862Y-80707080D01*
X105808280Y-80593209D01*
X105953209Y-80448280D01*
X106046001Y-80309409D01*
X106046001Y-81064789D01*
X105679829Y-81430961D01*
X105637862Y-81402920D01*
X105448503Y-81324485D01*
X105247480Y-81284500D01*
X105042520Y-81284500D01*
X104841497Y-81324485D01*
X104652138Y-81402920D01*
X104481720Y-81516791D01*
X104336791Y-81661720D01*
X104222920Y-81832138D01*
X104144485Y-82021497D01*
X104104500Y-82222520D01*
X104104500Y-82427480D01*
X104144485Y-82628503D01*
X104222920Y-82817862D01*
X104336791Y-82988280D01*
X104481720Y-83133209D01*
X104652138Y-83247080D01*
X104841497Y-83325515D01*
X105042520Y-83365500D01*
X105247480Y-83365500D01*
X105448503Y-83325515D01*
X105637862Y-83247080D01*
X105808280Y-83133209D01*
X105953209Y-82988280D01*
X106067080Y-82817862D01*
X106145515Y-82628503D01*
X106185500Y-82427480D01*
X106185500Y-82222520D01*
X106145515Y-82021497D01*
X106067080Y-81832138D01*
X106039039Y-81790171D01*
X106470791Y-81358419D01*
X106480473Y-81350473D01*
X106488419Y-81340791D01*
X106488422Y-81340788D01*
X106512215Y-81311797D01*
X106535800Y-81267672D01*
X106550324Y-81219793D01*
X106554000Y-81182469D01*
X106554000Y-81182458D01*
X106555227Y-81170000D01*
X106554000Y-81157542D01*
X106554000Y-80948155D01*
X108673900Y-80948155D01*
X108673900Y-81165801D01*
X108716361Y-81379265D01*
X108799650Y-81580344D01*
X108920568Y-81761311D01*
X109074467Y-81915210D01*
X109255434Y-82036128D01*
X109456513Y-82119417D01*
X109669977Y-82161878D01*
X109887623Y-82161878D01*
X110101087Y-82119417D01*
X110302166Y-82036128D01*
X110483133Y-81915210D01*
X110637032Y-81761311D01*
X110757950Y-81580344D01*
X110841239Y-81379265D01*
X110883700Y-81165801D01*
X110883700Y-80948155D01*
X110841239Y-80734691D01*
X110757950Y-80533612D01*
X110637032Y-80352645D01*
X110483133Y-80198746D01*
X110302166Y-80077828D01*
X110101087Y-79994539D01*
X109887623Y-79952078D01*
X109669977Y-79952078D01*
X109456513Y-79994539D01*
X109255434Y-80077828D01*
X109074467Y-80198746D01*
X108920568Y-80352645D01*
X108799650Y-80533612D01*
X108716361Y-80734691D01*
X108673900Y-80948155D01*
X106554000Y-80948155D01*
X106554000Y-79312457D01*
X106555227Y-79299999D01*
X106554000Y-79287541D01*
X106554000Y-79287531D01*
X106550324Y-79250207D01*
X106535800Y-79202328D01*
X106512214Y-79158203D01*
X106500538Y-79143976D01*
X106488421Y-79129211D01*
X106488419Y-79129209D01*
X106480473Y-79119527D01*
X106470791Y-79111581D01*
X105049218Y-77690008D01*
X105051690Y-77690500D01*
X105148310Y-77690500D01*
X105243073Y-77671650D01*
X105332339Y-77634675D01*
X105412675Y-77580996D01*
X105480996Y-77512675D01*
X105534675Y-77432339D01*
X105571650Y-77343073D01*
X105590500Y-77248310D01*
X105590500Y-77151690D01*
X105571650Y-77056927D01*
X105534675Y-76967661D01*
X105480996Y-76887325D01*
X105412675Y-76819004D01*
X105354000Y-76779798D01*
X105354000Y-76716421D01*
X105550001Y-76716421D01*
X105636118Y-76707939D01*
X105718925Y-76682820D01*
X105795241Y-76642028D01*
X105862132Y-76587132D01*
X105917028Y-76520241D01*
X105957820Y-76443925D01*
X105982939Y-76361118D01*
X105991421Y-76275001D01*
X105991421Y-75749999D01*
X105982939Y-75663882D01*
X105957820Y-75581075D01*
X105917028Y-75504759D01*
X105862132Y-75437868D01*
X105795241Y-75382972D01*
X105718925Y-75342180D01*
X105636118Y-75317061D01*
X105550001Y-75308579D01*
X104649999Y-75308579D01*
X104563882Y-75317061D01*
X104481075Y-75342180D01*
X104404759Y-75382972D01*
X104337868Y-75437868D01*
X104282972Y-75504759D01*
X104254000Y-75558961D01*
X104254000Y-74641039D01*
X104282972Y-74695241D01*
X104337868Y-74762132D01*
X104404759Y-74817028D01*
X104481075Y-74857820D01*
X104563882Y-74882939D01*
X104649999Y-74891421D01*
X105550001Y-74891421D01*
X105636118Y-74882939D01*
X105718925Y-74857820D01*
X105795241Y-74817028D01*
X105862132Y-74762132D01*
X105917028Y-74695241D01*
X105957820Y-74618925D01*
X105981535Y-74540745D01*
X109861581Y-78420791D01*
X109869527Y-78430473D01*
X109879209Y-78438419D01*
X109879212Y-78438422D01*
X109908203Y-78462215D01*
X109936958Y-78477585D01*
X109952328Y-78485800D01*
X110000207Y-78500324D01*
X110037531Y-78504000D01*
X110037542Y-78504000D01*
X110050000Y-78505227D01*
X110062458Y-78504000D01*
X110279798Y-78504000D01*
X110319004Y-78562675D01*
X110387325Y-78630996D01*
X110467661Y-78684675D01*
X110556927Y-78721650D01*
X110651690Y-78740500D01*
X110748310Y-78740500D01*
X110843073Y-78721650D01*
X110932339Y-78684675D01*
X111012675Y-78630996D01*
X111080996Y-78562675D01*
X111134675Y-78482339D01*
X111171650Y-78393073D01*
X111190500Y-78298310D01*
X111190500Y-78201690D01*
X111171650Y-78106927D01*
X111134675Y-78017661D01*
X111080996Y-77937325D01*
X111012675Y-77869004D01*
X110932339Y-77815325D01*
X110843073Y-77778350D01*
X110748310Y-77759500D01*
X110651690Y-77759500D01*
X110556927Y-77778350D01*
X110467661Y-77815325D01*
X110387325Y-77869004D01*
X110319004Y-77937325D01*
X110279798Y-77996000D01*
X110155210Y-77996000D01*
X106175919Y-74016709D01*
X106167973Y-74007027D01*
X106158291Y-73999081D01*
X106158288Y-73999078D01*
X106144528Y-73987786D01*
X106129297Y-73975286D01*
X106085172Y-73951700D01*
X106037293Y-73937176D01*
X105999969Y-73933500D01*
X105999958Y-73933500D01*
X105991421Y-73932659D01*
X105991421Y-73924999D01*
X105982939Y-73838882D01*
X105957820Y-73756075D01*
X105917028Y-73679759D01*
X105862132Y-73612868D01*
X105795241Y-73557972D01*
X105787810Y-73554000D01*
X106294790Y-73554000D01*
X109643570Y-76902780D01*
X109651516Y-76912462D01*
X109661198Y-76920408D01*
X109661200Y-76920410D01*
X109690191Y-76944203D01*
X109734078Y-76967661D01*
X109734317Y-76967789D01*
X109782196Y-76982313D01*
X109819520Y-76985989D01*
X109819530Y-76985989D01*
X109831988Y-76987216D01*
X109844446Y-76985989D01*
X110286488Y-76985989D01*
X110265325Y-77017661D01*
X110228350Y-77106927D01*
X110209500Y-77201690D01*
X110209500Y-77298310D01*
X110228350Y-77393073D01*
X110265325Y-77482339D01*
X110319004Y-77562675D01*
X110387325Y-77630996D01*
X110467661Y-77684675D01*
X110556927Y-77721650D01*
X110651690Y-77740500D01*
X110748310Y-77740500D01*
X110843073Y-77721650D01*
X110932339Y-77684675D01*
X111012675Y-77630996D01*
X111080996Y-77562675D01*
X111134675Y-77482339D01*
X111171650Y-77393073D01*
X111190500Y-77298310D01*
X111190500Y-77201690D01*
X111185661Y-77177366D01*
X111251690Y-77190500D01*
X111348310Y-77190500D01*
X111443073Y-77171650D01*
X111532339Y-77134675D01*
X111612675Y-77080996D01*
X111680996Y-77012675D01*
X111734675Y-76932339D01*
X111771650Y-76843073D01*
X111790500Y-76748310D01*
X111790500Y-76651690D01*
X111771650Y-76556927D01*
X111734675Y-76467661D01*
X111680996Y-76387325D01*
X111612675Y-76319004D01*
X111532339Y-76265325D01*
X111443073Y-76228350D01*
X111426232Y-76225000D01*
X111443073Y-76221650D01*
X111532339Y-76184675D01*
X111612675Y-76130996D01*
X111680996Y-76062675D01*
X111734675Y-75982339D01*
X111771650Y-75893073D01*
X111790500Y-75798310D01*
X111790500Y-75701690D01*
X111771650Y-75606927D01*
X111734675Y-75517661D01*
X111680996Y-75437325D01*
X111612675Y-75369004D01*
X111532339Y-75315325D01*
X111443073Y-75278350D01*
X111348310Y-75259500D01*
X111251690Y-75259500D01*
X111190500Y-75271672D01*
X111190500Y-75193190D01*
X111171650Y-75098427D01*
X111134675Y-75009161D01*
X111080996Y-74928825D01*
X111012675Y-74860504D01*
X110932339Y-74806825D01*
X110843073Y-74769850D01*
X110748310Y-74751000D01*
X110651690Y-74751000D01*
X110556927Y-74769850D01*
X110467661Y-74806825D01*
X110387325Y-74860504D01*
X110319004Y-74928825D01*
X110279798Y-74987500D01*
X110246711Y-74987500D01*
X109460901Y-74201690D01*
X110209500Y-74201690D01*
X110209500Y-74298310D01*
X110228350Y-74393073D01*
X110265325Y-74482339D01*
X110319004Y-74562675D01*
X110387325Y-74630996D01*
X110467661Y-74684675D01*
X110556927Y-74721650D01*
X110651690Y-74740500D01*
X110748310Y-74740500D01*
X110843073Y-74721650D01*
X110932339Y-74684675D01*
X111012675Y-74630996D01*
X111080996Y-74562675D01*
X111134675Y-74482339D01*
X111171650Y-74393073D01*
X111190500Y-74298310D01*
X111190500Y-74201690D01*
X111171650Y-74106927D01*
X111134675Y-74017661D01*
X111080996Y-73937325D01*
X111012675Y-73869004D01*
X110932339Y-73815325D01*
X110843073Y-73778350D01*
X110748310Y-73759500D01*
X110651690Y-73759500D01*
X110556927Y-73778350D01*
X110467661Y-73815325D01*
X110387325Y-73869004D01*
X110319004Y-73937325D01*
X110265325Y-74017661D01*
X110228350Y-74106927D01*
X110209500Y-74201690D01*
X109460901Y-74201690D01*
X107960901Y-72701690D01*
X110209500Y-72701690D01*
X110209500Y-72798310D01*
X110228350Y-72893073D01*
X110265325Y-72982339D01*
X110319004Y-73062675D01*
X110387325Y-73130996D01*
X110467661Y-73184675D01*
X110556927Y-73221650D01*
X110651690Y-73240500D01*
X110748310Y-73240500D01*
X110843073Y-73221650D01*
X110932339Y-73184675D01*
X111012675Y-73130996D01*
X111080996Y-73062675D01*
X111134675Y-72982339D01*
X111171650Y-72893073D01*
X111190500Y-72798310D01*
X111190500Y-72701690D01*
X111171650Y-72606927D01*
X111134675Y-72517661D01*
X111080996Y-72437325D01*
X111012675Y-72369004D01*
X110932339Y-72315325D01*
X110843073Y-72278350D01*
X110748310Y-72259500D01*
X110651690Y-72259500D01*
X110556927Y-72278350D01*
X110467661Y-72315325D01*
X110387325Y-72369004D01*
X110319004Y-72437325D01*
X110265325Y-72517661D01*
X110228350Y-72606927D01*
X110209500Y-72701690D01*
X107960901Y-72701690D01*
X107188419Y-71929209D01*
X107180473Y-71919527D01*
X107170791Y-71911581D01*
X107170788Y-71911578D01*
X107158323Y-71901349D01*
X107141797Y-71887786D01*
X107097672Y-71864200D01*
X107049793Y-71849676D01*
X107012469Y-71846000D01*
X107012458Y-71846000D01*
X107000000Y-71844773D01*
X106987542Y-71846000D01*
X99012457Y-71846000D01*
X98999999Y-71844773D01*
X98987541Y-71846000D01*
X98987531Y-71846000D01*
X98950207Y-71849676D01*
X98902328Y-71864200D01*
X98858203Y-71887786D01*
X98829211Y-71911579D01*
X98829209Y-71911581D01*
X98819527Y-71919527D01*
X98811581Y-71929209D01*
X98529204Y-72211586D01*
X98519528Y-72219527D01*
X98511587Y-72229203D01*
X98511578Y-72229212D01*
X98487786Y-72258204D01*
X98464200Y-72302329D01*
X98454083Y-72335684D01*
X98449677Y-72350207D01*
X98448889Y-72358204D01*
X98444773Y-72400000D01*
X98446001Y-72412468D01*
X98446000Y-73733962D01*
X98417028Y-73679759D01*
X98362132Y-73612868D01*
X98295241Y-73557972D01*
X98218925Y-73517180D01*
X98136118Y-73492061D01*
X98050001Y-73483579D01*
X97149999Y-73483579D01*
X97063882Y-73492061D01*
X96981075Y-73517180D01*
X96904759Y-73557972D01*
X96837868Y-73612868D01*
X96782972Y-73679759D01*
X96742180Y-73756075D01*
X96717061Y-73838882D01*
X96708579Y-73924999D01*
X96708579Y-74450001D01*
X96717061Y-74536118D01*
X96742180Y-74618925D01*
X96782972Y-74695241D01*
X96837868Y-74762132D01*
X96904759Y-74817028D01*
X96981075Y-74857820D01*
X97063882Y-74882939D01*
X97149999Y-74891421D01*
X98050001Y-74891421D01*
X98136118Y-74882939D01*
X98218925Y-74857820D01*
X98295241Y-74817028D01*
X98362132Y-74762132D01*
X98417028Y-74695241D01*
X98446001Y-74641037D01*
X98446001Y-75558963D01*
X98417028Y-75504759D01*
X98362132Y-75437868D01*
X98295241Y-75382972D01*
X98218925Y-75342180D01*
X98136118Y-75317061D01*
X98050001Y-75308579D01*
X97149999Y-75308579D01*
X97063882Y-75317061D01*
X96981075Y-75342180D01*
X96904759Y-75382972D01*
X96837868Y-75437868D01*
X96782972Y-75504759D01*
X96742180Y-75581075D01*
X96717061Y-75663882D01*
X96708579Y-75749999D01*
X96708579Y-76275001D01*
X96717061Y-76361118D01*
X96742180Y-76443925D01*
X96782972Y-76520241D01*
X96834501Y-76583029D01*
X96834500Y-79004011D01*
X96716791Y-79121720D01*
X96602920Y-79292138D01*
X96524485Y-79481497D01*
X96484500Y-79682520D01*
X96484500Y-79709500D01*
X95463500Y-79709500D01*
X95463500Y-71201690D01*
X110209500Y-71201690D01*
X110209500Y-71298310D01*
X110228350Y-71393073D01*
X110265325Y-71482339D01*
X110319004Y-71562675D01*
X110387325Y-71630996D01*
X110467661Y-71684675D01*
X110556927Y-71721650D01*
X110651690Y-71740500D01*
X110748310Y-71740500D01*
X110843073Y-71721650D01*
X110932339Y-71684675D01*
X111012675Y-71630996D01*
X111080996Y-71562675D01*
X111134675Y-71482339D01*
X111171650Y-71393073D01*
X111190500Y-71298310D01*
X111190500Y-71201690D01*
X111171650Y-71106927D01*
X111134675Y-71017661D01*
X111080996Y-70937325D01*
X111012675Y-70869004D01*
X110932339Y-70815325D01*
X110843073Y-70778350D01*
X110748310Y-70759500D01*
X110651690Y-70759500D01*
X110556927Y-70778350D01*
X110467661Y-70815325D01*
X110387325Y-70869004D01*
X110319004Y-70937325D01*
X110265325Y-71017661D01*
X110228350Y-71106927D01*
X110209500Y-71201690D01*
X95463500Y-71201690D01*
X95463500Y-69751690D01*
X110209500Y-69751690D01*
X110209500Y-69848310D01*
X110228350Y-69943073D01*
X110265325Y-70032339D01*
X110319004Y-70112675D01*
X110387325Y-70180996D01*
X110467661Y-70234675D01*
X110556927Y-70271650D01*
X110651690Y-70290500D01*
X110748310Y-70290500D01*
X110843073Y-70271650D01*
X110932339Y-70234675D01*
X111012675Y-70180996D01*
X111080996Y-70112675D01*
X111134675Y-70032339D01*
X111171650Y-69943073D01*
X111190500Y-69848310D01*
X111190500Y-69751690D01*
X111171650Y-69656927D01*
X111134675Y-69567661D01*
X111080996Y-69487325D01*
X111012675Y-69419004D01*
X110932339Y-69365325D01*
X110843073Y-69328350D01*
X110748310Y-69309500D01*
X110651690Y-69309500D01*
X110556927Y-69328350D01*
X110467661Y-69365325D01*
X110387325Y-69419004D01*
X110319004Y-69487325D01*
X110265325Y-69567661D01*
X110228350Y-69656927D01*
X110209500Y-69751690D01*
X95463500Y-69751690D01*
X95463500Y-68763500D01*
X112036500Y-68763500D01*
X112036500Y-83990597D01*
G04 #@! TA.AperFunction,Conductor*
D19*
G36*
X112036500Y-83990597D02*
G01*
X95463500Y-83991117D01*
X95463500Y-83175000D01*
X96355964Y-83175000D01*
X96362094Y-83237241D01*
X96380249Y-83297090D01*
X96409731Y-83352247D01*
X96449407Y-83400593D01*
X96497753Y-83440269D01*
X96552910Y-83469751D01*
X96612759Y-83487906D01*
X96675000Y-83494036D01*
X97334125Y-83492500D01*
X97413500Y-83413125D01*
X97413500Y-82436500D01*
X97636500Y-82436500D01*
X97636500Y-83413125D01*
X97715875Y-83492500D01*
X98375000Y-83494036D01*
X98437241Y-83487906D01*
X98497090Y-83469751D01*
X98552247Y-83440269D01*
X98600593Y-83400593D01*
X98640269Y-83352247D01*
X98669751Y-83297090D01*
X98687906Y-83237241D01*
X98694036Y-83175000D01*
X98692500Y-82515875D01*
X98613125Y-82436500D01*
X97636500Y-82436500D01*
X97413500Y-82436500D01*
X96436875Y-82436500D01*
X96357500Y-82515875D01*
X96355964Y-83175000D01*
X95463500Y-83175000D01*
X95463500Y-82222520D01*
X99024500Y-82222520D01*
X99024500Y-82427480D01*
X99064485Y-82628503D01*
X99142920Y-82817862D01*
X99256791Y-82988280D01*
X99401720Y-83133209D01*
X99572138Y-83247080D01*
X99761497Y-83325515D01*
X99962520Y-83365500D01*
X100167480Y-83365500D01*
X100368503Y-83325515D01*
X100557862Y-83247080D01*
X100728280Y-83133209D01*
X100873209Y-82988280D01*
X100987080Y-82817862D01*
X101065515Y-82628503D01*
X101105500Y-82427480D01*
X101105500Y-82222520D01*
X101065515Y-82021497D01*
X100987080Y-81832138D01*
X100873209Y-81661720D01*
X100728280Y-81516791D01*
X100557862Y-81402920D01*
X100368503Y-81324485D01*
X100167480Y-81284500D01*
X99962520Y-81284500D01*
X99761497Y-81324485D01*
X99572138Y-81402920D01*
X99401720Y-81516791D01*
X99256791Y-81661720D01*
X99142920Y-81832138D01*
X99064485Y-82021497D01*
X99024500Y-82222520D01*
X95463500Y-82222520D01*
X95463500Y-81475000D01*
X96355964Y-81475000D01*
X96357500Y-82134125D01*
X96436875Y-82213500D01*
X97413500Y-82213500D01*
X97413500Y-81236875D01*
X97636500Y-81236875D01*
X97636500Y-82213500D01*
X98613125Y-82213500D01*
X98692500Y-82134125D01*
X98694036Y-81475000D01*
X98687906Y-81412759D01*
X98669751Y-81352910D01*
X98640269Y-81297753D01*
X98600593Y-81249407D01*
X98552247Y-81209731D01*
X98497090Y-81180249D01*
X98437241Y-81162094D01*
X98375000Y-81155964D01*
X97715875Y-81157500D01*
X97636500Y-81236875D01*
X97413500Y-81236875D01*
X97334125Y-81157500D01*
X96675000Y-81155964D01*
X96612759Y-81162094D01*
X96552910Y-81180249D01*
X96497753Y-81209731D01*
X96449407Y-81249407D01*
X96409731Y-81297753D01*
X96380249Y-81352910D01*
X96362094Y-81412759D01*
X96355964Y-81475000D01*
X95463500Y-81475000D01*
X95463500Y-81090500D01*
X96876081Y-81090500D01*
X96910000Y-81093841D01*
X96943919Y-81090500D01*
X96943922Y-81090500D01*
X97045362Y-81080509D01*
X97175521Y-81041025D01*
X97295477Y-80976908D01*
X97400620Y-80890620D01*
X97422252Y-80864261D01*
X97461013Y-80825500D01*
X97627480Y-80825500D01*
X97828503Y-80785515D01*
X98017862Y-80707080D01*
X98188280Y-80593209D01*
X98333209Y-80448280D01*
X98447080Y-80277862D01*
X98525515Y-80088503D01*
X98565500Y-79887480D01*
X98565500Y-79682520D01*
X98525515Y-79481497D01*
X98447080Y-79292138D01*
X98333209Y-79121720D01*
X98215500Y-79004011D01*
X98215500Y-76683859D01*
X98218925Y-76682820D01*
X98295241Y-76642028D01*
X98362132Y-76587132D01*
X98417028Y-76520241D01*
X98446000Y-76466038D01*
X98446000Y-78407542D01*
X98444773Y-78420000D01*
X98446000Y-78432458D01*
X98446000Y-78432468D01*
X98449676Y-78469792D01*
X98464200Y-78517671D01*
X98487786Y-78561797D01*
X98488507Y-78562675D01*
X98511578Y-78590788D01*
X98511581Y-78590791D01*
X98519527Y-78600473D01*
X98529209Y-78608419D01*
X99170961Y-79250171D01*
X99142920Y-79292138D01*
X99064485Y-79481497D01*
X99024500Y-79682520D01*
X99024500Y-79887480D01*
X99064485Y-80088503D01*
X99142920Y-80277862D01*
X99256791Y-80448280D01*
X99401720Y-80593209D01*
X99572138Y-80707080D01*
X99761497Y-80785515D01*
X99962520Y-80825500D01*
X100167480Y-80825500D01*
X100368503Y-80785515D01*
X100557862Y-80707080D01*
X100728280Y-80593209D01*
X100846001Y-80475488D01*
X100846000Y-80807541D01*
X100844773Y-80820000D01*
X100846000Y-80832458D01*
X100846000Y-80832468D01*
X100849676Y-80869792D01*
X100864200Y-80917671D01*
X100887786Y-80961797D01*
X100901349Y-80978323D01*
X100911578Y-80990788D01*
X100911581Y-80990791D01*
X100919527Y-81000473D01*
X100929209Y-81008419D01*
X101710961Y-81790171D01*
X101682920Y-81832138D01*
X101604485Y-82021497D01*
X101564500Y-82222520D01*
X101564500Y-82427480D01*
X101604485Y-82628503D01*
X101682920Y-82817862D01*
X101796791Y-82988280D01*
X101941720Y-83133209D01*
X102112138Y-83247080D01*
X102301497Y-83325515D01*
X102502520Y-83365500D01*
X102707480Y-83365500D01*
X102908503Y-83325515D01*
X103097862Y-83247080D01*
X103268280Y-83133209D01*
X103413209Y-82988280D01*
X103527080Y-82817862D01*
X103605515Y-82628503D01*
X103645500Y-82427480D01*
X103645500Y-82222520D01*
X103605515Y-82021497D01*
X103527080Y-81832138D01*
X103413209Y-81661720D01*
X103268280Y-81516791D01*
X103097862Y-81402920D01*
X102908503Y-81324485D01*
X102707480Y-81284500D01*
X102502520Y-81284500D01*
X102301497Y-81324485D01*
X102112138Y-81402920D01*
X102070171Y-81430961D01*
X101354000Y-80714790D01*
X101354000Y-80340250D01*
X101355825Y-80334234D01*
X101359501Y-80296910D01*
X101359501Y-80296899D01*
X101360728Y-80284441D01*
X101359501Y-80271983D01*
X101359501Y-79298017D01*
X101360728Y-79285559D01*
X101359501Y-79273101D01*
X101359501Y-79273090D01*
X101355825Y-79235766D01*
X101341301Y-79187887D01*
X101317715Y-79143762D01*
X101293923Y-79114770D01*
X101293915Y-79114762D01*
X101285974Y-79105086D01*
X101276298Y-79097145D01*
X99354000Y-77174848D01*
X99354000Y-76839506D01*
X99400000Y-76844036D01*
X99909125Y-76842500D01*
X99988500Y-76763125D01*
X99988500Y-76124000D01*
X99968500Y-76124000D01*
X99968500Y-75901000D01*
X99988500Y-75901000D01*
X99988500Y-75261875D01*
X99909125Y-75182500D01*
X99400000Y-75180964D01*
X99354000Y-75185494D01*
X99354000Y-74775371D01*
X99404759Y-74817028D01*
X99481075Y-74857820D01*
X99563882Y-74882939D01*
X99649999Y-74891421D01*
X100550001Y-74891421D01*
X100636118Y-74882939D01*
X100718925Y-74857820D01*
X100795241Y-74817028D01*
X100846001Y-74775371D01*
X100846001Y-75185495D01*
X100800000Y-75180964D01*
X100290875Y-75182500D01*
X100211500Y-75261875D01*
X100211500Y-75901000D01*
X100231500Y-75901000D01*
X100231500Y-76124000D01*
X100211500Y-76124000D01*
X100211500Y-76763125D01*
X100290875Y-76842500D01*
X100800000Y-76844036D01*
X100846000Y-76839506D01*
X100846000Y-78267542D01*
X100844773Y-78280000D01*
X100846000Y-78292458D01*
X100846000Y-78292468D01*
X100849676Y-78329792D01*
X100864200Y-78377671D01*
X100887786Y-78421797D01*
X100901349Y-78438323D01*
X100911578Y-78450788D01*
X100911581Y-78450791D01*
X100919527Y-78460473D01*
X100929209Y-78468419D01*
X101710961Y-79250171D01*
X101682920Y-79292138D01*
X101604485Y-79481497D01*
X101564500Y-79682520D01*
X101564500Y-79887480D01*
X101604485Y-80088503D01*
X101682920Y-80277862D01*
X101796791Y-80448280D01*
X101941720Y-80593209D01*
X102112138Y-80707080D01*
X102301497Y-80785515D01*
X102502520Y-80825500D01*
X102707480Y-80825500D01*
X102908503Y-80785515D01*
X103097862Y-80707080D01*
X103268280Y-80593209D01*
X103413209Y-80448280D01*
X103527080Y-80277862D01*
X103605515Y-80088503D01*
X103645500Y-79887480D01*
X103645500Y-79682520D01*
X103605515Y-79481497D01*
X103527080Y-79292138D01*
X103413209Y-79121720D01*
X103268280Y-78976791D01*
X103097862Y-78862920D01*
X102908503Y-78784485D01*
X102707480Y-78744500D01*
X102502520Y-78744500D01*
X102301497Y-78784485D01*
X102112138Y-78862920D01*
X102070171Y-78890961D01*
X101354000Y-78174790D01*
X101354000Y-76525000D01*
X101580964Y-76525000D01*
X101587094Y-76587241D01*
X101605249Y-76647090D01*
X101634731Y-76702247D01*
X101674407Y-76750593D01*
X101722753Y-76790269D01*
X101777910Y-76819751D01*
X101837759Y-76837906D01*
X101900000Y-76844036D01*
X102409125Y-76842500D01*
X102488500Y-76763125D01*
X102488500Y-76124000D01*
X101661875Y-76124000D01*
X101582500Y-76203375D01*
X101580964Y-76525000D01*
X101354000Y-76525000D01*
X101354000Y-75500000D01*
X101580964Y-75500000D01*
X101582500Y-75821625D01*
X101661875Y-75901000D01*
X102488500Y-75901000D01*
X102488500Y-75261875D01*
X102409125Y-75182500D01*
X101900000Y-75180964D01*
X101837759Y-75187094D01*
X101777910Y-75205249D01*
X101722753Y-75234731D01*
X101674407Y-75274407D01*
X101634731Y-75322753D01*
X101605249Y-75377910D01*
X101587094Y-75437759D01*
X101580964Y-75500000D01*
X101354000Y-75500000D01*
X101354000Y-73305210D01*
X101505210Y-73154000D01*
X103886790Y-73154000D01*
X103529204Y-73511586D01*
X103519528Y-73519527D01*
X103511587Y-73529203D01*
X103511578Y-73529212D01*
X103487786Y-73558204D01*
X103464200Y-73602329D01*
X103454083Y-73635684D01*
X103449677Y-73650207D01*
X103446001Y-73687531D01*
X103444773Y-73700000D01*
X103446001Y-73712468D01*
X103446001Y-73733963D01*
X103417028Y-73679759D01*
X103362132Y-73612868D01*
X103295241Y-73557972D01*
X103218925Y-73517180D01*
X103136118Y-73492061D01*
X103050001Y-73483579D01*
X102149999Y-73483579D01*
X102063882Y-73492061D01*
X101981075Y-73517180D01*
X101904759Y-73557972D01*
X101837868Y-73612868D01*
X101782972Y-73679759D01*
X101742180Y-73756075D01*
X101717061Y-73838882D01*
X101708579Y-73924999D01*
X101708579Y-74450001D01*
X101717061Y-74536118D01*
X101742180Y-74618925D01*
X101782972Y-74695241D01*
X101837868Y-74762132D01*
X101904759Y-74817028D01*
X101981075Y-74857820D01*
X102063882Y-74882939D01*
X102149999Y-74891421D01*
X103050001Y-74891421D01*
X103136118Y-74882939D01*
X103218925Y-74857820D01*
X103295241Y-74817028D01*
X103362132Y-74762132D01*
X103417028Y-74695241D01*
X103446001Y-74641037D01*
X103446001Y-75218029D01*
X103422090Y-75205249D01*
X103362241Y-75187094D01*
X103300000Y-75180964D01*
X102790875Y-75182500D01*
X102711500Y-75261875D01*
X102711500Y-75901000D01*
X102731500Y-75901000D01*
X102731500Y-76124000D01*
X102711500Y-76124000D01*
X102711500Y-76763125D01*
X102790875Y-76842500D01*
X103300000Y-76844036D01*
X103362241Y-76837906D01*
X103422090Y-76819751D01*
X103446000Y-76806971D01*
X103446000Y-77171692D01*
X103446001Y-77171702D01*
X103446000Y-77787541D01*
X103444773Y-77800000D01*
X103446000Y-77812458D01*
X103446000Y-77812468D01*
X103449676Y-77849792D01*
X103464200Y-77897671D01*
X103487786Y-77941797D01*
X103501349Y-77958323D01*
X103511578Y-77970788D01*
X103511581Y-77970791D01*
X103519527Y-77980473D01*
X103529209Y-77988419D01*
X104503217Y-78962427D01*
X104481720Y-78976791D01*
X104336791Y-79121720D01*
X104222920Y-79292138D01*
X104144485Y-79481497D01*
X104104500Y-79682520D01*
X104104500Y-79887480D01*
X104144485Y-80088503D01*
X104222920Y-80277862D01*
X104336791Y-80448280D01*
X104481720Y-80593209D01*
X104652138Y-80707080D01*
X104841497Y-80785515D01*
X105042520Y-80825500D01*
X105247480Y-80825500D01*
X105448503Y-80785515D01*
X105637862Y-80707080D01*
X105808280Y-80593209D01*
X105953209Y-80448280D01*
X106046001Y-80309409D01*
X106046001Y-81064789D01*
X105679829Y-81430961D01*
X105637862Y-81402920D01*
X105448503Y-81324485D01*
X105247480Y-81284500D01*
X105042520Y-81284500D01*
X104841497Y-81324485D01*
X104652138Y-81402920D01*
X104481720Y-81516791D01*
X104336791Y-81661720D01*
X104222920Y-81832138D01*
X104144485Y-82021497D01*
X104104500Y-82222520D01*
X104104500Y-82427480D01*
X104144485Y-82628503D01*
X104222920Y-82817862D01*
X104336791Y-82988280D01*
X104481720Y-83133209D01*
X104652138Y-83247080D01*
X104841497Y-83325515D01*
X105042520Y-83365500D01*
X105247480Y-83365500D01*
X105448503Y-83325515D01*
X105637862Y-83247080D01*
X105808280Y-83133209D01*
X105953209Y-82988280D01*
X106067080Y-82817862D01*
X106145515Y-82628503D01*
X106185500Y-82427480D01*
X106185500Y-82222520D01*
X106145515Y-82021497D01*
X106067080Y-81832138D01*
X106039039Y-81790171D01*
X106470791Y-81358419D01*
X106480473Y-81350473D01*
X106488419Y-81340791D01*
X106488422Y-81340788D01*
X106512215Y-81311797D01*
X106535800Y-81267672D01*
X106550324Y-81219793D01*
X106554000Y-81182469D01*
X106554000Y-81182458D01*
X106555227Y-81170000D01*
X106554000Y-81157542D01*
X106554000Y-80948155D01*
X108673900Y-80948155D01*
X108673900Y-81165801D01*
X108716361Y-81379265D01*
X108799650Y-81580344D01*
X108920568Y-81761311D01*
X109074467Y-81915210D01*
X109255434Y-82036128D01*
X109456513Y-82119417D01*
X109669977Y-82161878D01*
X109887623Y-82161878D01*
X110101087Y-82119417D01*
X110302166Y-82036128D01*
X110483133Y-81915210D01*
X110637032Y-81761311D01*
X110757950Y-81580344D01*
X110841239Y-81379265D01*
X110883700Y-81165801D01*
X110883700Y-80948155D01*
X110841239Y-80734691D01*
X110757950Y-80533612D01*
X110637032Y-80352645D01*
X110483133Y-80198746D01*
X110302166Y-80077828D01*
X110101087Y-79994539D01*
X109887623Y-79952078D01*
X109669977Y-79952078D01*
X109456513Y-79994539D01*
X109255434Y-80077828D01*
X109074467Y-80198746D01*
X108920568Y-80352645D01*
X108799650Y-80533612D01*
X108716361Y-80734691D01*
X108673900Y-80948155D01*
X106554000Y-80948155D01*
X106554000Y-79312457D01*
X106555227Y-79299999D01*
X106554000Y-79287541D01*
X106554000Y-79287531D01*
X106550324Y-79250207D01*
X106535800Y-79202328D01*
X106512214Y-79158203D01*
X106500538Y-79143976D01*
X106488421Y-79129211D01*
X106488419Y-79129209D01*
X106480473Y-79119527D01*
X106470791Y-79111581D01*
X105049218Y-77690008D01*
X105051690Y-77690500D01*
X105148310Y-77690500D01*
X105243073Y-77671650D01*
X105332339Y-77634675D01*
X105412675Y-77580996D01*
X105480996Y-77512675D01*
X105534675Y-77432339D01*
X105571650Y-77343073D01*
X105590500Y-77248310D01*
X105590500Y-77151690D01*
X105571650Y-77056927D01*
X105534675Y-76967661D01*
X105480996Y-76887325D01*
X105412675Y-76819004D01*
X105354000Y-76779798D01*
X105354000Y-76716421D01*
X105550001Y-76716421D01*
X105636118Y-76707939D01*
X105718925Y-76682820D01*
X105795241Y-76642028D01*
X105862132Y-76587132D01*
X105917028Y-76520241D01*
X105957820Y-76443925D01*
X105982939Y-76361118D01*
X105991421Y-76275001D01*
X105991421Y-75749999D01*
X105982939Y-75663882D01*
X105957820Y-75581075D01*
X105917028Y-75504759D01*
X105862132Y-75437868D01*
X105795241Y-75382972D01*
X105718925Y-75342180D01*
X105636118Y-75317061D01*
X105550001Y-75308579D01*
X104649999Y-75308579D01*
X104563882Y-75317061D01*
X104481075Y-75342180D01*
X104404759Y-75382972D01*
X104337868Y-75437868D01*
X104282972Y-75504759D01*
X104254000Y-75558961D01*
X104254000Y-74641039D01*
X104282972Y-74695241D01*
X104337868Y-74762132D01*
X104404759Y-74817028D01*
X104481075Y-74857820D01*
X104563882Y-74882939D01*
X104649999Y-74891421D01*
X105550001Y-74891421D01*
X105636118Y-74882939D01*
X105718925Y-74857820D01*
X105795241Y-74817028D01*
X105862132Y-74762132D01*
X105917028Y-74695241D01*
X105957820Y-74618925D01*
X105981535Y-74540745D01*
X109861581Y-78420791D01*
X109869527Y-78430473D01*
X109879209Y-78438419D01*
X109879212Y-78438422D01*
X109908203Y-78462215D01*
X109936958Y-78477585D01*
X109952328Y-78485800D01*
X110000207Y-78500324D01*
X110037531Y-78504000D01*
X110037542Y-78504000D01*
X110050000Y-78505227D01*
X110062458Y-78504000D01*
X110279798Y-78504000D01*
X110319004Y-78562675D01*
X110387325Y-78630996D01*
X110467661Y-78684675D01*
X110556927Y-78721650D01*
X110651690Y-78740500D01*
X110748310Y-78740500D01*
X110843073Y-78721650D01*
X110932339Y-78684675D01*
X111012675Y-78630996D01*
X111080996Y-78562675D01*
X111134675Y-78482339D01*
X111171650Y-78393073D01*
X111190500Y-78298310D01*
X111190500Y-78201690D01*
X111171650Y-78106927D01*
X111134675Y-78017661D01*
X111080996Y-77937325D01*
X111012675Y-77869004D01*
X110932339Y-77815325D01*
X110843073Y-77778350D01*
X110748310Y-77759500D01*
X110651690Y-77759500D01*
X110556927Y-77778350D01*
X110467661Y-77815325D01*
X110387325Y-77869004D01*
X110319004Y-77937325D01*
X110279798Y-77996000D01*
X110155210Y-77996000D01*
X106175919Y-74016709D01*
X106167973Y-74007027D01*
X106158291Y-73999081D01*
X106158288Y-73999078D01*
X106144528Y-73987786D01*
X106129297Y-73975286D01*
X106085172Y-73951700D01*
X106037293Y-73937176D01*
X105999969Y-73933500D01*
X105999958Y-73933500D01*
X105991421Y-73932659D01*
X105991421Y-73924999D01*
X105982939Y-73838882D01*
X105957820Y-73756075D01*
X105917028Y-73679759D01*
X105862132Y-73612868D01*
X105795241Y-73557972D01*
X105787810Y-73554000D01*
X106294790Y-73554000D01*
X109643570Y-76902780D01*
X109651516Y-76912462D01*
X109661198Y-76920408D01*
X109661200Y-76920410D01*
X109690191Y-76944203D01*
X109734078Y-76967661D01*
X109734317Y-76967789D01*
X109782196Y-76982313D01*
X109819520Y-76985989D01*
X109819530Y-76985989D01*
X109831988Y-76987216D01*
X109844446Y-76985989D01*
X110286488Y-76985989D01*
X110265325Y-77017661D01*
X110228350Y-77106927D01*
X110209500Y-77201690D01*
X110209500Y-77298310D01*
X110228350Y-77393073D01*
X110265325Y-77482339D01*
X110319004Y-77562675D01*
X110387325Y-77630996D01*
X110467661Y-77684675D01*
X110556927Y-77721650D01*
X110651690Y-77740500D01*
X110748310Y-77740500D01*
X110843073Y-77721650D01*
X110932339Y-77684675D01*
X111012675Y-77630996D01*
X111080996Y-77562675D01*
X111134675Y-77482339D01*
X111171650Y-77393073D01*
X111190500Y-77298310D01*
X111190500Y-77201690D01*
X111185661Y-77177366D01*
X111251690Y-77190500D01*
X111348310Y-77190500D01*
X111443073Y-77171650D01*
X111532339Y-77134675D01*
X111612675Y-77080996D01*
X111680996Y-77012675D01*
X111734675Y-76932339D01*
X111771650Y-76843073D01*
X111790500Y-76748310D01*
X111790500Y-76651690D01*
X111771650Y-76556927D01*
X111734675Y-76467661D01*
X111680996Y-76387325D01*
X111612675Y-76319004D01*
X111532339Y-76265325D01*
X111443073Y-76228350D01*
X111426232Y-76225000D01*
X111443073Y-76221650D01*
X111532339Y-76184675D01*
X111612675Y-76130996D01*
X111680996Y-76062675D01*
X111734675Y-75982339D01*
X111771650Y-75893073D01*
X111790500Y-75798310D01*
X111790500Y-75701690D01*
X111771650Y-75606927D01*
X111734675Y-75517661D01*
X111680996Y-75437325D01*
X111612675Y-75369004D01*
X111532339Y-75315325D01*
X111443073Y-75278350D01*
X111348310Y-75259500D01*
X111251690Y-75259500D01*
X111190500Y-75271672D01*
X111190500Y-75193190D01*
X111171650Y-75098427D01*
X111134675Y-75009161D01*
X111080996Y-74928825D01*
X111012675Y-74860504D01*
X110932339Y-74806825D01*
X110843073Y-74769850D01*
X110748310Y-74751000D01*
X110651690Y-74751000D01*
X110556927Y-74769850D01*
X110467661Y-74806825D01*
X110387325Y-74860504D01*
X110319004Y-74928825D01*
X110279798Y-74987500D01*
X110246711Y-74987500D01*
X109460901Y-74201690D01*
X110209500Y-74201690D01*
X110209500Y-74298310D01*
X110228350Y-74393073D01*
X110265325Y-74482339D01*
X110319004Y-74562675D01*
X110387325Y-74630996D01*
X110467661Y-74684675D01*
X110556927Y-74721650D01*
X110651690Y-74740500D01*
X110748310Y-74740500D01*
X110843073Y-74721650D01*
X110932339Y-74684675D01*
X111012675Y-74630996D01*
X111080996Y-74562675D01*
X111134675Y-74482339D01*
X111171650Y-74393073D01*
X111190500Y-74298310D01*
X111190500Y-74201690D01*
X111171650Y-74106927D01*
X111134675Y-74017661D01*
X111080996Y-73937325D01*
X111012675Y-73869004D01*
X110932339Y-73815325D01*
X110843073Y-73778350D01*
X110748310Y-73759500D01*
X110651690Y-73759500D01*
X110556927Y-73778350D01*
X110467661Y-73815325D01*
X110387325Y-73869004D01*
X110319004Y-73937325D01*
X110265325Y-74017661D01*
X110228350Y-74106927D01*
X110209500Y-74201690D01*
X109460901Y-74201690D01*
X107960901Y-72701690D01*
X110209500Y-72701690D01*
X110209500Y-72798310D01*
X110228350Y-72893073D01*
X110265325Y-72982339D01*
X110319004Y-73062675D01*
X110387325Y-73130996D01*
X110467661Y-73184675D01*
X110556927Y-73221650D01*
X110651690Y-73240500D01*
X110748310Y-73240500D01*
X110843073Y-73221650D01*
X110932339Y-73184675D01*
X111012675Y-73130996D01*
X111080996Y-73062675D01*
X111134675Y-72982339D01*
X111171650Y-72893073D01*
X111190500Y-72798310D01*
X111190500Y-72701690D01*
X111171650Y-72606927D01*
X111134675Y-72517661D01*
X111080996Y-72437325D01*
X111012675Y-72369004D01*
X110932339Y-72315325D01*
X110843073Y-72278350D01*
X110748310Y-72259500D01*
X110651690Y-72259500D01*
X110556927Y-72278350D01*
X110467661Y-72315325D01*
X110387325Y-72369004D01*
X110319004Y-72437325D01*
X110265325Y-72517661D01*
X110228350Y-72606927D01*
X110209500Y-72701690D01*
X107960901Y-72701690D01*
X107188419Y-71929209D01*
X107180473Y-71919527D01*
X107170791Y-71911581D01*
X107170788Y-71911578D01*
X107158323Y-71901349D01*
X107141797Y-71887786D01*
X107097672Y-71864200D01*
X107049793Y-71849676D01*
X107012469Y-71846000D01*
X107012458Y-71846000D01*
X107000000Y-71844773D01*
X106987542Y-71846000D01*
X99012457Y-71846000D01*
X98999999Y-71844773D01*
X98987541Y-71846000D01*
X98987531Y-71846000D01*
X98950207Y-71849676D01*
X98902328Y-71864200D01*
X98858203Y-71887786D01*
X98829211Y-71911579D01*
X98829209Y-71911581D01*
X98819527Y-71919527D01*
X98811581Y-71929209D01*
X98529204Y-72211586D01*
X98519528Y-72219527D01*
X98511587Y-72229203D01*
X98511578Y-72229212D01*
X98487786Y-72258204D01*
X98464200Y-72302329D01*
X98454083Y-72335684D01*
X98449677Y-72350207D01*
X98448889Y-72358204D01*
X98444773Y-72400000D01*
X98446001Y-72412468D01*
X98446000Y-73733962D01*
X98417028Y-73679759D01*
X98362132Y-73612868D01*
X98295241Y-73557972D01*
X98218925Y-73517180D01*
X98136118Y-73492061D01*
X98050001Y-73483579D01*
X97149999Y-73483579D01*
X97063882Y-73492061D01*
X96981075Y-73517180D01*
X96904759Y-73557972D01*
X96837868Y-73612868D01*
X96782972Y-73679759D01*
X96742180Y-73756075D01*
X96717061Y-73838882D01*
X96708579Y-73924999D01*
X96708579Y-74450001D01*
X96717061Y-74536118D01*
X96742180Y-74618925D01*
X96782972Y-74695241D01*
X96837868Y-74762132D01*
X96904759Y-74817028D01*
X96981075Y-74857820D01*
X97063882Y-74882939D01*
X97149999Y-74891421D01*
X98050001Y-74891421D01*
X98136118Y-74882939D01*
X98218925Y-74857820D01*
X98295241Y-74817028D01*
X98362132Y-74762132D01*
X98417028Y-74695241D01*
X98446001Y-74641037D01*
X98446001Y-75558963D01*
X98417028Y-75504759D01*
X98362132Y-75437868D01*
X98295241Y-75382972D01*
X98218925Y-75342180D01*
X98136118Y-75317061D01*
X98050001Y-75308579D01*
X97149999Y-75308579D01*
X97063882Y-75317061D01*
X96981075Y-75342180D01*
X96904759Y-75382972D01*
X96837868Y-75437868D01*
X96782972Y-75504759D01*
X96742180Y-75581075D01*
X96717061Y-75663882D01*
X96708579Y-75749999D01*
X96708579Y-76275001D01*
X96717061Y-76361118D01*
X96742180Y-76443925D01*
X96782972Y-76520241D01*
X96834501Y-76583029D01*
X96834500Y-79004011D01*
X96716791Y-79121720D01*
X96602920Y-79292138D01*
X96524485Y-79481497D01*
X96484500Y-79682520D01*
X96484500Y-79709500D01*
X95463500Y-79709500D01*
X95463500Y-71201690D01*
X110209500Y-71201690D01*
X110209500Y-71298310D01*
X110228350Y-71393073D01*
X110265325Y-71482339D01*
X110319004Y-71562675D01*
X110387325Y-71630996D01*
X110467661Y-71684675D01*
X110556927Y-71721650D01*
X110651690Y-71740500D01*
X110748310Y-71740500D01*
X110843073Y-71721650D01*
X110932339Y-71684675D01*
X111012675Y-71630996D01*
X111080996Y-71562675D01*
X111134675Y-71482339D01*
X111171650Y-71393073D01*
X111190500Y-71298310D01*
X111190500Y-71201690D01*
X111171650Y-71106927D01*
X111134675Y-71017661D01*
X111080996Y-70937325D01*
X111012675Y-70869004D01*
X110932339Y-70815325D01*
X110843073Y-70778350D01*
X110748310Y-70759500D01*
X110651690Y-70759500D01*
X110556927Y-70778350D01*
X110467661Y-70815325D01*
X110387325Y-70869004D01*
X110319004Y-70937325D01*
X110265325Y-71017661D01*
X110228350Y-71106927D01*
X110209500Y-71201690D01*
X95463500Y-71201690D01*
X95463500Y-69751690D01*
X110209500Y-69751690D01*
X110209500Y-69848310D01*
X110228350Y-69943073D01*
X110265325Y-70032339D01*
X110319004Y-70112675D01*
X110387325Y-70180996D01*
X110467661Y-70234675D01*
X110556927Y-70271650D01*
X110651690Y-70290500D01*
X110748310Y-70290500D01*
X110843073Y-70271650D01*
X110932339Y-70234675D01*
X111012675Y-70180996D01*
X111080996Y-70112675D01*
X111134675Y-70032339D01*
X111171650Y-69943073D01*
X111190500Y-69848310D01*
X111190500Y-69751690D01*
X111171650Y-69656927D01*
X111134675Y-69567661D01*
X111080996Y-69487325D01*
X111012675Y-69419004D01*
X110932339Y-69365325D01*
X110843073Y-69328350D01*
X110748310Y-69309500D01*
X110651690Y-69309500D01*
X110556927Y-69328350D01*
X110467661Y-69365325D01*
X110387325Y-69419004D01*
X110319004Y-69487325D01*
X110265325Y-69567661D01*
X110228350Y-69656927D01*
X110209500Y-69751690D01*
X95463500Y-69751690D01*
X95463500Y-68763500D01*
X112036500Y-68763500D01*
X112036500Y-83990597D01*
G37*
G04 #@! TD.AperFunction*
G04 #@! TD*
M02*
