G04 #@! TF.GenerationSoftware,KiCad,Pcbnew,5.1.9*
G04 #@! TF.CreationDate,2021-01-31T15:24:44-06:00*
G04 #@! TF.ProjectId,hdmi_pmod,68646d69-5f70-46d6-9f64-2e6b69636164,rev?*
G04 #@! TF.SameCoordinates,Original*
G04 #@! TF.FileFunction,Soldermask,Top*
G04 #@! TF.FilePolarity,Negative*
%FSLAX46Y46*%
G04 Gerber Fmt 4.6, Leading zero omitted, Abs format (unit mm)*
G04 Created by KiCad (PCBNEW 5.1.9) date 2021-01-31 15:24:44*
%MOMM*%
%LPD*%
G01*
G04 APERTURE LIST*
G04 #@! TA.AperFunction,Profile*
%ADD10C,0.038100*%
G04 #@! TD*
%ADD11R,1.700000X1.700000*%
%ADD12O,1.700000X1.700000*%
%ADD13C,1.524000*%
%ADD14R,1.524000X1.524000*%
%ADD15C,1.828800*%
%ADD16R,2.387600X0.330200*%
G04 APERTURE END LIST*
D10*
X116700000Y-84200000D02*
X84836000Y-84201000D01*
X116700000Y-63880000D02*
X116700000Y-84200000D01*
X84836000Y-63881000D02*
X116700000Y-63880000D01*
X84836000Y-84201000D02*
X84836000Y-63881000D01*
D11*
G04 #@! TO.C,J1*
X97525000Y-82325000D03*
D12*
X97525000Y-79785000D03*
X100065000Y-82325000D03*
X100065000Y-79785000D03*
X102605000Y-82325000D03*
X102605000Y-79785000D03*
X105145000Y-82325000D03*
X105145000Y-79785000D03*
G04 #@! TD*
D13*
G04 #@! TO.C,PMOD0*
X88671001Y-80416001D03*
X91211001Y-80416001D03*
X88671001Y-77876001D03*
X91211001Y-77876001D03*
X88671001Y-75336001D03*
X91211001Y-75336001D03*
X88671001Y-72796001D03*
X91211001Y-72796001D03*
X88671001Y-70256001D03*
X91211001Y-70256001D03*
X88671001Y-67716001D03*
D14*
X91211001Y-67716001D03*
G04 #@! TD*
D15*
G04 #@! TO.C,J0*
X109778800Y-66407020D03*
X109778800Y-81056978D03*
X114678790Y-65806945D03*
X114678790Y-81657053D03*
D16*
X108585000Y-69231998D03*
X108585000Y-69731999D03*
X108585000Y-70231998D03*
X108585000Y-70732000D03*
X108585000Y-71231999D03*
X108585000Y-71731998D03*
X108585000Y-72231999D03*
X108585000Y-72731998D03*
X108585000Y-73232000D03*
X108585000Y-73731999D03*
X108585000Y-74231998D03*
X108585000Y-74731999D03*
X108585000Y-75231998D03*
X108585000Y-75732000D03*
X108585000Y-76231999D03*
X108585000Y-76731998D03*
X108585000Y-77231999D03*
X108585000Y-77731998D03*
X108585000Y-78232000D03*
G04 #@! TD*
M02*
