%TF.GenerationSoftware,KiCad,Pcbnew,5.1.8*%
%TF.CreationDate,2021-01-07T21:55:06-06:00*%
%TF.ProjectId,hdmi_pmod,68646d69-5f70-46d6-9f64-2e6b69636164,rev?*%
%TF.SameCoordinates,Original*%
%TF.FileFunction,Copper,L3,Inr*%
%TF.FilePolarity,Positive*%
%FSLAX46Y46*%
G04 Gerber Fmt 4.6, Leading zero omitted, Abs format (unit mm)*
G04 Created by KiCad (PCBNEW 5.1.8) date 2021-01-07 21:55:06*
%MOMM*%
%LPD*%
G01*
G04 APERTURE LIST*
%TA.AperFunction,ComponentPad*%
%ADD10R,1.700000X1.700000*%
%TD*%
%TA.AperFunction,ComponentPad*%
%ADD11O,1.700000X1.700000*%
%TD*%
%TA.AperFunction,ComponentPad*%
%ADD12R,1.524000X1.524000*%
%TD*%
%TA.AperFunction,ComponentPad*%
%ADD13C,1.524000*%
%TD*%
%TA.AperFunction,ComponentPad*%
%ADD14C,1.828800*%
%TD*%
%TA.AperFunction,ViaPad*%
%ADD15C,0.600000*%
%TD*%
%TA.AperFunction,Conductor*%
%ADD16C,0.127000*%
%TD*%
%TA.AperFunction,Conductor*%
%ADD17C,0.100000*%
%TD*%
G04 APERTURE END LIST*
D10*
%TO.N,+5V*%
%TO.C,J1*%
X97150000Y-66000000D03*
D11*
%TO.N,+3V3*%
X99690000Y-66000000D03*
%TO.N,GND*%
X97150000Y-68540000D03*
%TO.N,/HEAC-*%
X99690000Y-68540000D03*
%TO.N,/HEAC+*%
X97150000Y-71080000D03*
%TO.N,/SDA*%
X99690000Y-71080000D03*
%TO.N,/SCL*%
X97150000Y-73620000D03*
%TO.N,/CEC*%
X99690000Y-73620000D03*
%TD*%
D12*
%TO.N,/TMDS_CLK+*%
%TO.C,PMOD0*%
X91211001Y-67716001D03*
D13*
%TO.N,/TMDS_B+*%
X88671001Y-67716001D03*
%TO.N,/TMDS_CLK-*%
X91211001Y-70256001D03*
%TO.N,/TMDS_B-*%
X88671001Y-70256001D03*
%TO.N,/TMDS_R+*%
X91211001Y-72796001D03*
%TO.N,/TMDS_G+*%
X88671001Y-72796001D03*
%TO.N,/TMDS_R-*%
X91211001Y-75336001D03*
%TO.N,/TMDS_G-*%
X88671001Y-75336001D03*
%TO.N,GND*%
X91211001Y-77876001D03*
X88671001Y-77876001D03*
%TO.N,+3V3*%
X91211001Y-80416001D03*
X88671001Y-80416001D03*
%TD*%
D14*
%TO.N,GND*%
%TO.C,J0*%
X109778800Y-66407020D03*
X109778800Y-81056978D03*
X114678790Y-65806945D03*
X114678790Y-81657053D03*
%TD*%
D15*
%TO.N,GND*%
X110550000Y-70200000D03*
X110550000Y-77700000D03*
X110550000Y-76200000D03*
X110550000Y-74700000D03*
X110550000Y-73250000D03*
%TO.N,/HEAC+*%
X110550000Y-71700000D03*
%TO.N,/HEAC-*%
X110550000Y-69200000D03*
%TD*%
D16*
%TO.N,+3V3*%
X116490451Y-83990457D02*
X85045550Y-83991444D01*
X85045550Y-81170372D01*
X88006433Y-81170372D01*
X88085882Y-81329380D01*
X88275316Y-81425981D01*
X88479956Y-81483769D01*
X88691938Y-81500523D01*
X88903116Y-81475599D01*
X89105373Y-81409956D01*
X89256120Y-81329380D01*
X89335569Y-81170372D01*
X90546433Y-81170372D01*
X90625882Y-81329380D01*
X90815316Y-81425981D01*
X91019956Y-81483769D01*
X91231938Y-81500523D01*
X91443116Y-81475599D01*
X91645373Y-81409956D01*
X91796120Y-81329380D01*
X91875569Y-81170372D01*
X91211001Y-80505804D01*
X90546433Y-81170372D01*
X89335569Y-81170372D01*
X88671001Y-80505804D01*
X88006433Y-81170372D01*
X85045550Y-81170372D01*
X85045550Y-80436938D01*
X87586479Y-80436938D01*
X87611403Y-80648116D01*
X87677046Y-80850373D01*
X87757622Y-81001120D01*
X87916630Y-81080569D01*
X88581198Y-80416001D01*
X88760804Y-80416001D01*
X89425372Y-81080569D01*
X89584380Y-81001120D01*
X89680981Y-80811686D01*
X89738769Y-80607046D01*
X89752213Y-80436938D01*
X90126479Y-80436938D01*
X90151403Y-80648116D01*
X90217046Y-80850373D01*
X90297622Y-81001120D01*
X90456630Y-81080569D01*
X91121198Y-80416001D01*
X91300804Y-80416001D01*
X91965372Y-81080569D01*
X92124380Y-81001120D01*
X92151389Y-80948155D01*
X108673900Y-80948155D01*
X108673900Y-81165801D01*
X108716361Y-81379265D01*
X108799650Y-81580344D01*
X108920568Y-81761311D01*
X109074467Y-81915210D01*
X109255434Y-82036128D01*
X109456513Y-82119417D01*
X109669977Y-82161878D01*
X109887623Y-82161878D01*
X110101087Y-82119417D01*
X110302166Y-82036128D01*
X110483133Y-81915210D01*
X110637032Y-81761311D01*
X110757950Y-81580344D01*
X110771251Y-81548230D01*
X113573890Y-81548230D01*
X113573890Y-81765876D01*
X113616351Y-81979340D01*
X113699640Y-82180419D01*
X113820558Y-82361386D01*
X113974457Y-82515285D01*
X114155424Y-82636203D01*
X114356503Y-82719492D01*
X114569967Y-82761953D01*
X114787613Y-82761953D01*
X115001077Y-82719492D01*
X115202156Y-82636203D01*
X115383123Y-82515285D01*
X115537022Y-82361386D01*
X115657940Y-82180419D01*
X115741229Y-81979340D01*
X115783690Y-81765876D01*
X115783690Y-81548230D01*
X115741229Y-81334766D01*
X115657940Y-81133687D01*
X115537022Y-80952720D01*
X115383123Y-80798821D01*
X115202156Y-80677903D01*
X115001077Y-80594614D01*
X114787613Y-80552153D01*
X114569967Y-80552153D01*
X114356503Y-80594614D01*
X114155424Y-80677903D01*
X113974457Y-80798821D01*
X113820558Y-80952720D01*
X113699640Y-81133687D01*
X113616351Y-81334766D01*
X113573890Y-81548230D01*
X110771251Y-81548230D01*
X110841239Y-81379265D01*
X110883700Y-81165801D01*
X110883700Y-80948155D01*
X110841239Y-80734691D01*
X110757950Y-80533612D01*
X110637032Y-80352645D01*
X110483133Y-80198746D01*
X110302166Y-80077828D01*
X110101087Y-79994539D01*
X109887623Y-79952078D01*
X109669977Y-79952078D01*
X109456513Y-79994539D01*
X109255434Y-80077828D01*
X109074467Y-80198746D01*
X108920568Y-80352645D01*
X108799650Y-80533612D01*
X108716361Y-80734691D01*
X108673900Y-80948155D01*
X92151389Y-80948155D01*
X92220981Y-80811686D01*
X92278769Y-80607046D01*
X92295523Y-80395064D01*
X92270599Y-80183886D01*
X92204956Y-79981629D01*
X92124380Y-79830882D01*
X91965372Y-79751433D01*
X91300804Y-80416001D01*
X91121198Y-80416001D01*
X90456630Y-79751433D01*
X90297622Y-79830882D01*
X90201021Y-80020316D01*
X90143233Y-80224956D01*
X90126479Y-80436938D01*
X89752213Y-80436938D01*
X89755523Y-80395064D01*
X89730599Y-80183886D01*
X89664956Y-79981629D01*
X89584380Y-79830882D01*
X89425372Y-79751433D01*
X88760804Y-80416001D01*
X88581198Y-80416001D01*
X87916630Y-79751433D01*
X87757622Y-79830882D01*
X87661021Y-80020316D01*
X87603233Y-80224956D01*
X87586479Y-80436938D01*
X85045550Y-80436938D01*
X85045550Y-79661630D01*
X88006433Y-79661630D01*
X88671001Y-80326198D01*
X89335569Y-79661630D01*
X90546433Y-79661630D01*
X91211001Y-80326198D01*
X91875569Y-79661630D01*
X91796120Y-79502622D01*
X91606686Y-79406021D01*
X91402046Y-79348233D01*
X91190064Y-79331479D01*
X90978886Y-79356403D01*
X90776629Y-79422046D01*
X90625882Y-79502622D01*
X90546433Y-79661630D01*
X89335569Y-79661630D01*
X89256120Y-79502622D01*
X89066686Y-79406021D01*
X88862046Y-79348233D01*
X88650064Y-79331479D01*
X88438886Y-79356403D01*
X88236629Y-79422046D01*
X88085882Y-79502622D01*
X88006433Y-79661630D01*
X85045550Y-79661630D01*
X85045550Y-77782188D01*
X87718501Y-77782188D01*
X87718501Y-77969814D01*
X87755105Y-78153835D01*
X87826906Y-78327179D01*
X87931146Y-78483185D01*
X88063817Y-78615856D01*
X88219823Y-78720096D01*
X88393167Y-78791897D01*
X88577188Y-78828501D01*
X88764814Y-78828501D01*
X88948835Y-78791897D01*
X89122179Y-78720096D01*
X89278185Y-78615856D01*
X89410856Y-78483185D01*
X89515096Y-78327179D01*
X89586897Y-78153835D01*
X89623501Y-77969814D01*
X89623501Y-77782188D01*
X90258501Y-77782188D01*
X90258501Y-77969814D01*
X90295105Y-78153835D01*
X90366906Y-78327179D01*
X90471146Y-78483185D01*
X90603817Y-78615856D01*
X90759823Y-78720096D01*
X90933167Y-78791897D01*
X91117188Y-78828501D01*
X91304814Y-78828501D01*
X91488835Y-78791897D01*
X91662179Y-78720096D01*
X91818185Y-78615856D01*
X91950856Y-78483185D01*
X92055096Y-78327179D01*
X92126897Y-78153835D01*
X92163501Y-77969814D01*
X92163501Y-77782188D01*
X92137544Y-77651690D01*
X110059500Y-77651690D01*
X110059500Y-77748310D01*
X110078350Y-77843073D01*
X110115325Y-77932339D01*
X110169004Y-78012675D01*
X110237325Y-78080996D01*
X110317661Y-78134675D01*
X110406927Y-78171650D01*
X110501690Y-78190500D01*
X110598310Y-78190500D01*
X110693073Y-78171650D01*
X110782339Y-78134675D01*
X110862675Y-78080996D01*
X110930996Y-78012675D01*
X110984675Y-77932339D01*
X111021650Y-77843073D01*
X111040500Y-77748310D01*
X111040500Y-77651690D01*
X111021650Y-77556927D01*
X110984675Y-77467661D01*
X110930996Y-77387325D01*
X110862675Y-77319004D01*
X110782339Y-77265325D01*
X110693073Y-77228350D01*
X110598310Y-77209500D01*
X110501690Y-77209500D01*
X110406927Y-77228350D01*
X110317661Y-77265325D01*
X110237325Y-77319004D01*
X110169004Y-77387325D01*
X110115325Y-77467661D01*
X110078350Y-77556927D01*
X110059500Y-77651690D01*
X92137544Y-77651690D01*
X92126897Y-77598167D01*
X92055096Y-77424823D01*
X91950856Y-77268817D01*
X91818185Y-77136146D01*
X91662179Y-77031906D01*
X91488835Y-76960105D01*
X91304814Y-76923501D01*
X91117188Y-76923501D01*
X90933167Y-76960105D01*
X90759823Y-77031906D01*
X90603817Y-77136146D01*
X90471146Y-77268817D01*
X90366906Y-77424823D01*
X90295105Y-77598167D01*
X90258501Y-77782188D01*
X89623501Y-77782188D01*
X89586897Y-77598167D01*
X89515096Y-77424823D01*
X89410856Y-77268817D01*
X89278185Y-77136146D01*
X89122179Y-77031906D01*
X88948835Y-76960105D01*
X88764814Y-76923501D01*
X88577188Y-76923501D01*
X88393167Y-76960105D01*
X88219823Y-77031906D01*
X88063817Y-77136146D01*
X87931146Y-77268817D01*
X87826906Y-77424823D01*
X87755105Y-77598167D01*
X87718501Y-77782188D01*
X85045550Y-77782188D01*
X85045550Y-75242188D01*
X87718501Y-75242188D01*
X87718501Y-75429814D01*
X87755105Y-75613835D01*
X87826906Y-75787179D01*
X87931146Y-75943185D01*
X88063817Y-76075856D01*
X88219823Y-76180096D01*
X88393167Y-76251897D01*
X88577188Y-76288501D01*
X88764814Y-76288501D01*
X88948835Y-76251897D01*
X89122179Y-76180096D01*
X89278185Y-76075856D01*
X89410856Y-75943185D01*
X89515096Y-75787179D01*
X89586897Y-75613835D01*
X89623501Y-75429814D01*
X89623501Y-75242188D01*
X90258501Y-75242188D01*
X90258501Y-75429814D01*
X90295105Y-75613835D01*
X90366906Y-75787179D01*
X90471146Y-75943185D01*
X90603817Y-76075856D01*
X90759823Y-76180096D01*
X90933167Y-76251897D01*
X91117188Y-76288501D01*
X91304814Y-76288501D01*
X91488835Y-76251897D01*
X91662179Y-76180096D01*
X91704691Y-76151690D01*
X110059500Y-76151690D01*
X110059500Y-76248310D01*
X110078350Y-76343073D01*
X110115325Y-76432339D01*
X110169004Y-76512675D01*
X110237325Y-76580996D01*
X110317661Y-76634675D01*
X110406927Y-76671650D01*
X110501690Y-76690500D01*
X110598310Y-76690500D01*
X110693073Y-76671650D01*
X110782339Y-76634675D01*
X110862675Y-76580996D01*
X110930996Y-76512675D01*
X110984675Y-76432339D01*
X111021650Y-76343073D01*
X111040500Y-76248310D01*
X111040500Y-76151690D01*
X111021650Y-76056927D01*
X110984675Y-75967661D01*
X110930996Y-75887325D01*
X110862675Y-75819004D01*
X110782339Y-75765325D01*
X110693073Y-75728350D01*
X110598310Y-75709500D01*
X110501690Y-75709500D01*
X110406927Y-75728350D01*
X110317661Y-75765325D01*
X110237325Y-75819004D01*
X110169004Y-75887325D01*
X110115325Y-75967661D01*
X110078350Y-76056927D01*
X110059500Y-76151690D01*
X91704691Y-76151690D01*
X91818185Y-76075856D01*
X91950856Y-75943185D01*
X92055096Y-75787179D01*
X92126897Y-75613835D01*
X92163501Y-75429814D01*
X92163501Y-75242188D01*
X92126897Y-75058167D01*
X92055096Y-74884823D01*
X91950856Y-74728817D01*
X91818185Y-74596146D01*
X91662179Y-74491906D01*
X91488835Y-74420105D01*
X91304814Y-74383501D01*
X91117188Y-74383501D01*
X90933167Y-74420105D01*
X90759823Y-74491906D01*
X90603817Y-74596146D01*
X90471146Y-74728817D01*
X90366906Y-74884823D01*
X90295105Y-75058167D01*
X90258501Y-75242188D01*
X89623501Y-75242188D01*
X89586897Y-75058167D01*
X89515096Y-74884823D01*
X89410856Y-74728817D01*
X89278185Y-74596146D01*
X89122179Y-74491906D01*
X88948835Y-74420105D01*
X88764814Y-74383501D01*
X88577188Y-74383501D01*
X88393167Y-74420105D01*
X88219823Y-74491906D01*
X88063817Y-74596146D01*
X87931146Y-74728817D01*
X87826906Y-74884823D01*
X87755105Y-75058167D01*
X87718501Y-75242188D01*
X85045550Y-75242188D01*
X85045550Y-72702188D01*
X87718501Y-72702188D01*
X87718501Y-72889814D01*
X87755105Y-73073835D01*
X87826906Y-73247179D01*
X87931146Y-73403185D01*
X88063817Y-73535856D01*
X88219823Y-73640096D01*
X88393167Y-73711897D01*
X88577188Y-73748501D01*
X88764814Y-73748501D01*
X88948835Y-73711897D01*
X89122179Y-73640096D01*
X89278185Y-73535856D01*
X89410856Y-73403185D01*
X89515096Y-73247179D01*
X89586897Y-73073835D01*
X89623501Y-72889814D01*
X89623501Y-72702188D01*
X90258501Y-72702188D01*
X90258501Y-72889814D01*
X90295105Y-73073835D01*
X90366906Y-73247179D01*
X90471146Y-73403185D01*
X90603817Y-73535856D01*
X90759823Y-73640096D01*
X90933167Y-73711897D01*
X91117188Y-73748501D01*
X91304814Y-73748501D01*
X91488835Y-73711897D01*
X91662179Y-73640096D01*
X91818185Y-73535856D01*
X91836521Y-73517520D01*
X96109500Y-73517520D01*
X96109500Y-73722480D01*
X96149485Y-73923503D01*
X96227920Y-74112862D01*
X96341791Y-74283280D01*
X96486720Y-74428209D01*
X96657138Y-74542080D01*
X96846497Y-74620515D01*
X97047520Y-74660500D01*
X97252480Y-74660500D01*
X97453503Y-74620515D01*
X97642862Y-74542080D01*
X97813280Y-74428209D01*
X97958209Y-74283280D01*
X98072080Y-74112862D01*
X98150515Y-73923503D01*
X98190500Y-73722480D01*
X98190500Y-73517520D01*
X98649500Y-73517520D01*
X98649500Y-73722480D01*
X98689485Y-73923503D01*
X98767920Y-74112862D01*
X98881791Y-74283280D01*
X99026720Y-74428209D01*
X99197138Y-74542080D01*
X99386497Y-74620515D01*
X99587520Y-74660500D01*
X99792480Y-74660500D01*
X99836771Y-74651690D01*
X110059500Y-74651690D01*
X110059500Y-74748310D01*
X110078350Y-74843073D01*
X110115325Y-74932339D01*
X110169004Y-75012675D01*
X110237325Y-75080996D01*
X110317661Y-75134675D01*
X110406927Y-75171650D01*
X110501690Y-75190500D01*
X110598310Y-75190500D01*
X110693073Y-75171650D01*
X110782339Y-75134675D01*
X110862675Y-75080996D01*
X110930996Y-75012675D01*
X110984675Y-74932339D01*
X111021650Y-74843073D01*
X111040500Y-74748310D01*
X111040500Y-74651690D01*
X111021650Y-74556927D01*
X110984675Y-74467661D01*
X110930996Y-74387325D01*
X110862675Y-74319004D01*
X110782339Y-74265325D01*
X110693073Y-74228350D01*
X110598310Y-74209500D01*
X110501690Y-74209500D01*
X110406927Y-74228350D01*
X110317661Y-74265325D01*
X110237325Y-74319004D01*
X110169004Y-74387325D01*
X110115325Y-74467661D01*
X110078350Y-74556927D01*
X110059500Y-74651690D01*
X99836771Y-74651690D01*
X99993503Y-74620515D01*
X100182862Y-74542080D01*
X100353280Y-74428209D01*
X100498209Y-74283280D01*
X100612080Y-74112862D01*
X100690515Y-73923503D01*
X100730500Y-73722480D01*
X100730500Y-73517520D01*
X100690515Y-73316497D01*
X100642961Y-73201690D01*
X110059500Y-73201690D01*
X110059500Y-73298310D01*
X110078350Y-73393073D01*
X110115325Y-73482339D01*
X110169004Y-73562675D01*
X110237325Y-73630996D01*
X110317661Y-73684675D01*
X110406927Y-73721650D01*
X110501690Y-73740500D01*
X110598310Y-73740500D01*
X110693073Y-73721650D01*
X110782339Y-73684675D01*
X110862675Y-73630996D01*
X110930996Y-73562675D01*
X110984675Y-73482339D01*
X111021650Y-73393073D01*
X111040500Y-73298310D01*
X111040500Y-73201690D01*
X111021650Y-73106927D01*
X110984675Y-73017661D01*
X110930996Y-72937325D01*
X110862675Y-72869004D01*
X110782339Y-72815325D01*
X110693073Y-72778350D01*
X110598310Y-72759500D01*
X110501690Y-72759500D01*
X110406927Y-72778350D01*
X110317661Y-72815325D01*
X110237325Y-72869004D01*
X110169004Y-72937325D01*
X110115325Y-73017661D01*
X110078350Y-73106927D01*
X110059500Y-73201690D01*
X100642961Y-73201690D01*
X100612080Y-73127138D01*
X100498209Y-72956720D01*
X100353280Y-72811791D01*
X100182862Y-72697920D01*
X99993503Y-72619485D01*
X99792480Y-72579500D01*
X99587520Y-72579500D01*
X99386497Y-72619485D01*
X99197138Y-72697920D01*
X99026720Y-72811791D01*
X98881791Y-72956720D01*
X98767920Y-73127138D01*
X98689485Y-73316497D01*
X98649500Y-73517520D01*
X98190500Y-73517520D01*
X98150515Y-73316497D01*
X98072080Y-73127138D01*
X97958209Y-72956720D01*
X97813280Y-72811791D01*
X97642862Y-72697920D01*
X97453503Y-72619485D01*
X97252480Y-72579500D01*
X97047520Y-72579500D01*
X96846497Y-72619485D01*
X96657138Y-72697920D01*
X96486720Y-72811791D01*
X96341791Y-72956720D01*
X96227920Y-73127138D01*
X96149485Y-73316497D01*
X96109500Y-73517520D01*
X91836521Y-73517520D01*
X91950856Y-73403185D01*
X92055096Y-73247179D01*
X92126897Y-73073835D01*
X92163501Y-72889814D01*
X92163501Y-72702188D01*
X92126897Y-72518167D01*
X92055096Y-72344823D01*
X91950856Y-72188817D01*
X91818185Y-72056146D01*
X91662179Y-71951906D01*
X91488835Y-71880105D01*
X91304814Y-71843501D01*
X91117188Y-71843501D01*
X90933167Y-71880105D01*
X90759823Y-71951906D01*
X90603817Y-72056146D01*
X90471146Y-72188817D01*
X90366906Y-72344823D01*
X90295105Y-72518167D01*
X90258501Y-72702188D01*
X89623501Y-72702188D01*
X89586897Y-72518167D01*
X89515096Y-72344823D01*
X89410856Y-72188817D01*
X89278185Y-72056146D01*
X89122179Y-71951906D01*
X88948835Y-71880105D01*
X88764814Y-71843501D01*
X88577188Y-71843501D01*
X88393167Y-71880105D01*
X88219823Y-71951906D01*
X88063817Y-72056146D01*
X87931146Y-72188817D01*
X87826906Y-72344823D01*
X87755105Y-72518167D01*
X87718501Y-72702188D01*
X85045550Y-72702188D01*
X85045550Y-70162188D01*
X87718501Y-70162188D01*
X87718501Y-70349814D01*
X87755105Y-70533835D01*
X87826906Y-70707179D01*
X87931146Y-70863185D01*
X88063817Y-70995856D01*
X88219823Y-71100096D01*
X88393167Y-71171897D01*
X88577188Y-71208501D01*
X88764814Y-71208501D01*
X88948835Y-71171897D01*
X89122179Y-71100096D01*
X89278185Y-70995856D01*
X89410856Y-70863185D01*
X89515096Y-70707179D01*
X89586897Y-70533835D01*
X89623501Y-70349814D01*
X89623501Y-70162188D01*
X90258501Y-70162188D01*
X90258501Y-70349814D01*
X90295105Y-70533835D01*
X90366906Y-70707179D01*
X90471146Y-70863185D01*
X90603817Y-70995856D01*
X90759823Y-71100096D01*
X90933167Y-71171897D01*
X91117188Y-71208501D01*
X91304814Y-71208501D01*
X91488835Y-71171897D01*
X91662179Y-71100096D01*
X91818185Y-70995856D01*
X91836521Y-70977520D01*
X96109500Y-70977520D01*
X96109500Y-71182480D01*
X96149485Y-71383503D01*
X96227920Y-71572862D01*
X96341791Y-71743280D01*
X96486720Y-71888209D01*
X96657138Y-72002080D01*
X96846497Y-72080515D01*
X97047520Y-72120500D01*
X97252480Y-72120500D01*
X97453503Y-72080515D01*
X97642862Y-72002080D01*
X97813280Y-71888209D01*
X97958209Y-71743280D01*
X98072080Y-71572862D01*
X98150515Y-71383503D01*
X98190500Y-71182480D01*
X98190500Y-70977520D01*
X98649500Y-70977520D01*
X98649500Y-71182480D01*
X98689485Y-71383503D01*
X98767920Y-71572862D01*
X98881791Y-71743280D01*
X99026720Y-71888209D01*
X99197138Y-72002080D01*
X99386497Y-72080515D01*
X99587520Y-72120500D01*
X99792480Y-72120500D01*
X99993503Y-72080515D01*
X100182862Y-72002080D01*
X100353280Y-71888209D01*
X100498209Y-71743280D01*
X100559408Y-71651690D01*
X110059500Y-71651690D01*
X110059500Y-71748310D01*
X110078350Y-71843073D01*
X110115325Y-71932339D01*
X110169004Y-72012675D01*
X110237325Y-72080996D01*
X110317661Y-72134675D01*
X110406927Y-72171650D01*
X110501690Y-72190500D01*
X110598310Y-72190500D01*
X110693073Y-72171650D01*
X110782339Y-72134675D01*
X110862675Y-72080996D01*
X110930996Y-72012675D01*
X110984675Y-71932339D01*
X111021650Y-71843073D01*
X111040500Y-71748310D01*
X111040500Y-71651690D01*
X111021650Y-71556927D01*
X110984675Y-71467661D01*
X110930996Y-71387325D01*
X110862675Y-71319004D01*
X110782339Y-71265325D01*
X110693073Y-71228350D01*
X110598310Y-71209500D01*
X110501690Y-71209500D01*
X110406927Y-71228350D01*
X110317661Y-71265325D01*
X110237325Y-71319004D01*
X110169004Y-71387325D01*
X110115325Y-71467661D01*
X110078350Y-71556927D01*
X110059500Y-71651690D01*
X100559408Y-71651690D01*
X100612080Y-71572862D01*
X100690515Y-71383503D01*
X100730500Y-71182480D01*
X100730500Y-70977520D01*
X100690515Y-70776497D01*
X100612080Y-70587138D01*
X100498209Y-70416720D01*
X100353280Y-70271791D01*
X100182862Y-70157920D01*
X100167822Y-70151690D01*
X110059500Y-70151690D01*
X110059500Y-70248310D01*
X110078350Y-70343073D01*
X110115325Y-70432339D01*
X110169004Y-70512675D01*
X110237325Y-70580996D01*
X110317661Y-70634675D01*
X110406927Y-70671650D01*
X110501690Y-70690500D01*
X110598310Y-70690500D01*
X110693073Y-70671650D01*
X110782339Y-70634675D01*
X110862675Y-70580996D01*
X110930996Y-70512675D01*
X110984675Y-70432339D01*
X111021650Y-70343073D01*
X111040500Y-70248310D01*
X111040500Y-70151690D01*
X111021650Y-70056927D01*
X110984675Y-69967661D01*
X110930996Y-69887325D01*
X110862675Y-69819004D01*
X110782339Y-69765325D01*
X110693073Y-69728350D01*
X110598310Y-69709500D01*
X110501690Y-69709500D01*
X110406927Y-69728350D01*
X110317661Y-69765325D01*
X110237325Y-69819004D01*
X110169004Y-69887325D01*
X110115325Y-69967661D01*
X110078350Y-70056927D01*
X110059500Y-70151690D01*
X100167822Y-70151690D01*
X99993503Y-70079485D01*
X99792480Y-70039500D01*
X99587520Y-70039500D01*
X99386497Y-70079485D01*
X99197138Y-70157920D01*
X99026720Y-70271791D01*
X98881791Y-70416720D01*
X98767920Y-70587138D01*
X98689485Y-70776497D01*
X98649500Y-70977520D01*
X98190500Y-70977520D01*
X98150515Y-70776497D01*
X98072080Y-70587138D01*
X97958209Y-70416720D01*
X97813280Y-70271791D01*
X97642862Y-70157920D01*
X97453503Y-70079485D01*
X97252480Y-70039500D01*
X97047520Y-70039500D01*
X96846497Y-70079485D01*
X96657138Y-70157920D01*
X96486720Y-70271791D01*
X96341791Y-70416720D01*
X96227920Y-70587138D01*
X96149485Y-70776497D01*
X96109500Y-70977520D01*
X91836521Y-70977520D01*
X91950856Y-70863185D01*
X92055096Y-70707179D01*
X92126897Y-70533835D01*
X92163501Y-70349814D01*
X92163501Y-70162188D01*
X92126897Y-69978167D01*
X92055096Y-69804823D01*
X91950856Y-69648817D01*
X91818185Y-69516146D01*
X91662179Y-69411906D01*
X91488835Y-69340105D01*
X91304814Y-69303501D01*
X91117188Y-69303501D01*
X90933167Y-69340105D01*
X90759823Y-69411906D01*
X90603817Y-69516146D01*
X90471146Y-69648817D01*
X90366906Y-69804823D01*
X90295105Y-69978167D01*
X90258501Y-70162188D01*
X89623501Y-70162188D01*
X89586897Y-69978167D01*
X89515096Y-69804823D01*
X89410856Y-69648817D01*
X89278185Y-69516146D01*
X89122179Y-69411906D01*
X88948835Y-69340105D01*
X88764814Y-69303501D01*
X88577188Y-69303501D01*
X88393167Y-69340105D01*
X88219823Y-69411906D01*
X88063817Y-69516146D01*
X87931146Y-69648817D01*
X87826906Y-69804823D01*
X87755105Y-69978167D01*
X87718501Y-70162188D01*
X85045550Y-70162188D01*
X85045550Y-67622188D01*
X87718501Y-67622188D01*
X87718501Y-67809814D01*
X87755105Y-67993835D01*
X87826906Y-68167179D01*
X87931146Y-68323185D01*
X88063817Y-68455856D01*
X88219823Y-68560096D01*
X88393167Y-68631897D01*
X88577188Y-68668501D01*
X88764814Y-68668501D01*
X88948835Y-68631897D01*
X89122179Y-68560096D01*
X89278185Y-68455856D01*
X89410856Y-68323185D01*
X89515096Y-68167179D01*
X89586897Y-67993835D01*
X89623501Y-67809814D01*
X89623501Y-67622188D01*
X89586897Y-67438167D01*
X89515096Y-67264823D01*
X89410856Y-67108817D01*
X89278185Y-66976146D01*
X89245043Y-66954001D01*
X90257580Y-66954001D01*
X90257580Y-68478001D01*
X90261258Y-68515345D01*
X90272151Y-68551255D01*
X90289840Y-68584349D01*
X90313646Y-68613356D01*
X90342653Y-68637162D01*
X90375747Y-68654851D01*
X90411657Y-68665744D01*
X90449001Y-68669422D01*
X91973001Y-68669422D01*
X92010345Y-68665744D01*
X92046255Y-68654851D01*
X92079349Y-68637162D01*
X92108356Y-68613356D01*
X92132162Y-68584349D01*
X92149851Y-68551255D01*
X92160744Y-68515345D01*
X92164422Y-68478001D01*
X92164422Y-68437520D01*
X96109500Y-68437520D01*
X96109500Y-68642480D01*
X96149485Y-68843503D01*
X96227920Y-69032862D01*
X96341791Y-69203280D01*
X96486720Y-69348209D01*
X96657138Y-69462080D01*
X96846497Y-69540515D01*
X97047520Y-69580500D01*
X97252480Y-69580500D01*
X97453503Y-69540515D01*
X97642862Y-69462080D01*
X97813280Y-69348209D01*
X97958209Y-69203280D01*
X98072080Y-69032862D01*
X98150515Y-68843503D01*
X98190500Y-68642480D01*
X98190500Y-68437520D01*
X98649500Y-68437520D01*
X98649500Y-68642480D01*
X98689485Y-68843503D01*
X98767920Y-69032862D01*
X98881791Y-69203280D01*
X99026720Y-69348209D01*
X99197138Y-69462080D01*
X99386497Y-69540515D01*
X99587520Y-69580500D01*
X99792480Y-69580500D01*
X99993503Y-69540515D01*
X100182862Y-69462080D01*
X100353280Y-69348209D01*
X100498209Y-69203280D01*
X100532680Y-69151690D01*
X110059500Y-69151690D01*
X110059500Y-69248310D01*
X110078350Y-69343073D01*
X110115325Y-69432339D01*
X110169004Y-69512675D01*
X110237325Y-69580996D01*
X110317661Y-69634675D01*
X110406927Y-69671650D01*
X110501690Y-69690500D01*
X110598310Y-69690500D01*
X110693073Y-69671650D01*
X110782339Y-69634675D01*
X110862675Y-69580996D01*
X110930996Y-69512675D01*
X110984675Y-69432339D01*
X111021650Y-69343073D01*
X111040500Y-69248310D01*
X111040500Y-69151690D01*
X111021650Y-69056927D01*
X110984675Y-68967661D01*
X110930996Y-68887325D01*
X110862675Y-68819004D01*
X110782339Y-68765325D01*
X110693073Y-68728350D01*
X110598310Y-68709500D01*
X110501690Y-68709500D01*
X110406927Y-68728350D01*
X110317661Y-68765325D01*
X110237325Y-68819004D01*
X110169004Y-68887325D01*
X110115325Y-68967661D01*
X110078350Y-69056927D01*
X110059500Y-69151690D01*
X100532680Y-69151690D01*
X100612080Y-69032862D01*
X100690515Y-68843503D01*
X100730500Y-68642480D01*
X100730500Y-68437520D01*
X100690515Y-68236497D01*
X100612080Y-68047138D01*
X100498209Y-67876720D01*
X100353280Y-67731791D01*
X100182862Y-67617920D01*
X99993503Y-67539485D01*
X99792480Y-67499500D01*
X99587520Y-67499500D01*
X99386497Y-67539485D01*
X99197138Y-67617920D01*
X99026720Y-67731791D01*
X98881791Y-67876720D01*
X98767920Y-68047138D01*
X98689485Y-68236497D01*
X98649500Y-68437520D01*
X98190500Y-68437520D01*
X98150515Y-68236497D01*
X98072080Y-68047138D01*
X97958209Y-67876720D01*
X97813280Y-67731791D01*
X97642862Y-67617920D01*
X97453503Y-67539485D01*
X97252480Y-67499500D01*
X97047520Y-67499500D01*
X96846497Y-67539485D01*
X96657138Y-67617920D01*
X96486720Y-67731791D01*
X96341791Y-67876720D01*
X96227920Y-68047138D01*
X96149485Y-68236497D01*
X96109500Y-68437520D01*
X92164422Y-68437520D01*
X92164422Y-66954001D01*
X92160744Y-66916657D01*
X92149851Y-66880747D01*
X92132162Y-66847653D01*
X92108356Y-66818646D01*
X92079349Y-66794840D01*
X92046255Y-66777151D01*
X92010345Y-66766258D01*
X91973001Y-66762580D01*
X90449001Y-66762580D01*
X90411657Y-66766258D01*
X90375747Y-66777151D01*
X90342653Y-66794840D01*
X90313646Y-66818646D01*
X90289840Y-66847653D01*
X90272151Y-66880747D01*
X90261258Y-66916657D01*
X90257580Y-66954001D01*
X89245043Y-66954001D01*
X89122179Y-66871906D01*
X88948835Y-66800105D01*
X88764814Y-66763501D01*
X88577188Y-66763501D01*
X88393167Y-66800105D01*
X88219823Y-66871906D01*
X88063817Y-66976146D01*
X87931146Y-67108817D01*
X87826906Y-67264823D01*
X87755105Y-67438167D01*
X87718501Y-67622188D01*
X85045550Y-67622188D01*
X85045550Y-65150000D01*
X96108579Y-65150000D01*
X96108579Y-66850000D01*
X96112257Y-66887344D01*
X96123150Y-66923254D01*
X96140839Y-66956348D01*
X96164645Y-66985355D01*
X96193652Y-67009161D01*
X96226746Y-67026850D01*
X96262656Y-67037743D01*
X96300000Y-67041421D01*
X98000000Y-67041421D01*
X98037344Y-67037743D01*
X98073254Y-67026850D01*
X98106348Y-67009161D01*
X98135355Y-66985355D01*
X98159161Y-66956348D01*
X98176850Y-66923254D01*
X98187743Y-66887344D01*
X98191421Y-66850000D01*
X98191421Y-66245085D01*
X98548514Y-66245085D01*
X98604724Y-66430396D01*
X98709543Y-66633853D01*
X98852041Y-66812951D01*
X99026741Y-66960808D01*
X99226930Y-67071742D01*
X99444914Y-67141489D01*
X99626500Y-67086400D01*
X99626500Y-66063500D01*
X99753500Y-66063500D01*
X99753500Y-67086400D01*
X99935086Y-67141489D01*
X100153070Y-67071742D01*
X100353259Y-66960808D01*
X100527959Y-66812951D01*
X100670457Y-66633853D01*
X100775276Y-66430396D01*
X100815375Y-66298197D01*
X108673900Y-66298197D01*
X108673900Y-66515843D01*
X108716361Y-66729307D01*
X108799650Y-66930386D01*
X108920568Y-67111353D01*
X109074467Y-67265252D01*
X109255434Y-67386170D01*
X109456513Y-67469459D01*
X109669977Y-67511920D01*
X109887623Y-67511920D01*
X110101087Y-67469459D01*
X110302166Y-67386170D01*
X110483133Y-67265252D01*
X110637032Y-67111353D01*
X110757950Y-66930386D01*
X110841239Y-66729307D01*
X110883700Y-66515843D01*
X110883700Y-66298197D01*
X110841239Y-66084733D01*
X110757950Y-65883654D01*
X110637032Y-65702687D01*
X110632467Y-65698122D01*
X113573890Y-65698122D01*
X113573890Y-65915768D01*
X113616351Y-66129232D01*
X113699640Y-66330311D01*
X113820558Y-66511278D01*
X113974457Y-66665177D01*
X114155424Y-66786095D01*
X114356503Y-66869384D01*
X114569967Y-66911845D01*
X114787613Y-66911845D01*
X115001077Y-66869384D01*
X115202156Y-66786095D01*
X115383123Y-66665177D01*
X115537022Y-66511278D01*
X115657940Y-66330311D01*
X115741229Y-66129232D01*
X115783690Y-65915768D01*
X115783690Y-65698122D01*
X115741229Y-65484658D01*
X115657940Y-65283579D01*
X115537022Y-65102612D01*
X115383123Y-64948713D01*
X115202156Y-64827795D01*
X115001077Y-64744506D01*
X114787613Y-64702045D01*
X114569967Y-64702045D01*
X114356503Y-64744506D01*
X114155424Y-64827795D01*
X113974457Y-64948713D01*
X113820558Y-65102612D01*
X113699640Y-65283579D01*
X113616351Y-65484658D01*
X113573890Y-65698122D01*
X110632467Y-65698122D01*
X110483133Y-65548788D01*
X110302166Y-65427870D01*
X110101087Y-65344581D01*
X109887623Y-65302120D01*
X109669977Y-65302120D01*
X109456513Y-65344581D01*
X109255434Y-65427870D01*
X109074467Y-65548788D01*
X108920568Y-65702687D01*
X108799650Y-65883654D01*
X108716361Y-66084733D01*
X108673900Y-66298197D01*
X100815375Y-66298197D01*
X100831486Y-66245085D01*
X100776271Y-66063500D01*
X99753500Y-66063500D01*
X99626500Y-66063500D01*
X98603729Y-66063500D01*
X98548514Y-66245085D01*
X98191421Y-66245085D01*
X98191421Y-65754915D01*
X98548514Y-65754915D01*
X98603729Y-65936500D01*
X99626500Y-65936500D01*
X99626500Y-64913600D01*
X99753500Y-64913600D01*
X99753500Y-65936500D01*
X100776271Y-65936500D01*
X100831486Y-65754915D01*
X100775276Y-65569604D01*
X100670457Y-65366147D01*
X100527959Y-65187049D01*
X100353259Y-65039192D01*
X100153070Y-64928258D01*
X99935086Y-64858511D01*
X99753500Y-64913600D01*
X99626500Y-64913600D01*
X99444914Y-64858511D01*
X99226930Y-64928258D01*
X99026741Y-65039192D01*
X98852041Y-65187049D01*
X98709543Y-65366147D01*
X98604724Y-65569604D01*
X98548514Y-65754915D01*
X98191421Y-65754915D01*
X98191421Y-65150000D01*
X98187743Y-65112656D01*
X98176850Y-65076746D01*
X98159161Y-65043652D01*
X98135355Y-65014645D01*
X98106348Y-64990839D01*
X98073254Y-64973150D01*
X98037344Y-64962257D01*
X98000000Y-64958579D01*
X96300000Y-64958579D01*
X96262656Y-64962257D01*
X96226746Y-64973150D01*
X96193652Y-64990839D01*
X96164645Y-65014645D01*
X96140839Y-65043652D01*
X96123150Y-65076746D01*
X96112257Y-65112656D01*
X96108579Y-65150000D01*
X85045550Y-65150000D01*
X85045550Y-64090543D01*
X116490450Y-64089556D01*
X116490451Y-83990457D01*
%TA.AperFunction,Conductor*%
D17*
G36*
X116490451Y-83990457D02*
G01*
X85045550Y-83991444D01*
X85045550Y-81170372D01*
X88006433Y-81170372D01*
X88085882Y-81329380D01*
X88275316Y-81425981D01*
X88479956Y-81483769D01*
X88691938Y-81500523D01*
X88903116Y-81475599D01*
X89105373Y-81409956D01*
X89256120Y-81329380D01*
X89335569Y-81170372D01*
X90546433Y-81170372D01*
X90625882Y-81329380D01*
X90815316Y-81425981D01*
X91019956Y-81483769D01*
X91231938Y-81500523D01*
X91443116Y-81475599D01*
X91645373Y-81409956D01*
X91796120Y-81329380D01*
X91875569Y-81170372D01*
X91211001Y-80505804D01*
X90546433Y-81170372D01*
X89335569Y-81170372D01*
X88671001Y-80505804D01*
X88006433Y-81170372D01*
X85045550Y-81170372D01*
X85045550Y-80436938D01*
X87586479Y-80436938D01*
X87611403Y-80648116D01*
X87677046Y-80850373D01*
X87757622Y-81001120D01*
X87916630Y-81080569D01*
X88581198Y-80416001D01*
X88760804Y-80416001D01*
X89425372Y-81080569D01*
X89584380Y-81001120D01*
X89680981Y-80811686D01*
X89738769Y-80607046D01*
X89752213Y-80436938D01*
X90126479Y-80436938D01*
X90151403Y-80648116D01*
X90217046Y-80850373D01*
X90297622Y-81001120D01*
X90456630Y-81080569D01*
X91121198Y-80416001D01*
X91300804Y-80416001D01*
X91965372Y-81080569D01*
X92124380Y-81001120D01*
X92151389Y-80948155D01*
X108673900Y-80948155D01*
X108673900Y-81165801D01*
X108716361Y-81379265D01*
X108799650Y-81580344D01*
X108920568Y-81761311D01*
X109074467Y-81915210D01*
X109255434Y-82036128D01*
X109456513Y-82119417D01*
X109669977Y-82161878D01*
X109887623Y-82161878D01*
X110101087Y-82119417D01*
X110302166Y-82036128D01*
X110483133Y-81915210D01*
X110637032Y-81761311D01*
X110757950Y-81580344D01*
X110771251Y-81548230D01*
X113573890Y-81548230D01*
X113573890Y-81765876D01*
X113616351Y-81979340D01*
X113699640Y-82180419D01*
X113820558Y-82361386D01*
X113974457Y-82515285D01*
X114155424Y-82636203D01*
X114356503Y-82719492D01*
X114569967Y-82761953D01*
X114787613Y-82761953D01*
X115001077Y-82719492D01*
X115202156Y-82636203D01*
X115383123Y-82515285D01*
X115537022Y-82361386D01*
X115657940Y-82180419D01*
X115741229Y-81979340D01*
X115783690Y-81765876D01*
X115783690Y-81548230D01*
X115741229Y-81334766D01*
X115657940Y-81133687D01*
X115537022Y-80952720D01*
X115383123Y-80798821D01*
X115202156Y-80677903D01*
X115001077Y-80594614D01*
X114787613Y-80552153D01*
X114569967Y-80552153D01*
X114356503Y-80594614D01*
X114155424Y-80677903D01*
X113974457Y-80798821D01*
X113820558Y-80952720D01*
X113699640Y-81133687D01*
X113616351Y-81334766D01*
X113573890Y-81548230D01*
X110771251Y-81548230D01*
X110841239Y-81379265D01*
X110883700Y-81165801D01*
X110883700Y-80948155D01*
X110841239Y-80734691D01*
X110757950Y-80533612D01*
X110637032Y-80352645D01*
X110483133Y-80198746D01*
X110302166Y-80077828D01*
X110101087Y-79994539D01*
X109887623Y-79952078D01*
X109669977Y-79952078D01*
X109456513Y-79994539D01*
X109255434Y-80077828D01*
X109074467Y-80198746D01*
X108920568Y-80352645D01*
X108799650Y-80533612D01*
X108716361Y-80734691D01*
X108673900Y-80948155D01*
X92151389Y-80948155D01*
X92220981Y-80811686D01*
X92278769Y-80607046D01*
X92295523Y-80395064D01*
X92270599Y-80183886D01*
X92204956Y-79981629D01*
X92124380Y-79830882D01*
X91965372Y-79751433D01*
X91300804Y-80416001D01*
X91121198Y-80416001D01*
X90456630Y-79751433D01*
X90297622Y-79830882D01*
X90201021Y-80020316D01*
X90143233Y-80224956D01*
X90126479Y-80436938D01*
X89752213Y-80436938D01*
X89755523Y-80395064D01*
X89730599Y-80183886D01*
X89664956Y-79981629D01*
X89584380Y-79830882D01*
X89425372Y-79751433D01*
X88760804Y-80416001D01*
X88581198Y-80416001D01*
X87916630Y-79751433D01*
X87757622Y-79830882D01*
X87661021Y-80020316D01*
X87603233Y-80224956D01*
X87586479Y-80436938D01*
X85045550Y-80436938D01*
X85045550Y-79661630D01*
X88006433Y-79661630D01*
X88671001Y-80326198D01*
X89335569Y-79661630D01*
X90546433Y-79661630D01*
X91211001Y-80326198D01*
X91875569Y-79661630D01*
X91796120Y-79502622D01*
X91606686Y-79406021D01*
X91402046Y-79348233D01*
X91190064Y-79331479D01*
X90978886Y-79356403D01*
X90776629Y-79422046D01*
X90625882Y-79502622D01*
X90546433Y-79661630D01*
X89335569Y-79661630D01*
X89256120Y-79502622D01*
X89066686Y-79406021D01*
X88862046Y-79348233D01*
X88650064Y-79331479D01*
X88438886Y-79356403D01*
X88236629Y-79422046D01*
X88085882Y-79502622D01*
X88006433Y-79661630D01*
X85045550Y-79661630D01*
X85045550Y-77782188D01*
X87718501Y-77782188D01*
X87718501Y-77969814D01*
X87755105Y-78153835D01*
X87826906Y-78327179D01*
X87931146Y-78483185D01*
X88063817Y-78615856D01*
X88219823Y-78720096D01*
X88393167Y-78791897D01*
X88577188Y-78828501D01*
X88764814Y-78828501D01*
X88948835Y-78791897D01*
X89122179Y-78720096D01*
X89278185Y-78615856D01*
X89410856Y-78483185D01*
X89515096Y-78327179D01*
X89586897Y-78153835D01*
X89623501Y-77969814D01*
X89623501Y-77782188D01*
X90258501Y-77782188D01*
X90258501Y-77969814D01*
X90295105Y-78153835D01*
X90366906Y-78327179D01*
X90471146Y-78483185D01*
X90603817Y-78615856D01*
X90759823Y-78720096D01*
X90933167Y-78791897D01*
X91117188Y-78828501D01*
X91304814Y-78828501D01*
X91488835Y-78791897D01*
X91662179Y-78720096D01*
X91818185Y-78615856D01*
X91950856Y-78483185D01*
X92055096Y-78327179D01*
X92126897Y-78153835D01*
X92163501Y-77969814D01*
X92163501Y-77782188D01*
X92137544Y-77651690D01*
X110059500Y-77651690D01*
X110059500Y-77748310D01*
X110078350Y-77843073D01*
X110115325Y-77932339D01*
X110169004Y-78012675D01*
X110237325Y-78080996D01*
X110317661Y-78134675D01*
X110406927Y-78171650D01*
X110501690Y-78190500D01*
X110598310Y-78190500D01*
X110693073Y-78171650D01*
X110782339Y-78134675D01*
X110862675Y-78080996D01*
X110930996Y-78012675D01*
X110984675Y-77932339D01*
X111021650Y-77843073D01*
X111040500Y-77748310D01*
X111040500Y-77651690D01*
X111021650Y-77556927D01*
X110984675Y-77467661D01*
X110930996Y-77387325D01*
X110862675Y-77319004D01*
X110782339Y-77265325D01*
X110693073Y-77228350D01*
X110598310Y-77209500D01*
X110501690Y-77209500D01*
X110406927Y-77228350D01*
X110317661Y-77265325D01*
X110237325Y-77319004D01*
X110169004Y-77387325D01*
X110115325Y-77467661D01*
X110078350Y-77556927D01*
X110059500Y-77651690D01*
X92137544Y-77651690D01*
X92126897Y-77598167D01*
X92055096Y-77424823D01*
X91950856Y-77268817D01*
X91818185Y-77136146D01*
X91662179Y-77031906D01*
X91488835Y-76960105D01*
X91304814Y-76923501D01*
X91117188Y-76923501D01*
X90933167Y-76960105D01*
X90759823Y-77031906D01*
X90603817Y-77136146D01*
X90471146Y-77268817D01*
X90366906Y-77424823D01*
X90295105Y-77598167D01*
X90258501Y-77782188D01*
X89623501Y-77782188D01*
X89586897Y-77598167D01*
X89515096Y-77424823D01*
X89410856Y-77268817D01*
X89278185Y-77136146D01*
X89122179Y-77031906D01*
X88948835Y-76960105D01*
X88764814Y-76923501D01*
X88577188Y-76923501D01*
X88393167Y-76960105D01*
X88219823Y-77031906D01*
X88063817Y-77136146D01*
X87931146Y-77268817D01*
X87826906Y-77424823D01*
X87755105Y-77598167D01*
X87718501Y-77782188D01*
X85045550Y-77782188D01*
X85045550Y-75242188D01*
X87718501Y-75242188D01*
X87718501Y-75429814D01*
X87755105Y-75613835D01*
X87826906Y-75787179D01*
X87931146Y-75943185D01*
X88063817Y-76075856D01*
X88219823Y-76180096D01*
X88393167Y-76251897D01*
X88577188Y-76288501D01*
X88764814Y-76288501D01*
X88948835Y-76251897D01*
X89122179Y-76180096D01*
X89278185Y-76075856D01*
X89410856Y-75943185D01*
X89515096Y-75787179D01*
X89586897Y-75613835D01*
X89623501Y-75429814D01*
X89623501Y-75242188D01*
X90258501Y-75242188D01*
X90258501Y-75429814D01*
X90295105Y-75613835D01*
X90366906Y-75787179D01*
X90471146Y-75943185D01*
X90603817Y-76075856D01*
X90759823Y-76180096D01*
X90933167Y-76251897D01*
X91117188Y-76288501D01*
X91304814Y-76288501D01*
X91488835Y-76251897D01*
X91662179Y-76180096D01*
X91704691Y-76151690D01*
X110059500Y-76151690D01*
X110059500Y-76248310D01*
X110078350Y-76343073D01*
X110115325Y-76432339D01*
X110169004Y-76512675D01*
X110237325Y-76580996D01*
X110317661Y-76634675D01*
X110406927Y-76671650D01*
X110501690Y-76690500D01*
X110598310Y-76690500D01*
X110693073Y-76671650D01*
X110782339Y-76634675D01*
X110862675Y-76580996D01*
X110930996Y-76512675D01*
X110984675Y-76432339D01*
X111021650Y-76343073D01*
X111040500Y-76248310D01*
X111040500Y-76151690D01*
X111021650Y-76056927D01*
X110984675Y-75967661D01*
X110930996Y-75887325D01*
X110862675Y-75819004D01*
X110782339Y-75765325D01*
X110693073Y-75728350D01*
X110598310Y-75709500D01*
X110501690Y-75709500D01*
X110406927Y-75728350D01*
X110317661Y-75765325D01*
X110237325Y-75819004D01*
X110169004Y-75887325D01*
X110115325Y-75967661D01*
X110078350Y-76056927D01*
X110059500Y-76151690D01*
X91704691Y-76151690D01*
X91818185Y-76075856D01*
X91950856Y-75943185D01*
X92055096Y-75787179D01*
X92126897Y-75613835D01*
X92163501Y-75429814D01*
X92163501Y-75242188D01*
X92126897Y-75058167D01*
X92055096Y-74884823D01*
X91950856Y-74728817D01*
X91818185Y-74596146D01*
X91662179Y-74491906D01*
X91488835Y-74420105D01*
X91304814Y-74383501D01*
X91117188Y-74383501D01*
X90933167Y-74420105D01*
X90759823Y-74491906D01*
X90603817Y-74596146D01*
X90471146Y-74728817D01*
X90366906Y-74884823D01*
X90295105Y-75058167D01*
X90258501Y-75242188D01*
X89623501Y-75242188D01*
X89586897Y-75058167D01*
X89515096Y-74884823D01*
X89410856Y-74728817D01*
X89278185Y-74596146D01*
X89122179Y-74491906D01*
X88948835Y-74420105D01*
X88764814Y-74383501D01*
X88577188Y-74383501D01*
X88393167Y-74420105D01*
X88219823Y-74491906D01*
X88063817Y-74596146D01*
X87931146Y-74728817D01*
X87826906Y-74884823D01*
X87755105Y-75058167D01*
X87718501Y-75242188D01*
X85045550Y-75242188D01*
X85045550Y-72702188D01*
X87718501Y-72702188D01*
X87718501Y-72889814D01*
X87755105Y-73073835D01*
X87826906Y-73247179D01*
X87931146Y-73403185D01*
X88063817Y-73535856D01*
X88219823Y-73640096D01*
X88393167Y-73711897D01*
X88577188Y-73748501D01*
X88764814Y-73748501D01*
X88948835Y-73711897D01*
X89122179Y-73640096D01*
X89278185Y-73535856D01*
X89410856Y-73403185D01*
X89515096Y-73247179D01*
X89586897Y-73073835D01*
X89623501Y-72889814D01*
X89623501Y-72702188D01*
X90258501Y-72702188D01*
X90258501Y-72889814D01*
X90295105Y-73073835D01*
X90366906Y-73247179D01*
X90471146Y-73403185D01*
X90603817Y-73535856D01*
X90759823Y-73640096D01*
X90933167Y-73711897D01*
X91117188Y-73748501D01*
X91304814Y-73748501D01*
X91488835Y-73711897D01*
X91662179Y-73640096D01*
X91818185Y-73535856D01*
X91836521Y-73517520D01*
X96109500Y-73517520D01*
X96109500Y-73722480D01*
X96149485Y-73923503D01*
X96227920Y-74112862D01*
X96341791Y-74283280D01*
X96486720Y-74428209D01*
X96657138Y-74542080D01*
X96846497Y-74620515D01*
X97047520Y-74660500D01*
X97252480Y-74660500D01*
X97453503Y-74620515D01*
X97642862Y-74542080D01*
X97813280Y-74428209D01*
X97958209Y-74283280D01*
X98072080Y-74112862D01*
X98150515Y-73923503D01*
X98190500Y-73722480D01*
X98190500Y-73517520D01*
X98649500Y-73517520D01*
X98649500Y-73722480D01*
X98689485Y-73923503D01*
X98767920Y-74112862D01*
X98881791Y-74283280D01*
X99026720Y-74428209D01*
X99197138Y-74542080D01*
X99386497Y-74620515D01*
X99587520Y-74660500D01*
X99792480Y-74660500D01*
X99836771Y-74651690D01*
X110059500Y-74651690D01*
X110059500Y-74748310D01*
X110078350Y-74843073D01*
X110115325Y-74932339D01*
X110169004Y-75012675D01*
X110237325Y-75080996D01*
X110317661Y-75134675D01*
X110406927Y-75171650D01*
X110501690Y-75190500D01*
X110598310Y-75190500D01*
X110693073Y-75171650D01*
X110782339Y-75134675D01*
X110862675Y-75080996D01*
X110930996Y-75012675D01*
X110984675Y-74932339D01*
X111021650Y-74843073D01*
X111040500Y-74748310D01*
X111040500Y-74651690D01*
X111021650Y-74556927D01*
X110984675Y-74467661D01*
X110930996Y-74387325D01*
X110862675Y-74319004D01*
X110782339Y-74265325D01*
X110693073Y-74228350D01*
X110598310Y-74209500D01*
X110501690Y-74209500D01*
X110406927Y-74228350D01*
X110317661Y-74265325D01*
X110237325Y-74319004D01*
X110169004Y-74387325D01*
X110115325Y-74467661D01*
X110078350Y-74556927D01*
X110059500Y-74651690D01*
X99836771Y-74651690D01*
X99993503Y-74620515D01*
X100182862Y-74542080D01*
X100353280Y-74428209D01*
X100498209Y-74283280D01*
X100612080Y-74112862D01*
X100690515Y-73923503D01*
X100730500Y-73722480D01*
X100730500Y-73517520D01*
X100690515Y-73316497D01*
X100642961Y-73201690D01*
X110059500Y-73201690D01*
X110059500Y-73298310D01*
X110078350Y-73393073D01*
X110115325Y-73482339D01*
X110169004Y-73562675D01*
X110237325Y-73630996D01*
X110317661Y-73684675D01*
X110406927Y-73721650D01*
X110501690Y-73740500D01*
X110598310Y-73740500D01*
X110693073Y-73721650D01*
X110782339Y-73684675D01*
X110862675Y-73630996D01*
X110930996Y-73562675D01*
X110984675Y-73482339D01*
X111021650Y-73393073D01*
X111040500Y-73298310D01*
X111040500Y-73201690D01*
X111021650Y-73106927D01*
X110984675Y-73017661D01*
X110930996Y-72937325D01*
X110862675Y-72869004D01*
X110782339Y-72815325D01*
X110693073Y-72778350D01*
X110598310Y-72759500D01*
X110501690Y-72759500D01*
X110406927Y-72778350D01*
X110317661Y-72815325D01*
X110237325Y-72869004D01*
X110169004Y-72937325D01*
X110115325Y-73017661D01*
X110078350Y-73106927D01*
X110059500Y-73201690D01*
X100642961Y-73201690D01*
X100612080Y-73127138D01*
X100498209Y-72956720D01*
X100353280Y-72811791D01*
X100182862Y-72697920D01*
X99993503Y-72619485D01*
X99792480Y-72579500D01*
X99587520Y-72579500D01*
X99386497Y-72619485D01*
X99197138Y-72697920D01*
X99026720Y-72811791D01*
X98881791Y-72956720D01*
X98767920Y-73127138D01*
X98689485Y-73316497D01*
X98649500Y-73517520D01*
X98190500Y-73517520D01*
X98150515Y-73316497D01*
X98072080Y-73127138D01*
X97958209Y-72956720D01*
X97813280Y-72811791D01*
X97642862Y-72697920D01*
X97453503Y-72619485D01*
X97252480Y-72579500D01*
X97047520Y-72579500D01*
X96846497Y-72619485D01*
X96657138Y-72697920D01*
X96486720Y-72811791D01*
X96341791Y-72956720D01*
X96227920Y-73127138D01*
X96149485Y-73316497D01*
X96109500Y-73517520D01*
X91836521Y-73517520D01*
X91950856Y-73403185D01*
X92055096Y-73247179D01*
X92126897Y-73073835D01*
X92163501Y-72889814D01*
X92163501Y-72702188D01*
X92126897Y-72518167D01*
X92055096Y-72344823D01*
X91950856Y-72188817D01*
X91818185Y-72056146D01*
X91662179Y-71951906D01*
X91488835Y-71880105D01*
X91304814Y-71843501D01*
X91117188Y-71843501D01*
X90933167Y-71880105D01*
X90759823Y-71951906D01*
X90603817Y-72056146D01*
X90471146Y-72188817D01*
X90366906Y-72344823D01*
X90295105Y-72518167D01*
X90258501Y-72702188D01*
X89623501Y-72702188D01*
X89586897Y-72518167D01*
X89515096Y-72344823D01*
X89410856Y-72188817D01*
X89278185Y-72056146D01*
X89122179Y-71951906D01*
X88948835Y-71880105D01*
X88764814Y-71843501D01*
X88577188Y-71843501D01*
X88393167Y-71880105D01*
X88219823Y-71951906D01*
X88063817Y-72056146D01*
X87931146Y-72188817D01*
X87826906Y-72344823D01*
X87755105Y-72518167D01*
X87718501Y-72702188D01*
X85045550Y-72702188D01*
X85045550Y-70162188D01*
X87718501Y-70162188D01*
X87718501Y-70349814D01*
X87755105Y-70533835D01*
X87826906Y-70707179D01*
X87931146Y-70863185D01*
X88063817Y-70995856D01*
X88219823Y-71100096D01*
X88393167Y-71171897D01*
X88577188Y-71208501D01*
X88764814Y-71208501D01*
X88948835Y-71171897D01*
X89122179Y-71100096D01*
X89278185Y-70995856D01*
X89410856Y-70863185D01*
X89515096Y-70707179D01*
X89586897Y-70533835D01*
X89623501Y-70349814D01*
X89623501Y-70162188D01*
X90258501Y-70162188D01*
X90258501Y-70349814D01*
X90295105Y-70533835D01*
X90366906Y-70707179D01*
X90471146Y-70863185D01*
X90603817Y-70995856D01*
X90759823Y-71100096D01*
X90933167Y-71171897D01*
X91117188Y-71208501D01*
X91304814Y-71208501D01*
X91488835Y-71171897D01*
X91662179Y-71100096D01*
X91818185Y-70995856D01*
X91836521Y-70977520D01*
X96109500Y-70977520D01*
X96109500Y-71182480D01*
X96149485Y-71383503D01*
X96227920Y-71572862D01*
X96341791Y-71743280D01*
X96486720Y-71888209D01*
X96657138Y-72002080D01*
X96846497Y-72080515D01*
X97047520Y-72120500D01*
X97252480Y-72120500D01*
X97453503Y-72080515D01*
X97642862Y-72002080D01*
X97813280Y-71888209D01*
X97958209Y-71743280D01*
X98072080Y-71572862D01*
X98150515Y-71383503D01*
X98190500Y-71182480D01*
X98190500Y-70977520D01*
X98649500Y-70977520D01*
X98649500Y-71182480D01*
X98689485Y-71383503D01*
X98767920Y-71572862D01*
X98881791Y-71743280D01*
X99026720Y-71888209D01*
X99197138Y-72002080D01*
X99386497Y-72080515D01*
X99587520Y-72120500D01*
X99792480Y-72120500D01*
X99993503Y-72080515D01*
X100182862Y-72002080D01*
X100353280Y-71888209D01*
X100498209Y-71743280D01*
X100559408Y-71651690D01*
X110059500Y-71651690D01*
X110059500Y-71748310D01*
X110078350Y-71843073D01*
X110115325Y-71932339D01*
X110169004Y-72012675D01*
X110237325Y-72080996D01*
X110317661Y-72134675D01*
X110406927Y-72171650D01*
X110501690Y-72190500D01*
X110598310Y-72190500D01*
X110693073Y-72171650D01*
X110782339Y-72134675D01*
X110862675Y-72080996D01*
X110930996Y-72012675D01*
X110984675Y-71932339D01*
X111021650Y-71843073D01*
X111040500Y-71748310D01*
X111040500Y-71651690D01*
X111021650Y-71556927D01*
X110984675Y-71467661D01*
X110930996Y-71387325D01*
X110862675Y-71319004D01*
X110782339Y-71265325D01*
X110693073Y-71228350D01*
X110598310Y-71209500D01*
X110501690Y-71209500D01*
X110406927Y-71228350D01*
X110317661Y-71265325D01*
X110237325Y-71319004D01*
X110169004Y-71387325D01*
X110115325Y-71467661D01*
X110078350Y-71556927D01*
X110059500Y-71651690D01*
X100559408Y-71651690D01*
X100612080Y-71572862D01*
X100690515Y-71383503D01*
X100730500Y-71182480D01*
X100730500Y-70977520D01*
X100690515Y-70776497D01*
X100612080Y-70587138D01*
X100498209Y-70416720D01*
X100353280Y-70271791D01*
X100182862Y-70157920D01*
X100167822Y-70151690D01*
X110059500Y-70151690D01*
X110059500Y-70248310D01*
X110078350Y-70343073D01*
X110115325Y-70432339D01*
X110169004Y-70512675D01*
X110237325Y-70580996D01*
X110317661Y-70634675D01*
X110406927Y-70671650D01*
X110501690Y-70690500D01*
X110598310Y-70690500D01*
X110693073Y-70671650D01*
X110782339Y-70634675D01*
X110862675Y-70580996D01*
X110930996Y-70512675D01*
X110984675Y-70432339D01*
X111021650Y-70343073D01*
X111040500Y-70248310D01*
X111040500Y-70151690D01*
X111021650Y-70056927D01*
X110984675Y-69967661D01*
X110930996Y-69887325D01*
X110862675Y-69819004D01*
X110782339Y-69765325D01*
X110693073Y-69728350D01*
X110598310Y-69709500D01*
X110501690Y-69709500D01*
X110406927Y-69728350D01*
X110317661Y-69765325D01*
X110237325Y-69819004D01*
X110169004Y-69887325D01*
X110115325Y-69967661D01*
X110078350Y-70056927D01*
X110059500Y-70151690D01*
X100167822Y-70151690D01*
X99993503Y-70079485D01*
X99792480Y-70039500D01*
X99587520Y-70039500D01*
X99386497Y-70079485D01*
X99197138Y-70157920D01*
X99026720Y-70271791D01*
X98881791Y-70416720D01*
X98767920Y-70587138D01*
X98689485Y-70776497D01*
X98649500Y-70977520D01*
X98190500Y-70977520D01*
X98150515Y-70776497D01*
X98072080Y-70587138D01*
X97958209Y-70416720D01*
X97813280Y-70271791D01*
X97642862Y-70157920D01*
X97453503Y-70079485D01*
X97252480Y-70039500D01*
X97047520Y-70039500D01*
X96846497Y-70079485D01*
X96657138Y-70157920D01*
X96486720Y-70271791D01*
X96341791Y-70416720D01*
X96227920Y-70587138D01*
X96149485Y-70776497D01*
X96109500Y-70977520D01*
X91836521Y-70977520D01*
X91950856Y-70863185D01*
X92055096Y-70707179D01*
X92126897Y-70533835D01*
X92163501Y-70349814D01*
X92163501Y-70162188D01*
X92126897Y-69978167D01*
X92055096Y-69804823D01*
X91950856Y-69648817D01*
X91818185Y-69516146D01*
X91662179Y-69411906D01*
X91488835Y-69340105D01*
X91304814Y-69303501D01*
X91117188Y-69303501D01*
X90933167Y-69340105D01*
X90759823Y-69411906D01*
X90603817Y-69516146D01*
X90471146Y-69648817D01*
X90366906Y-69804823D01*
X90295105Y-69978167D01*
X90258501Y-70162188D01*
X89623501Y-70162188D01*
X89586897Y-69978167D01*
X89515096Y-69804823D01*
X89410856Y-69648817D01*
X89278185Y-69516146D01*
X89122179Y-69411906D01*
X88948835Y-69340105D01*
X88764814Y-69303501D01*
X88577188Y-69303501D01*
X88393167Y-69340105D01*
X88219823Y-69411906D01*
X88063817Y-69516146D01*
X87931146Y-69648817D01*
X87826906Y-69804823D01*
X87755105Y-69978167D01*
X87718501Y-70162188D01*
X85045550Y-70162188D01*
X85045550Y-67622188D01*
X87718501Y-67622188D01*
X87718501Y-67809814D01*
X87755105Y-67993835D01*
X87826906Y-68167179D01*
X87931146Y-68323185D01*
X88063817Y-68455856D01*
X88219823Y-68560096D01*
X88393167Y-68631897D01*
X88577188Y-68668501D01*
X88764814Y-68668501D01*
X88948835Y-68631897D01*
X89122179Y-68560096D01*
X89278185Y-68455856D01*
X89410856Y-68323185D01*
X89515096Y-68167179D01*
X89586897Y-67993835D01*
X89623501Y-67809814D01*
X89623501Y-67622188D01*
X89586897Y-67438167D01*
X89515096Y-67264823D01*
X89410856Y-67108817D01*
X89278185Y-66976146D01*
X89245043Y-66954001D01*
X90257580Y-66954001D01*
X90257580Y-68478001D01*
X90261258Y-68515345D01*
X90272151Y-68551255D01*
X90289840Y-68584349D01*
X90313646Y-68613356D01*
X90342653Y-68637162D01*
X90375747Y-68654851D01*
X90411657Y-68665744D01*
X90449001Y-68669422D01*
X91973001Y-68669422D01*
X92010345Y-68665744D01*
X92046255Y-68654851D01*
X92079349Y-68637162D01*
X92108356Y-68613356D01*
X92132162Y-68584349D01*
X92149851Y-68551255D01*
X92160744Y-68515345D01*
X92164422Y-68478001D01*
X92164422Y-68437520D01*
X96109500Y-68437520D01*
X96109500Y-68642480D01*
X96149485Y-68843503D01*
X96227920Y-69032862D01*
X96341791Y-69203280D01*
X96486720Y-69348209D01*
X96657138Y-69462080D01*
X96846497Y-69540515D01*
X97047520Y-69580500D01*
X97252480Y-69580500D01*
X97453503Y-69540515D01*
X97642862Y-69462080D01*
X97813280Y-69348209D01*
X97958209Y-69203280D01*
X98072080Y-69032862D01*
X98150515Y-68843503D01*
X98190500Y-68642480D01*
X98190500Y-68437520D01*
X98649500Y-68437520D01*
X98649500Y-68642480D01*
X98689485Y-68843503D01*
X98767920Y-69032862D01*
X98881791Y-69203280D01*
X99026720Y-69348209D01*
X99197138Y-69462080D01*
X99386497Y-69540515D01*
X99587520Y-69580500D01*
X99792480Y-69580500D01*
X99993503Y-69540515D01*
X100182862Y-69462080D01*
X100353280Y-69348209D01*
X100498209Y-69203280D01*
X100532680Y-69151690D01*
X110059500Y-69151690D01*
X110059500Y-69248310D01*
X110078350Y-69343073D01*
X110115325Y-69432339D01*
X110169004Y-69512675D01*
X110237325Y-69580996D01*
X110317661Y-69634675D01*
X110406927Y-69671650D01*
X110501690Y-69690500D01*
X110598310Y-69690500D01*
X110693073Y-69671650D01*
X110782339Y-69634675D01*
X110862675Y-69580996D01*
X110930996Y-69512675D01*
X110984675Y-69432339D01*
X111021650Y-69343073D01*
X111040500Y-69248310D01*
X111040500Y-69151690D01*
X111021650Y-69056927D01*
X110984675Y-68967661D01*
X110930996Y-68887325D01*
X110862675Y-68819004D01*
X110782339Y-68765325D01*
X110693073Y-68728350D01*
X110598310Y-68709500D01*
X110501690Y-68709500D01*
X110406927Y-68728350D01*
X110317661Y-68765325D01*
X110237325Y-68819004D01*
X110169004Y-68887325D01*
X110115325Y-68967661D01*
X110078350Y-69056927D01*
X110059500Y-69151690D01*
X100532680Y-69151690D01*
X100612080Y-69032862D01*
X100690515Y-68843503D01*
X100730500Y-68642480D01*
X100730500Y-68437520D01*
X100690515Y-68236497D01*
X100612080Y-68047138D01*
X100498209Y-67876720D01*
X100353280Y-67731791D01*
X100182862Y-67617920D01*
X99993503Y-67539485D01*
X99792480Y-67499500D01*
X99587520Y-67499500D01*
X99386497Y-67539485D01*
X99197138Y-67617920D01*
X99026720Y-67731791D01*
X98881791Y-67876720D01*
X98767920Y-68047138D01*
X98689485Y-68236497D01*
X98649500Y-68437520D01*
X98190500Y-68437520D01*
X98150515Y-68236497D01*
X98072080Y-68047138D01*
X97958209Y-67876720D01*
X97813280Y-67731791D01*
X97642862Y-67617920D01*
X97453503Y-67539485D01*
X97252480Y-67499500D01*
X97047520Y-67499500D01*
X96846497Y-67539485D01*
X96657138Y-67617920D01*
X96486720Y-67731791D01*
X96341791Y-67876720D01*
X96227920Y-68047138D01*
X96149485Y-68236497D01*
X96109500Y-68437520D01*
X92164422Y-68437520D01*
X92164422Y-66954001D01*
X92160744Y-66916657D01*
X92149851Y-66880747D01*
X92132162Y-66847653D01*
X92108356Y-66818646D01*
X92079349Y-66794840D01*
X92046255Y-66777151D01*
X92010345Y-66766258D01*
X91973001Y-66762580D01*
X90449001Y-66762580D01*
X90411657Y-66766258D01*
X90375747Y-66777151D01*
X90342653Y-66794840D01*
X90313646Y-66818646D01*
X90289840Y-66847653D01*
X90272151Y-66880747D01*
X90261258Y-66916657D01*
X90257580Y-66954001D01*
X89245043Y-66954001D01*
X89122179Y-66871906D01*
X88948835Y-66800105D01*
X88764814Y-66763501D01*
X88577188Y-66763501D01*
X88393167Y-66800105D01*
X88219823Y-66871906D01*
X88063817Y-66976146D01*
X87931146Y-67108817D01*
X87826906Y-67264823D01*
X87755105Y-67438167D01*
X87718501Y-67622188D01*
X85045550Y-67622188D01*
X85045550Y-65150000D01*
X96108579Y-65150000D01*
X96108579Y-66850000D01*
X96112257Y-66887344D01*
X96123150Y-66923254D01*
X96140839Y-66956348D01*
X96164645Y-66985355D01*
X96193652Y-67009161D01*
X96226746Y-67026850D01*
X96262656Y-67037743D01*
X96300000Y-67041421D01*
X98000000Y-67041421D01*
X98037344Y-67037743D01*
X98073254Y-67026850D01*
X98106348Y-67009161D01*
X98135355Y-66985355D01*
X98159161Y-66956348D01*
X98176850Y-66923254D01*
X98187743Y-66887344D01*
X98191421Y-66850000D01*
X98191421Y-66245085D01*
X98548514Y-66245085D01*
X98604724Y-66430396D01*
X98709543Y-66633853D01*
X98852041Y-66812951D01*
X99026741Y-66960808D01*
X99226930Y-67071742D01*
X99444914Y-67141489D01*
X99626500Y-67086400D01*
X99626500Y-66063500D01*
X99753500Y-66063500D01*
X99753500Y-67086400D01*
X99935086Y-67141489D01*
X100153070Y-67071742D01*
X100353259Y-66960808D01*
X100527959Y-66812951D01*
X100670457Y-66633853D01*
X100775276Y-66430396D01*
X100815375Y-66298197D01*
X108673900Y-66298197D01*
X108673900Y-66515843D01*
X108716361Y-66729307D01*
X108799650Y-66930386D01*
X108920568Y-67111353D01*
X109074467Y-67265252D01*
X109255434Y-67386170D01*
X109456513Y-67469459D01*
X109669977Y-67511920D01*
X109887623Y-67511920D01*
X110101087Y-67469459D01*
X110302166Y-67386170D01*
X110483133Y-67265252D01*
X110637032Y-67111353D01*
X110757950Y-66930386D01*
X110841239Y-66729307D01*
X110883700Y-66515843D01*
X110883700Y-66298197D01*
X110841239Y-66084733D01*
X110757950Y-65883654D01*
X110637032Y-65702687D01*
X110632467Y-65698122D01*
X113573890Y-65698122D01*
X113573890Y-65915768D01*
X113616351Y-66129232D01*
X113699640Y-66330311D01*
X113820558Y-66511278D01*
X113974457Y-66665177D01*
X114155424Y-66786095D01*
X114356503Y-66869384D01*
X114569967Y-66911845D01*
X114787613Y-66911845D01*
X115001077Y-66869384D01*
X115202156Y-66786095D01*
X115383123Y-66665177D01*
X115537022Y-66511278D01*
X115657940Y-66330311D01*
X115741229Y-66129232D01*
X115783690Y-65915768D01*
X115783690Y-65698122D01*
X115741229Y-65484658D01*
X115657940Y-65283579D01*
X115537022Y-65102612D01*
X115383123Y-64948713D01*
X115202156Y-64827795D01*
X115001077Y-64744506D01*
X114787613Y-64702045D01*
X114569967Y-64702045D01*
X114356503Y-64744506D01*
X114155424Y-64827795D01*
X113974457Y-64948713D01*
X113820558Y-65102612D01*
X113699640Y-65283579D01*
X113616351Y-65484658D01*
X113573890Y-65698122D01*
X110632467Y-65698122D01*
X110483133Y-65548788D01*
X110302166Y-65427870D01*
X110101087Y-65344581D01*
X109887623Y-65302120D01*
X109669977Y-65302120D01*
X109456513Y-65344581D01*
X109255434Y-65427870D01*
X109074467Y-65548788D01*
X108920568Y-65702687D01*
X108799650Y-65883654D01*
X108716361Y-66084733D01*
X108673900Y-66298197D01*
X100815375Y-66298197D01*
X100831486Y-66245085D01*
X100776271Y-66063500D01*
X99753500Y-66063500D01*
X99626500Y-66063500D01*
X98603729Y-66063500D01*
X98548514Y-66245085D01*
X98191421Y-66245085D01*
X98191421Y-65754915D01*
X98548514Y-65754915D01*
X98603729Y-65936500D01*
X99626500Y-65936500D01*
X99626500Y-64913600D01*
X99753500Y-64913600D01*
X99753500Y-65936500D01*
X100776271Y-65936500D01*
X100831486Y-65754915D01*
X100775276Y-65569604D01*
X100670457Y-65366147D01*
X100527959Y-65187049D01*
X100353259Y-65039192D01*
X100153070Y-64928258D01*
X99935086Y-64858511D01*
X99753500Y-64913600D01*
X99626500Y-64913600D01*
X99444914Y-64858511D01*
X99226930Y-64928258D01*
X99026741Y-65039192D01*
X98852041Y-65187049D01*
X98709543Y-65366147D01*
X98604724Y-65569604D01*
X98548514Y-65754915D01*
X98191421Y-65754915D01*
X98191421Y-65150000D01*
X98187743Y-65112656D01*
X98176850Y-65076746D01*
X98159161Y-65043652D01*
X98135355Y-65014645D01*
X98106348Y-64990839D01*
X98073254Y-64973150D01*
X98037344Y-64962257D01*
X98000000Y-64958579D01*
X96300000Y-64958579D01*
X96262656Y-64962257D01*
X96226746Y-64973150D01*
X96193652Y-64990839D01*
X96164645Y-65014645D01*
X96140839Y-65043652D01*
X96123150Y-65076746D01*
X96112257Y-65112656D01*
X96108579Y-65150000D01*
X85045550Y-65150000D01*
X85045550Y-64090543D01*
X116490450Y-64089556D01*
X116490451Y-83990457D01*
G37*
%TD.AperFunction*%
%TD*%
M02*
