%TF.GenerationSoftware,KiCad,Pcbnew,5.1.8*%
%TF.CreationDate,2021-01-07T21:55:06-06:00*%
%TF.ProjectId,hdmi_pmod,68646d69-5f70-46d6-9f64-2e6b69636164,rev?*%
%TF.SameCoordinates,Original*%
%TF.FileFunction,Copper,L1,Top*%
%TF.FilePolarity,Positive*%
%FSLAX46Y46*%
G04 Gerber Fmt 4.6, Leading zero omitted, Abs format (unit mm)*
G04 Created by KiCad (PCBNEW 5.1.8) date 2021-01-07 21:55:06*
%MOMM*%
%LPD*%
G01*
G04 APERTURE LIST*
%TA.AperFunction,ComponentPad*%
%ADD10R,1.700000X1.700000*%
%TD*%
%TA.AperFunction,ComponentPad*%
%ADD11O,1.700000X1.700000*%
%TD*%
%TA.AperFunction,ComponentPad*%
%ADD12R,1.524000X1.524000*%
%TD*%
%TA.AperFunction,ComponentPad*%
%ADD13C,1.524000*%
%TD*%
%TA.AperFunction,ComponentPad*%
%ADD14C,1.828800*%
%TD*%
%TA.AperFunction,SMDPad,CuDef*%
%ADD15R,2.387600X0.330200*%
%TD*%
%TA.AperFunction,ViaPad*%
%ADD16C,0.600000*%
%TD*%
%TA.AperFunction,Conductor*%
%ADD17C,0.095500*%
%TD*%
%TA.AperFunction,Conductor*%
%ADD18C,0.127000*%
%TD*%
%TA.AperFunction,Conductor*%
%ADD19C,0.100000*%
%TD*%
G04 APERTURE END LIST*
D10*
%TO.P,J1,1*%
%TO.N,+5V*%
X97150000Y-66000000D03*
D11*
%TO.P,J1,2*%
%TO.N,+3V3*%
X99690000Y-66000000D03*
%TO.P,J1,3*%
%TO.N,GND*%
X97150000Y-68540000D03*
%TO.P,J1,4*%
%TO.N,/HEAC-*%
X99690000Y-68540000D03*
%TO.P,J1,5*%
%TO.N,/HEAC+*%
X97150000Y-71080000D03*
%TO.P,J1,6*%
%TO.N,/SDA*%
X99690000Y-71080000D03*
%TO.P,J1,7*%
%TO.N,/SCL*%
X97150000Y-73620000D03*
%TO.P,J1,8*%
%TO.N,/CEC*%
X99690000Y-73620000D03*
%TD*%
D12*
%TO.P,PMOD0,1*%
%TO.N,/TMDS_CLK+*%
X91211001Y-67716001D03*
D13*
%TO.P,PMOD0,7*%
%TO.N,/TMDS_B+*%
X88671001Y-67716001D03*
%TO.P,PMOD0,2*%
%TO.N,/TMDS_CLK-*%
X91211001Y-70256001D03*
%TO.P,PMOD0,8*%
%TO.N,/TMDS_B-*%
X88671001Y-70256001D03*
%TO.P,PMOD0,3*%
%TO.N,/TMDS_R+*%
X91211001Y-72796001D03*
%TO.P,PMOD0,9*%
%TO.N,/TMDS_G+*%
X88671001Y-72796001D03*
%TO.P,PMOD0,4*%
%TO.N,/TMDS_R-*%
X91211001Y-75336001D03*
%TO.P,PMOD0,10*%
%TO.N,/TMDS_G-*%
X88671001Y-75336001D03*
%TO.P,PMOD0,5*%
%TO.N,GND*%
X91211001Y-77876001D03*
%TO.P,PMOD0,11*%
X88671001Y-77876001D03*
%TO.P,PMOD0,6*%
%TO.N,+3V3*%
X91211001Y-80416001D03*
%TO.P,PMOD0,12*%
X88671001Y-80416001D03*
%TD*%
D14*
%TO.P,J0,SH*%
%TO.N,GND*%
X109778800Y-66407020D03*
X109778800Y-81056978D03*
X114678790Y-65806945D03*
X114678790Y-81657053D03*
D15*
%TO.P,J0,19*%
%TO.N,/HEAC-*%
X108585000Y-69231998D03*
%TO.P,J0,18*%
%TO.N,+5V*%
X108585000Y-69731999D03*
%TO.P,J0,17*%
%TO.N,GND*%
X108585000Y-70231998D03*
%TO.P,J0,16*%
%TO.N,/SDA*%
X108585000Y-70732000D03*
%TO.P,J0,15*%
%TO.N,/SCL*%
X108585000Y-71231999D03*
%TO.P,J0,14*%
%TO.N,/HEAC+*%
X108585000Y-71731998D03*
%TO.P,J0,13*%
%TO.N,/CEC*%
X108585000Y-72231999D03*
%TO.P,J0,12*%
%TO.N,/TMDS_CLK-*%
X108585000Y-72731998D03*
%TO.P,J0,11*%
%TO.N,GND*%
X108585000Y-73232000D03*
%TO.P,J0,10*%
%TO.N,/TMDS_CLK+*%
X108585000Y-73731999D03*
%TO.P,J0,9*%
%TO.N,/TMDS_R-*%
X108585000Y-74231998D03*
%TO.P,J0,8*%
%TO.N,GND*%
X108585000Y-74731999D03*
%TO.P,J0,7*%
%TO.N,/TMDS_R+*%
X108585000Y-75231998D03*
%TO.P,J0,6*%
%TO.N,/TMDS_G-*%
X108585000Y-75732000D03*
%TO.P,J0,5*%
%TO.N,GND*%
X108585000Y-76231999D03*
%TO.P,J0,4*%
%TO.N,/TMDS_G+*%
X108585000Y-76731998D03*
%TO.P,J0,3*%
%TO.N,/TMDS_B-*%
X108585000Y-77231999D03*
%TO.P,J0,2*%
%TO.N,GND*%
X108585000Y-77731998D03*
%TO.P,J0,1*%
%TO.N,/TMDS_B+*%
X108585000Y-78232000D03*
%TD*%
%TO.P,R1,1*%
%TO.N,+5V*%
%TA.AperFunction,SMDPad,CuDef*%
G36*
G01*
X102349999Y-68425000D02*
X103250001Y-68425000D01*
G75*
G02*
X103500000Y-68674999I0J-249999D01*
G01*
X103500000Y-69200001D01*
G75*
G02*
X103250001Y-69450000I-249999J0D01*
G01*
X102349999Y-69450000D01*
G75*
G02*
X102100000Y-69200001I0J249999D01*
G01*
X102100000Y-68674999D01*
G75*
G02*
X102349999Y-68425000I249999J0D01*
G01*
G37*
%TD.AperFunction*%
%TO.P,R1,2*%
%TO.N,/SCL*%
%TA.AperFunction,SMDPad,CuDef*%
G36*
G01*
X102349999Y-70250000D02*
X103250001Y-70250000D01*
G75*
G02*
X103500000Y-70499999I0J-249999D01*
G01*
X103500000Y-71025001D01*
G75*
G02*
X103250001Y-71275000I-249999J0D01*
G01*
X102349999Y-71275000D01*
G75*
G02*
X102100000Y-71025001I0J249999D01*
G01*
X102100000Y-70499999D01*
G75*
G02*
X102349999Y-70250000I249999J0D01*
G01*
G37*
%TD.AperFunction*%
%TD*%
%TO.P,R2,2*%
%TO.N,/SDA*%
%TA.AperFunction,SMDPad,CuDef*%
G36*
G01*
X104299999Y-70250000D02*
X105200001Y-70250000D01*
G75*
G02*
X105450000Y-70499999I0J-249999D01*
G01*
X105450000Y-71025001D01*
G75*
G02*
X105200001Y-71275000I-249999J0D01*
G01*
X104299999Y-71275000D01*
G75*
G02*
X104050000Y-71025001I0J249999D01*
G01*
X104050000Y-70499999D01*
G75*
G02*
X104299999Y-70250000I249999J0D01*
G01*
G37*
%TD.AperFunction*%
%TO.P,R2,1*%
%TO.N,+5V*%
%TA.AperFunction,SMDPad,CuDef*%
G36*
G01*
X104299999Y-68425000D02*
X105200001Y-68425000D01*
G75*
G02*
X105450000Y-68674999I0J-249999D01*
G01*
X105450000Y-69200001D01*
G75*
G02*
X105200001Y-69450000I-249999J0D01*
G01*
X104299999Y-69450000D01*
G75*
G02*
X104050000Y-69200001I0J249999D01*
G01*
X104050000Y-68674999D01*
G75*
G02*
X104299999Y-68425000I249999J0D01*
G01*
G37*
%TD.AperFunction*%
%TD*%
%TO.P,R3,1*%
%TO.N,+3V3*%
%TA.AperFunction,SMDPad,CuDef*%
G36*
G01*
X103962500Y-66800001D02*
X103962500Y-65899999D01*
G75*
G02*
X104212499Y-65650000I249999J0D01*
G01*
X104737501Y-65650000D01*
G75*
G02*
X104987500Y-65899999I0J-249999D01*
G01*
X104987500Y-66800001D01*
G75*
G02*
X104737501Y-67050000I-249999J0D01*
G01*
X104212499Y-67050000D01*
G75*
G02*
X103962500Y-66800001I0J249999D01*
G01*
G37*
%TD.AperFunction*%
%TO.P,R3,2*%
%TO.N,/CEC*%
%TA.AperFunction,SMDPad,CuDef*%
G36*
G01*
X105787500Y-66800001D02*
X105787500Y-65899999D01*
G75*
G02*
X106037499Y-65650000I249999J0D01*
G01*
X106562501Y-65650000D01*
G75*
G02*
X106812500Y-65899999I0J-249999D01*
G01*
X106812500Y-66800001D01*
G75*
G02*
X106562501Y-67050000I-249999J0D01*
G01*
X106037499Y-67050000D01*
G75*
G02*
X105787500Y-66800001I0J249999D01*
G01*
G37*
%TD.AperFunction*%
%TD*%
D16*
%TO.N,GND*%
X110550000Y-70200000D03*
X110550000Y-77700000D03*
X110550000Y-76200000D03*
X110550000Y-74700000D03*
X110550000Y-73250000D03*
%TO.N,/HEAC+*%
X110550000Y-71700000D03*
%TO.N,/HEAC-*%
X110550000Y-69200000D03*
%TD*%
D17*
%TO.N,/TMDS_R+*%
X97087980Y-78550149D02*
X97146576Y-78608745D01*
X97756107Y-78479983D02*
X97783476Y-78401766D01*
X94586721Y-77752834D02*
X94602048Y-77796638D01*
X97422694Y-78689481D02*
X97505040Y-78680202D01*
X95807245Y-76788784D02*
X95807245Y-78319420D01*
X98416742Y-78652833D02*
X98494959Y-78680202D01*
X97813278Y-76698864D02*
X97837969Y-76659569D01*
X96613278Y-76698864D02*
X96637969Y-76659569D01*
X97294959Y-78680202D02*
X97377305Y-78689481D01*
X100310079Y-76602063D02*
X100353883Y-76586736D01*
X97653423Y-78608745D02*
X97712019Y-78550149D01*
X99777305Y-78689481D02*
X99822694Y-78689481D01*
X98577305Y-78689481D02*
X98622694Y-78689481D01*
X100586721Y-76698864D02*
X100602048Y-76742668D01*
X96929215Y-76626754D02*
X96962030Y-76659569D01*
X97783476Y-78401766D02*
X97792755Y-78319420D01*
X96846116Y-76586736D02*
X96889920Y-76602063D01*
X96753883Y-76586736D02*
X96800000Y-76581539D01*
X96710079Y-76602063D02*
X96753883Y-76586736D01*
X96670784Y-76626754D02*
X96710079Y-76602063D01*
X97797951Y-76742668D02*
X97813278Y-76698864D01*
X103412842Y-77635510D02*
X106193452Y-74854900D01*
X96592755Y-76788784D02*
X96597951Y-76742668D01*
X97792755Y-76788784D02*
X97797951Y-76742668D01*
X97377305Y-78689481D02*
X97422694Y-78689481D01*
X100237969Y-76659569D02*
X100270784Y-76626754D01*
X96583476Y-78401766D02*
X96592755Y-78319420D01*
X99329215Y-76626754D02*
X99362030Y-76659569D01*
X99386721Y-76698864D02*
X99402048Y-76742668D01*
X96383257Y-78652833D02*
X96453423Y-78608745D01*
X96305040Y-78680202D02*
X96383257Y-78652833D01*
X96177305Y-78689481D02*
X96222694Y-78689481D01*
X98000000Y-76581539D02*
X98046116Y-76586736D01*
X96592755Y-78319420D02*
X96592755Y-76788784D01*
X96094959Y-78680202D02*
X96177305Y-78689481D01*
X95946576Y-78608745D02*
X96016742Y-78652833D01*
X95816523Y-78401766D02*
X95843892Y-78479983D01*
X100977305Y-77635510D02*
X103412842Y-77635510D01*
X97043892Y-78479983D02*
X97087980Y-78550149D01*
X95807245Y-78319420D02*
X95816523Y-78401766D01*
X98202048Y-76742668D02*
X98207245Y-76788784D01*
X96512019Y-78550149D02*
X96556107Y-78479983D01*
X98912019Y-78550149D02*
X98956107Y-78479983D01*
X94816742Y-78652833D02*
X94894959Y-78680202D01*
X98287980Y-78550149D02*
X98346576Y-78608745D01*
X94616523Y-78401766D02*
X94643892Y-78479983D01*
X96016742Y-78652833D02*
X96094959Y-78680202D01*
X100894959Y-77626232D02*
X100977305Y-77635510D01*
X97583257Y-78652833D02*
X97653423Y-78608745D01*
X95786721Y-76698864D02*
X95802048Y-76742668D01*
X94607245Y-77842755D02*
X94607245Y-78319420D01*
X99407245Y-78319420D02*
X99416523Y-78401766D01*
X95802048Y-76742668D02*
X95807245Y-76788784D01*
X94529215Y-77680724D02*
X94562030Y-77713539D01*
X98494959Y-78680202D02*
X98577305Y-78689481D01*
X94562030Y-77713539D02*
X94586721Y-77752834D01*
X98046116Y-76586736D02*
X98089920Y-76602063D01*
X96597951Y-76742668D02*
X96613278Y-76698864D01*
X93373158Y-77635510D02*
X94400000Y-77635510D01*
X95510079Y-76602063D02*
X95553883Y-76586736D01*
X94687980Y-78550149D02*
X94746576Y-78608745D01*
X100643892Y-77426013D02*
X100687980Y-77496179D01*
X90181548Y-73970100D02*
X89795100Y-74356548D01*
X107000000Y-75100000D02*
X107131998Y-75231998D01*
X95887980Y-78550149D02*
X95946576Y-78608745D01*
X99616742Y-78652833D02*
X99694959Y-78680202D01*
X91211001Y-72796001D02*
X91211001Y-73970100D01*
X95183257Y-78652833D02*
X95253423Y-78608745D01*
X97007245Y-76788784D02*
X97007245Y-78319420D01*
X97792755Y-78319420D02*
X97792755Y-76788784D01*
X98207245Y-78319420D02*
X98216523Y-78401766D01*
X96962030Y-76659569D02*
X96986721Y-76698864D01*
X91211001Y-73970100D02*
X90181548Y-73970100D01*
X98992755Y-76788784D02*
X98997951Y-76742668D01*
X94602048Y-77796638D02*
X94607245Y-77842755D01*
X98186721Y-76698864D02*
X98202048Y-76742668D01*
X98853423Y-78608745D02*
X98912019Y-78550149D01*
X90406548Y-76704900D02*
X92442548Y-76704900D01*
X99983257Y-78652833D02*
X100053423Y-78608745D01*
X95312019Y-78550149D02*
X95356107Y-78479983D01*
X94746576Y-78608745D02*
X94816742Y-78652833D01*
X94977305Y-78689481D02*
X95022694Y-78689481D01*
X97007245Y-78319420D02*
X97016523Y-78401766D01*
X95356107Y-78479983D02*
X95383476Y-78401766D01*
X97712019Y-78550149D02*
X97756107Y-78479983D01*
X95600000Y-76581539D02*
X95646116Y-76586736D01*
X94643892Y-78479983D02*
X94687980Y-78550149D01*
X89795100Y-76093452D02*
X90406548Y-76704900D01*
X95392755Y-78319420D02*
X95392755Y-76788784D01*
X95646116Y-76586736D02*
X95689920Y-76602063D01*
X97002048Y-76742668D02*
X97007245Y-76788784D01*
X94607245Y-78319420D02*
X94616523Y-78401766D01*
X94446116Y-77640706D02*
X94489920Y-77656033D01*
X99416523Y-78401766D02*
X99443892Y-78479983D01*
X95383476Y-78401766D02*
X95392755Y-78319420D01*
X95022694Y-78689481D02*
X95105040Y-78680202D01*
X95105040Y-78680202D02*
X95183257Y-78652833D01*
X97870784Y-76626754D02*
X97910079Y-76602063D01*
X92442548Y-76704900D02*
X93373158Y-77635510D01*
X96800000Y-76581539D02*
X96846116Y-76586736D01*
X95413278Y-76698864D02*
X95437969Y-76659569D01*
X95392755Y-76788784D02*
X95397951Y-76742668D01*
X99822694Y-78689481D02*
X99905040Y-78680202D01*
X97016523Y-78401766D02*
X97043892Y-78479983D01*
X97505040Y-78680202D02*
X97583257Y-78652833D01*
X94400000Y-77635510D02*
X94446116Y-77640706D01*
X100213278Y-76698864D02*
X100237969Y-76659569D01*
X95553883Y-76586736D02*
X95600000Y-76581539D01*
X94894959Y-78680202D02*
X94977305Y-78689481D01*
X96222694Y-78689481D02*
X96305040Y-78680202D01*
X95397951Y-76742668D02*
X95413278Y-76698864D01*
X100183476Y-78401766D02*
X100192755Y-78319420D01*
X95689920Y-76602063D02*
X95729215Y-76626754D01*
X95253423Y-78608745D02*
X95312019Y-78550149D01*
X95470784Y-76626754D02*
X95510079Y-76602063D01*
X99487980Y-78550149D02*
X99546576Y-78608745D01*
X95729215Y-76626754D02*
X95762030Y-76659569D01*
X100602048Y-76742668D02*
X100607245Y-76788784D01*
X96453423Y-78608745D02*
X96512019Y-78550149D01*
X97910079Y-76602063D02*
X97953883Y-76586736D01*
X95762030Y-76659569D02*
X95786721Y-76698864D01*
X96637969Y-76659569D02*
X96670784Y-76626754D01*
X97837969Y-76659569D02*
X97870784Y-76626754D01*
X98622694Y-78689481D02*
X98705040Y-78680202D01*
X97953883Y-76586736D02*
X98000000Y-76581539D01*
X98089920Y-76602063D02*
X98129215Y-76626754D01*
X98129215Y-76626754D02*
X98162030Y-76659569D01*
X99013278Y-76698864D02*
X99037969Y-76659569D01*
X99110079Y-76602063D02*
X99153883Y-76586736D01*
X98162030Y-76659569D02*
X98186721Y-76698864D01*
X98207245Y-76788784D02*
X98207245Y-78319420D01*
X98956107Y-78479983D02*
X98983476Y-78401766D01*
X98216523Y-78401766D02*
X98243892Y-78479983D01*
X96889920Y-76602063D02*
X96929215Y-76626754D01*
X98243892Y-78479983D02*
X98287980Y-78550149D01*
X98705040Y-78680202D02*
X98783257Y-78652833D01*
X95437969Y-76659569D02*
X95470784Y-76626754D01*
X100353883Y-76586736D02*
X100400000Y-76581539D01*
X98983476Y-78401766D02*
X98992755Y-78319420D01*
X99443892Y-78479983D02*
X99487980Y-78550149D01*
X98992755Y-78319420D02*
X98992755Y-76788784D01*
X98997951Y-76742668D02*
X99013278Y-76698864D01*
X99407245Y-76788784D02*
X99407245Y-78319420D01*
X99037969Y-76659569D02*
X99070784Y-76626754D01*
X99070784Y-76626754D02*
X99110079Y-76602063D01*
X99246116Y-76586736D02*
X99289920Y-76602063D01*
X99289920Y-76602063D02*
X99329215Y-76626754D01*
X98346576Y-78608745D02*
X98416742Y-78652833D01*
X96556107Y-78479983D02*
X96583476Y-78401766D01*
X99362030Y-76659569D02*
X99386721Y-76698864D01*
X99402048Y-76742668D02*
X99407245Y-76788784D01*
X89795100Y-74356548D02*
X89795100Y-76093452D01*
X96986721Y-76698864D02*
X97002048Y-76742668D01*
X99546576Y-78608745D02*
X99616742Y-78652833D01*
X99694959Y-78680202D02*
X99777305Y-78689481D01*
X99905040Y-78680202D02*
X99983257Y-78652833D01*
X94489920Y-77656033D02*
X94529215Y-77680724D01*
X100053423Y-78608745D02*
X100112019Y-78550149D01*
X97216742Y-78652833D02*
X97294959Y-78680202D01*
X95843892Y-78479983D02*
X95887980Y-78550149D01*
X100112019Y-78550149D02*
X100156107Y-78479983D01*
X100616523Y-77347796D02*
X100643892Y-77426013D01*
X100156107Y-78479983D02*
X100183476Y-78401766D01*
X100192755Y-78319420D02*
X100192755Y-76788784D01*
X98783257Y-78652833D02*
X98853423Y-78608745D01*
X100607245Y-76788784D02*
X100607245Y-77265450D01*
X99153883Y-76586736D02*
X99200000Y-76581539D01*
X100192755Y-76788784D02*
X100197951Y-76742668D01*
X99200000Y-76581539D02*
X99246116Y-76586736D01*
X100197951Y-76742668D02*
X100213278Y-76698864D01*
X100270784Y-76626754D02*
X100310079Y-76602063D01*
X100400000Y-76581539D02*
X100446116Y-76586736D01*
X100446116Y-76586736D02*
X100489920Y-76602063D01*
X100489920Y-76602063D02*
X100529215Y-76626754D01*
X97146576Y-78608745D02*
X97216742Y-78652833D01*
X100529215Y-76626754D02*
X100562030Y-76659569D01*
X107000000Y-74854900D02*
X107000000Y-75100000D01*
X100562030Y-76659569D02*
X100586721Y-76698864D01*
X100607245Y-77265450D02*
X100616523Y-77347796D01*
X100687980Y-77496179D02*
X100746576Y-77554775D01*
X100746576Y-77554775D02*
X100816742Y-77598863D01*
X100816742Y-77598863D02*
X100894959Y-77626232D01*
X106193452Y-74854900D02*
X107000000Y-74854900D01*
X107131998Y-75231998D02*
X108585000Y-75231998D01*
D18*
%TO.N,GND*%
X108585000Y-70231998D02*
X110718002Y-70231998D01*
X110718002Y-70231998D02*
X110750000Y-70200000D01*
X108585000Y-77731998D02*
X110518002Y-77731998D01*
X110518002Y-77731998D02*
X110550000Y-77700000D01*
X108585000Y-76231999D02*
X110518001Y-76231999D01*
X110518001Y-76231999D02*
X110550000Y-76200000D01*
X108585000Y-74731999D02*
X110518001Y-74731999D01*
X110518001Y-74731999D02*
X110550000Y-74700000D01*
X108585000Y-73232000D02*
X110532000Y-73232000D01*
X110532000Y-73232000D02*
X110550000Y-73250000D01*
D17*
%TO.N,/TMDS_R-*%
X107118002Y-74231998D02*
X108585000Y-74231998D01*
X100792755Y-76766090D02*
X100792755Y-77242755D01*
X100783476Y-76683744D02*
X100792755Y-76766090D01*
X100756107Y-76605527D02*
X100783476Y-76683744D01*
X100653423Y-76476765D02*
X100712019Y-76535361D01*
X100216742Y-76432677D02*
X100294959Y-76405308D01*
X100146576Y-76476765D02*
X100216742Y-76432677D01*
X100377305Y-76396029D02*
X100422694Y-76396029D01*
X100043892Y-76605527D02*
X100087980Y-76535361D01*
X100007245Y-78296726D02*
X100007245Y-76766090D01*
X99962030Y-78425941D02*
X99986721Y-78386646D01*
X99929215Y-78458756D02*
X99962030Y-78425941D01*
X99889920Y-78483447D02*
X99929215Y-78458756D01*
X99592755Y-76766090D02*
X99592755Y-78296726D01*
X99583476Y-76683744D02*
X99592755Y-76766090D01*
X99556107Y-76605527D02*
X99583476Y-76683744D01*
X99453423Y-76476765D02*
X99512019Y-76535361D01*
X99222694Y-76396029D02*
X99305040Y-76405308D01*
X99177305Y-76396029D02*
X99222694Y-76396029D01*
X99094959Y-76405308D02*
X99177305Y-76396029D01*
X98946576Y-76476765D02*
X99016742Y-76432677D01*
X98807245Y-76766090D02*
X98816523Y-76683744D01*
X98807245Y-78296726D02*
X98807245Y-76766090D01*
X98802048Y-78342842D02*
X98807245Y-78296726D01*
X98786721Y-78386646D02*
X98802048Y-78342842D01*
X98510079Y-78483447D02*
X98553883Y-78498774D01*
X98383476Y-76683744D02*
X98392755Y-76766090D01*
X98253423Y-76476765D02*
X98312019Y-76535361D01*
X98105040Y-76405308D02*
X98183257Y-76432677D01*
X98022694Y-76396029D02*
X98105040Y-76405308D01*
X97977305Y-76396029D02*
X98022694Y-76396029D01*
X103301648Y-77450000D02*
X106106548Y-74645100D01*
X97816742Y-76432677D02*
X97894959Y-76405308D01*
X99613278Y-78386646D02*
X99637969Y-78425941D01*
X97643892Y-76605527D02*
X97687980Y-76535361D01*
X99592755Y-78296726D02*
X99597951Y-78342842D01*
X97607245Y-76766090D02*
X97616523Y-76683744D01*
X97602048Y-78342842D02*
X97607245Y-78296726D01*
X97586721Y-78386646D02*
X97602048Y-78342842D01*
X97489920Y-78483447D02*
X97529215Y-78458756D01*
X97400000Y-78503971D02*
X97446116Y-78498774D01*
X97310079Y-78483447D02*
X97353883Y-78498774D01*
X97270784Y-78458756D02*
X97310079Y-78483447D01*
X97213278Y-78386646D02*
X97237969Y-78425941D01*
X97192755Y-76766090D02*
X97192755Y-78296726D01*
X97156107Y-76605527D02*
X97183476Y-76683744D01*
X97112019Y-76535361D02*
X97156107Y-76605527D01*
X97053423Y-76476765D02*
X97112019Y-76535361D01*
X96546576Y-76476765D02*
X96616742Y-76432677D01*
X99305040Y-76405308D02*
X99383257Y-76432677D01*
X96616742Y-76432677D02*
X96694959Y-76405308D01*
X96487980Y-76535361D02*
X96546576Y-76476765D01*
X96443892Y-76605527D02*
X96487980Y-76535361D01*
X96416523Y-76683744D02*
X96443892Y-76605527D01*
X96407245Y-76766090D02*
X96416523Y-76683744D01*
X96407245Y-78296726D02*
X96407245Y-76766090D01*
X96402048Y-78342842D02*
X96407245Y-78296726D01*
X96386721Y-78386646D02*
X96402048Y-78342842D01*
X100712019Y-76535361D02*
X100756107Y-76605527D01*
X96037969Y-78425941D02*
X96070784Y-78458756D01*
X96013278Y-78386646D02*
X96037969Y-78425941D01*
X95997951Y-78342842D02*
X96013278Y-78386646D01*
X95992755Y-78296726D02*
X95997951Y-78342842D01*
X95992755Y-76766090D02*
X95992755Y-78296726D01*
X95983476Y-76683744D02*
X95992755Y-76766090D01*
X95956107Y-76605527D02*
X95983476Y-76683744D01*
X95853423Y-76476765D02*
X95912019Y-76535361D01*
X95783257Y-76432677D02*
X95853423Y-76476765D01*
X95705040Y-76405308D02*
X95783257Y-76432677D01*
X100505040Y-76405308D02*
X100583257Y-76432677D01*
X97446116Y-78498774D02*
X97489920Y-78483447D01*
X95622694Y-76396029D02*
X95705040Y-76405308D01*
X95577305Y-76396029D02*
X95622694Y-76396029D01*
X98356107Y-76605527D02*
X98383476Y-76683744D01*
X95243892Y-76605527D02*
X95287980Y-76535361D01*
X96983257Y-76432677D02*
X97053423Y-76476765D01*
X95207245Y-78296726D02*
X95207245Y-76766090D01*
X100910079Y-77429477D02*
X100953883Y-77444804D01*
X98689920Y-78483447D02*
X98729215Y-78458756D01*
X95202048Y-78342842D02*
X95207245Y-78296726D01*
X100870784Y-77404786D02*
X100910079Y-77429477D01*
X95186721Y-78386646D02*
X95202048Y-78342842D01*
X100837969Y-77371971D02*
X100870784Y-77404786D01*
X95162030Y-78425941D02*
X95186721Y-78386646D01*
X99846116Y-78498774D02*
X99889920Y-78483447D01*
X95046116Y-78498774D02*
X95089920Y-78483447D01*
X95000000Y-78503971D02*
X95046116Y-78498774D01*
X94910079Y-78483447D02*
X94953883Y-78498774D01*
X94870784Y-78458756D02*
X94910079Y-78483447D01*
X94797951Y-78342842D02*
X94813278Y-78386646D01*
X100813278Y-77332676D02*
X100837969Y-77371971D01*
X100087980Y-76535361D02*
X100146576Y-76476765D01*
X97353883Y-78498774D02*
X97400000Y-78503971D01*
X95129215Y-78458756D02*
X95162030Y-78425941D01*
X99670784Y-78458756D02*
X99710079Y-78483447D01*
X107000000Y-74350000D02*
X107118002Y-74231998D01*
X98762030Y-78425941D02*
X98786721Y-78386646D01*
X90004900Y-76006548D02*
X90493452Y-76495100D01*
X98600000Y-78503971D02*
X98646116Y-78498774D01*
X98553883Y-78498774D02*
X98600000Y-78503971D01*
X97197951Y-78342842D02*
X97213278Y-78386646D01*
X98312019Y-76535361D02*
X98356107Y-76605527D01*
X95216523Y-76683744D02*
X95243892Y-76605527D01*
X97192755Y-78296726D02*
X97197951Y-78342842D01*
X98183257Y-76432677D02*
X98253423Y-76476765D01*
X97607245Y-78296726D02*
X97607245Y-76766090D01*
X95207245Y-76766090D02*
X95216523Y-76683744D01*
X99753883Y-78498774D02*
X99800000Y-78503971D01*
X94813278Y-78386646D02*
X94837969Y-78425941D01*
X100583257Y-76432677D02*
X100653423Y-76476765D01*
X94837969Y-78425941D02*
X94870784Y-78458756D01*
X100792755Y-77242755D02*
X100797951Y-77288872D01*
X97687980Y-76535361D02*
X97746576Y-76476765D01*
X96110079Y-78483447D02*
X96153883Y-78498774D01*
X99710079Y-78483447D02*
X99753883Y-78498774D01*
X94953883Y-78498774D02*
X95000000Y-78503971D01*
X98816523Y-76683744D02*
X98843892Y-76605527D01*
X98887980Y-76535361D02*
X98946576Y-76476765D01*
X97183476Y-76683744D02*
X97192755Y-76766090D01*
X94783476Y-77737714D02*
X94792755Y-77820060D01*
X98392755Y-78296726D02*
X98397951Y-78342842D01*
X98646116Y-78498774D02*
X98689920Y-78483447D01*
X95089920Y-78483447D02*
X95129215Y-78458756D01*
X98413278Y-78386646D02*
X98437969Y-78425941D01*
X99512019Y-76535361D02*
X99556107Y-76605527D01*
X94583257Y-77486647D02*
X94653423Y-77530735D01*
X96822694Y-76396029D02*
X96905040Y-76405308D01*
X100422694Y-76396029D02*
X100505040Y-76405308D01*
X95912019Y-76535361D02*
X95956107Y-76605527D01*
X98470784Y-78458756D02*
X98510079Y-78483447D01*
X107000000Y-74645100D02*
X107000000Y-74350000D01*
X100007245Y-76766090D02*
X100016523Y-76683744D01*
X94422694Y-77450000D02*
X94505040Y-77459278D01*
X98392755Y-76766090D02*
X98392755Y-78296726D01*
X99800000Y-78503971D02*
X99846116Y-78498774D01*
X99597951Y-78342842D02*
X99613278Y-78386646D01*
X97616523Y-76683744D02*
X97643892Y-76605527D01*
X99016742Y-76432677D02*
X99094959Y-76405308D01*
X96153883Y-78498774D02*
X96200000Y-78503971D01*
X96200000Y-78503971D02*
X96246116Y-78498774D01*
X95287980Y-76535361D02*
X95346576Y-76476765D01*
X92495100Y-76495100D02*
X93450000Y-77450000D01*
X96777305Y-76396029D02*
X96822694Y-76396029D01*
X95494959Y-76405308D02*
X95577305Y-76396029D01*
X100002048Y-78342842D02*
X100007245Y-78296726D01*
X96905040Y-76405308D02*
X96983257Y-76432677D01*
X96362030Y-78425941D02*
X96386721Y-78386646D01*
X97529215Y-78458756D02*
X97562030Y-78425941D01*
X97562030Y-78425941D02*
X97586721Y-78386646D01*
X97894959Y-76405308D02*
X97977305Y-76396029D01*
X95346576Y-76476765D02*
X95416742Y-76432677D01*
X95416742Y-76432677D02*
X95494959Y-76405308D01*
X91211001Y-74179900D02*
X90268452Y-74179900D01*
X98843892Y-76605527D02*
X98887980Y-76535361D01*
X98397951Y-78342842D02*
X98413278Y-78386646D01*
X90268452Y-74179900D02*
X90004900Y-74443452D01*
X98437969Y-78425941D02*
X98470784Y-78458756D01*
X99637969Y-78425941D02*
X99670784Y-78458756D01*
X106106548Y-74645100D02*
X107000000Y-74645100D01*
X96246116Y-78498774D02*
X96289920Y-78483447D01*
X96289920Y-78483447D02*
X96329215Y-78458756D01*
X96329215Y-78458756D02*
X96362030Y-78425941D01*
X94505040Y-77459278D02*
X94583257Y-77486647D01*
X98729215Y-78458756D02*
X98762030Y-78425941D01*
X100294959Y-76405308D02*
X100377305Y-76396029D01*
X100016523Y-76683744D02*
X100043892Y-76605527D01*
X99986721Y-78386646D02*
X100002048Y-78342842D01*
X97237969Y-78425941D02*
X97270784Y-78458756D01*
X99383257Y-76432677D02*
X99453423Y-76476765D01*
X96694959Y-76405308D02*
X96777305Y-76396029D01*
X96070784Y-78458756D02*
X96110079Y-78483447D01*
X91211001Y-75336001D02*
X91211001Y-74179900D01*
X100797951Y-77288872D02*
X100813278Y-77332676D01*
X90004900Y-74443452D02*
X90004900Y-76006548D01*
X97746576Y-76476765D02*
X97816742Y-76432677D01*
X90493452Y-76495100D02*
X92495100Y-76495100D01*
X93450000Y-77450000D02*
X94422694Y-77450000D01*
X94653423Y-77530735D02*
X94712019Y-77589331D01*
X100953883Y-77444804D02*
X101000000Y-77450000D01*
X94792755Y-77820060D02*
X94792755Y-78296726D01*
X94712019Y-77589331D02*
X94756107Y-77659497D01*
X101000000Y-77450000D02*
X103301648Y-77450000D01*
X94792755Y-78296726D02*
X94797951Y-78342842D01*
X94756107Y-77659497D02*
X94783476Y-77737714D01*
%TO.N,/TMDS_G+*%
X107556300Y-76731998D02*
X108585000Y-76731998D01*
X95787438Y-82951467D02*
X95804138Y-82903741D01*
X95583999Y-83079297D02*
X95634244Y-83073635D01*
X94926542Y-81723068D02*
X94957435Y-81753961D01*
X95000000Y-81875603D02*
X95000000Y-82853496D01*
X93218992Y-83073635D02*
X93266718Y-83056935D01*
X95804138Y-82903741D02*
X95809800Y-82853496D01*
X95005661Y-82903741D02*
X95022361Y-82951467D01*
X96209565Y-82408289D02*
X96237780Y-82488925D01*
X94995108Y-81832190D02*
X95000000Y-81875603D01*
X94957435Y-81753961D02*
X94980679Y-81790953D01*
X94889550Y-81699824D02*
X94926542Y-81723068D01*
X95809800Y-81875603D02*
X95814691Y-81832190D01*
X95127829Y-83056935D02*
X95175555Y-83073635D01*
X94848313Y-81685395D02*
X94889550Y-81699824D01*
X94683257Y-81723068D02*
X94720249Y-81699824D01*
X95000000Y-82853496D02*
X95005661Y-82903741D01*
X96200000Y-81875603D02*
X96200000Y-82323397D01*
X94804900Y-81680503D02*
X94848313Y-81685395D01*
X93520249Y-81699824D02*
X93561486Y-81685395D01*
X100243452Y-82704900D02*
X106611453Y-76336899D01*
X94761486Y-81685395D02*
X94804900Y-81680503D01*
X94629120Y-81790953D02*
X94652364Y-81753961D01*
X95022361Y-82951467D02*
X95049262Y-82994280D01*
X93345285Y-82994280D02*
X93372186Y-82951467D01*
X94609800Y-82853496D02*
X94609800Y-81875603D01*
X93648313Y-81685395D02*
X93689550Y-81699824D01*
X94604138Y-82903741D02*
X94609800Y-82853496D01*
X94481970Y-83056935D02*
X94524783Y-83030034D01*
X86295100Y-74656548D02*
X86295100Y-81843452D01*
X94025800Y-83079297D02*
X94383999Y-83079297D01*
X93975555Y-83073635D02*
X94025800Y-83079297D01*
X93849262Y-82994280D02*
X93885016Y-83030034D01*
X93822361Y-82951467D02*
X93849262Y-82994280D01*
X92554900Y-82704900D02*
X92561541Y-82705648D01*
X93429120Y-81790953D02*
X93452364Y-81753961D01*
X93452364Y-81753961D02*
X93483257Y-81723068D01*
X93805661Y-82903741D02*
X93822361Y-82951467D01*
X95085016Y-83030034D02*
X95127829Y-83056935D01*
X94614691Y-81832190D02*
X94629120Y-81790953D01*
X93372186Y-82951467D02*
X93388886Y-82903741D01*
X93757435Y-81753961D02*
X93780679Y-81790953D01*
X94587438Y-82951467D02*
X94604138Y-82903741D01*
X92712577Y-83056935D02*
X92760303Y-83073635D01*
X92810548Y-83079297D02*
X93168747Y-83079297D01*
X93483257Y-81723068D02*
X93520249Y-81699824D01*
X93168747Y-83079297D02*
X93218992Y-83073635D01*
X96200000Y-82323397D02*
X96209565Y-82408289D01*
X92573509Y-82711411D02*
X92578236Y-82716138D01*
X107016448Y-76616448D02*
X107131998Y-76731998D01*
X86295100Y-81843452D02*
X87156548Y-82704900D01*
X92760303Y-83073635D02*
X92810548Y-83079297D01*
X88671001Y-72796001D02*
X88671001Y-73950000D01*
X92584748Y-82853496D02*
X92590409Y-82903741D01*
X92567850Y-82707855D02*
X92573509Y-82711411D01*
X92583999Y-82728106D02*
X92584748Y-82734748D01*
X88671001Y-73950000D02*
X87001648Y-73950000D01*
X95829120Y-81790953D02*
X95852364Y-81753961D01*
X95814691Y-81832190D02*
X95829120Y-81790953D01*
X107016448Y-76336899D02*
X107016448Y-76616448D01*
X93689550Y-81699824D02*
X93726542Y-81723068D01*
X87156548Y-82704900D02*
X92554900Y-82704900D01*
X92590409Y-82903741D02*
X92607109Y-82951467D01*
X92581792Y-82721797D02*
X92583999Y-82728106D01*
X95225800Y-83079297D02*
X95583999Y-83079297D01*
X92561541Y-82705648D02*
X92567850Y-82707855D01*
X94980679Y-81790953D02*
X94995108Y-81832190D01*
X92669764Y-83030034D02*
X92712577Y-83056935D01*
X93800000Y-82853496D02*
X93805661Y-82903741D01*
X93795108Y-81832190D02*
X93800000Y-81875603D01*
X87001648Y-73950000D02*
X86295100Y-74656548D01*
X93604900Y-81680503D02*
X93648313Y-81685395D01*
X93309531Y-83030034D02*
X93345285Y-82994280D01*
X95049262Y-82994280D02*
X95085016Y-83030034D01*
X94434244Y-83073635D02*
X94481970Y-83056935D01*
X92607109Y-82951467D02*
X92634010Y-82994280D01*
X94524783Y-83030034D02*
X94560537Y-82994280D01*
X93388886Y-82903741D02*
X93394548Y-82853496D01*
X95634244Y-83073635D02*
X95681970Y-83056935D01*
X93394548Y-82853496D02*
X93394548Y-82600000D01*
X94609800Y-81875603D02*
X94614691Y-81832190D01*
X93885016Y-83030034D02*
X93927829Y-83056935D01*
X93394548Y-82600000D02*
X93409800Y-82600000D01*
X93409800Y-81875603D02*
X93414691Y-81832190D01*
X94652364Y-81753961D02*
X94683257Y-81723068D01*
X93414691Y-81832190D02*
X93429120Y-81790953D01*
X93409800Y-82600000D02*
X93409800Y-81875603D01*
X95724783Y-83030034D02*
X95760537Y-82994280D01*
X93266718Y-83056935D02*
X93309531Y-83030034D01*
X93561486Y-81685395D02*
X93604900Y-81680503D01*
X93726542Y-81723068D02*
X93757435Y-81753961D01*
X95852364Y-81753961D02*
X95883257Y-81723068D01*
X93780679Y-81790953D02*
X93795108Y-81832190D01*
X95809800Y-82853496D02*
X95809800Y-81875603D01*
X94720249Y-81699824D02*
X94761486Y-81685395D01*
X92634010Y-82994280D02*
X92669764Y-83030034D01*
X95175555Y-83073635D02*
X95225800Y-83079297D01*
X93800000Y-81875603D02*
X93800000Y-82853496D01*
X95920249Y-81699824D02*
X95961486Y-81685395D01*
X95961486Y-81685395D02*
X96004900Y-81680503D01*
X96004900Y-81680503D02*
X96048313Y-81685395D01*
X96048313Y-81685395D02*
X96089550Y-81699824D01*
X92584748Y-82734748D02*
X92584748Y-82853496D01*
X96089550Y-81699824D02*
X96126542Y-81723068D01*
X96126542Y-81723068D02*
X96157435Y-81753961D01*
X96496611Y-82695335D02*
X96581503Y-82704900D01*
X96180679Y-81790953D02*
X96195108Y-81832190D01*
X96195108Y-81832190D02*
X96200000Y-81875603D01*
X96237780Y-82488925D02*
X96283232Y-82561261D01*
X96283232Y-82561261D02*
X96343639Y-82621668D01*
X95760537Y-82994280D02*
X95787438Y-82951467D01*
X96343639Y-82621668D02*
X96415975Y-82667120D01*
X96415975Y-82667120D02*
X96496611Y-82695335D01*
X106611453Y-76336899D02*
X107016448Y-76336899D01*
X93927829Y-83056935D02*
X93975555Y-83073635D01*
X107131998Y-76731998D02*
X108585000Y-76731998D01*
X96581503Y-82704900D02*
X100243452Y-82704900D01*
X96157435Y-81753961D02*
X96180679Y-81790953D01*
X94560537Y-82994280D02*
X94587438Y-82951467D01*
X95883257Y-81723068D02*
X95920249Y-81699824D01*
X92578236Y-82716138D02*
X92581792Y-82721797D01*
X95681970Y-83056935D02*
X95724783Y-83030034D01*
X94383999Y-83079297D02*
X94434244Y-83073635D01*
%TO.N,/TMDS_G-*%
X107556300Y-75732000D02*
X108585000Y-75732000D01*
X107016448Y-76127099D02*
X107016448Y-75833552D01*
X96561486Y-82490209D02*
X96604900Y-82495100D01*
X96414691Y-82343414D02*
X96429120Y-82384651D01*
X96409800Y-82300000D02*
X96414691Y-82343414D01*
X96409800Y-81852207D02*
X96409800Y-82300000D01*
X96326567Y-81614343D02*
X96372019Y-81686679D01*
X96266160Y-81553936D02*
X96326567Y-81614343D01*
X96113188Y-81480269D02*
X96193824Y-81508484D01*
X95896611Y-81480269D02*
X95981503Y-81470703D01*
X95815975Y-81508484D02*
X95896611Y-81480269D01*
X95637780Y-81686679D02*
X95683232Y-81614343D01*
X96429120Y-82384651D02*
X96452364Y-82421643D01*
X95609565Y-81767315D02*
X95637780Y-81686679D01*
X95600000Y-81852207D02*
X95609565Y-81767315D01*
X95600000Y-82839649D02*
X95600000Y-81852207D01*
X95599251Y-82846290D02*
X95600000Y-82839649D01*
X95597044Y-82852599D02*
X95599251Y-82846290D01*
X95588761Y-82862985D02*
X95593488Y-82858258D01*
X95221038Y-82862985D02*
X95226697Y-82866541D01*
X95212755Y-82852599D02*
X95216311Y-82858258D01*
X95209800Y-82839649D02*
X95210548Y-82846290D01*
X95209800Y-81852207D02*
X95209800Y-82839649D01*
X95200234Y-81767315D02*
X95209800Y-81852207D01*
X95172019Y-81686679D02*
X95200234Y-81767315D01*
X95576793Y-82868748D02*
X95583102Y-82866541D01*
X93972019Y-81686679D02*
X94000234Y-81767315D01*
X96193824Y-81508484D02*
X96266160Y-81553936D01*
X95683232Y-81614343D02*
X95743639Y-81553936D01*
X95226697Y-82866541D02*
X95233006Y-82868748D01*
X94615975Y-81508484D02*
X94696611Y-81480269D01*
X92805786Y-82862985D02*
X92811445Y-82866541D01*
X92794548Y-82720900D02*
X92794548Y-82839649D01*
X94010548Y-82846290D02*
X94012755Y-82852599D01*
X96520249Y-82475780D02*
X96561486Y-82490209D01*
X93173509Y-82862985D02*
X93178236Y-82858258D01*
X86504900Y-81756548D02*
X87243452Y-82495100D01*
X92795296Y-82846290D02*
X92797503Y-82852599D01*
X93496611Y-81480269D02*
X93581503Y-81470703D01*
X94021038Y-82862985D02*
X94026697Y-82866541D01*
X93200000Y-82600000D02*
X93200000Y-81852207D01*
X93167850Y-82866541D02*
X93173509Y-82862985D01*
X100156548Y-82495100D02*
X106524549Y-76127099D01*
X95593488Y-82858258D02*
X95597044Y-82852599D01*
X92794548Y-82839649D02*
X92795296Y-82846290D01*
X93628296Y-81470703D02*
X93713188Y-81480269D01*
X96604900Y-82495100D02*
X100156548Y-82495100D01*
X95239648Y-82869497D02*
X95570152Y-82869497D01*
X93866160Y-81553936D02*
X93926567Y-81614343D01*
X94781503Y-81470703D02*
X94828296Y-81470703D01*
X93713188Y-81480269D02*
X93793824Y-81508484D01*
X95210548Y-82846290D02*
X95212755Y-82852599D01*
X93178236Y-82858258D02*
X93181792Y-82852599D01*
X95570152Y-82869497D02*
X95576793Y-82868748D01*
X93926567Y-81614343D02*
X93972019Y-81686679D01*
X92666718Y-82517461D02*
X92709531Y-82544362D01*
X92801059Y-82858258D02*
X92805786Y-82862985D01*
X96372019Y-81686679D02*
X96400234Y-81767315D01*
X94399251Y-82846290D02*
X94400000Y-82839649D01*
X96400234Y-81767315D02*
X96409800Y-81852207D01*
X93154900Y-82869497D02*
X93161541Y-82868748D01*
X94009800Y-82839649D02*
X94010548Y-82846290D01*
X95216311Y-82858258D02*
X95221038Y-82862985D01*
X107016448Y-75833552D02*
X107118000Y-75732000D01*
X87243452Y-82495100D02*
X92568747Y-82495100D01*
X94016311Y-82858258D02*
X94021038Y-82862985D01*
X93183999Y-82846290D02*
X93184748Y-82839649D01*
X93237780Y-81686679D02*
X93283232Y-81614343D01*
X93283232Y-81614343D02*
X93343639Y-81553936D01*
X94383102Y-82866541D02*
X94388761Y-82862985D01*
X95233006Y-82868748D02*
X95239648Y-82869497D01*
X94012755Y-82852599D02*
X94016311Y-82858258D01*
X107118000Y-75732000D02*
X108585000Y-75732000D01*
X94400000Y-82839649D02*
X94400000Y-81852207D01*
X93184748Y-82600000D02*
X93200000Y-82600000D01*
X88671001Y-75336001D02*
X88671001Y-74171001D01*
X88671001Y-74171001D02*
X87077351Y-74171001D01*
X87077351Y-74171001D02*
X86504900Y-74743452D01*
X94696611Y-81480269D02*
X94781503Y-81470703D01*
X86504900Y-74743452D02*
X86504900Y-81756548D01*
X92618992Y-82500761D02*
X92666718Y-82517461D01*
X92709531Y-82544362D02*
X92745285Y-82580116D01*
X93181792Y-82852599D02*
X93183999Y-82846290D01*
X92797503Y-82852599D02*
X92801059Y-82858258D01*
X92811445Y-82866541D02*
X92817754Y-82868748D01*
X95743639Y-81553936D02*
X95815975Y-81508484D01*
X92817754Y-82868748D02*
X92824396Y-82869497D01*
X94409565Y-81767315D02*
X94437780Y-81686679D01*
X92824396Y-82869497D02*
X93154900Y-82869497D01*
X92788886Y-82670655D02*
X92794548Y-82720900D01*
X93161541Y-82868748D02*
X93167850Y-82866541D01*
X93184748Y-82839649D02*
X93184748Y-82600000D01*
X95981503Y-81470703D02*
X96028296Y-81470703D01*
X93200000Y-81852207D02*
X93209565Y-81767315D01*
X96028296Y-81470703D02*
X96113188Y-81480269D01*
X93209565Y-81767315D02*
X93237780Y-81686679D01*
X93343639Y-81553936D02*
X93415975Y-81508484D01*
X92568747Y-82495100D02*
X92618992Y-82500761D01*
X93415975Y-81508484D02*
X93496611Y-81480269D01*
X93581503Y-81470703D02*
X93628296Y-81470703D01*
X106524549Y-76127099D02*
X107016448Y-76127099D01*
X95583102Y-82866541D02*
X95588761Y-82862985D01*
X93793824Y-81508484D02*
X93866160Y-81553936D01*
X94000234Y-81767315D02*
X94009800Y-81852207D01*
X94009800Y-81852207D02*
X94009800Y-82839649D01*
X94026697Y-82866541D02*
X94033006Y-82868748D01*
X94033006Y-82868748D02*
X94039648Y-82869497D01*
X94039648Y-82869497D02*
X94370152Y-82869497D01*
X94370152Y-82869497D02*
X94376793Y-82868748D01*
X94400000Y-81852207D02*
X94409565Y-81767315D01*
X94376793Y-82868748D02*
X94383102Y-82866541D01*
X94388761Y-82862985D02*
X94393488Y-82858258D01*
X96452364Y-82421643D02*
X96483257Y-82452536D01*
X94393488Y-82858258D02*
X94397044Y-82852599D01*
X94913188Y-81480269D02*
X94993824Y-81508484D01*
X96483257Y-82452536D02*
X96520249Y-82475780D01*
X94397044Y-82852599D02*
X94399251Y-82846290D01*
X94437780Y-81686679D02*
X94483232Y-81614343D01*
X94483232Y-81614343D02*
X94543639Y-81553936D01*
X94543639Y-81553936D02*
X94615975Y-81508484D01*
X94828296Y-81470703D02*
X94913188Y-81480269D01*
X94993824Y-81508484D02*
X95066160Y-81553936D01*
X92745285Y-82580116D02*
X92772186Y-82622929D01*
X95066160Y-81553936D02*
X95126567Y-81614343D01*
X92772186Y-82622929D02*
X92788886Y-82670655D01*
X95126567Y-81614343D02*
X95172019Y-81686679D01*
%TO.N,/TMDS_B+*%
X107556300Y-78232000D02*
X108585000Y-78232000D01*
X107016449Y-78116449D02*
X107016449Y-77836899D01*
X107016449Y-77836899D02*
X106861453Y-77836899D01*
X108585000Y-78232000D02*
X107132000Y-78232000D01*
X107132000Y-78232000D02*
X107016449Y-78116449D01*
X106861453Y-77836899D02*
X101143452Y-83554900D01*
X101143452Y-83554900D02*
X86756548Y-83554900D01*
X86022649Y-68878999D02*
X88671001Y-68878999D01*
X85545100Y-82343452D02*
X85545100Y-69356548D01*
X85545100Y-69356548D02*
X86022649Y-68878999D01*
X86756548Y-83554900D02*
X85545100Y-82343452D01*
X88671001Y-68878999D02*
X88671001Y-67716001D01*
%TO.N,/TMDS_B-*%
X107556300Y-77231999D02*
X108585000Y-77231999D01*
X86098352Y-69100000D02*
X88671001Y-69100000D01*
X85754900Y-82256548D02*
X85754900Y-69443452D01*
X85754900Y-69443452D02*
X86098352Y-69100000D01*
X101056548Y-83345100D02*
X86843452Y-83345100D01*
X106774548Y-77627100D02*
X101056548Y-83345100D01*
X107016446Y-77333554D02*
X107016446Y-77627100D01*
X108585000Y-77231999D02*
X107118001Y-77231999D01*
X88671001Y-69100000D02*
X88671001Y-70256001D01*
X107016446Y-77627100D02*
X106774548Y-77627100D01*
X86843452Y-83345100D02*
X85754900Y-82256548D01*
X107118001Y-77231999D02*
X107016446Y-77333554D01*
%TO.N,/TMDS_CLK+*%
X107556300Y-73731999D02*
X108585000Y-73731999D01*
X95223851Y-72959800D02*
X95267265Y-72964691D01*
X93767860Y-72950234D02*
X93852752Y-72959800D01*
X93614888Y-72876567D02*
X93687224Y-72922019D01*
X93687224Y-72922019D02*
X93767860Y-72950234D01*
X93509029Y-72365975D02*
X93480814Y-72446611D01*
X95308502Y-72979120D02*
X95345494Y-73002364D01*
X95345494Y-72107435D02*
X95308502Y-72130679D01*
X95399631Y-72039550D02*
X95376387Y-72076542D01*
X95418951Y-71954900D02*
X95414060Y-71998313D01*
X95414060Y-70711486D02*
X95418951Y-70754900D01*
X95399631Y-71870249D02*
X95414060Y-71911486D01*
X101693452Y-76054900D02*
X104411454Y-73336898D01*
X93554481Y-70416160D02*
X93614888Y-70476567D01*
X90004900Y-66543452D02*
X90293452Y-66254900D01*
X93852752Y-71759800D02*
X95223851Y-71759800D01*
X93471249Y-72578296D02*
X93480814Y-72663188D01*
X95418951Y-70754900D02*
X95414060Y-70798313D01*
X93509029Y-71165975D02*
X93480814Y-71246611D01*
X93614888Y-71033232D02*
X93554481Y-71093639D01*
X94425779Y-69639550D02*
X94402535Y-69676542D01*
X93852752Y-70950000D02*
X93767860Y-70959565D01*
X95376387Y-72076542D02*
X95345494Y-72107435D01*
X90293452Y-66254900D02*
X93256548Y-66254900D01*
X93687224Y-69787780D02*
X93614888Y-69833232D01*
X93767860Y-69759565D02*
X93687224Y-69787780D01*
X93480814Y-71246611D02*
X93471249Y-71331503D01*
X95345494Y-70907435D02*
X95308502Y-70930679D01*
X95223851Y-72150000D02*
X93852752Y-72150000D01*
X94445100Y-67443452D02*
X94445100Y-69554900D01*
X93554481Y-71093639D02*
X93509029Y-71165975D01*
X95399631Y-70839550D02*
X95376387Y-70876542D01*
X107050000Y-73336898D02*
X107050000Y-73600000D01*
X94293413Y-69745108D02*
X94250000Y-69750000D01*
X93554481Y-71616160D02*
X93614888Y-71676567D01*
X93614888Y-69833232D02*
X93554481Y-69893639D01*
X95376387Y-70876542D02*
X95345494Y-70907435D01*
X94334650Y-69730679D02*
X94293413Y-69745108D01*
X95223851Y-73350000D02*
X94826604Y-73350000D01*
X93852752Y-72959800D02*
X95223851Y-72959800D01*
X93480814Y-72446611D02*
X93471249Y-72531503D01*
X95267265Y-72145108D02*
X95223851Y-72150000D01*
X93687224Y-70987780D02*
X93614888Y-71033232D01*
X104411454Y-73336898D02*
X107050000Y-73336898D01*
X93256548Y-66254900D02*
X94445100Y-67443452D01*
X93554481Y-72816160D02*
X93614888Y-72876567D01*
X93480814Y-71463188D02*
X93509029Y-71543824D01*
X93480814Y-72663188D02*
X93509029Y-72743824D01*
X90004900Y-68556548D02*
X90004900Y-66543452D01*
X94741712Y-73359565D02*
X94661076Y-73387780D01*
X93509029Y-69965975D02*
X93480814Y-70046611D01*
X95308502Y-70930679D02*
X95267265Y-70945108D01*
X90329453Y-68881101D02*
X90004900Y-68556548D01*
X93509029Y-71543824D02*
X93554481Y-71616160D01*
X93767860Y-70959565D02*
X93687224Y-70987780D01*
X91211001Y-68881101D02*
X90329453Y-68881101D01*
X93471249Y-70131503D02*
X93471249Y-70178296D01*
X95414060Y-71998313D02*
X95399631Y-72039550D01*
X95223851Y-70559800D02*
X95267265Y-70564691D01*
X94250000Y-69750000D02*
X93852752Y-69750000D01*
X93509029Y-72743824D02*
X93554481Y-72816160D01*
X93471249Y-72531503D02*
X93471249Y-72578296D01*
X93554481Y-72293639D02*
X93509029Y-72365975D01*
X93614888Y-72233232D02*
X93554481Y-72293639D01*
X93509029Y-70343824D02*
X93554481Y-70416160D01*
X95418951Y-73154900D02*
X95414060Y-73198313D01*
X95223851Y-70950000D02*
X93852752Y-70950000D01*
X93554481Y-69893639D02*
X93509029Y-69965975D01*
X93687224Y-70522019D02*
X93767860Y-70550234D01*
X95376387Y-71833257D02*
X95399631Y-71870249D01*
X93767860Y-72159565D02*
X93687224Y-72187780D01*
X93767860Y-70550234D02*
X93852752Y-70559800D01*
X95223851Y-71759800D02*
X95267265Y-71764691D01*
X93852752Y-72150000D02*
X93767860Y-72159565D01*
X93687224Y-71722019D02*
X93767860Y-71750234D01*
X95308502Y-70579120D02*
X95345494Y-70602364D01*
X93852752Y-70559800D02*
X95223851Y-70559800D01*
X94371642Y-69707435D02*
X94334650Y-69730679D01*
X93480814Y-70263188D02*
X93509029Y-70343824D01*
X95267265Y-70564691D02*
X95308502Y-70579120D01*
X95376387Y-70633257D02*
X95399631Y-70670249D01*
X93687224Y-72187780D02*
X93614888Y-72233232D01*
X95399631Y-70670249D02*
X95414060Y-70711486D01*
X94440208Y-69598313D02*
X94425779Y-69639550D01*
X93471249Y-71378296D02*
X93480814Y-71463188D01*
X95267265Y-72964691D02*
X95308502Y-72979120D01*
X91211001Y-67716001D02*
X91211001Y-68881101D01*
X95345494Y-70602364D02*
X95376387Y-70633257D01*
X93471249Y-70178296D02*
X93480814Y-70263188D01*
X95399631Y-73070249D02*
X95414060Y-73111486D01*
X95267265Y-73345108D02*
X95223851Y-73350000D01*
X95376387Y-73033257D02*
X95399631Y-73070249D01*
X94482881Y-73565975D02*
X94454666Y-73646611D01*
X95414060Y-73198313D02*
X95399631Y-73239550D01*
X93614888Y-70476567D02*
X93687224Y-70522019D01*
X95399631Y-73239550D02*
X95376387Y-73276542D01*
X93471249Y-71331503D02*
X93471249Y-71378296D01*
X95376387Y-73276542D02*
X95345494Y-73307435D01*
X93614888Y-71676567D02*
X93687224Y-71722019D01*
X95345494Y-73307435D02*
X95308502Y-73330679D01*
X95345494Y-71802364D02*
X95376387Y-71833257D01*
X95308502Y-73330679D02*
X95267265Y-73345108D01*
X94826604Y-73350000D02*
X94741712Y-73359565D01*
X94661076Y-73387780D02*
X94588740Y-73433232D01*
X94588740Y-73433232D02*
X94528333Y-73493639D01*
X94528333Y-73493639D02*
X94482881Y-73565975D01*
X94445100Y-73731503D02*
X94445100Y-74843452D01*
X94445100Y-74843452D02*
X95656548Y-76054900D01*
X95414060Y-71911486D02*
X95418951Y-71954900D01*
X95656548Y-76054900D02*
X101693452Y-76054900D01*
X107050000Y-73600000D02*
X107181999Y-73731999D01*
X107181999Y-73731999D02*
X108585000Y-73731999D01*
X93767860Y-71750234D02*
X93852752Y-71759800D01*
X94445100Y-69554900D02*
X94440208Y-69598313D01*
X95414060Y-73111486D02*
X95418951Y-73154900D01*
X95308502Y-72130679D02*
X95267265Y-72145108D01*
X95267265Y-71764691D02*
X95308502Y-71779120D01*
X93480814Y-70046611D02*
X93471249Y-70131503D01*
X95267265Y-70945108D02*
X95223851Y-70950000D01*
X94402535Y-69676542D02*
X94371642Y-69707435D01*
X95414060Y-70798313D02*
X95399631Y-70839550D01*
X95308502Y-71779120D02*
X95345494Y-71802364D01*
X93852752Y-69750000D02*
X93767860Y-69759565D01*
X95345494Y-73002364D02*
X95376387Y-73033257D01*
X94454666Y-73646611D02*
X94445100Y-73731503D01*
%TO.N,/TMDS_CLK-*%
X107556300Y-72731998D02*
X108585000Y-72731998D01*
X107050000Y-72850000D02*
X107168002Y-72731998D01*
X107050000Y-73127099D02*
X107050000Y-72850000D01*
X104324549Y-73127099D02*
X107050000Y-73127099D01*
X94659792Y-73711486D02*
X94654900Y-73754900D01*
X94728358Y-73602364D02*
X94697465Y-73633257D01*
X94850000Y-73559800D02*
X94806587Y-73564691D01*
X95247248Y-73559800D02*
X94850000Y-73559800D01*
X95332140Y-73550234D02*
X95247248Y-73559800D01*
X95485112Y-73476567D02*
X95412776Y-73522019D01*
X95590971Y-73343824D02*
X95545519Y-73416160D01*
X95619186Y-73263188D02*
X95590971Y-73343824D01*
X95628751Y-73178296D02*
X95619186Y-73263188D01*
X94806587Y-73564691D02*
X94765350Y-73579120D01*
X95590971Y-72965975D02*
X95619186Y-73046611D01*
X95485112Y-72833232D02*
X95545519Y-72893639D01*
X95412776Y-72787780D02*
X95485112Y-72833232D01*
X93832735Y-72745108D02*
X93876149Y-72750000D01*
X93791498Y-72730679D02*
X93832735Y-72745108D01*
X93754506Y-72707435D02*
X93791498Y-72730679D01*
X93723613Y-72676542D02*
X93754506Y-72707435D01*
X93681049Y-72554900D02*
X93685940Y-72598313D01*
X93685940Y-72511486D02*
X93681049Y-72554900D01*
X93700369Y-72470249D02*
X93685940Y-72511486D01*
X93723613Y-72433257D02*
X93700369Y-72470249D01*
X93754506Y-72402364D02*
X93723613Y-72433257D01*
X93791498Y-72379120D02*
X93754506Y-72402364D01*
X93832735Y-72364691D02*
X93791498Y-72379120D01*
X93876149Y-72359800D02*
X93832735Y-72364691D01*
X95332140Y-72350234D02*
X95247248Y-72359800D01*
X95412776Y-72322019D02*
X95332140Y-72350234D01*
X93723613Y-70033257D02*
X93700369Y-70070249D01*
X89795100Y-66456548D02*
X90206548Y-66045100D01*
X93685940Y-71398313D02*
X93700369Y-71439550D01*
X93754506Y-71202364D02*
X93723613Y-71233257D01*
X95412776Y-71587780D02*
X95485112Y-71633232D01*
X95619186Y-73046611D02*
X95628751Y-73131503D01*
X89795100Y-68643452D02*
X89795100Y-66456548D01*
X94674221Y-73670249D02*
X94659792Y-73711486D01*
X95545519Y-72216160D02*
X95485112Y-72276567D01*
X95485112Y-71076567D02*
X95412776Y-71122019D01*
X93876149Y-72750000D02*
X95247248Y-72750000D01*
X94617119Y-69743824D02*
X94571667Y-69816160D01*
X93685940Y-72598313D02*
X93700369Y-72639550D01*
X95628751Y-70731503D02*
X95628751Y-70778296D01*
X95590971Y-71765975D02*
X95619186Y-71846611D01*
X94765350Y-73579120D02*
X94728358Y-73602364D01*
X94511260Y-69876567D02*
X94438924Y-69922019D01*
X93723613Y-71476542D02*
X93754506Y-71507435D01*
X95590971Y-70565975D02*
X95619186Y-70646611D01*
X95743452Y-75845100D02*
X101606548Y-75845100D01*
X91211001Y-70256001D02*
X91211001Y-69090901D01*
X101606548Y-75845100D02*
X104324549Y-73127099D01*
X93876149Y-70350000D02*
X95247248Y-70350000D01*
X95485112Y-72276567D02*
X95412776Y-72322019D01*
X95628751Y-73131503D02*
X95628751Y-73178296D01*
X93876149Y-71550000D02*
X95247248Y-71550000D01*
X95590971Y-72143824D02*
X95545519Y-72216160D01*
X93685940Y-71311486D02*
X93681049Y-71354900D01*
X93723613Y-71233257D02*
X93700369Y-71270249D01*
X93723613Y-70276542D02*
X93754506Y-70307435D01*
X95332140Y-72759565D02*
X95412776Y-72787780D01*
X93876149Y-69959800D02*
X93832735Y-69964691D01*
X94654900Y-73754900D02*
X94654900Y-74756548D01*
X95247248Y-71550000D02*
X95332140Y-71559565D01*
X94358288Y-69950234D02*
X94273396Y-69959800D01*
X94438924Y-69922019D02*
X94358288Y-69950234D01*
X95619186Y-70863188D02*
X95590971Y-70943824D01*
X107168002Y-72731998D02*
X108585000Y-72731998D01*
X94697465Y-73633257D02*
X94674221Y-73670249D01*
X93700369Y-71439550D02*
X93723613Y-71476542D01*
X90206548Y-66045100D02*
X93343452Y-66045100D01*
X93700369Y-71270249D02*
X93685940Y-71311486D01*
X95545519Y-71693639D02*
X95590971Y-71765975D01*
X93754506Y-71507435D02*
X93791498Y-71530679D01*
X94654900Y-74756548D02*
X95743452Y-75845100D01*
X93791498Y-70330679D02*
X93832735Y-70345108D01*
X95247248Y-72359800D02*
X93876149Y-72359800D01*
X90242549Y-69090901D02*
X89795100Y-68643452D01*
X95247248Y-70350000D02*
X95332140Y-70359565D01*
X93832735Y-71545108D02*
X93876149Y-71550000D01*
X93343452Y-66045100D02*
X94654900Y-67356548D01*
X94654900Y-67356548D02*
X94654900Y-69578296D01*
X93700369Y-72639550D02*
X93723613Y-72676542D01*
X94645334Y-69663188D02*
X94617119Y-69743824D01*
X95545519Y-72893639D02*
X95590971Y-72965975D01*
X91211001Y-69090901D02*
X90242549Y-69090901D01*
X94571667Y-69816160D02*
X94511260Y-69876567D01*
X94273396Y-69959800D02*
X93876149Y-69959800D01*
X93832735Y-69964691D02*
X93791498Y-69979120D01*
X93791498Y-69979120D02*
X93754506Y-70002364D01*
X95628751Y-70778296D02*
X95619186Y-70863188D01*
X93754506Y-70002364D02*
X93723613Y-70033257D01*
X93700369Y-70070249D02*
X93685940Y-70111486D01*
X93685940Y-70111486D02*
X93681049Y-70154900D01*
X95247248Y-72750000D02*
X95332140Y-72759565D01*
X93681049Y-70154900D02*
X93685940Y-70198313D01*
X93685940Y-70198313D02*
X93700369Y-70239550D01*
X93700369Y-70239550D02*
X93723613Y-70276542D01*
X93832735Y-70345108D02*
X93876149Y-70350000D01*
X95332140Y-70359565D02*
X95412776Y-70387780D01*
X95412776Y-70387780D02*
X95485112Y-70433232D01*
X95545519Y-70493639D02*
X95590971Y-70565975D01*
X95545519Y-73416160D02*
X95485112Y-73476567D01*
X93876149Y-71159800D02*
X93832735Y-71164691D01*
X95619186Y-70646611D02*
X95628751Y-70731503D01*
X95590971Y-70943824D02*
X95545519Y-71016160D01*
X95545519Y-71016160D02*
X95485112Y-71076567D01*
X93754506Y-70307435D02*
X93791498Y-70330679D01*
X95412776Y-71122019D02*
X95332140Y-71150234D01*
X95332140Y-71150234D02*
X95247248Y-71159800D01*
X95412776Y-73522019D02*
X95332140Y-73550234D01*
X95247248Y-71159800D02*
X93876149Y-71159800D01*
X94654900Y-69578296D02*
X94645334Y-69663188D01*
X93832735Y-71164691D02*
X93791498Y-71179120D01*
X93791498Y-71179120D02*
X93754506Y-71202364D01*
X93681049Y-71354900D02*
X93685940Y-71398313D01*
X93791498Y-71530679D02*
X93832735Y-71545108D01*
X95332140Y-71559565D02*
X95412776Y-71587780D01*
X95485112Y-71633232D02*
X95545519Y-71693639D01*
X95619186Y-71846611D02*
X95628751Y-71931503D01*
X95628751Y-71931503D02*
X95628751Y-71978296D01*
X95485112Y-70433232D02*
X95545519Y-70493639D01*
X95628751Y-71978296D02*
X95619186Y-72063188D01*
X95619186Y-72063188D02*
X95590971Y-72143824D01*
D18*
%TO.N,/CEC*%
X108100000Y-68150000D02*
X110950000Y-68150000D01*
X106300000Y-66350000D02*
X108100000Y-68150000D01*
X111400000Y-71850000D02*
X111018001Y-72231999D01*
X110950000Y-68150000D02*
X111400000Y-68600000D01*
X111018001Y-72231999D02*
X108585000Y-72231999D01*
X111400000Y-68600000D02*
X111400000Y-71850000D01*
X106668001Y-72231999D02*
X108585000Y-72231999D01*
X106300000Y-72600000D02*
X106668001Y-72231999D01*
X102150000Y-72600000D02*
X106300000Y-72600000D01*
X99690000Y-73620000D02*
X101130000Y-73620000D01*
X101130000Y-73620000D02*
X102150000Y-72600000D01*
%TO.N,/HEAC+*%
X108616998Y-71700000D02*
X108585000Y-71731998D01*
X110750000Y-71700000D02*
X108616998Y-71700000D01*
%TO.N,/SCL*%
X106818001Y-71231999D02*
X108585000Y-71231999D01*
X97150000Y-73620000D02*
X98420000Y-72350000D01*
X101212500Y-72350000D02*
X102800000Y-70762500D01*
X98420000Y-72350000D02*
X101212500Y-72350000D01*
X102800000Y-70762500D02*
X102962500Y-70762500D01*
X102962500Y-70762500D02*
X103950000Y-71750000D01*
X106300000Y-71750000D02*
X106818001Y-71231999D01*
X103950000Y-71750000D02*
X106300000Y-71750000D01*
%TO.N,/SDA*%
X104780500Y-70732000D02*
X104750000Y-70762500D01*
X108585000Y-70732000D02*
X104780500Y-70732000D01*
X103837500Y-69850000D02*
X104750000Y-70762500D01*
X102050000Y-69850000D02*
X103837500Y-69850000D01*
X99690000Y-71080000D02*
X100820000Y-71080000D01*
X100820000Y-71080000D02*
X102050000Y-69850000D01*
%TO.N,+5V*%
X106087500Y-68937500D02*
X104750000Y-68937500D01*
X106900000Y-69750000D02*
X106087500Y-68937500D01*
X108200000Y-69750000D02*
X106900000Y-69750000D01*
X108585000Y-69731999D02*
X108218001Y-69731999D01*
X108218001Y-69731999D02*
X108200000Y-69750000D01*
%TO.N,/HEAC-*%
X108616998Y-69200000D02*
X108585000Y-69231998D01*
X110750000Y-69200000D02*
X108616998Y-69200000D01*
%TO.N,+3V3*%
X100040000Y-66350000D02*
X99690000Y-66000000D01*
X104475000Y-66350000D02*
X100040000Y-66350000D01*
%TD*%
%TO.N,+5V*%
X107386500Y-67077290D02*
X107003921Y-66694711D01*
X107003921Y-65899999D01*
X106995439Y-65813882D01*
X106970320Y-65731075D01*
X106929528Y-65654759D01*
X106874632Y-65587868D01*
X106807741Y-65532972D01*
X106731425Y-65492180D01*
X106648618Y-65467061D01*
X106562501Y-65458579D01*
X106037499Y-65458579D01*
X105951382Y-65467061D01*
X105868575Y-65492180D01*
X105792259Y-65532972D01*
X105725368Y-65587868D01*
X105670472Y-65654759D01*
X105629680Y-65731075D01*
X105604561Y-65813882D01*
X105596079Y-65899999D01*
X105596079Y-66800001D01*
X105604561Y-66886118D01*
X105629680Y-66968925D01*
X105670472Y-67045241D01*
X105725368Y-67112132D01*
X105792259Y-67167028D01*
X105868575Y-67207820D01*
X105951382Y-67232939D01*
X106037499Y-67241421D01*
X106562501Y-67241421D01*
X106648618Y-67232939D01*
X106731425Y-67207820D01*
X106775208Y-67184418D01*
X107386500Y-67795710D01*
X107386500Y-68875940D01*
X107353856Y-68879155D01*
X107317946Y-68890048D01*
X107284852Y-68907737D01*
X107255845Y-68931543D01*
X107232039Y-68960550D01*
X107214350Y-68993644D01*
X107203457Y-69029554D01*
X107199779Y-69066898D01*
X107199779Y-69313353D01*
X107166935Y-69339986D01*
X107126976Y-69388098D01*
X107097171Y-69443082D01*
X107078665Y-69502823D01*
X107073700Y-69551024D01*
X107153075Y-69630399D01*
X107386500Y-69630399D01*
X107386500Y-69833599D01*
X107153075Y-69833599D01*
X107073700Y-69912974D01*
X107078665Y-69961175D01*
X107097171Y-70020916D01*
X107126976Y-70075900D01*
X107166935Y-70124012D01*
X107199779Y-70150645D01*
X107199779Y-70397098D01*
X107203457Y-70434442D01*
X107214350Y-70470352D01*
X107218438Y-70478000D01*
X105639254Y-70478000D01*
X105632939Y-70413882D01*
X105607820Y-70331075D01*
X105567028Y-70254759D01*
X105512132Y-70187868D01*
X105445241Y-70132972D01*
X105368925Y-70092180D01*
X105286118Y-70067061D01*
X105200001Y-70058579D01*
X104405289Y-70058579D01*
X104115548Y-69768838D01*
X104559125Y-69767500D01*
X104638500Y-69688125D01*
X104638500Y-69049000D01*
X104861500Y-69049000D01*
X104861500Y-69688125D01*
X104940875Y-69767500D01*
X105450000Y-69769036D01*
X105512241Y-69762906D01*
X105572090Y-69744751D01*
X105627247Y-69715269D01*
X105675593Y-69675593D01*
X105715269Y-69627247D01*
X105744751Y-69572090D01*
X105762906Y-69512241D01*
X105769036Y-69450000D01*
X105767500Y-69128375D01*
X105688125Y-69049000D01*
X104861500Y-69049000D01*
X104638500Y-69049000D01*
X103811875Y-69049000D01*
X103775000Y-69085875D01*
X103738125Y-69049000D01*
X102911500Y-69049000D01*
X102911500Y-69069000D01*
X102688500Y-69069000D01*
X102688500Y-69049000D01*
X101861875Y-69049000D01*
X101782500Y-69128375D01*
X101780964Y-69450000D01*
X101787094Y-69512241D01*
X101805249Y-69572090D01*
X101834731Y-69627247D01*
X101869478Y-69669587D01*
X101861581Y-69679209D01*
X101004290Y-70536500D01*
X100578244Y-70536500D01*
X100498209Y-70416720D01*
X100353280Y-70271791D01*
X100182862Y-70157920D01*
X99993503Y-70079485D01*
X99792480Y-70039500D01*
X99587520Y-70039500D01*
X99386497Y-70079485D01*
X99197138Y-70157920D01*
X99026720Y-70271791D01*
X98881791Y-70416720D01*
X98801756Y-70536500D01*
X98038244Y-70536500D01*
X97958209Y-70416720D01*
X97813280Y-70271791D01*
X97642862Y-70157920D01*
X97453503Y-70079485D01*
X97252480Y-70039500D01*
X97047520Y-70039500D01*
X96846497Y-70079485D01*
X96657138Y-70157920D01*
X96486720Y-70271791D01*
X96341791Y-70416720D01*
X96261756Y-70536500D01*
X95913500Y-70536500D01*
X95913500Y-68437520D01*
X96109500Y-68437520D01*
X96109500Y-68642480D01*
X96149485Y-68843503D01*
X96227920Y-69032862D01*
X96341791Y-69203280D01*
X96486720Y-69348209D01*
X96657138Y-69462080D01*
X96846497Y-69540515D01*
X97047520Y-69580500D01*
X97252480Y-69580500D01*
X97453503Y-69540515D01*
X97642862Y-69462080D01*
X97813280Y-69348209D01*
X97958209Y-69203280D01*
X98072080Y-69032862D01*
X98150515Y-68843503D01*
X98190500Y-68642480D01*
X98190500Y-68437520D01*
X98649500Y-68437520D01*
X98649500Y-68642480D01*
X98689485Y-68843503D01*
X98767920Y-69032862D01*
X98881791Y-69203280D01*
X99026720Y-69348209D01*
X99197138Y-69462080D01*
X99386497Y-69540515D01*
X99587520Y-69580500D01*
X99792480Y-69580500D01*
X99993503Y-69540515D01*
X100182862Y-69462080D01*
X100353280Y-69348209D01*
X100498209Y-69203280D01*
X100612080Y-69032862D01*
X100690515Y-68843503D01*
X100730500Y-68642480D01*
X100730500Y-68437520D01*
X100728010Y-68425000D01*
X101780964Y-68425000D01*
X101782500Y-68746625D01*
X101861875Y-68826000D01*
X102688500Y-68826000D01*
X102688500Y-68186875D01*
X102911500Y-68186875D01*
X102911500Y-68826000D01*
X103738125Y-68826000D01*
X103775000Y-68789125D01*
X103811875Y-68826000D01*
X104638500Y-68826000D01*
X104638500Y-68186875D01*
X104861500Y-68186875D01*
X104861500Y-68826000D01*
X105688125Y-68826000D01*
X105767500Y-68746625D01*
X105769036Y-68425000D01*
X105762906Y-68362759D01*
X105744751Y-68302910D01*
X105715269Y-68247753D01*
X105675593Y-68199407D01*
X105627247Y-68159731D01*
X105572090Y-68130249D01*
X105512241Y-68112094D01*
X105450000Y-68105964D01*
X104940875Y-68107500D01*
X104861500Y-68186875D01*
X104638500Y-68186875D01*
X104559125Y-68107500D01*
X104050000Y-68105964D01*
X103987759Y-68112094D01*
X103927910Y-68130249D01*
X103872753Y-68159731D01*
X103824407Y-68199407D01*
X103784731Y-68247753D01*
X103775000Y-68265958D01*
X103765269Y-68247753D01*
X103725593Y-68199407D01*
X103677247Y-68159731D01*
X103622090Y-68130249D01*
X103562241Y-68112094D01*
X103500000Y-68105964D01*
X102990875Y-68107500D01*
X102911500Y-68186875D01*
X102688500Y-68186875D01*
X102609125Y-68107500D01*
X102100000Y-68105964D01*
X102037759Y-68112094D01*
X101977910Y-68130249D01*
X101922753Y-68159731D01*
X101874407Y-68199407D01*
X101834731Y-68247753D01*
X101805249Y-68302910D01*
X101787094Y-68362759D01*
X101780964Y-68425000D01*
X100728010Y-68425000D01*
X100690515Y-68236497D01*
X100612080Y-68047138D01*
X100498209Y-67876720D01*
X100353280Y-67731791D01*
X100182862Y-67617920D01*
X99993503Y-67539485D01*
X99792480Y-67499500D01*
X99587520Y-67499500D01*
X99386497Y-67539485D01*
X99197138Y-67617920D01*
X99026720Y-67731791D01*
X98881791Y-67876720D01*
X98767920Y-68047138D01*
X98689485Y-68236497D01*
X98649500Y-68437520D01*
X98190500Y-68437520D01*
X98150515Y-68236497D01*
X98072080Y-68047138D01*
X97958209Y-67876720D01*
X97813280Y-67731791D01*
X97642862Y-67617920D01*
X97453503Y-67539485D01*
X97252480Y-67499500D01*
X97047520Y-67499500D01*
X96846497Y-67539485D01*
X96657138Y-67617920D01*
X96486720Y-67731791D01*
X96341791Y-67876720D01*
X96227920Y-68047138D01*
X96149485Y-68236497D01*
X96109500Y-68437520D01*
X95913500Y-68437520D01*
X95913500Y-66850000D01*
X95980964Y-66850000D01*
X95987094Y-66912241D01*
X96005249Y-66972090D01*
X96034731Y-67027247D01*
X96074407Y-67075593D01*
X96122753Y-67115269D01*
X96177910Y-67144751D01*
X96237759Y-67162906D01*
X96300000Y-67169036D01*
X96959125Y-67167500D01*
X97038500Y-67088125D01*
X97038500Y-66111500D01*
X97261500Y-66111500D01*
X97261500Y-67088125D01*
X97340875Y-67167500D01*
X98000000Y-67169036D01*
X98062241Y-67162906D01*
X98122090Y-67144751D01*
X98177247Y-67115269D01*
X98225593Y-67075593D01*
X98265269Y-67027247D01*
X98294751Y-66972090D01*
X98312906Y-66912241D01*
X98319036Y-66850000D01*
X98317500Y-66190875D01*
X98238125Y-66111500D01*
X97261500Y-66111500D01*
X97038500Y-66111500D01*
X96061875Y-66111500D01*
X95982500Y-66190875D01*
X95980964Y-66850000D01*
X95913500Y-66850000D01*
X95913500Y-65897520D01*
X98649500Y-65897520D01*
X98649500Y-66102480D01*
X98689485Y-66303503D01*
X98767920Y-66492862D01*
X98881791Y-66663280D01*
X99026720Y-66808209D01*
X99197138Y-66922080D01*
X99386497Y-67000515D01*
X99587520Y-67040500D01*
X99792480Y-67040500D01*
X99993503Y-67000515D01*
X100182862Y-66922080D01*
X100353280Y-66808209D01*
X100498209Y-66663280D01*
X100537819Y-66604000D01*
X103771079Y-66604000D01*
X103771079Y-66800001D01*
X103779561Y-66886118D01*
X103804680Y-66968925D01*
X103845472Y-67045241D01*
X103900368Y-67112132D01*
X103967259Y-67167028D01*
X104043575Y-67207820D01*
X104126382Y-67232939D01*
X104212499Y-67241421D01*
X104737501Y-67241421D01*
X104823618Y-67232939D01*
X104906425Y-67207820D01*
X104982741Y-67167028D01*
X105049632Y-67112132D01*
X105104528Y-67045241D01*
X105145320Y-66968925D01*
X105170439Y-66886118D01*
X105178921Y-66800001D01*
X105178921Y-65899999D01*
X105170439Y-65813882D01*
X105145320Y-65731075D01*
X105104528Y-65654759D01*
X105049632Y-65587868D01*
X104982741Y-65532972D01*
X104906425Y-65492180D01*
X104823618Y-65467061D01*
X104737501Y-65458579D01*
X104212499Y-65458579D01*
X104126382Y-65467061D01*
X104043575Y-65492180D01*
X103967259Y-65532972D01*
X103900368Y-65587868D01*
X103845472Y-65654759D01*
X103804680Y-65731075D01*
X103779561Y-65813882D01*
X103771079Y-65899999D01*
X103771079Y-66096000D01*
X100730500Y-66096000D01*
X100730500Y-65897520D01*
X100690515Y-65696497D01*
X100612080Y-65507138D01*
X100498209Y-65336720D01*
X100353280Y-65191791D01*
X100182862Y-65077920D01*
X99993503Y-64999485D01*
X99792480Y-64959500D01*
X99587520Y-64959500D01*
X99386497Y-64999485D01*
X99197138Y-65077920D01*
X99026720Y-65191791D01*
X98881791Y-65336720D01*
X98767920Y-65507138D01*
X98689485Y-65696497D01*
X98649500Y-65897520D01*
X95913500Y-65897520D01*
X95913500Y-65150000D01*
X95980964Y-65150000D01*
X95982500Y-65809125D01*
X96061875Y-65888500D01*
X97038500Y-65888500D01*
X97038500Y-64911875D01*
X97261500Y-64911875D01*
X97261500Y-65888500D01*
X98238125Y-65888500D01*
X98317500Y-65809125D01*
X98319036Y-65150000D01*
X98312906Y-65087759D01*
X98294751Y-65027910D01*
X98265269Y-64972753D01*
X98225593Y-64924407D01*
X98177247Y-64884731D01*
X98122090Y-64855249D01*
X98062241Y-64837094D01*
X98000000Y-64830964D01*
X97340875Y-64832500D01*
X97261500Y-64911875D01*
X97038500Y-64911875D01*
X96959125Y-64832500D01*
X96300000Y-64830964D01*
X96237759Y-64837094D01*
X96177910Y-64855249D01*
X96122753Y-64884731D01*
X96074407Y-64924407D01*
X96034731Y-64972753D01*
X96005249Y-65027910D01*
X95987094Y-65087759D01*
X95980964Y-65150000D01*
X95913500Y-65150000D01*
X95913500Y-64763500D01*
X107386500Y-64763500D01*
X107386500Y-67077290D01*
%TA.AperFunction,Conductor*%
D19*
G36*
X107386500Y-67077290D02*
G01*
X107003921Y-66694711D01*
X107003921Y-65899999D01*
X106995439Y-65813882D01*
X106970320Y-65731075D01*
X106929528Y-65654759D01*
X106874632Y-65587868D01*
X106807741Y-65532972D01*
X106731425Y-65492180D01*
X106648618Y-65467061D01*
X106562501Y-65458579D01*
X106037499Y-65458579D01*
X105951382Y-65467061D01*
X105868575Y-65492180D01*
X105792259Y-65532972D01*
X105725368Y-65587868D01*
X105670472Y-65654759D01*
X105629680Y-65731075D01*
X105604561Y-65813882D01*
X105596079Y-65899999D01*
X105596079Y-66800001D01*
X105604561Y-66886118D01*
X105629680Y-66968925D01*
X105670472Y-67045241D01*
X105725368Y-67112132D01*
X105792259Y-67167028D01*
X105868575Y-67207820D01*
X105951382Y-67232939D01*
X106037499Y-67241421D01*
X106562501Y-67241421D01*
X106648618Y-67232939D01*
X106731425Y-67207820D01*
X106775208Y-67184418D01*
X107386500Y-67795710D01*
X107386500Y-68875940D01*
X107353856Y-68879155D01*
X107317946Y-68890048D01*
X107284852Y-68907737D01*
X107255845Y-68931543D01*
X107232039Y-68960550D01*
X107214350Y-68993644D01*
X107203457Y-69029554D01*
X107199779Y-69066898D01*
X107199779Y-69313353D01*
X107166935Y-69339986D01*
X107126976Y-69388098D01*
X107097171Y-69443082D01*
X107078665Y-69502823D01*
X107073700Y-69551024D01*
X107153075Y-69630399D01*
X107386500Y-69630399D01*
X107386500Y-69833599D01*
X107153075Y-69833599D01*
X107073700Y-69912974D01*
X107078665Y-69961175D01*
X107097171Y-70020916D01*
X107126976Y-70075900D01*
X107166935Y-70124012D01*
X107199779Y-70150645D01*
X107199779Y-70397098D01*
X107203457Y-70434442D01*
X107214350Y-70470352D01*
X107218438Y-70478000D01*
X105639254Y-70478000D01*
X105632939Y-70413882D01*
X105607820Y-70331075D01*
X105567028Y-70254759D01*
X105512132Y-70187868D01*
X105445241Y-70132972D01*
X105368925Y-70092180D01*
X105286118Y-70067061D01*
X105200001Y-70058579D01*
X104405289Y-70058579D01*
X104115548Y-69768838D01*
X104559125Y-69767500D01*
X104638500Y-69688125D01*
X104638500Y-69049000D01*
X104861500Y-69049000D01*
X104861500Y-69688125D01*
X104940875Y-69767500D01*
X105450000Y-69769036D01*
X105512241Y-69762906D01*
X105572090Y-69744751D01*
X105627247Y-69715269D01*
X105675593Y-69675593D01*
X105715269Y-69627247D01*
X105744751Y-69572090D01*
X105762906Y-69512241D01*
X105769036Y-69450000D01*
X105767500Y-69128375D01*
X105688125Y-69049000D01*
X104861500Y-69049000D01*
X104638500Y-69049000D01*
X103811875Y-69049000D01*
X103775000Y-69085875D01*
X103738125Y-69049000D01*
X102911500Y-69049000D01*
X102911500Y-69069000D01*
X102688500Y-69069000D01*
X102688500Y-69049000D01*
X101861875Y-69049000D01*
X101782500Y-69128375D01*
X101780964Y-69450000D01*
X101787094Y-69512241D01*
X101805249Y-69572090D01*
X101834731Y-69627247D01*
X101869478Y-69669587D01*
X101861581Y-69679209D01*
X101004290Y-70536500D01*
X100578244Y-70536500D01*
X100498209Y-70416720D01*
X100353280Y-70271791D01*
X100182862Y-70157920D01*
X99993503Y-70079485D01*
X99792480Y-70039500D01*
X99587520Y-70039500D01*
X99386497Y-70079485D01*
X99197138Y-70157920D01*
X99026720Y-70271791D01*
X98881791Y-70416720D01*
X98801756Y-70536500D01*
X98038244Y-70536500D01*
X97958209Y-70416720D01*
X97813280Y-70271791D01*
X97642862Y-70157920D01*
X97453503Y-70079485D01*
X97252480Y-70039500D01*
X97047520Y-70039500D01*
X96846497Y-70079485D01*
X96657138Y-70157920D01*
X96486720Y-70271791D01*
X96341791Y-70416720D01*
X96261756Y-70536500D01*
X95913500Y-70536500D01*
X95913500Y-68437520D01*
X96109500Y-68437520D01*
X96109500Y-68642480D01*
X96149485Y-68843503D01*
X96227920Y-69032862D01*
X96341791Y-69203280D01*
X96486720Y-69348209D01*
X96657138Y-69462080D01*
X96846497Y-69540515D01*
X97047520Y-69580500D01*
X97252480Y-69580500D01*
X97453503Y-69540515D01*
X97642862Y-69462080D01*
X97813280Y-69348209D01*
X97958209Y-69203280D01*
X98072080Y-69032862D01*
X98150515Y-68843503D01*
X98190500Y-68642480D01*
X98190500Y-68437520D01*
X98649500Y-68437520D01*
X98649500Y-68642480D01*
X98689485Y-68843503D01*
X98767920Y-69032862D01*
X98881791Y-69203280D01*
X99026720Y-69348209D01*
X99197138Y-69462080D01*
X99386497Y-69540515D01*
X99587520Y-69580500D01*
X99792480Y-69580500D01*
X99993503Y-69540515D01*
X100182862Y-69462080D01*
X100353280Y-69348209D01*
X100498209Y-69203280D01*
X100612080Y-69032862D01*
X100690515Y-68843503D01*
X100730500Y-68642480D01*
X100730500Y-68437520D01*
X100728010Y-68425000D01*
X101780964Y-68425000D01*
X101782500Y-68746625D01*
X101861875Y-68826000D01*
X102688500Y-68826000D01*
X102688500Y-68186875D01*
X102911500Y-68186875D01*
X102911500Y-68826000D01*
X103738125Y-68826000D01*
X103775000Y-68789125D01*
X103811875Y-68826000D01*
X104638500Y-68826000D01*
X104638500Y-68186875D01*
X104861500Y-68186875D01*
X104861500Y-68826000D01*
X105688125Y-68826000D01*
X105767500Y-68746625D01*
X105769036Y-68425000D01*
X105762906Y-68362759D01*
X105744751Y-68302910D01*
X105715269Y-68247753D01*
X105675593Y-68199407D01*
X105627247Y-68159731D01*
X105572090Y-68130249D01*
X105512241Y-68112094D01*
X105450000Y-68105964D01*
X104940875Y-68107500D01*
X104861500Y-68186875D01*
X104638500Y-68186875D01*
X104559125Y-68107500D01*
X104050000Y-68105964D01*
X103987759Y-68112094D01*
X103927910Y-68130249D01*
X103872753Y-68159731D01*
X103824407Y-68199407D01*
X103784731Y-68247753D01*
X103775000Y-68265958D01*
X103765269Y-68247753D01*
X103725593Y-68199407D01*
X103677247Y-68159731D01*
X103622090Y-68130249D01*
X103562241Y-68112094D01*
X103500000Y-68105964D01*
X102990875Y-68107500D01*
X102911500Y-68186875D01*
X102688500Y-68186875D01*
X102609125Y-68107500D01*
X102100000Y-68105964D01*
X102037759Y-68112094D01*
X101977910Y-68130249D01*
X101922753Y-68159731D01*
X101874407Y-68199407D01*
X101834731Y-68247753D01*
X101805249Y-68302910D01*
X101787094Y-68362759D01*
X101780964Y-68425000D01*
X100728010Y-68425000D01*
X100690515Y-68236497D01*
X100612080Y-68047138D01*
X100498209Y-67876720D01*
X100353280Y-67731791D01*
X100182862Y-67617920D01*
X99993503Y-67539485D01*
X99792480Y-67499500D01*
X99587520Y-67499500D01*
X99386497Y-67539485D01*
X99197138Y-67617920D01*
X99026720Y-67731791D01*
X98881791Y-67876720D01*
X98767920Y-68047138D01*
X98689485Y-68236497D01*
X98649500Y-68437520D01*
X98190500Y-68437520D01*
X98150515Y-68236497D01*
X98072080Y-68047138D01*
X97958209Y-67876720D01*
X97813280Y-67731791D01*
X97642862Y-67617920D01*
X97453503Y-67539485D01*
X97252480Y-67499500D01*
X97047520Y-67499500D01*
X96846497Y-67539485D01*
X96657138Y-67617920D01*
X96486720Y-67731791D01*
X96341791Y-67876720D01*
X96227920Y-68047138D01*
X96149485Y-68236497D01*
X96109500Y-68437520D01*
X95913500Y-68437520D01*
X95913500Y-66850000D01*
X95980964Y-66850000D01*
X95987094Y-66912241D01*
X96005249Y-66972090D01*
X96034731Y-67027247D01*
X96074407Y-67075593D01*
X96122753Y-67115269D01*
X96177910Y-67144751D01*
X96237759Y-67162906D01*
X96300000Y-67169036D01*
X96959125Y-67167500D01*
X97038500Y-67088125D01*
X97038500Y-66111500D01*
X97261500Y-66111500D01*
X97261500Y-67088125D01*
X97340875Y-67167500D01*
X98000000Y-67169036D01*
X98062241Y-67162906D01*
X98122090Y-67144751D01*
X98177247Y-67115269D01*
X98225593Y-67075593D01*
X98265269Y-67027247D01*
X98294751Y-66972090D01*
X98312906Y-66912241D01*
X98319036Y-66850000D01*
X98317500Y-66190875D01*
X98238125Y-66111500D01*
X97261500Y-66111500D01*
X97038500Y-66111500D01*
X96061875Y-66111500D01*
X95982500Y-66190875D01*
X95980964Y-66850000D01*
X95913500Y-66850000D01*
X95913500Y-65897520D01*
X98649500Y-65897520D01*
X98649500Y-66102480D01*
X98689485Y-66303503D01*
X98767920Y-66492862D01*
X98881791Y-66663280D01*
X99026720Y-66808209D01*
X99197138Y-66922080D01*
X99386497Y-67000515D01*
X99587520Y-67040500D01*
X99792480Y-67040500D01*
X99993503Y-67000515D01*
X100182862Y-66922080D01*
X100353280Y-66808209D01*
X100498209Y-66663280D01*
X100537819Y-66604000D01*
X103771079Y-66604000D01*
X103771079Y-66800001D01*
X103779561Y-66886118D01*
X103804680Y-66968925D01*
X103845472Y-67045241D01*
X103900368Y-67112132D01*
X103967259Y-67167028D01*
X104043575Y-67207820D01*
X104126382Y-67232939D01*
X104212499Y-67241421D01*
X104737501Y-67241421D01*
X104823618Y-67232939D01*
X104906425Y-67207820D01*
X104982741Y-67167028D01*
X105049632Y-67112132D01*
X105104528Y-67045241D01*
X105145320Y-66968925D01*
X105170439Y-66886118D01*
X105178921Y-66800001D01*
X105178921Y-65899999D01*
X105170439Y-65813882D01*
X105145320Y-65731075D01*
X105104528Y-65654759D01*
X105049632Y-65587868D01*
X104982741Y-65532972D01*
X104906425Y-65492180D01*
X104823618Y-65467061D01*
X104737501Y-65458579D01*
X104212499Y-65458579D01*
X104126382Y-65467061D01*
X104043575Y-65492180D01*
X103967259Y-65532972D01*
X103900368Y-65587868D01*
X103845472Y-65654759D01*
X103804680Y-65731075D01*
X103779561Y-65813882D01*
X103771079Y-65899999D01*
X103771079Y-66096000D01*
X100730500Y-66096000D01*
X100730500Y-65897520D01*
X100690515Y-65696497D01*
X100612080Y-65507138D01*
X100498209Y-65336720D01*
X100353280Y-65191791D01*
X100182862Y-65077920D01*
X99993503Y-64999485D01*
X99792480Y-64959500D01*
X99587520Y-64959500D01*
X99386497Y-64999485D01*
X99197138Y-65077920D01*
X99026720Y-65191791D01*
X98881791Y-65336720D01*
X98767920Y-65507138D01*
X98689485Y-65696497D01*
X98649500Y-65897520D01*
X95913500Y-65897520D01*
X95913500Y-65150000D01*
X95980964Y-65150000D01*
X95982500Y-65809125D01*
X96061875Y-65888500D01*
X97038500Y-65888500D01*
X97038500Y-64911875D01*
X97261500Y-64911875D01*
X97261500Y-65888500D01*
X98238125Y-65888500D01*
X98317500Y-65809125D01*
X98319036Y-65150000D01*
X98312906Y-65087759D01*
X98294751Y-65027910D01*
X98265269Y-64972753D01*
X98225593Y-64924407D01*
X98177247Y-64884731D01*
X98122090Y-64855249D01*
X98062241Y-64837094D01*
X98000000Y-64830964D01*
X97340875Y-64832500D01*
X97261500Y-64911875D01*
X97038500Y-64911875D01*
X96959125Y-64832500D01*
X96300000Y-64830964D01*
X96237759Y-64837094D01*
X96177910Y-64855249D01*
X96122753Y-64884731D01*
X96074407Y-64924407D01*
X96034731Y-64972753D01*
X96005249Y-65027910D01*
X95987094Y-65087759D01*
X95980964Y-65150000D01*
X95913500Y-65150000D01*
X95913500Y-64763500D01*
X107386500Y-64763500D01*
X107386500Y-67077290D01*
G37*
%TD.AperFunction*%
%TD*%
D18*
%TO.N,GND*%
X116490451Y-83990457D02*
X85045550Y-83991444D01*
X85045550Y-69356548D01*
X85305698Y-69356548D01*
X85306851Y-69368252D01*
X85306850Y-82331758D01*
X85305698Y-82343452D01*
X85306850Y-82355146D01*
X85306850Y-82355148D01*
X85310298Y-82390156D01*
X85323921Y-82435066D01*
X85346045Y-82476457D01*
X85375817Y-82512735D01*
X85384906Y-82520194D01*
X86579810Y-83715099D01*
X86587265Y-83724183D01*
X86623543Y-83753955D01*
X86664933Y-83776079D01*
X86709843Y-83789702D01*
X86744851Y-83793150D01*
X86744853Y-83793150D01*
X86756547Y-83794302D01*
X86768241Y-83793150D01*
X101131758Y-83793150D01*
X101143452Y-83794302D01*
X101155146Y-83793150D01*
X101155149Y-83793150D01*
X101190157Y-83789702D01*
X101235067Y-83776079D01*
X101276457Y-83753955D01*
X101312735Y-83724183D01*
X101320194Y-83715094D01*
X102484022Y-82551266D01*
X113942262Y-82551266D01*
X114044357Y-82719970D01*
X114263912Y-82823318D01*
X114499410Y-82881848D01*
X114741802Y-82893308D01*
X114981773Y-82857261D01*
X115210100Y-82775091D01*
X115313223Y-82719970D01*
X115415318Y-82551266D01*
X114678790Y-81814738D01*
X113942262Y-82551266D01*
X102484022Y-82551266D01*
X103084097Y-81951191D01*
X109042272Y-81951191D01*
X109144367Y-82119895D01*
X109363922Y-82223243D01*
X109599420Y-82281773D01*
X109841812Y-82293233D01*
X110081783Y-82257186D01*
X110310110Y-82175016D01*
X110413233Y-82119895D01*
X110515328Y-81951191D01*
X109778800Y-81214663D01*
X109042272Y-81951191D01*
X103084097Y-81951191D01*
X103915298Y-81119990D01*
X108542545Y-81119990D01*
X108578592Y-81359961D01*
X108660762Y-81588288D01*
X108715883Y-81691411D01*
X108884587Y-81793506D01*
X109621115Y-81056978D01*
X109936485Y-81056978D01*
X110673013Y-81793506D01*
X110794368Y-81720065D01*
X113442535Y-81720065D01*
X113478582Y-81960036D01*
X113560752Y-82188363D01*
X113615873Y-82291486D01*
X113784577Y-82393581D01*
X114521105Y-81657053D01*
X114836475Y-81657053D01*
X115573003Y-82393581D01*
X115741707Y-82291486D01*
X115845055Y-82071931D01*
X115903585Y-81836433D01*
X115915045Y-81594041D01*
X115878998Y-81354070D01*
X115796828Y-81125743D01*
X115741707Y-81022620D01*
X115573003Y-80920525D01*
X114836475Y-81657053D01*
X114521105Y-81657053D01*
X113784577Y-80920525D01*
X113615873Y-81022620D01*
X113512525Y-81242175D01*
X113453995Y-81477673D01*
X113442535Y-81720065D01*
X110794368Y-81720065D01*
X110841717Y-81691411D01*
X110945065Y-81471856D01*
X111003595Y-81236358D01*
X111015055Y-80993966D01*
X110980337Y-80762840D01*
X113942262Y-80762840D01*
X114678790Y-81499368D01*
X115415318Y-80762840D01*
X115313223Y-80594136D01*
X115093668Y-80490788D01*
X114858170Y-80432258D01*
X114615778Y-80420798D01*
X114375807Y-80456845D01*
X114147480Y-80539015D01*
X114044357Y-80594136D01*
X113942262Y-80762840D01*
X110980337Y-80762840D01*
X110979008Y-80753995D01*
X110896838Y-80525668D01*
X110841717Y-80422545D01*
X110673013Y-80320450D01*
X109936485Y-81056978D01*
X109621115Y-81056978D01*
X108884587Y-80320450D01*
X108715883Y-80422545D01*
X108612535Y-80642100D01*
X108554005Y-80877598D01*
X108542545Y-81119990D01*
X103915298Y-81119990D01*
X104872523Y-80162765D01*
X109042272Y-80162765D01*
X109778800Y-80899293D01*
X110515328Y-80162765D01*
X110413233Y-79994061D01*
X110193678Y-79890713D01*
X109958180Y-79832183D01*
X109715788Y-79820723D01*
X109475817Y-79856770D01*
X109247490Y-79938940D01*
X109144367Y-79994061D01*
X109042272Y-80162765D01*
X104872523Y-80162765D01*
X106806401Y-78228887D01*
X106817394Y-78249454D01*
X106847166Y-78285732D01*
X106856255Y-78293191D01*
X106955258Y-78392194D01*
X106962717Y-78401283D01*
X106998995Y-78431055D01*
X107040385Y-78453179D01*
X107080901Y-78465469D01*
X107085295Y-78466802D01*
X107132000Y-78471402D01*
X107143696Y-78470250D01*
X107214318Y-78470250D01*
X107214350Y-78470354D01*
X107232039Y-78503448D01*
X107255845Y-78532455D01*
X107284852Y-78556261D01*
X107317946Y-78573950D01*
X107353856Y-78584843D01*
X107391200Y-78588521D01*
X109778800Y-78588521D01*
X109816144Y-78584843D01*
X109852054Y-78573950D01*
X109885148Y-78556261D01*
X109914155Y-78532455D01*
X109937961Y-78503448D01*
X109955650Y-78470354D01*
X109966543Y-78434444D01*
X109970221Y-78397100D01*
X109970221Y-78150644D01*
X110003065Y-78124011D01*
X110043024Y-78075899D01*
X110072829Y-78020915D01*
X110091335Y-77961174D01*
X110096300Y-77912973D01*
X110016925Y-77833598D01*
X108696500Y-77833598D01*
X108696500Y-77863498D01*
X108473500Y-77863498D01*
X108473500Y-77833598D01*
X108453500Y-77833598D01*
X108453500Y-77630398D01*
X108473500Y-77630398D01*
X108473500Y-77600498D01*
X108696500Y-77600498D01*
X108696500Y-77630398D01*
X110016925Y-77630398D01*
X110096300Y-77551023D01*
X110091335Y-77502822D01*
X110072829Y-77443081D01*
X110043024Y-77388097D01*
X110003065Y-77339985D01*
X109970221Y-77313352D01*
X109970221Y-77066899D01*
X109966543Y-77029555D01*
X109955650Y-76993645D01*
X109949425Y-76981998D01*
X109955650Y-76970352D01*
X109966543Y-76934442D01*
X109970221Y-76897098D01*
X109970221Y-76650645D01*
X110003065Y-76624012D01*
X110043024Y-76575900D01*
X110072829Y-76520916D01*
X110091335Y-76461175D01*
X110096300Y-76412974D01*
X110016925Y-76333599D01*
X108696500Y-76333599D01*
X108696500Y-76363499D01*
X108473500Y-76363499D01*
X108473500Y-76333599D01*
X108453500Y-76333599D01*
X108453500Y-76130399D01*
X108473500Y-76130399D01*
X108473500Y-76100499D01*
X108696500Y-76100499D01*
X108696500Y-76130399D01*
X110016925Y-76130399D01*
X110096300Y-76051024D01*
X110091335Y-76002823D01*
X110072829Y-75943082D01*
X110043024Y-75888098D01*
X110003065Y-75839986D01*
X109970221Y-75813353D01*
X109970221Y-75566900D01*
X109966543Y-75529556D01*
X109955650Y-75493646D01*
X109949425Y-75481999D01*
X109955650Y-75470352D01*
X109966543Y-75434442D01*
X109970221Y-75397098D01*
X109970221Y-75150645D01*
X110003065Y-75124012D01*
X110043024Y-75075900D01*
X110072829Y-75020916D01*
X110091335Y-74961175D01*
X110096300Y-74912974D01*
X110016925Y-74833599D01*
X108696500Y-74833599D01*
X108696500Y-74863499D01*
X108473500Y-74863499D01*
X108473500Y-74833599D01*
X108453500Y-74833599D01*
X108453500Y-74630399D01*
X108473500Y-74630399D01*
X108473500Y-74600499D01*
X108696500Y-74600499D01*
X108696500Y-74630399D01*
X110016925Y-74630399D01*
X110096300Y-74551024D01*
X110091335Y-74502823D01*
X110072829Y-74443082D01*
X110043024Y-74388098D01*
X110003065Y-74339986D01*
X109970221Y-74313353D01*
X109970221Y-74066898D01*
X109966543Y-74029554D01*
X109955650Y-73993644D01*
X109949425Y-73981998D01*
X109955650Y-73970353D01*
X109966543Y-73934443D01*
X109970221Y-73897099D01*
X109970221Y-73650646D01*
X110003065Y-73624013D01*
X110043024Y-73575901D01*
X110072829Y-73520917D01*
X110091335Y-73461176D01*
X110096300Y-73412975D01*
X110016925Y-73333600D01*
X108696500Y-73333600D01*
X108696500Y-73363500D01*
X108473500Y-73363500D01*
X108473500Y-73333600D01*
X108453500Y-73333600D01*
X108453500Y-73130400D01*
X108473500Y-73130400D01*
X108473500Y-73100500D01*
X108696500Y-73100500D01*
X108696500Y-73130400D01*
X110016925Y-73130400D01*
X110096300Y-73051025D01*
X110091335Y-73002824D01*
X110072829Y-72943083D01*
X110043024Y-72888099D01*
X110003065Y-72839987D01*
X109970221Y-72813354D01*
X109970221Y-72566898D01*
X109966543Y-72529554D01*
X109955650Y-72493644D01*
X109951564Y-72485999D01*
X111005543Y-72485999D01*
X111018001Y-72487226D01*
X111030459Y-72485999D01*
X111030470Y-72485999D01*
X111067794Y-72482323D01*
X111115673Y-72467799D01*
X111159798Y-72444213D01*
X111178970Y-72428479D01*
X111188789Y-72420421D01*
X111188792Y-72420418D01*
X111198474Y-72412472D01*
X111206422Y-72402788D01*
X111570791Y-72038419D01*
X111580473Y-72030473D01*
X111590591Y-72018145D01*
X111612214Y-71991797D01*
X111635800Y-71947672D01*
X111637206Y-71943036D01*
X111650324Y-71899793D01*
X111654000Y-71862469D01*
X111654000Y-71862459D01*
X111655227Y-71850001D01*
X111654000Y-71837543D01*
X111654000Y-68612457D01*
X111655227Y-68599999D01*
X111654000Y-68587541D01*
X111654000Y-68587531D01*
X111650324Y-68550207D01*
X111635800Y-68502328D01*
X111612214Y-68458203D01*
X111595240Y-68437520D01*
X111588421Y-68429211D01*
X111588419Y-68429209D01*
X111580473Y-68419527D01*
X111570791Y-68411581D01*
X111138419Y-67979209D01*
X111130473Y-67969527D01*
X111120791Y-67961581D01*
X111120788Y-67961578D01*
X111103146Y-67947100D01*
X111091797Y-67937786D01*
X111047672Y-67914200D01*
X110999793Y-67899676D01*
X110962469Y-67896000D01*
X110962458Y-67896000D01*
X110950000Y-67894773D01*
X110937542Y-67896000D01*
X108205210Y-67896000D01*
X107640500Y-67331290D01*
X107640500Y-67301233D01*
X109042272Y-67301233D01*
X109144367Y-67469937D01*
X109363922Y-67573285D01*
X109599420Y-67631815D01*
X109841812Y-67643275D01*
X110081783Y-67607228D01*
X110310110Y-67525058D01*
X110413233Y-67469937D01*
X110515328Y-67301233D01*
X109778800Y-66564705D01*
X109042272Y-67301233D01*
X107640500Y-67301233D01*
X107640500Y-66470032D01*
X108542545Y-66470032D01*
X108578592Y-66710003D01*
X108660762Y-66938330D01*
X108715883Y-67041453D01*
X108884587Y-67143548D01*
X109621115Y-66407020D01*
X109936485Y-66407020D01*
X110673013Y-67143548D01*
X110841717Y-67041453D01*
X110945065Y-66821898D01*
X110975073Y-66701158D01*
X113942262Y-66701158D01*
X114044357Y-66869862D01*
X114263912Y-66973210D01*
X114499410Y-67031740D01*
X114741802Y-67043200D01*
X114981773Y-67007153D01*
X115210100Y-66924983D01*
X115313223Y-66869862D01*
X115415318Y-66701158D01*
X114678790Y-65964630D01*
X113942262Y-66701158D01*
X110975073Y-66701158D01*
X111003595Y-66586400D01*
X111015055Y-66344008D01*
X110979008Y-66104037D01*
X110896838Y-65875710D01*
X110893763Y-65869957D01*
X113442535Y-65869957D01*
X113478582Y-66109928D01*
X113560752Y-66338255D01*
X113615873Y-66441378D01*
X113784577Y-66543473D01*
X114521105Y-65806945D01*
X114836475Y-65806945D01*
X115573003Y-66543473D01*
X115741707Y-66441378D01*
X115845055Y-66221823D01*
X115903585Y-65986325D01*
X115915045Y-65743933D01*
X115878998Y-65503962D01*
X115796828Y-65275635D01*
X115741707Y-65172512D01*
X115573003Y-65070417D01*
X114836475Y-65806945D01*
X114521105Y-65806945D01*
X113784577Y-65070417D01*
X113615873Y-65172512D01*
X113512525Y-65392067D01*
X113453995Y-65627565D01*
X113442535Y-65869957D01*
X110893763Y-65869957D01*
X110841717Y-65772587D01*
X110673013Y-65670492D01*
X109936485Y-66407020D01*
X109621115Y-66407020D01*
X108884587Y-65670492D01*
X108715883Y-65772587D01*
X108612535Y-65992142D01*
X108554005Y-66227640D01*
X108542545Y-66470032D01*
X107640500Y-66470032D01*
X107640500Y-65512807D01*
X109042272Y-65512807D01*
X109778800Y-66249335D01*
X110515328Y-65512807D01*
X110413233Y-65344103D01*
X110193678Y-65240755D01*
X109958180Y-65182225D01*
X109715788Y-65170765D01*
X109475817Y-65206812D01*
X109247490Y-65288982D01*
X109144367Y-65344103D01*
X109042272Y-65512807D01*
X107640500Y-65512807D01*
X107640500Y-64912732D01*
X113942262Y-64912732D01*
X114678790Y-65649260D01*
X115415318Y-64912732D01*
X115313223Y-64744028D01*
X115093668Y-64640680D01*
X114858170Y-64582150D01*
X114615778Y-64570690D01*
X114375807Y-64606737D01*
X114147480Y-64688907D01*
X114044357Y-64744028D01*
X113942262Y-64912732D01*
X107640500Y-64912732D01*
X107640500Y-64700000D01*
X107636840Y-64662835D01*
X107625999Y-64627099D01*
X107608395Y-64594164D01*
X107584704Y-64565296D01*
X107555836Y-64541605D01*
X107522901Y-64524001D01*
X107487165Y-64513160D01*
X107450000Y-64509500D01*
X95850000Y-64509500D01*
X95812835Y-64513160D01*
X95777099Y-64524001D01*
X95744164Y-64541605D01*
X95715296Y-64565296D01*
X95691605Y-64594164D01*
X95674001Y-64627099D01*
X95663160Y-64662835D01*
X95659500Y-64700000D01*
X95659500Y-70270684D01*
X95659482Y-70270666D01*
X95649581Y-70259269D01*
X95633672Y-70246943D01*
X95618116Y-70234177D01*
X95604803Y-70227061D01*
X95546596Y-70190487D01*
X95534408Y-70181580D01*
X95516161Y-70173106D01*
X95498152Y-70164120D01*
X95483587Y-70160144D01*
X95418701Y-70137440D01*
X95404840Y-70131469D01*
X95385163Y-70127267D01*
X95365604Y-70122514D01*
X95350522Y-70121879D01*
X95295565Y-70115687D01*
X95293953Y-70115198D01*
X95272268Y-70113062D01*
X95262299Y-70111939D01*
X95260626Y-70111916D01*
X95258945Y-70111750D01*
X95248815Y-70111750D01*
X95227127Y-70111446D01*
X95225478Y-70111750D01*
X94584779Y-70111750D01*
X94630951Y-70082738D01*
X94644264Y-70075622D01*
X94659820Y-70062856D01*
X94675729Y-70050530D01*
X94685630Y-70039133D01*
X94734233Y-69990529D01*
X94745630Y-69980628D01*
X94757960Y-69964715D01*
X94770722Y-69949164D01*
X94777838Y-69935852D01*
X94814410Y-69877648D01*
X94823320Y-69865456D01*
X94831790Y-69847217D01*
X94840780Y-69829200D01*
X94844758Y-69814627D01*
X94867459Y-69749750D01*
X94873429Y-69735891D01*
X94877628Y-69716228D01*
X94882385Y-69696652D01*
X94883020Y-69681566D01*
X94889213Y-69626614D01*
X94889702Y-69625001D01*
X94891835Y-69603341D01*
X94892961Y-69593352D01*
X94892985Y-69591672D01*
X94893150Y-69589993D01*
X94893150Y-69579895D01*
X94893455Y-69558178D01*
X94893150Y-69556524D01*
X94893150Y-67368244D01*
X94894302Y-67356548D01*
X94889702Y-67309843D01*
X94876079Y-67264932D01*
X94853955Y-67223543D01*
X94841733Y-67208650D01*
X94824183Y-67187265D01*
X94815094Y-67179806D01*
X93520194Y-65884906D01*
X93512735Y-65875817D01*
X93476457Y-65846045D01*
X93435067Y-65823921D01*
X93390157Y-65810298D01*
X93355149Y-65806850D01*
X93355146Y-65806850D01*
X93343452Y-65805698D01*
X93331758Y-65806850D01*
X90218241Y-65806850D01*
X90206547Y-65805698D01*
X90194853Y-65806850D01*
X90194851Y-65806850D01*
X90159843Y-65810298D01*
X90114933Y-65823921D01*
X90073543Y-65846045D01*
X90037265Y-65875817D01*
X90029806Y-65884906D01*
X89634901Y-66279811D01*
X89625818Y-66287265D01*
X89618364Y-66296348D01*
X89618361Y-66296351D01*
X89612492Y-66303503D01*
X89596046Y-66323543D01*
X89573922Y-66364933D01*
X89561156Y-66407020D01*
X89560299Y-66409844D01*
X89555698Y-66456548D01*
X89556851Y-66468252D01*
X89556851Y-67365628D01*
X89515096Y-67264823D01*
X89410856Y-67108817D01*
X89278185Y-66976146D01*
X89122179Y-66871906D01*
X88948835Y-66800105D01*
X88764814Y-66763501D01*
X88577188Y-66763501D01*
X88393167Y-66800105D01*
X88219823Y-66871906D01*
X88063817Y-66976146D01*
X87931146Y-67108817D01*
X87826906Y-67264823D01*
X87755105Y-67438167D01*
X87718501Y-67622188D01*
X87718501Y-67809814D01*
X87755105Y-67993835D01*
X87826906Y-68167179D01*
X87931146Y-68323185D01*
X88063817Y-68455856D01*
X88219823Y-68560096D01*
X88393167Y-68631897D01*
X88432751Y-68639771D01*
X88432751Y-68640749D01*
X86034342Y-68640749D01*
X86022648Y-68639597D01*
X86010954Y-68640749D01*
X86010952Y-68640749D01*
X85975944Y-68644197D01*
X85931034Y-68657820D01*
X85927102Y-68659922D01*
X85889644Y-68679944D01*
X85863134Y-68701700D01*
X85853366Y-68709716D01*
X85845911Y-68718800D01*
X85384901Y-69179811D01*
X85375818Y-69187265D01*
X85368364Y-69196348D01*
X85368361Y-69196351D01*
X85346045Y-69223544D01*
X85334899Y-69244397D01*
X85323922Y-69264933D01*
X85313572Y-69299055D01*
X85310299Y-69309844D01*
X85305698Y-69356548D01*
X85045550Y-69356548D01*
X85045550Y-64090543D01*
X116490450Y-64089556D01*
X116490451Y-83990457D01*
%TA.AperFunction,Conductor*%
D19*
G36*
X116490451Y-83990457D02*
G01*
X85045550Y-83991444D01*
X85045550Y-69356548D01*
X85305698Y-69356548D01*
X85306851Y-69368252D01*
X85306850Y-82331758D01*
X85305698Y-82343452D01*
X85306850Y-82355146D01*
X85306850Y-82355148D01*
X85310298Y-82390156D01*
X85323921Y-82435066D01*
X85346045Y-82476457D01*
X85375817Y-82512735D01*
X85384906Y-82520194D01*
X86579810Y-83715099D01*
X86587265Y-83724183D01*
X86623543Y-83753955D01*
X86664933Y-83776079D01*
X86709843Y-83789702D01*
X86744851Y-83793150D01*
X86744853Y-83793150D01*
X86756547Y-83794302D01*
X86768241Y-83793150D01*
X101131758Y-83793150D01*
X101143452Y-83794302D01*
X101155146Y-83793150D01*
X101155149Y-83793150D01*
X101190157Y-83789702D01*
X101235067Y-83776079D01*
X101276457Y-83753955D01*
X101312735Y-83724183D01*
X101320194Y-83715094D01*
X102484022Y-82551266D01*
X113942262Y-82551266D01*
X114044357Y-82719970D01*
X114263912Y-82823318D01*
X114499410Y-82881848D01*
X114741802Y-82893308D01*
X114981773Y-82857261D01*
X115210100Y-82775091D01*
X115313223Y-82719970D01*
X115415318Y-82551266D01*
X114678790Y-81814738D01*
X113942262Y-82551266D01*
X102484022Y-82551266D01*
X103084097Y-81951191D01*
X109042272Y-81951191D01*
X109144367Y-82119895D01*
X109363922Y-82223243D01*
X109599420Y-82281773D01*
X109841812Y-82293233D01*
X110081783Y-82257186D01*
X110310110Y-82175016D01*
X110413233Y-82119895D01*
X110515328Y-81951191D01*
X109778800Y-81214663D01*
X109042272Y-81951191D01*
X103084097Y-81951191D01*
X103915298Y-81119990D01*
X108542545Y-81119990D01*
X108578592Y-81359961D01*
X108660762Y-81588288D01*
X108715883Y-81691411D01*
X108884587Y-81793506D01*
X109621115Y-81056978D01*
X109936485Y-81056978D01*
X110673013Y-81793506D01*
X110794368Y-81720065D01*
X113442535Y-81720065D01*
X113478582Y-81960036D01*
X113560752Y-82188363D01*
X113615873Y-82291486D01*
X113784577Y-82393581D01*
X114521105Y-81657053D01*
X114836475Y-81657053D01*
X115573003Y-82393581D01*
X115741707Y-82291486D01*
X115845055Y-82071931D01*
X115903585Y-81836433D01*
X115915045Y-81594041D01*
X115878998Y-81354070D01*
X115796828Y-81125743D01*
X115741707Y-81022620D01*
X115573003Y-80920525D01*
X114836475Y-81657053D01*
X114521105Y-81657053D01*
X113784577Y-80920525D01*
X113615873Y-81022620D01*
X113512525Y-81242175D01*
X113453995Y-81477673D01*
X113442535Y-81720065D01*
X110794368Y-81720065D01*
X110841717Y-81691411D01*
X110945065Y-81471856D01*
X111003595Y-81236358D01*
X111015055Y-80993966D01*
X110980337Y-80762840D01*
X113942262Y-80762840D01*
X114678790Y-81499368D01*
X115415318Y-80762840D01*
X115313223Y-80594136D01*
X115093668Y-80490788D01*
X114858170Y-80432258D01*
X114615778Y-80420798D01*
X114375807Y-80456845D01*
X114147480Y-80539015D01*
X114044357Y-80594136D01*
X113942262Y-80762840D01*
X110980337Y-80762840D01*
X110979008Y-80753995D01*
X110896838Y-80525668D01*
X110841717Y-80422545D01*
X110673013Y-80320450D01*
X109936485Y-81056978D01*
X109621115Y-81056978D01*
X108884587Y-80320450D01*
X108715883Y-80422545D01*
X108612535Y-80642100D01*
X108554005Y-80877598D01*
X108542545Y-81119990D01*
X103915298Y-81119990D01*
X104872523Y-80162765D01*
X109042272Y-80162765D01*
X109778800Y-80899293D01*
X110515328Y-80162765D01*
X110413233Y-79994061D01*
X110193678Y-79890713D01*
X109958180Y-79832183D01*
X109715788Y-79820723D01*
X109475817Y-79856770D01*
X109247490Y-79938940D01*
X109144367Y-79994061D01*
X109042272Y-80162765D01*
X104872523Y-80162765D01*
X106806401Y-78228887D01*
X106817394Y-78249454D01*
X106847166Y-78285732D01*
X106856255Y-78293191D01*
X106955258Y-78392194D01*
X106962717Y-78401283D01*
X106998995Y-78431055D01*
X107040385Y-78453179D01*
X107080901Y-78465469D01*
X107085295Y-78466802D01*
X107132000Y-78471402D01*
X107143696Y-78470250D01*
X107214318Y-78470250D01*
X107214350Y-78470354D01*
X107232039Y-78503448D01*
X107255845Y-78532455D01*
X107284852Y-78556261D01*
X107317946Y-78573950D01*
X107353856Y-78584843D01*
X107391200Y-78588521D01*
X109778800Y-78588521D01*
X109816144Y-78584843D01*
X109852054Y-78573950D01*
X109885148Y-78556261D01*
X109914155Y-78532455D01*
X109937961Y-78503448D01*
X109955650Y-78470354D01*
X109966543Y-78434444D01*
X109970221Y-78397100D01*
X109970221Y-78150644D01*
X110003065Y-78124011D01*
X110043024Y-78075899D01*
X110072829Y-78020915D01*
X110091335Y-77961174D01*
X110096300Y-77912973D01*
X110016925Y-77833598D01*
X108696500Y-77833598D01*
X108696500Y-77863498D01*
X108473500Y-77863498D01*
X108473500Y-77833598D01*
X108453500Y-77833598D01*
X108453500Y-77630398D01*
X108473500Y-77630398D01*
X108473500Y-77600498D01*
X108696500Y-77600498D01*
X108696500Y-77630398D01*
X110016925Y-77630398D01*
X110096300Y-77551023D01*
X110091335Y-77502822D01*
X110072829Y-77443081D01*
X110043024Y-77388097D01*
X110003065Y-77339985D01*
X109970221Y-77313352D01*
X109970221Y-77066899D01*
X109966543Y-77029555D01*
X109955650Y-76993645D01*
X109949425Y-76981998D01*
X109955650Y-76970352D01*
X109966543Y-76934442D01*
X109970221Y-76897098D01*
X109970221Y-76650645D01*
X110003065Y-76624012D01*
X110043024Y-76575900D01*
X110072829Y-76520916D01*
X110091335Y-76461175D01*
X110096300Y-76412974D01*
X110016925Y-76333599D01*
X108696500Y-76333599D01*
X108696500Y-76363499D01*
X108473500Y-76363499D01*
X108473500Y-76333599D01*
X108453500Y-76333599D01*
X108453500Y-76130399D01*
X108473500Y-76130399D01*
X108473500Y-76100499D01*
X108696500Y-76100499D01*
X108696500Y-76130399D01*
X110016925Y-76130399D01*
X110096300Y-76051024D01*
X110091335Y-76002823D01*
X110072829Y-75943082D01*
X110043024Y-75888098D01*
X110003065Y-75839986D01*
X109970221Y-75813353D01*
X109970221Y-75566900D01*
X109966543Y-75529556D01*
X109955650Y-75493646D01*
X109949425Y-75481999D01*
X109955650Y-75470352D01*
X109966543Y-75434442D01*
X109970221Y-75397098D01*
X109970221Y-75150645D01*
X110003065Y-75124012D01*
X110043024Y-75075900D01*
X110072829Y-75020916D01*
X110091335Y-74961175D01*
X110096300Y-74912974D01*
X110016925Y-74833599D01*
X108696500Y-74833599D01*
X108696500Y-74863499D01*
X108473500Y-74863499D01*
X108473500Y-74833599D01*
X108453500Y-74833599D01*
X108453500Y-74630399D01*
X108473500Y-74630399D01*
X108473500Y-74600499D01*
X108696500Y-74600499D01*
X108696500Y-74630399D01*
X110016925Y-74630399D01*
X110096300Y-74551024D01*
X110091335Y-74502823D01*
X110072829Y-74443082D01*
X110043024Y-74388098D01*
X110003065Y-74339986D01*
X109970221Y-74313353D01*
X109970221Y-74066898D01*
X109966543Y-74029554D01*
X109955650Y-73993644D01*
X109949425Y-73981998D01*
X109955650Y-73970353D01*
X109966543Y-73934443D01*
X109970221Y-73897099D01*
X109970221Y-73650646D01*
X110003065Y-73624013D01*
X110043024Y-73575901D01*
X110072829Y-73520917D01*
X110091335Y-73461176D01*
X110096300Y-73412975D01*
X110016925Y-73333600D01*
X108696500Y-73333600D01*
X108696500Y-73363500D01*
X108473500Y-73363500D01*
X108473500Y-73333600D01*
X108453500Y-73333600D01*
X108453500Y-73130400D01*
X108473500Y-73130400D01*
X108473500Y-73100500D01*
X108696500Y-73100500D01*
X108696500Y-73130400D01*
X110016925Y-73130400D01*
X110096300Y-73051025D01*
X110091335Y-73002824D01*
X110072829Y-72943083D01*
X110043024Y-72888099D01*
X110003065Y-72839987D01*
X109970221Y-72813354D01*
X109970221Y-72566898D01*
X109966543Y-72529554D01*
X109955650Y-72493644D01*
X109951564Y-72485999D01*
X111005543Y-72485999D01*
X111018001Y-72487226D01*
X111030459Y-72485999D01*
X111030470Y-72485999D01*
X111067794Y-72482323D01*
X111115673Y-72467799D01*
X111159798Y-72444213D01*
X111178970Y-72428479D01*
X111188789Y-72420421D01*
X111188792Y-72420418D01*
X111198474Y-72412472D01*
X111206422Y-72402788D01*
X111570791Y-72038419D01*
X111580473Y-72030473D01*
X111590591Y-72018145D01*
X111612214Y-71991797D01*
X111635800Y-71947672D01*
X111637206Y-71943036D01*
X111650324Y-71899793D01*
X111654000Y-71862469D01*
X111654000Y-71862459D01*
X111655227Y-71850001D01*
X111654000Y-71837543D01*
X111654000Y-68612457D01*
X111655227Y-68599999D01*
X111654000Y-68587541D01*
X111654000Y-68587531D01*
X111650324Y-68550207D01*
X111635800Y-68502328D01*
X111612214Y-68458203D01*
X111595240Y-68437520D01*
X111588421Y-68429211D01*
X111588419Y-68429209D01*
X111580473Y-68419527D01*
X111570791Y-68411581D01*
X111138419Y-67979209D01*
X111130473Y-67969527D01*
X111120791Y-67961581D01*
X111120788Y-67961578D01*
X111103146Y-67947100D01*
X111091797Y-67937786D01*
X111047672Y-67914200D01*
X110999793Y-67899676D01*
X110962469Y-67896000D01*
X110962458Y-67896000D01*
X110950000Y-67894773D01*
X110937542Y-67896000D01*
X108205210Y-67896000D01*
X107640500Y-67331290D01*
X107640500Y-67301233D01*
X109042272Y-67301233D01*
X109144367Y-67469937D01*
X109363922Y-67573285D01*
X109599420Y-67631815D01*
X109841812Y-67643275D01*
X110081783Y-67607228D01*
X110310110Y-67525058D01*
X110413233Y-67469937D01*
X110515328Y-67301233D01*
X109778800Y-66564705D01*
X109042272Y-67301233D01*
X107640500Y-67301233D01*
X107640500Y-66470032D01*
X108542545Y-66470032D01*
X108578592Y-66710003D01*
X108660762Y-66938330D01*
X108715883Y-67041453D01*
X108884587Y-67143548D01*
X109621115Y-66407020D01*
X109936485Y-66407020D01*
X110673013Y-67143548D01*
X110841717Y-67041453D01*
X110945065Y-66821898D01*
X110975073Y-66701158D01*
X113942262Y-66701158D01*
X114044357Y-66869862D01*
X114263912Y-66973210D01*
X114499410Y-67031740D01*
X114741802Y-67043200D01*
X114981773Y-67007153D01*
X115210100Y-66924983D01*
X115313223Y-66869862D01*
X115415318Y-66701158D01*
X114678790Y-65964630D01*
X113942262Y-66701158D01*
X110975073Y-66701158D01*
X111003595Y-66586400D01*
X111015055Y-66344008D01*
X110979008Y-66104037D01*
X110896838Y-65875710D01*
X110893763Y-65869957D01*
X113442535Y-65869957D01*
X113478582Y-66109928D01*
X113560752Y-66338255D01*
X113615873Y-66441378D01*
X113784577Y-66543473D01*
X114521105Y-65806945D01*
X114836475Y-65806945D01*
X115573003Y-66543473D01*
X115741707Y-66441378D01*
X115845055Y-66221823D01*
X115903585Y-65986325D01*
X115915045Y-65743933D01*
X115878998Y-65503962D01*
X115796828Y-65275635D01*
X115741707Y-65172512D01*
X115573003Y-65070417D01*
X114836475Y-65806945D01*
X114521105Y-65806945D01*
X113784577Y-65070417D01*
X113615873Y-65172512D01*
X113512525Y-65392067D01*
X113453995Y-65627565D01*
X113442535Y-65869957D01*
X110893763Y-65869957D01*
X110841717Y-65772587D01*
X110673013Y-65670492D01*
X109936485Y-66407020D01*
X109621115Y-66407020D01*
X108884587Y-65670492D01*
X108715883Y-65772587D01*
X108612535Y-65992142D01*
X108554005Y-66227640D01*
X108542545Y-66470032D01*
X107640500Y-66470032D01*
X107640500Y-65512807D01*
X109042272Y-65512807D01*
X109778800Y-66249335D01*
X110515328Y-65512807D01*
X110413233Y-65344103D01*
X110193678Y-65240755D01*
X109958180Y-65182225D01*
X109715788Y-65170765D01*
X109475817Y-65206812D01*
X109247490Y-65288982D01*
X109144367Y-65344103D01*
X109042272Y-65512807D01*
X107640500Y-65512807D01*
X107640500Y-64912732D01*
X113942262Y-64912732D01*
X114678790Y-65649260D01*
X115415318Y-64912732D01*
X115313223Y-64744028D01*
X115093668Y-64640680D01*
X114858170Y-64582150D01*
X114615778Y-64570690D01*
X114375807Y-64606737D01*
X114147480Y-64688907D01*
X114044357Y-64744028D01*
X113942262Y-64912732D01*
X107640500Y-64912732D01*
X107640500Y-64700000D01*
X107636840Y-64662835D01*
X107625999Y-64627099D01*
X107608395Y-64594164D01*
X107584704Y-64565296D01*
X107555836Y-64541605D01*
X107522901Y-64524001D01*
X107487165Y-64513160D01*
X107450000Y-64509500D01*
X95850000Y-64509500D01*
X95812835Y-64513160D01*
X95777099Y-64524001D01*
X95744164Y-64541605D01*
X95715296Y-64565296D01*
X95691605Y-64594164D01*
X95674001Y-64627099D01*
X95663160Y-64662835D01*
X95659500Y-64700000D01*
X95659500Y-70270684D01*
X95659482Y-70270666D01*
X95649581Y-70259269D01*
X95633672Y-70246943D01*
X95618116Y-70234177D01*
X95604803Y-70227061D01*
X95546596Y-70190487D01*
X95534408Y-70181580D01*
X95516161Y-70173106D01*
X95498152Y-70164120D01*
X95483587Y-70160144D01*
X95418701Y-70137440D01*
X95404840Y-70131469D01*
X95385163Y-70127267D01*
X95365604Y-70122514D01*
X95350522Y-70121879D01*
X95295565Y-70115687D01*
X95293953Y-70115198D01*
X95272268Y-70113062D01*
X95262299Y-70111939D01*
X95260626Y-70111916D01*
X95258945Y-70111750D01*
X95248815Y-70111750D01*
X95227127Y-70111446D01*
X95225478Y-70111750D01*
X94584779Y-70111750D01*
X94630951Y-70082738D01*
X94644264Y-70075622D01*
X94659820Y-70062856D01*
X94675729Y-70050530D01*
X94685630Y-70039133D01*
X94734233Y-69990529D01*
X94745630Y-69980628D01*
X94757960Y-69964715D01*
X94770722Y-69949164D01*
X94777838Y-69935852D01*
X94814410Y-69877648D01*
X94823320Y-69865456D01*
X94831790Y-69847217D01*
X94840780Y-69829200D01*
X94844758Y-69814627D01*
X94867459Y-69749750D01*
X94873429Y-69735891D01*
X94877628Y-69716228D01*
X94882385Y-69696652D01*
X94883020Y-69681566D01*
X94889213Y-69626614D01*
X94889702Y-69625001D01*
X94891835Y-69603341D01*
X94892961Y-69593352D01*
X94892985Y-69591672D01*
X94893150Y-69589993D01*
X94893150Y-69579895D01*
X94893455Y-69558178D01*
X94893150Y-69556524D01*
X94893150Y-67368244D01*
X94894302Y-67356548D01*
X94889702Y-67309843D01*
X94876079Y-67264932D01*
X94853955Y-67223543D01*
X94841733Y-67208650D01*
X94824183Y-67187265D01*
X94815094Y-67179806D01*
X93520194Y-65884906D01*
X93512735Y-65875817D01*
X93476457Y-65846045D01*
X93435067Y-65823921D01*
X93390157Y-65810298D01*
X93355149Y-65806850D01*
X93355146Y-65806850D01*
X93343452Y-65805698D01*
X93331758Y-65806850D01*
X90218241Y-65806850D01*
X90206547Y-65805698D01*
X90194853Y-65806850D01*
X90194851Y-65806850D01*
X90159843Y-65810298D01*
X90114933Y-65823921D01*
X90073543Y-65846045D01*
X90037265Y-65875817D01*
X90029806Y-65884906D01*
X89634901Y-66279811D01*
X89625818Y-66287265D01*
X89618364Y-66296348D01*
X89618361Y-66296351D01*
X89612492Y-66303503D01*
X89596046Y-66323543D01*
X89573922Y-66364933D01*
X89561156Y-66407020D01*
X89560299Y-66409844D01*
X89555698Y-66456548D01*
X89556851Y-66468252D01*
X89556851Y-67365628D01*
X89515096Y-67264823D01*
X89410856Y-67108817D01*
X89278185Y-66976146D01*
X89122179Y-66871906D01*
X88948835Y-66800105D01*
X88764814Y-66763501D01*
X88577188Y-66763501D01*
X88393167Y-66800105D01*
X88219823Y-66871906D01*
X88063817Y-66976146D01*
X87931146Y-67108817D01*
X87826906Y-67264823D01*
X87755105Y-67438167D01*
X87718501Y-67622188D01*
X87718501Y-67809814D01*
X87755105Y-67993835D01*
X87826906Y-68167179D01*
X87931146Y-68323185D01*
X88063817Y-68455856D01*
X88219823Y-68560096D01*
X88393167Y-68631897D01*
X88432751Y-68639771D01*
X88432751Y-68640749D01*
X86034342Y-68640749D01*
X86022648Y-68639597D01*
X86010954Y-68640749D01*
X86010952Y-68640749D01*
X85975944Y-68644197D01*
X85931034Y-68657820D01*
X85927102Y-68659922D01*
X85889644Y-68679944D01*
X85863134Y-68701700D01*
X85853366Y-68709716D01*
X85845911Y-68718800D01*
X85384901Y-69179811D01*
X85375818Y-69187265D01*
X85368364Y-69196348D01*
X85368361Y-69196351D01*
X85346045Y-69223544D01*
X85334899Y-69244397D01*
X85323922Y-69264933D01*
X85313572Y-69299055D01*
X85310299Y-69309844D01*
X85305698Y-69356548D01*
X85045550Y-69356548D01*
X85045550Y-64090543D01*
X116490450Y-64089556D01*
X116490451Y-83990457D01*
G37*
%TD.AperFunction*%
D18*
X88432752Y-74412231D02*
X88393167Y-74420105D01*
X88219823Y-74491906D01*
X88063817Y-74596146D01*
X87931146Y-74728817D01*
X87826906Y-74884823D01*
X87755105Y-75058167D01*
X87718501Y-75242188D01*
X87718501Y-75429814D01*
X87755105Y-75613835D01*
X87826906Y-75787179D01*
X87931146Y-75943185D01*
X88063817Y-76075856D01*
X88219823Y-76180096D01*
X88393167Y-76251897D01*
X88577188Y-76288501D01*
X88764814Y-76288501D01*
X88948835Y-76251897D01*
X89122179Y-76180096D01*
X89278185Y-76075856D01*
X89410856Y-75943185D01*
X89515096Y-75787179D01*
X89556851Y-75686373D01*
X89556851Y-76081748D01*
X89555698Y-76093452D01*
X89557892Y-76115720D01*
X89560299Y-76140157D01*
X89570823Y-76174850D01*
X89573922Y-76185067D01*
X89596045Y-76226456D01*
X89616924Y-76251897D01*
X89625818Y-76262735D01*
X89634901Y-76270189D01*
X90229808Y-76865097D01*
X90237265Y-76874183D01*
X90246348Y-76881637D01*
X90246350Y-76881639D01*
X90267092Y-76898661D01*
X90273543Y-76903955D01*
X90314933Y-76926079D01*
X90359843Y-76939702D01*
X90394851Y-76943150D01*
X90394853Y-76943150D01*
X90406547Y-76944302D01*
X90418241Y-76943150D01*
X90663940Y-76943150D01*
X90583340Y-77090656D01*
X91211001Y-77718316D01*
X91838662Y-77090656D01*
X91758062Y-76943150D01*
X92343862Y-76943150D01*
X93196420Y-77795709D01*
X93203875Y-77804793D01*
X93212958Y-77812247D01*
X93212960Y-77812249D01*
X93235068Y-77830392D01*
X93240153Y-77834565D01*
X93281543Y-77856689D01*
X93326453Y-77870312D01*
X93361461Y-77873760D01*
X93361463Y-77873760D01*
X93373157Y-77874912D01*
X93384851Y-77873760D01*
X94368995Y-77873760D01*
X94368996Y-78297644D01*
X94368691Y-78299298D01*
X94368996Y-78321057D01*
X94368996Y-78331117D01*
X94369160Y-78332786D01*
X94369184Y-78334471D01*
X94370315Y-78344512D01*
X94372444Y-78366125D01*
X94372931Y-78367732D01*
X94378837Y-78420147D01*
X94379472Y-78435231D01*
X94384223Y-78454778D01*
X94388427Y-78474466D01*
X94394401Y-78488334D01*
X94416255Y-78550791D01*
X94420231Y-78565358D01*
X94429218Y-78583369D01*
X94437692Y-78601616D01*
X94446600Y-78613805D01*
X94481808Y-78669837D01*
X94488925Y-78683153D01*
X94501701Y-78698721D01*
X94514016Y-78714616D01*
X94525409Y-78724514D01*
X94572208Y-78771313D01*
X94582108Y-78782709D01*
X94598021Y-78795038D01*
X94613572Y-78807800D01*
X94626882Y-78814914D01*
X94682919Y-78850125D01*
X94695109Y-78859033D01*
X94713356Y-78867507D01*
X94731367Y-78876494D01*
X94745934Y-78880470D01*
X94808391Y-78902325D01*
X94822256Y-78908297D01*
X94841926Y-78912497D01*
X94861493Y-78917253D01*
X94876582Y-78917888D01*
X94928987Y-78923794D01*
X94930600Y-78924283D01*
X94952266Y-78926417D01*
X94962250Y-78927542D01*
X94963928Y-78927566D01*
X94965608Y-78927731D01*
X94975707Y-78927731D01*
X94997424Y-78928036D01*
X94999078Y-78927731D01*
X95000921Y-78927731D01*
X95002575Y-78928036D01*
X95024291Y-78927731D01*
X95034391Y-78927731D01*
X95036071Y-78927566D01*
X95037748Y-78927542D01*
X95047726Y-78926418D01*
X95069399Y-78924283D01*
X95071013Y-78923793D01*
X95123417Y-78917888D01*
X95138505Y-78917253D01*
X95158067Y-78912498D01*
X95177742Y-78908297D01*
X95191608Y-78902324D01*
X95254065Y-78880470D01*
X95268632Y-78876494D01*
X95286643Y-78867507D01*
X95304890Y-78859033D01*
X95317079Y-78850125D01*
X95373111Y-78814917D01*
X95386427Y-78807800D01*
X95401995Y-78795024D01*
X95417890Y-78782709D01*
X95427788Y-78771316D01*
X95474587Y-78724517D01*
X95485983Y-78714617D01*
X95498312Y-78698704D01*
X95511074Y-78683153D01*
X95518188Y-78669843D01*
X95553399Y-78613806D01*
X95562307Y-78601616D01*
X95570781Y-78583369D01*
X95579768Y-78565358D01*
X95583744Y-78550791D01*
X95600000Y-78504335D01*
X95616255Y-78550791D01*
X95620231Y-78565358D01*
X95629218Y-78583369D01*
X95637692Y-78601616D01*
X95646600Y-78613805D01*
X95681808Y-78669837D01*
X95688925Y-78683153D01*
X95701701Y-78698721D01*
X95714016Y-78714616D01*
X95725409Y-78724514D01*
X95772208Y-78771313D01*
X95782108Y-78782709D01*
X95798021Y-78795038D01*
X95813572Y-78807800D01*
X95826882Y-78814914D01*
X95882919Y-78850125D01*
X95895109Y-78859033D01*
X95913356Y-78867507D01*
X95931367Y-78876494D01*
X95945934Y-78880470D01*
X96008391Y-78902325D01*
X96022256Y-78908297D01*
X96041926Y-78912497D01*
X96061493Y-78917253D01*
X96076582Y-78917888D01*
X96128987Y-78923794D01*
X96130600Y-78924283D01*
X96152266Y-78926417D01*
X96162250Y-78927542D01*
X96163928Y-78927566D01*
X96165608Y-78927731D01*
X96175707Y-78927731D01*
X96197424Y-78928036D01*
X96199078Y-78927731D01*
X96200921Y-78927731D01*
X96202575Y-78928036D01*
X96224291Y-78927731D01*
X96234391Y-78927731D01*
X96236071Y-78927566D01*
X96237748Y-78927542D01*
X96247726Y-78926418D01*
X96269399Y-78924283D01*
X96271013Y-78923793D01*
X96323417Y-78917888D01*
X96338505Y-78917253D01*
X96358067Y-78912498D01*
X96377742Y-78908297D01*
X96391608Y-78902324D01*
X96454065Y-78880470D01*
X96468632Y-78876494D01*
X96486643Y-78867507D01*
X96504890Y-78859033D01*
X96517079Y-78850125D01*
X96573111Y-78814917D01*
X96586427Y-78807800D01*
X96601995Y-78795024D01*
X96617890Y-78782709D01*
X96627788Y-78771316D01*
X96674587Y-78724517D01*
X96685983Y-78714617D01*
X96698312Y-78698704D01*
X96711074Y-78683153D01*
X96718188Y-78669843D01*
X96753399Y-78613806D01*
X96762307Y-78601616D01*
X96770781Y-78583369D01*
X96779768Y-78565358D01*
X96783744Y-78550791D01*
X96800000Y-78504335D01*
X96816255Y-78550791D01*
X96820231Y-78565358D01*
X96829218Y-78583369D01*
X96837692Y-78601616D01*
X96846600Y-78613805D01*
X96881808Y-78669837D01*
X96888925Y-78683153D01*
X96901701Y-78698721D01*
X96914016Y-78714616D01*
X96925409Y-78724514D01*
X96972208Y-78771313D01*
X96982108Y-78782709D01*
X96998021Y-78795038D01*
X97013572Y-78807800D01*
X97026882Y-78814914D01*
X97082919Y-78850125D01*
X97095109Y-78859033D01*
X97113356Y-78867507D01*
X97131367Y-78876494D01*
X97145934Y-78880470D01*
X97208391Y-78902325D01*
X97222256Y-78908297D01*
X97241926Y-78912497D01*
X97261493Y-78917253D01*
X97276582Y-78917888D01*
X97328987Y-78923794D01*
X97330600Y-78924283D01*
X97352266Y-78926417D01*
X97362250Y-78927542D01*
X97363928Y-78927566D01*
X97365608Y-78927731D01*
X97375707Y-78927731D01*
X97397424Y-78928036D01*
X97399078Y-78927731D01*
X97400921Y-78927731D01*
X97402575Y-78928036D01*
X97424291Y-78927731D01*
X97434391Y-78927731D01*
X97436071Y-78927566D01*
X97437748Y-78927542D01*
X97447726Y-78926418D01*
X97469399Y-78924283D01*
X97471013Y-78923793D01*
X97523417Y-78917888D01*
X97538505Y-78917253D01*
X97558067Y-78912498D01*
X97577742Y-78908297D01*
X97591608Y-78902324D01*
X97654065Y-78880470D01*
X97668632Y-78876494D01*
X97686643Y-78867507D01*
X97704890Y-78859033D01*
X97717079Y-78850125D01*
X97773111Y-78814917D01*
X97786427Y-78807800D01*
X97801995Y-78795024D01*
X97817890Y-78782709D01*
X97827788Y-78771316D01*
X97874587Y-78724517D01*
X97885983Y-78714617D01*
X97898312Y-78698704D01*
X97911074Y-78683153D01*
X97918188Y-78669843D01*
X97953399Y-78613806D01*
X97962307Y-78601616D01*
X97970781Y-78583369D01*
X97979768Y-78565358D01*
X97983744Y-78550791D01*
X98000000Y-78504335D01*
X98016255Y-78550791D01*
X98020231Y-78565358D01*
X98029218Y-78583369D01*
X98037692Y-78601616D01*
X98046600Y-78613805D01*
X98081808Y-78669837D01*
X98088925Y-78683153D01*
X98101701Y-78698721D01*
X98114016Y-78714616D01*
X98125409Y-78724514D01*
X98172208Y-78771313D01*
X98182108Y-78782709D01*
X98198021Y-78795038D01*
X98213572Y-78807800D01*
X98226882Y-78814914D01*
X98282919Y-78850125D01*
X98295109Y-78859033D01*
X98313356Y-78867507D01*
X98331367Y-78876494D01*
X98345934Y-78880470D01*
X98408391Y-78902325D01*
X98422256Y-78908297D01*
X98441926Y-78912497D01*
X98461493Y-78917253D01*
X98476582Y-78917888D01*
X98528987Y-78923794D01*
X98530600Y-78924283D01*
X98552266Y-78926417D01*
X98562250Y-78927542D01*
X98563928Y-78927566D01*
X98565608Y-78927731D01*
X98575707Y-78927731D01*
X98597424Y-78928036D01*
X98599078Y-78927731D01*
X98600921Y-78927731D01*
X98602575Y-78928036D01*
X98624291Y-78927731D01*
X98634391Y-78927731D01*
X98636071Y-78927566D01*
X98637748Y-78927542D01*
X98647726Y-78926418D01*
X98669399Y-78924283D01*
X98671013Y-78923793D01*
X98723417Y-78917888D01*
X98738505Y-78917253D01*
X98758067Y-78912498D01*
X98777742Y-78908297D01*
X98791608Y-78902324D01*
X98854065Y-78880470D01*
X98868632Y-78876494D01*
X98886643Y-78867507D01*
X98904890Y-78859033D01*
X98917079Y-78850125D01*
X98973111Y-78814917D01*
X98986427Y-78807800D01*
X99001995Y-78795024D01*
X99017890Y-78782709D01*
X99027788Y-78771316D01*
X99074587Y-78724517D01*
X99085983Y-78714617D01*
X99098312Y-78698704D01*
X99111074Y-78683153D01*
X99118188Y-78669843D01*
X99153399Y-78613806D01*
X99162307Y-78601616D01*
X99170781Y-78583369D01*
X99179768Y-78565358D01*
X99183744Y-78550791D01*
X99200000Y-78504335D01*
X99216255Y-78550791D01*
X99220231Y-78565358D01*
X99229218Y-78583369D01*
X99237692Y-78601616D01*
X99246600Y-78613805D01*
X99281808Y-78669837D01*
X99288925Y-78683153D01*
X99301701Y-78698721D01*
X99314016Y-78714616D01*
X99325409Y-78724514D01*
X99372208Y-78771313D01*
X99382108Y-78782709D01*
X99398021Y-78795038D01*
X99413572Y-78807800D01*
X99426882Y-78814914D01*
X99482919Y-78850125D01*
X99495109Y-78859033D01*
X99513356Y-78867507D01*
X99531367Y-78876494D01*
X99545934Y-78880470D01*
X99608391Y-78902325D01*
X99622256Y-78908297D01*
X99641926Y-78912497D01*
X99661493Y-78917253D01*
X99676582Y-78917888D01*
X99728987Y-78923794D01*
X99730600Y-78924283D01*
X99752266Y-78926417D01*
X99762250Y-78927542D01*
X99763928Y-78927566D01*
X99765608Y-78927731D01*
X99775707Y-78927731D01*
X99797424Y-78928036D01*
X99799078Y-78927731D01*
X99800921Y-78927731D01*
X99802575Y-78928036D01*
X99824291Y-78927731D01*
X99834391Y-78927731D01*
X99836071Y-78927566D01*
X99837748Y-78927542D01*
X99847726Y-78926418D01*
X99869399Y-78924283D01*
X99871013Y-78923793D01*
X99923417Y-78917888D01*
X99938505Y-78917253D01*
X99958067Y-78912498D01*
X99977742Y-78908297D01*
X99991608Y-78902324D01*
X100054065Y-78880470D01*
X100068632Y-78876494D01*
X100086643Y-78867507D01*
X100104890Y-78859033D01*
X100117079Y-78850125D01*
X100173111Y-78814917D01*
X100186427Y-78807800D01*
X100201995Y-78795024D01*
X100217890Y-78782709D01*
X100227788Y-78771316D01*
X100274587Y-78724517D01*
X100285983Y-78714617D01*
X100298312Y-78698704D01*
X100311074Y-78683153D01*
X100318188Y-78669843D01*
X100353399Y-78613806D01*
X100362307Y-78601616D01*
X100370781Y-78583369D01*
X100379768Y-78565358D01*
X100383744Y-78550791D01*
X100405599Y-78488334D01*
X100411571Y-78474469D01*
X100415771Y-78454799D01*
X100420527Y-78435232D01*
X100421162Y-78420143D01*
X100427068Y-78367738D01*
X100427557Y-78366125D01*
X100429691Y-78344459D01*
X100430816Y-78334475D01*
X100430840Y-78332797D01*
X100431005Y-78331117D01*
X100431005Y-78321018D01*
X100431310Y-78299301D01*
X100431005Y-78297647D01*
X100431005Y-77533247D01*
X100437692Y-77547646D01*
X100446600Y-77559835D01*
X100481808Y-77615867D01*
X100488925Y-77629183D01*
X100501701Y-77644751D01*
X100514016Y-77660646D01*
X100525409Y-77670544D01*
X100572208Y-77717343D01*
X100582108Y-77728739D01*
X100598021Y-77741068D01*
X100613572Y-77753830D01*
X100626882Y-77760944D01*
X100682919Y-77796155D01*
X100695109Y-77805063D01*
X100713356Y-77813537D01*
X100731367Y-77822524D01*
X100745934Y-77826500D01*
X100808394Y-77848356D01*
X100822259Y-77854328D01*
X100841939Y-77858530D01*
X100861493Y-77863283D01*
X100876578Y-77863918D01*
X100928988Y-77869823D01*
X100930600Y-77870312D01*
X100952277Y-77872447D01*
X100962253Y-77873571D01*
X100963927Y-77873594D01*
X100965608Y-77873760D01*
X100975738Y-77873760D01*
X100997427Y-77874064D01*
X100999076Y-77873760D01*
X103401148Y-77873760D01*
X103412842Y-77874912D01*
X103424536Y-77873760D01*
X103424539Y-77873760D01*
X103459547Y-77870312D01*
X103504457Y-77856689D01*
X103545847Y-77834565D01*
X103582125Y-77804793D01*
X103589584Y-77795704D01*
X106292138Y-75093150D01*
X106761273Y-75093150D01*
X106760598Y-75100000D01*
X106765199Y-75146704D01*
X106778822Y-75191615D01*
X106800408Y-75231998D01*
X106800946Y-75233005D01*
X106830718Y-75269283D01*
X106839802Y-75276738D01*
X106955252Y-75392187D01*
X106962715Y-75401281D01*
X106998993Y-75431053D01*
X107040383Y-75453177D01*
X107085293Y-75466800D01*
X107120301Y-75470248D01*
X107120303Y-75470248D01*
X107131997Y-75471400D01*
X107143691Y-75470248D01*
X107214318Y-75470248D01*
X107214350Y-75470352D01*
X107220575Y-75481999D01*
X107214350Y-75493646D01*
X107214318Y-75493750D01*
X107129693Y-75493750D01*
X107117999Y-75492598D01*
X107106305Y-75493750D01*
X107106303Y-75493750D01*
X107071295Y-75497198D01*
X107026385Y-75510821D01*
X106984995Y-75532945D01*
X106948717Y-75562717D01*
X106941258Y-75571806D01*
X106856249Y-75656815D01*
X106847166Y-75664269D01*
X106839712Y-75673352D01*
X106839709Y-75673355D01*
X106817393Y-75700548D01*
X106800581Y-75732001D01*
X106795270Y-75741937D01*
X106786228Y-75771747D01*
X106781647Y-75786848D01*
X106777046Y-75833552D01*
X106778199Y-75845255D01*
X106778199Y-75888849D01*
X106536242Y-75888849D01*
X106524548Y-75887697D01*
X106512854Y-75888849D01*
X106512852Y-75888849D01*
X106477844Y-75892297D01*
X106432934Y-75905920D01*
X106391544Y-75928044D01*
X106355266Y-75957816D01*
X106347807Y-75966905D01*
X100057862Y-82256850D01*
X96648050Y-82256850D01*
X96648050Y-81873979D01*
X96648355Y-81872325D01*
X96648050Y-81850608D01*
X96648050Y-81840510D01*
X96647885Y-81838831D01*
X96647861Y-81837151D01*
X96646735Y-81827162D01*
X96644602Y-81805502D01*
X96644113Y-81803889D01*
X96637920Y-81748937D01*
X96637285Y-81733851D01*
X96632528Y-81714275D01*
X96628329Y-81694612D01*
X96622359Y-81680753D01*
X96599658Y-81615876D01*
X96595680Y-81601303D01*
X96586690Y-81583286D01*
X96578220Y-81565047D01*
X96569310Y-81552855D01*
X96532738Y-81494651D01*
X96525622Y-81481339D01*
X96512860Y-81465788D01*
X96500530Y-81449875D01*
X96489133Y-81439974D01*
X96440530Y-81391370D01*
X96430629Y-81379973D01*
X96414720Y-81367647D01*
X96399164Y-81354881D01*
X96385851Y-81347765D01*
X96327644Y-81311191D01*
X96315456Y-81302284D01*
X96297209Y-81293810D01*
X96279200Y-81284824D01*
X96264635Y-81280848D01*
X96199753Y-81258145D01*
X96185891Y-81252174D01*
X96166224Y-81247974D01*
X96146652Y-81243218D01*
X96131566Y-81242583D01*
X96076615Y-81236391D01*
X96075001Y-81235901D01*
X96053327Y-81233766D01*
X96043350Y-81232642D01*
X96041673Y-81232618D01*
X96039993Y-81232453D01*
X96029893Y-81232453D01*
X96008177Y-81232148D01*
X96006523Y-81232453D01*
X96003275Y-81232453D01*
X96001621Y-81232148D01*
X95979904Y-81232453D01*
X95969806Y-81232453D01*
X95968127Y-81232618D01*
X95966447Y-81232642D01*
X95956458Y-81233768D01*
X95934798Y-81235901D01*
X95933185Y-81236390D01*
X95878233Y-81242583D01*
X95863147Y-81243218D01*
X95843571Y-81247975D01*
X95823908Y-81252174D01*
X95810049Y-81258144D01*
X95745172Y-81280845D01*
X95730599Y-81284823D01*
X95712582Y-81293813D01*
X95694343Y-81302283D01*
X95682151Y-81311193D01*
X95623947Y-81347765D01*
X95610635Y-81354881D01*
X95595084Y-81367643D01*
X95579171Y-81379973D01*
X95569270Y-81391370D01*
X95520666Y-81439973D01*
X95509269Y-81449874D01*
X95496943Y-81465783D01*
X95484177Y-81481339D01*
X95477061Y-81494652D01*
X95440487Y-81552859D01*
X95431580Y-81565047D01*
X95423106Y-81583294D01*
X95414120Y-81601303D01*
X95410144Y-81615868D01*
X95404900Y-81630856D01*
X95399658Y-81615876D01*
X95395680Y-81601303D01*
X95386690Y-81583286D01*
X95378220Y-81565047D01*
X95369310Y-81552855D01*
X95332738Y-81494651D01*
X95325622Y-81481339D01*
X95312860Y-81465788D01*
X95300530Y-81449875D01*
X95289133Y-81439974D01*
X95240530Y-81391370D01*
X95230629Y-81379973D01*
X95214720Y-81367647D01*
X95199164Y-81354881D01*
X95185851Y-81347765D01*
X95127644Y-81311191D01*
X95115456Y-81302284D01*
X95097209Y-81293810D01*
X95079200Y-81284824D01*
X95064635Y-81280848D01*
X94999753Y-81258145D01*
X94985891Y-81252174D01*
X94966224Y-81247974D01*
X94946652Y-81243218D01*
X94931566Y-81242583D01*
X94876615Y-81236391D01*
X94875001Y-81235901D01*
X94853327Y-81233766D01*
X94843350Y-81232642D01*
X94841673Y-81232618D01*
X94839993Y-81232453D01*
X94829893Y-81232453D01*
X94808177Y-81232148D01*
X94806523Y-81232453D01*
X94803275Y-81232453D01*
X94801621Y-81232148D01*
X94779904Y-81232453D01*
X94769806Y-81232453D01*
X94768127Y-81232618D01*
X94766447Y-81232642D01*
X94756458Y-81233768D01*
X94734798Y-81235901D01*
X94733185Y-81236390D01*
X94678233Y-81242583D01*
X94663147Y-81243218D01*
X94643571Y-81247975D01*
X94623908Y-81252174D01*
X94610049Y-81258144D01*
X94545172Y-81280845D01*
X94530599Y-81284823D01*
X94512582Y-81293813D01*
X94494343Y-81302283D01*
X94482151Y-81311193D01*
X94423947Y-81347765D01*
X94410635Y-81354881D01*
X94395084Y-81367643D01*
X94379171Y-81379973D01*
X94369270Y-81391370D01*
X94320666Y-81439973D01*
X94309269Y-81449874D01*
X94296943Y-81465783D01*
X94284177Y-81481339D01*
X94277061Y-81494652D01*
X94240487Y-81552859D01*
X94231580Y-81565047D01*
X94223106Y-81583294D01*
X94214120Y-81601303D01*
X94210144Y-81615868D01*
X94204900Y-81630856D01*
X94199658Y-81615876D01*
X94195680Y-81601303D01*
X94186690Y-81583286D01*
X94178220Y-81565047D01*
X94169310Y-81552855D01*
X94132738Y-81494651D01*
X94125622Y-81481339D01*
X94112860Y-81465788D01*
X94100530Y-81449875D01*
X94089133Y-81439974D01*
X94040530Y-81391370D01*
X94030629Y-81379973D01*
X94014720Y-81367647D01*
X93999164Y-81354881D01*
X93985851Y-81347765D01*
X93927644Y-81311191D01*
X93915456Y-81302284D01*
X93897209Y-81293810D01*
X93879200Y-81284824D01*
X93864635Y-81280848D01*
X93799753Y-81258145D01*
X93785891Y-81252174D01*
X93766224Y-81247974D01*
X93746652Y-81243218D01*
X93731566Y-81242583D01*
X93676615Y-81236391D01*
X93675001Y-81235901D01*
X93653327Y-81233766D01*
X93643350Y-81232642D01*
X93641673Y-81232618D01*
X93639993Y-81232453D01*
X93629893Y-81232453D01*
X93608177Y-81232148D01*
X93606523Y-81232453D01*
X93603275Y-81232453D01*
X93601621Y-81232148D01*
X93579904Y-81232453D01*
X93569806Y-81232453D01*
X93568127Y-81232618D01*
X93566447Y-81232642D01*
X93556458Y-81233768D01*
X93534798Y-81235901D01*
X93533185Y-81236390D01*
X93478233Y-81242583D01*
X93463147Y-81243218D01*
X93443571Y-81247975D01*
X93423908Y-81252174D01*
X93410049Y-81258144D01*
X93345172Y-81280845D01*
X93330599Y-81284823D01*
X93312582Y-81293813D01*
X93294343Y-81302283D01*
X93282151Y-81311193D01*
X93223947Y-81347765D01*
X93210635Y-81354881D01*
X93195084Y-81367643D01*
X93179171Y-81379973D01*
X93169270Y-81391370D01*
X93120666Y-81439973D01*
X93109269Y-81449874D01*
X93096943Y-81465783D01*
X93084177Y-81481339D01*
X93077061Y-81494652D01*
X93040487Y-81552859D01*
X93031580Y-81565047D01*
X93023106Y-81583294D01*
X93014120Y-81601303D01*
X93010144Y-81615868D01*
X92987440Y-81680754D01*
X92981469Y-81694615D01*
X92977267Y-81714292D01*
X92972514Y-81733851D01*
X92971879Y-81748933D01*
X92965687Y-81803895D01*
X92965199Y-81805502D01*
X92963070Y-81827114D01*
X92961939Y-81837156D01*
X92961915Y-81838841D01*
X92961751Y-81840510D01*
X92961751Y-81850569D01*
X92961446Y-81872328D01*
X92961751Y-81873982D01*
X92961750Y-82476808D01*
X92951456Y-82460424D01*
X92944340Y-82447112D01*
X92931572Y-82431554D01*
X92919249Y-82415649D01*
X92907856Y-82405751D01*
X92883896Y-82381791D01*
X92873998Y-82370398D01*
X92858093Y-82358075D01*
X92842535Y-82345307D01*
X92829223Y-82338191D01*
X92800542Y-82320170D01*
X92788351Y-82311261D01*
X92770096Y-82302783D01*
X92752093Y-82293800D01*
X92737529Y-82289825D01*
X92705557Y-82278637D01*
X92691691Y-82272665D01*
X92672016Y-82268464D01*
X92652457Y-82263710D01*
X92637370Y-82263075D01*
X92617064Y-82260787D01*
X92615452Y-82260298D01*
X92593762Y-82258162D01*
X92583797Y-82257039D01*
X92582125Y-82257016D01*
X92580444Y-82256850D01*
X92570313Y-82256850D01*
X92548624Y-82256546D01*
X92546975Y-82256850D01*
X87342139Y-82256850D01*
X86743150Y-81657862D01*
X86743150Y-80322188D01*
X87718501Y-80322188D01*
X87718501Y-80509814D01*
X87755105Y-80693835D01*
X87826906Y-80867179D01*
X87931146Y-81023185D01*
X88063817Y-81155856D01*
X88219823Y-81260096D01*
X88393167Y-81331897D01*
X88577188Y-81368501D01*
X88764814Y-81368501D01*
X88948835Y-81331897D01*
X89122179Y-81260096D01*
X89278185Y-81155856D01*
X89410856Y-81023185D01*
X89515096Y-80867179D01*
X89586897Y-80693835D01*
X89623501Y-80509814D01*
X89623501Y-80322188D01*
X90258501Y-80322188D01*
X90258501Y-80509814D01*
X90295105Y-80693835D01*
X90366906Y-80867179D01*
X90471146Y-81023185D01*
X90603817Y-81155856D01*
X90759823Y-81260096D01*
X90933167Y-81331897D01*
X91117188Y-81368501D01*
X91304814Y-81368501D01*
X91488835Y-81331897D01*
X91662179Y-81260096D01*
X91818185Y-81155856D01*
X91950856Y-81023185D01*
X92055096Y-80867179D01*
X92126897Y-80693835D01*
X92163501Y-80509814D01*
X92163501Y-80322188D01*
X92126897Y-80138167D01*
X92055096Y-79964823D01*
X91950856Y-79808817D01*
X91818185Y-79676146D01*
X91662179Y-79571906D01*
X91488835Y-79500105D01*
X91304814Y-79463501D01*
X91117188Y-79463501D01*
X90933167Y-79500105D01*
X90759823Y-79571906D01*
X90603817Y-79676146D01*
X90471146Y-79808817D01*
X90366906Y-79964823D01*
X90295105Y-80138167D01*
X90258501Y-80322188D01*
X89623501Y-80322188D01*
X89586897Y-80138167D01*
X89515096Y-79964823D01*
X89410856Y-79808817D01*
X89278185Y-79676146D01*
X89122179Y-79571906D01*
X88948835Y-79500105D01*
X88764814Y-79463501D01*
X88577188Y-79463501D01*
X88393167Y-79500105D01*
X88219823Y-79571906D01*
X88063817Y-79676146D01*
X87931146Y-79808817D01*
X87826906Y-79964823D01*
X87755105Y-80138167D01*
X87718501Y-80322188D01*
X86743150Y-80322188D01*
X86743150Y-78661346D01*
X88043340Y-78661346D01*
X88126999Y-78814450D01*
X88320534Y-78902547D01*
X88527538Y-78951195D01*
X88740054Y-78958523D01*
X88949916Y-78924251D01*
X89149061Y-78849696D01*
X89215003Y-78814450D01*
X89298662Y-78661346D01*
X90583340Y-78661346D01*
X90666999Y-78814450D01*
X90860534Y-78902547D01*
X91067538Y-78951195D01*
X91280054Y-78958523D01*
X91489916Y-78924251D01*
X91689061Y-78849696D01*
X91755003Y-78814450D01*
X91838662Y-78661346D01*
X91211001Y-78033686D01*
X90583340Y-78661346D01*
X89298662Y-78661346D01*
X88671001Y-78033686D01*
X88043340Y-78661346D01*
X86743150Y-78661346D01*
X86743150Y-77945054D01*
X87588479Y-77945054D01*
X87622751Y-78154916D01*
X87697306Y-78354061D01*
X87732552Y-78420003D01*
X87885656Y-78503662D01*
X88513316Y-77876001D01*
X88828686Y-77876001D01*
X89456346Y-78503662D01*
X89609450Y-78420003D01*
X89697547Y-78226468D01*
X89746195Y-78019464D01*
X89748760Y-77945054D01*
X90128479Y-77945054D01*
X90162751Y-78154916D01*
X90237306Y-78354061D01*
X90272552Y-78420003D01*
X90425656Y-78503662D01*
X91053316Y-77876001D01*
X91368686Y-77876001D01*
X91996346Y-78503662D01*
X92149450Y-78420003D01*
X92237547Y-78226468D01*
X92286195Y-78019464D01*
X92293523Y-77806948D01*
X92259251Y-77597086D01*
X92184696Y-77397941D01*
X92149450Y-77331999D01*
X91996346Y-77248340D01*
X91368686Y-77876001D01*
X91053316Y-77876001D01*
X90425656Y-77248340D01*
X90272552Y-77331999D01*
X90184455Y-77525534D01*
X90135807Y-77732538D01*
X90128479Y-77945054D01*
X89748760Y-77945054D01*
X89753523Y-77806948D01*
X89719251Y-77597086D01*
X89644696Y-77397941D01*
X89609450Y-77331999D01*
X89456346Y-77248340D01*
X88828686Y-77876001D01*
X88513316Y-77876001D01*
X87885656Y-77248340D01*
X87732552Y-77331999D01*
X87644455Y-77525534D01*
X87595807Y-77732538D01*
X87588479Y-77945054D01*
X86743150Y-77945054D01*
X86743150Y-77090656D01*
X88043340Y-77090656D01*
X88671001Y-77718316D01*
X89298662Y-77090656D01*
X89215003Y-76937552D01*
X89021468Y-76849455D01*
X88814464Y-76800807D01*
X88601948Y-76793479D01*
X88392086Y-76827751D01*
X88192941Y-76902306D01*
X88126999Y-76937552D01*
X88043340Y-77090656D01*
X86743150Y-77090656D01*
X86743150Y-74842138D01*
X87176038Y-74409251D01*
X88432752Y-74409251D01*
X88432752Y-74412231D01*
%TA.AperFunction,Conductor*%
D19*
G36*
X88432752Y-74412231D02*
G01*
X88393167Y-74420105D01*
X88219823Y-74491906D01*
X88063817Y-74596146D01*
X87931146Y-74728817D01*
X87826906Y-74884823D01*
X87755105Y-75058167D01*
X87718501Y-75242188D01*
X87718501Y-75429814D01*
X87755105Y-75613835D01*
X87826906Y-75787179D01*
X87931146Y-75943185D01*
X88063817Y-76075856D01*
X88219823Y-76180096D01*
X88393167Y-76251897D01*
X88577188Y-76288501D01*
X88764814Y-76288501D01*
X88948835Y-76251897D01*
X89122179Y-76180096D01*
X89278185Y-76075856D01*
X89410856Y-75943185D01*
X89515096Y-75787179D01*
X89556851Y-75686373D01*
X89556851Y-76081748D01*
X89555698Y-76093452D01*
X89557892Y-76115720D01*
X89560299Y-76140157D01*
X89570823Y-76174850D01*
X89573922Y-76185067D01*
X89596045Y-76226456D01*
X89616924Y-76251897D01*
X89625818Y-76262735D01*
X89634901Y-76270189D01*
X90229808Y-76865097D01*
X90237265Y-76874183D01*
X90246348Y-76881637D01*
X90246350Y-76881639D01*
X90267092Y-76898661D01*
X90273543Y-76903955D01*
X90314933Y-76926079D01*
X90359843Y-76939702D01*
X90394851Y-76943150D01*
X90394853Y-76943150D01*
X90406547Y-76944302D01*
X90418241Y-76943150D01*
X90663940Y-76943150D01*
X90583340Y-77090656D01*
X91211001Y-77718316D01*
X91838662Y-77090656D01*
X91758062Y-76943150D01*
X92343862Y-76943150D01*
X93196420Y-77795709D01*
X93203875Y-77804793D01*
X93212958Y-77812247D01*
X93212960Y-77812249D01*
X93235068Y-77830392D01*
X93240153Y-77834565D01*
X93281543Y-77856689D01*
X93326453Y-77870312D01*
X93361461Y-77873760D01*
X93361463Y-77873760D01*
X93373157Y-77874912D01*
X93384851Y-77873760D01*
X94368995Y-77873760D01*
X94368996Y-78297644D01*
X94368691Y-78299298D01*
X94368996Y-78321057D01*
X94368996Y-78331117D01*
X94369160Y-78332786D01*
X94369184Y-78334471D01*
X94370315Y-78344512D01*
X94372444Y-78366125D01*
X94372931Y-78367732D01*
X94378837Y-78420147D01*
X94379472Y-78435231D01*
X94384223Y-78454778D01*
X94388427Y-78474466D01*
X94394401Y-78488334D01*
X94416255Y-78550791D01*
X94420231Y-78565358D01*
X94429218Y-78583369D01*
X94437692Y-78601616D01*
X94446600Y-78613805D01*
X94481808Y-78669837D01*
X94488925Y-78683153D01*
X94501701Y-78698721D01*
X94514016Y-78714616D01*
X94525409Y-78724514D01*
X94572208Y-78771313D01*
X94582108Y-78782709D01*
X94598021Y-78795038D01*
X94613572Y-78807800D01*
X94626882Y-78814914D01*
X94682919Y-78850125D01*
X94695109Y-78859033D01*
X94713356Y-78867507D01*
X94731367Y-78876494D01*
X94745934Y-78880470D01*
X94808391Y-78902325D01*
X94822256Y-78908297D01*
X94841926Y-78912497D01*
X94861493Y-78917253D01*
X94876582Y-78917888D01*
X94928987Y-78923794D01*
X94930600Y-78924283D01*
X94952266Y-78926417D01*
X94962250Y-78927542D01*
X94963928Y-78927566D01*
X94965608Y-78927731D01*
X94975707Y-78927731D01*
X94997424Y-78928036D01*
X94999078Y-78927731D01*
X95000921Y-78927731D01*
X95002575Y-78928036D01*
X95024291Y-78927731D01*
X95034391Y-78927731D01*
X95036071Y-78927566D01*
X95037748Y-78927542D01*
X95047726Y-78926418D01*
X95069399Y-78924283D01*
X95071013Y-78923793D01*
X95123417Y-78917888D01*
X95138505Y-78917253D01*
X95158067Y-78912498D01*
X95177742Y-78908297D01*
X95191608Y-78902324D01*
X95254065Y-78880470D01*
X95268632Y-78876494D01*
X95286643Y-78867507D01*
X95304890Y-78859033D01*
X95317079Y-78850125D01*
X95373111Y-78814917D01*
X95386427Y-78807800D01*
X95401995Y-78795024D01*
X95417890Y-78782709D01*
X95427788Y-78771316D01*
X95474587Y-78724517D01*
X95485983Y-78714617D01*
X95498312Y-78698704D01*
X95511074Y-78683153D01*
X95518188Y-78669843D01*
X95553399Y-78613806D01*
X95562307Y-78601616D01*
X95570781Y-78583369D01*
X95579768Y-78565358D01*
X95583744Y-78550791D01*
X95600000Y-78504335D01*
X95616255Y-78550791D01*
X95620231Y-78565358D01*
X95629218Y-78583369D01*
X95637692Y-78601616D01*
X95646600Y-78613805D01*
X95681808Y-78669837D01*
X95688925Y-78683153D01*
X95701701Y-78698721D01*
X95714016Y-78714616D01*
X95725409Y-78724514D01*
X95772208Y-78771313D01*
X95782108Y-78782709D01*
X95798021Y-78795038D01*
X95813572Y-78807800D01*
X95826882Y-78814914D01*
X95882919Y-78850125D01*
X95895109Y-78859033D01*
X95913356Y-78867507D01*
X95931367Y-78876494D01*
X95945934Y-78880470D01*
X96008391Y-78902325D01*
X96022256Y-78908297D01*
X96041926Y-78912497D01*
X96061493Y-78917253D01*
X96076582Y-78917888D01*
X96128987Y-78923794D01*
X96130600Y-78924283D01*
X96152266Y-78926417D01*
X96162250Y-78927542D01*
X96163928Y-78927566D01*
X96165608Y-78927731D01*
X96175707Y-78927731D01*
X96197424Y-78928036D01*
X96199078Y-78927731D01*
X96200921Y-78927731D01*
X96202575Y-78928036D01*
X96224291Y-78927731D01*
X96234391Y-78927731D01*
X96236071Y-78927566D01*
X96237748Y-78927542D01*
X96247726Y-78926418D01*
X96269399Y-78924283D01*
X96271013Y-78923793D01*
X96323417Y-78917888D01*
X96338505Y-78917253D01*
X96358067Y-78912498D01*
X96377742Y-78908297D01*
X96391608Y-78902324D01*
X96454065Y-78880470D01*
X96468632Y-78876494D01*
X96486643Y-78867507D01*
X96504890Y-78859033D01*
X96517079Y-78850125D01*
X96573111Y-78814917D01*
X96586427Y-78807800D01*
X96601995Y-78795024D01*
X96617890Y-78782709D01*
X96627788Y-78771316D01*
X96674587Y-78724517D01*
X96685983Y-78714617D01*
X96698312Y-78698704D01*
X96711074Y-78683153D01*
X96718188Y-78669843D01*
X96753399Y-78613806D01*
X96762307Y-78601616D01*
X96770781Y-78583369D01*
X96779768Y-78565358D01*
X96783744Y-78550791D01*
X96800000Y-78504335D01*
X96816255Y-78550791D01*
X96820231Y-78565358D01*
X96829218Y-78583369D01*
X96837692Y-78601616D01*
X96846600Y-78613805D01*
X96881808Y-78669837D01*
X96888925Y-78683153D01*
X96901701Y-78698721D01*
X96914016Y-78714616D01*
X96925409Y-78724514D01*
X96972208Y-78771313D01*
X96982108Y-78782709D01*
X96998021Y-78795038D01*
X97013572Y-78807800D01*
X97026882Y-78814914D01*
X97082919Y-78850125D01*
X97095109Y-78859033D01*
X97113356Y-78867507D01*
X97131367Y-78876494D01*
X97145934Y-78880470D01*
X97208391Y-78902325D01*
X97222256Y-78908297D01*
X97241926Y-78912497D01*
X97261493Y-78917253D01*
X97276582Y-78917888D01*
X97328987Y-78923794D01*
X97330600Y-78924283D01*
X97352266Y-78926417D01*
X97362250Y-78927542D01*
X97363928Y-78927566D01*
X97365608Y-78927731D01*
X97375707Y-78927731D01*
X97397424Y-78928036D01*
X97399078Y-78927731D01*
X97400921Y-78927731D01*
X97402575Y-78928036D01*
X97424291Y-78927731D01*
X97434391Y-78927731D01*
X97436071Y-78927566D01*
X97437748Y-78927542D01*
X97447726Y-78926418D01*
X97469399Y-78924283D01*
X97471013Y-78923793D01*
X97523417Y-78917888D01*
X97538505Y-78917253D01*
X97558067Y-78912498D01*
X97577742Y-78908297D01*
X97591608Y-78902324D01*
X97654065Y-78880470D01*
X97668632Y-78876494D01*
X97686643Y-78867507D01*
X97704890Y-78859033D01*
X97717079Y-78850125D01*
X97773111Y-78814917D01*
X97786427Y-78807800D01*
X97801995Y-78795024D01*
X97817890Y-78782709D01*
X97827788Y-78771316D01*
X97874587Y-78724517D01*
X97885983Y-78714617D01*
X97898312Y-78698704D01*
X97911074Y-78683153D01*
X97918188Y-78669843D01*
X97953399Y-78613806D01*
X97962307Y-78601616D01*
X97970781Y-78583369D01*
X97979768Y-78565358D01*
X97983744Y-78550791D01*
X98000000Y-78504335D01*
X98016255Y-78550791D01*
X98020231Y-78565358D01*
X98029218Y-78583369D01*
X98037692Y-78601616D01*
X98046600Y-78613805D01*
X98081808Y-78669837D01*
X98088925Y-78683153D01*
X98101701Y-78698721D01*
X98114016Y-78714616D01*
X98125409Y-78724514D01*
X98172208Y-78771313D01*
X98182108Y-78782709D01*
X98198021Y-78795038D01*
X98213572Y-78807800D01*
X98226882Y-78814914D01*
X98282919Y-78850125D01*
X98295109Y-78859033D01*
X98313356Y-78867507D01*
X98331367Y-78876494D01*
X98345934Y-78880470D01*
X98408391Y-78902325D01*
X98422256Y-78908297D01*
X98441926Y-78912497D01*
X98461493Y-78917253D01*
X98476582Y-78917888D01*
X98528987Y-78923794D01*
X98530600Y-78924283D01*
X98552266Y-78926417D01*
X98562250Y-78927542D01*
X98563928Y-78927566D01*
X98565608Y-78927731D01*
X98575707Y-78927731D01*
X98597424Y-78928036D01*
X98599078Y-78927731D01*
X98600921Y-78927731D01*
X98602575Y-78928036D01*
X98624291Y-78927731D01*
X98634391Y-78927731D01*
X98636071Y-78927566D01*
X98637748Y-78927542D01*
X98647726Y-78926418D01*
X98669399Y-78924283D01*
X98671013Y-78923793D01*
X98723417Y-78917888D01*
X98738505Y-78917253D01*
X98758067Y-78912498D01*
X98777742Y-78908297D01*
X98791608Y-78902324D01*
X98854065Y-78880470D01*
X98868632Y-78876494D01*
X98886643Y-78867507D01*
X98904890Y-78859033D01*
X98917079Y-78850125D01*
X98973111Y-78814917D01*
X98986427Y-78807800D01*
X99001995Y-78795024D01*
X99017890Y-78782709D01*
X99027788Y-78771316D01*
X99074587Y-78724517D01*
X99085983Y-78714617D01*
X99098312Y-78698704D01*
X99111074Y-78683153D01*
X99118188Y-78669843D01*
X99153399Y-78613806D01*
X99162307Y-78601616D01*
X99170781Y-78583369D01*
X99179768Y-78565358D01*
X99183744Y-78550791D01*
X99200000Y-78504335D01*
X99216255Y-78550791D01*
X99220231Y-78565358D01*
X99229218Y-78583369D01*
X99237692Y-78601616D01*
X99246600Y-78613805D01*
X99281808Y-78669837D01*
X99288925Y-78683153D01*
X99301701Y-78698721D01*
X99314016Y-78714616D01*
X99325409Y-78724514D01*
X99372208Y-78771313D01*
X99382108Y-78782709D01*
X99398021Y-78795038D01*
X99413572Y-78807800D01*
X99426882Y-78814914D01*
X99482919Y-78850125D01*
X99495109Y-78859033D01*
X99513356Y-78867507D01*
X99531367Y-78876494D01*
X99545934Y-78880470D01*
X99608391Y-78902325D01*
X99622256Y-78908297D01*
X99641926Y-78912497D01*
X99661493Y-78917253D01*
X99676582Y-78917888D01*
X99728987Y-78923794D01*
X99730600Y-78924283D01*
X99752266Y-78926417D01*
X99762250Y-78927542D01*
X99763928Y-78927566D01*
X99765608Y-78927731D01*
X99775707Y-78927731D01*
X99797424Y-78928036D01*
X99799078Y-78927731D01*
X99800921Y-78927731D01*
X99802575Y-78928036D01*
X99824291Y-78927731D01*
X99834391Y-78927731D01*
X99836071Y-78927566D01*
X99837748Y-78927542D01*
X99847726Y-78926418D01*
X99869399Y-78924283D01*
X99871013Y-78923793D01*
X99923417Y-78917888D01*
X99938505Y-78917253D01*
X99958067Y-78912498D01*
X99977742Y-78908297D01*
X99991608Y-78902324D01*
X100054065Y-78880470D01*
X100068632Y-78876494D01*
X100086643Y-78867507D01*
X100104890Y-78859033D01*
X100117079Y-78850125D01*
X100173111Y-78814917D01*
X100186427Y-78807800D01*
X100201995Y-78795024D01*
X100217890Y-78782709D01*
X100227788Y-78771316D01*
X100274587Y-78724517D01*
X100285983Y-78714617D01*
X100298312Y-78698704D01*
X100311074Y-78683153D01*
X100318188Y-78669843D01*
X100353399Y-78613806D01*
X100362307Y-78601616D01*
X100370781Y-78583369D01*
X100379768Y-78565358D01*
X100383744Y-78550791D01*
X100405599Y-78488334D01*
X100411571Y-78474469D01*
X100415771Y-78454799D01*
X100420527Y-78435232D01*
X100421162Y-78420143D01*
X100427068Y-78367738D01*
X100427557Y-78366125D01*
X100429691Y-78344459D01*
X100430816Y-78334475D01*
X100430840Y-78332797D01*
X100431005Y-78331117D01*
X100431005Y-78321018D01*
X100431310Y-78299301D01*
X100431005Y-78297647D01*
X100431005Y-77533247D01*
X100437692Y-77547646D01*
X100446600Y-77559835D01*
X100481808Y-77615867D01*
X100488925Y-77629183D01*
X100501701Y-77644751D01*
X100514016Y-77660646D01*
X100525409Y-77670544D01*
X100572208Y-77717343D01*
X100582108Y-77728739D01*
X100598021Y-77741068D01*
X100613572Y-77753830D01*
X100626882Y-77760944D01*
X100682919Y-77796155D01*
X100695109Y-77805063D01*
X100713356Y-77813537D01*
X100731367Y-77822524D01*
X100745934Y-77826500D01*
X100808394Y-77848356D01*
X100822259Y-77854328D01*
X100841939Y-77858530D01*
X100861493Y-77863283D01*
X100876578Y-77863918D01*
X100928988Y-77869823D01*
X100930600Y-77870312D01*
X100952277Y-77872447D01*
X100962253Y-77873571D01*
X100963927Y-77873594D01*
X100965608Y-77873760D01*
X100975738Y-77873760D01*
X100997427Y-77874064D01*
X100999076Y-77873760D01*
X103401148Y-77873760D01*
X103412842Y-77874912D01*
X103424536Y-77873760D01*
X103424539Y-77873760D01*
X103459547Y-77870312D01*
X103504457Y-77856689D01*
X103545847Y-77834565D01*
X103582125Y-77804793D01*
X103589584Y-77795704D01*
X106292138Y-75093150D01*
X106761273Y-75093150D01*
X106760598Y-75100000D01*
X106765199Y-75146704D01*
X106778822Y-75191615D01*
X106800408Y-75231998D01*
X106800946Y-75233005D01*
X106830718Y-75269283D01*
X106839802Y-75276738D01*
X106955252Y-75392187D01*
X106962715Y-75401281D01*
X106998993Y-75431053D01*
X107040383Y-75453177D01*
X107085293Y-75466800D01*
X107120301Y-75470248D01*
X107120303Y-75470248D01*
X107131997Y-75471400D01*
X107143691Y-75470248D01*
X107214318Y-75470248D01*
X107214350Y-75470352D01*
X107220575Y-75481999D01*
X107214350Y-75493646D01*
X107214318Y-75493750D01*
X107129693Y-75493750D01*
X107117999Y-75492598D01*
X107106305Y-75493750D01*
X107106303Y-75493750D01*
X107071295Y-75497198D01*
X107026385Y-75510821D01*
X106984995Y-75532945D01*
X106948717Y-75562717D01*
X106941258Y-75571806D01*
X106856249Y-75656815D01*
X106847166Y-75664269D01*
X106839712Y-75673352D01*
X106839709Y-75673355D01*
X106817393Y-75700548D01*
X106800581Y-75732001D01*
X106795270Y-75741937D01*
X106786228Y-75771747D01*
X106781647Y-75786848D01*
X106777046Y-75833552D01*
X106778199Y-75845255D01*
X106778199Y-75888849D01*
X106536242Y-75888849D01*
X106524548Y-75887697D01*
X106512854Y-75888849D01*
X106512852Y-75888849D01*
X106477844Y-75892297D01*
X106432934Y-75905920D01*
X106391544Y-75928044D01*
X106355266Y-75957816D01*
X106347807Y-75966905D01*
X100057862Y-82256850D01*
X96648050Y-82256850D01*
X96648050Y-81873979D01*
X96648355Y-81872325D01*
X96648050Y-81850608D01*
X96648050Y-81840510D01*
X96647885Y-81838831D01*
X96647861Y-81837151D01*
X96646735Y-81827162D01*
X96644602Y-81805502D01*
X96644113Y-81803889D01*
X96637920Y-81748937D01*
X96637285Y-81733851D01*
X96632528Y-81714275D01*
X96628329Y-81694612D01*
X96622359Y-81680753D01*
X96599658Y-81615876D01*
X96595680Y-81601303D01*
X96586690Y-81583286D01*
X96578220Y-81565047D01*
X96569310Y-81552855D01*
X96532738Y-81494651D01*
X96525622Y-81481339D01*
X96512860Y-81465788D01*
X96500530Y-81449875D01*
X96489133Y-81439974D01*
X96440530Y-81391370D01*
X96430629Y-81379973D01*
X96414720Y-81367647D01*
X96399164Y-81354881D01*
X96385851Y-81347765D01*
X96327644Y-81311191D01*
X96315456Y-81302284D01*
X96297209Y-81293810D01*
X96279200Y-81284824D01*
X96264635Y-81280848D01*
X96199753Y-81258145D01*
X96185891Y-81252174D01*
X96166224Y-81247974D01*
X96146652Y-81243218D01*
X96131566Y-81242583D01*
X96076615Y-81236391D01*
X96075001Y-81235901D01*
X96053327Y-81233766D01*
X96043350Y-81232642D01*
X96041673Y-81232618D01*
X96039993Y-81232453D01*
X96029893Y-81232453D01*
X96008177Y-81232148D01*
X96006523Y-81232453D01*
X96003275Y-81232453D01*
X96001621Y-81232148D01*
X95979904Y-81232453D01*
X95969806Y-81232453D01*
X95968127Y-81232618D01*
X95966447Y-81232642D01*
X95956458Y-81233768D01*
X95934798Y-81235901D01*
X95933185Y-81236390D01*
X95878233Y-81242583D01*
X95863147Y-81243218D01*
X95843571Y-81247975D01*
X95823908Y-81252174D01*
X95810049Y-81258144D01*
X95745172Y-81280845D01*
X95730599Y-81284823D01*
X95712582Y-81293813D01*
X95694343Y-81302283D01*
X95682151Y-81311193D01*
X95623947Y-81347765D01*
X95610635Y-81354881D01*
X95595084Y-81367643D01*
X95579171Y-81379973D01*
X95569270Y-81391370D01*
X95520666Y-81439973D01*
X95509269Y-81449874D01*
X95496943Y-81465783D01*
X95484177Y-81481339D01*
X95477061Y-81494652D01*
X95440487Y-81552859D01*
X95431580Y-81565047D01*
X95423106Y-81583294D01*
X95414120Y-81601303D01*
X95410144Y-81615868D01*
X95404900Y-81630856D01*
X95399658Y-81615876D01*
X95395680Y-81601303D01*
X95386690Y-81583286D01*
X95378220Y-81565047D01*
X95369310Y-81552855D01*
X95332738Y-81494651D01*
X95325622Y-81481339D01*
X95312860Y-81465788D01*
X95300530Y-81449875D01*
X95289133Y-81439974D01*
X95240530Y-81391370D01*
X95230629Y-81379973D01*
X95214720Y-81367647D01*
X95199164Y-81354881D01*
X95185851Y-81347765D01*
X95127644Y-81311191D01*
X95115456Y-81302284D01*
X95097209Y-81293810D01*
X95079200Y-81284824D01*
X95064635Y-81280848D01*
X94999753Y-81258145D01*
X94985891Y-81252174D01*
X94966224Y-81247974D01*
X94946652Y-81243218D01*
X94931566Y-81242583D01*
X94876615Y-81236391D01*
X94875001Y-81235901D01*
X94853327Y-81233766D01*
X94843350Y-81232642D01*
X94841673Y-81232618D01*
X94839993Y-81232453D01*
X94829893Y-81232453D01*
X94808177Y-81232148D01*
X94806523Y-81232453D01*
X94803275Y-81232453D01*
X94801621Y-81232148D01*
X94779904Y-81232453D01*
X94769806Y-81232453D01*
X94768127Y-81232618D01*
X94766447Y-81232642D01*
X94756458Y-81233768D01*
X94734798Y-81235901D01*
X94733185Y-81236390D01*
X94678233Y-81242583D01*
X94663147Y-81243218D01*
X94643571Y-81247975D01*
X94623908Y-81252174D01*
X94610049Y-81258144D01*
X94545172Y-81280845D01*
X94530599Y-81284823D01*
X94512582Y-81293813D01*
X94494343Y-81302283D01*
X94482151Y-81311193D01*
X94423947Y-81347765D01*
X94410635Y-81354881D01*
X94395084Y-81367643D01*
X94379171Y-81379973D01*
X94369270Y-81391370D01*
X94320666Y-81439973D01*
X94309269Y-81449874D01*
X94296943Y-81465783D01*
X94284177Y-81481339D01*
X94277061Y-81494652D01*
X94240487Y-81552859D01*
X94231580Y-81565047D01*
X94223106Y-81583294D01*
X94214120Y-81601303D01*
X94210144Y-81615868D01*
X94204900Y-81630856D01*
X94199658Y-81615876D01*
X94195680Y-81601303D01*
X94186690Y-81583286D01*
X94178220Y-81565047D01*
X94169310Y-81552855D01*
X94132738Y-81494651D01*
X94125622Y-81481339D01*
X94112860Y-81465788D01*
X94100530Y-81449875D01*
X94089133Y-81439974D01*
X94040530Y-81391370D01*
X94030629Y-81379973D01*
X94014720Y-81367647D01*
X93999164Y-81354881D01*
X93985851Y-81347765D01*
X93927644Y-81311191D01*
X93915456Y-81302284D01*
X93897209Y-81293810D01*
X93879200Y-81284824D01*
X93864635Y-81280848D01*
X93799753Y-81258145D01*
X93785891Y-81252174D01*
X93766224Y-81247974D01*
X93746652Y-81243218D01*
X93731566Y-81242583D01*
X93676615Y-81236391D01*
X93675001Y-81235901D01*
X93653327Y-81233766D01*
X93643350Y-81232642D01*
X93641673Y-81232618D01*
X93639993Y-81232453D01*
X93629893Y-81232453D01*
X93608177Y-81232148D01*
X93606523Y-81232453D01*
X93603275Y-81232453D01*
X93601621Y-81232148D01*
X93579904Y-81232453D01*
X93569806Y-81232453D01*
X93568127Y-81232618D01*
X93566447Y-81232642D01*
X93556458Y-81233768D01*
X93534798Y-81235901D01*
X93533185Y-81236390D01*
X93478233Y-81242583D01*
X93463147Y-81243218D01*
X93443571Y-81247975D01*
X93423908Y-81252174D01*
X93410049Y-81258144D01*
X93345172Y-81280845D01*
X93330599Y-81284823D01*
X93312582Y-81293813D01*
X93294343Y-81302283D01*
X93282151Y-81311193D01*
X93223947Y-81347765D01*
X93210635Y-81354881D01*
X93195084Y-81367643D01*
X93179171Y-81379973D01*
X93169270Y-81391370D01*
X93120666Y-81439973D01*
X93109269Y-81449874D01*
X93096943Y-81465783D01*
X93084177Y-81481339D01*
X93077061Y-81494652D01*
X93040487Y-81552859D01*
X93031580Y-81565047D01*
X93023106Y-81583294D01*
X93014120Y-81601303D01*
X93010144Y-81615868D01*
X92987440Y-81680754D01*
X92981469Y-81694615D01*
X92977267Y-81714292D01*
X92972514Y-81733851D01*
X92971879Y-81748933D01*
X92965687Y-81803895D01*
X92965199Y-81805502D01*
X92963070Y-81827114D01*
X92961939Y-81837156D01*
X92961915Y-81838841D01*
X92961751Y-81840510D01*
X92961751Y-81850569D01*
X92961446Y-81872328D01*
X92961751Y-81873982D01*
X92961750Y-82476808D01*
X92951456Y-82460424D01*
X92944340Y-82447112D01*
X92931572Y-82431554D01*
X92919249Y-82415649D01*
X92907856Y-82405751D01*
X92883896Y-82381791D01*
X92873998Y-82370398D01*
X92858093Y-82358075D01*
X92842535Y-82345307D01*
X92829223Y-82338191D01*
X92800542Y-82320170D01*
X92788351Y-82311261D01*
X92770096Y-82302783D01*
X92752093Y-82293800D01*
X92737529Y-82289825D01*
X92705557Y-82278637D01*
X92691691Y-82272665D01*
X92672016Y-82268464D01*
X92652457Y-82263710D01*
X92637370Y-82263075D01*
X92617064Y-82260787D01*
X92615452Y-82260298D01*
X92593762Y-82258162D01*
X92583797Y-82257039D01*
X92582125Y-82257016D01*
X92580444Y-82256850D01*
X92570313Y-82256850D01*
X92548624Y-82256546D01*
X92546975Y-82256850D01*
X87342139Y-82256850D01*
X86743150Y-81657862D01*
X86743150Y-80322188D01*
X87718501Y-80322188D01*
X87718501Y-80509814D01*
X87755105Y-80693835D01*
X87826906Y-80867179D01*
X87931146Y-81023185D01*
X88063817Y-81155856D01*
X88219823Y-81260096D01*
X88393167Y-81331897D01*
X88577188Y-81368501D01*
X88764814Y-81368501D01*
X88948835Y-81331897D01*
X89122179Y-81260096D01*
X89278185Y-81155856D01*
X89410856Y-81023185D01*
X89515096Y-80867179D01*
X89586897Y-80693835D01*
X89623501Y-80509814D01*
X89623501Y-80322188D01*
X90258501Y-80322188D01*
X90258501Y-80509814D01*
X90295105Y-80693835D01*
X90366906Y-80867179D01*
X90471146Y-81023185D01*
X90603817Y-81155856D01*
X90759823Y-81260096D01*
X90933167Y-81331897D01*
X91117188Y-81368501D01*
X91304814Y-81368501D01*
X91488835Y-81331897D01*
X91662179Y-81260096D01*
X91818185Y-81155856D01*
X91950856Y-81023185D01*
X92055096Y-80867179D01*
X92126897Y-80693835D01*
X92163501Y-80509814D01*
X92163501Y-80322188D01*
X92126897Y-80138167D01*
X92055096Y-79964823D01*
X91950856Y-79808817D01*
X91818185Y-79676146D01*
X91662179Y-79571906D01*
X91488835Y-79500105D01*
X91304814Y-79463501D01*
X91117188Y-79463501D01*
X90933167Y-79500105D01*
X90759823Y-79571906D01*
X90603817Y-79676146D01*
X90471146Y-79808817D01*
X90366906Y-79964823D01*
X90295105Y-80138167D01*
X90258501Y-80322188D01*
X89623501Y-80322188D01*
X89586897Y-80138167D01*
X89515096Y-79964823D01*
X89410856Y-79808817D01*
X89278185Y-79676146D01*
X89122179Y-79571906D01*
X88948835Y-79500105D01*
X88764814Y-79463501D01*
X88577188Y-79463501D01*
X88393167Y-79500105D01*
X88219823Y-79571906D01*
X88063817Y-79676146D01*
X87931146Y-79808817D01*
X87826906Y-79964823D01*
X87755105Y-80138167D01*
X87718501Y-80322188D01*
X86743150Y-80322188D01*
X86743150Y-78661346D01*
X88043340Y-78661346D01*
X88126999Y-78814450D01*
X88320534Y-78902547D01*
X88527538Y-78951195D01*
X88740054Y-78958523D01*
X88949916Y-78924251D01*
X89149061Y-78849696D01*
X89215003Y-78814450D01*
X89298662Y-78661346D01*
X90583340Y-78661346D01*
X90666999Y-78814450D01*
X90860534Y-78902547D01*
X91067538Y-78951195D01*
X91280054Y-78958523D01*
X91489916Y-78924251D01*
X91689061Y-78849696D01*
X91755003Y-78814450D01*
X91838662Y-78661346D01*
X91211001Y-78033686D01*
X90583340Y-78661346D01*
X89298662Y-78661346D01*
X88671001Y-78033686D01*
X88043340Y-78661346D01*
X86743150Y-78661346D01*
X86743150Y-77945054D01*
X87588479Y-77945054D01*
X87622751Y-78154916D01*
X87697306Y-78354061D01*
X87732552Y-78420003D01*
X87885656Y-78503662D01*
X88513316Y-77876001D01*
X88828686Y-77876001D01*
X89456346Y-78503662D01*
X89609450Y-78420003D01*
X89697547Y-78226468D01*
X89746195Y-78019464D01*
X89748760Y-77945054D01*
X90128479Y-77945054D01*
X90162751Y-78154916D01*
X90237306Y-78354061D01*
X90272552Y-78420003D01*
X90425656Y-78503662D01*
X91053316Y-77876001D01*
X91368686Y-77876001D01*
X91996346Y-78503662D01*
X92149450Y-78420003D01*
X92237547Y-78226468D01*
X92286195Y-78019464D01*
X92293523Y-77806948D01*
X92259251Y-77597086D01*
X92184696Y-77397941D01*
X92149450Y-77331999D01*
X91996346Y-77248340D01*
X91368686Y-77876001D01*
X91053316Y-77876001D01*
X90425656Y-77248340D01*
X90272552Y-77331999D01*
X90184455Y-77525534D01*
X90135807Y-77732538D01*
X90128479Y-77945054D01*
X89748760Y-77945054D01*
X89753523Y-77806948D01*
X89719251Y-77597086D01*
X89644696Y-77397941D01*
X89609450Y-77331999D01*
X89456346Y-77248340D01*
X88828686Y-77876001D01*
X88513316Y-77876001D01*
X87885656Y-77248340D01*
X87732552Y-77331999D01*
X87644455Y-77525534D01*
X87595807Y-77732538D01*
X87588479Y-77945054D01*
X86743150Y-77945054D01*
X86743150Y-77090656D01*
X88043340Y-77090656D01*
X88671001Y-77718316D01*
X89298662Y-77090656D01*
X89215003Y-76937552D01*
X89021468Y-76849455D01*
X88814464Y-76800807D01*
X88601948Y-76793479D01*
X88392086Y-76827751D01*
X88192941Y-76902306D01*
X88126999Y-76937552D01*
X88043340Y-77090656D01*
X86743150Y-77090656D01*
X86743150Y-74842138D01*
X87176038Y-74409251D01*
X88432752Y-74409251D01*
X88432752Y-74412231D01*
G37*
%TD.AperFunction*%
D18*
X107911581Y-68320791D02*
X107919527Y-68330473D01*
X107929209Y-68338419D01*
X107929211Y-68338421D01*
X107958202Y-68362214D01*
X107961918Y-68364200D01*
X108002328Y-68385800D01*
X108050207Y-68400324D01*
X108087531Y-68404000D01*
X108087541Y-68404000D01*
X108099999Y-68405227D01*
X108112457Y-68404000D01*
X110844790Y-68404000D01*
X111146000Y-68705210D01*
X111146001Y-71744789D01*
X111003218Y-71887572D01*
X111021650Y-71843073D01*
X111040500Y-71748310D01*
X111040500Y-71651690D01*
X111021650Y-71556927D01*
X110984675Y-71467661D01*
X110930996Y-71387325D01*
X110862675Y-71319004D01*
X110782339Y-71265325D01*
X110693073Y-71228350D01*
X110598310Y-71209500D01*
X110501690Y-71209500D01*
X110406927Y-71228350D01*
X110317661Y-71265325D01*
X110237325Y-71319004D01*
X110169004Y-71387325D01*
X110129798Y-71446000D01*
X109963037Y-71446000D01*
X109966543Y-71434443D01*
X109970221Y-71397099D01*
X109970221Y-71066899D01*
X109966543Y-71029555D01*
X109955650Y-70993645D01*
X109949425Y-70982000D01*
X109955650Y-70970354D01*
X109966543Y-70934444D01*
X109970221Y-70897100D01*
X109970221Y-70650644D01*
X110003065Y-70624011D01*
X110043024Y-70575899D01*
X110072829Y-70520915D01*
X110091335Y-70461174D01*
X110096300Y-70412973D01*
X110016925Y-70333598D01*
X108696500Y-70333598D01*
X108696500Y-70363498D01*
X108473500Y-70363498D01*
X108473500Y-70333598D01*
X108453500Y-70333598D01*
X108453500Y-70130398D01*
X108473500Y-70130398D01*
X108473500Y-70100498D01*
X108696500Y-70100498D01*
X108696500Y-70130398D01*
X110016925Y-70130398D01*
X110096300Y-70051023D01*
X110091335Y-70002822D01*
X110072829Y-69943081D01*
X110043024Y-69888097D01*
X110003065Y-69839985D01*
X109970221Y-69813352D01*
X109970221Y-69566899D01*
X109966543Y-69529555D01*
X109955650Y-69493645D01*
X109949425Y-69481999D01*
X109955650Y-69470352D01*
X109960610Y-69454000D01*
X110129798Y-69454000D01*
X110169004Y-69512675D01*
X110237325Y-69580996D01*
X110317661Y-69634675D01*
X110406927Y-69671650D01*
X110501690Y-69690500D01*
X110598310Y-69690500D01*
X110693073Y-69671650D01*
X110782339Y-69634675D01*
X110862675Y-69580996D01*
X110930996Y-69512675D01*
X110984675Y-69432339D01*
X111021650Y-69343073D01*
X111040500Y-69248310D01*
X111040500Y-69151690D01*
X111021650Y-69056927D01*
X110984675Y-68967661D01*
X110930996Y-68887325D01*
X110862675Y-68819004D01*
X110782339Y-68765325D01*
X110693073Y-68728350D01*
X110598310Y-68709500D01*
X110501690Y-68709500D01*
X110406927Y-68728350D01*
X110317661Y-68765325D01*
X110237325Y-68819004D01*
X110169004Y-68887325D01*
X110129798Y-68946000D01*
X109926020Y-68946000D01*
X109914155Y-68931543D01*
X109885148Y-68907737D01*
X109852054Y-68890048D01*
X109816144Y-68879155D01*
X109778800Y-68875477D01*
X107640500Y-68875477D01*
X107640500Y-68049710D01*
X107911581Y-68320791D01*
%TA.AperFunction,Conductor*%
D19*
G36*
X107911581Y-68320791D02*
G01*
X107919527Y-68330473D01*
X107929209Y-68338419D01*
X107929211Y-68338421D01*
X107958202Y-68362214D01*
X107961918Y-68364200D01*
X108002328Y-68385800D01*
X108050207Y-68400324D01*
X108087531Y-68404000D01*
X108087541Y-68404000D01*
X108099999Y-68405227D01*
X108112457Y-68404000D01*
X110844790Y-68404000D01*
X111146000Y-68705210D01*
X111146001Y-71744789D01*
X111003218Y-71887572D01*
X111021650Y-71843073D01*
X111040500Y-71748310D01*
X111040500Y-71651690D01*
X111021650Y-71556927D01*
X110984675Y-71467661D01*
X110930996Y-71387325D01*
X110862675Y-71319004D01*
X110782339Y-71265325D01*
X110693073Y-71228350D01*
X110598310Y-71209500D01*
X110501690Y-71209500D01*
X110406927Y-71228350D01*
X110317661Y-71265325D01*
X110237325Y-71319004D01*
X110169004Y-71387325D01*
X110129798Y-71446000D01*
X109963037Y-71446000D01*
X109966543Y-71434443D01*
X109970221Y-71397099D01*
X109970221Y-71066899D01*
X109966543Y-71029555D01*
X109955650Y-70993645D01*
X109949425Y-70982000D01*
X109955650Y-70970354D01*
X109966543Y-70934444D01*
X109970221Y-70897100D01*
X109970221Y-70650644D01*
X110003065Y-70624011D01*
X110043024Y-70575899D01*
X110072829Y-70520915D01*
X110091335Y-70461174D01*
X110096300Y-70412973D01*
X110016925Y-70333598D01*
X108696500Y-70333598D01*
X108696500Y-70363498D01*
X108473500Y-70363498D01*
X108473500Y-70333598D01*
X108453500Y-70333598D01*
X108453500Y-70130398D01*
X108473500Y-70130398D01*
X108473500Y-70100498D01*
X108696500Y-70100498D01*
X108696500Y-70130398D01*
X110016925Y-70130398D01*
X110096300Y-70051023D01*
X110091335Y-70002822D01*
X110072829Y-69943081D01*
X110043024Y-69888097D01*
X110003065Y-69839985D01*
X109970221Y-69813352D01*
X109970221Y-69566899D01*
X109966543Y-69529555D01*
X109955650Y-69493645D01*
X109949425Y-69481999D01*
X109955650Y-69470352D01*
X109960610Y-69454000D01*
X110129798Y-69454000D01*
X110169004Y-69512675D01*
X110237325Y-69580996D01*
X110317661Y-69634675D01*
X110406927Y-69671650D01*
X110501690Y-69690500D01*
X110598310Y-69690500D01*
X110693073Y-69671650D01*
X110782339Y-69634675D01*
X110862675Y-69580996D01*
X110930996Y-69512675D01*
X110984675Y-69432339D01*
X111021650Y-69343073D01*
X111040500Y-69248310D01*
X111040500Y-69151690D01*
X111021650Y-69056927D01*
X110984675Y-68967661D01*
X110930996Y-68887325D01*
X110862675Y-68819004D01*
X110782339Y-68765325D01*
X110693073Y-68728350D01*
X110598310Y-68709500D01*
X110501690Y-68709500D01*
X110406927Y-68728350D01*
X110317661Y-68765325D01*
X110237325Y-68819004D01*
X110169004Y-68887325D01*
X110129798Y-68946000D01*
X109926020Y-68946000D01*
X109914155Y-68931543D01*
X109885148Y-68907737D01*
X109852054Y-68890048D01*
X109816144Y-68879155D01*
X109778800Y-68875477D01*
X107640500Y-68875477D01*
X107640500Y-68049710D01*
X107911581Y-68320791D01*
G37*
%TD.AperFunction*%
%TD*%
M02*
