G04 #@! TF.GenerationSoftware,KiCad,Pcbnew,5.1.9*
G04 #@! TF.CreationDate,2021-01-31T15:24:44-06:00*
G04 #@! TF.ProjectId,hdmi_pmod,68646d69-5f70-46d6-9f64-2e6b69636164,rev?*
G04 #@! TF.SameCoordinates,Original*
G04 #@! TF.FileFunction,Legend,Bot*
G04 #@! TF.FilePolarity,Positive*
%FSLAX46Y46*%
G04 Gerber Fmt 4.6, Leading zero omitted, Abs format (unit mm)*
G04 Created by KiCad (PCBNEW 5.1.9) date 2021-01-31 15:24:44*
%MOMM*%
%LPD*%
G01*
G04 APERTURE LIST*
%ADD10C,0.100000*%
G04 #@! TA.AperFunction,Profile*
%ADD11C,0.038100*%
G04 #@! TD*
%ADD12C,0.203200*%
%ADD13C,0.304800*%
%ADD14C,0.152400*%
%ADD15C,0.120000*%
%ADD16C,0.150000*%
G04 APERTURE END LIST*
D10*
X109339761Y-69680952D02*
X109339761Y-69280952D01*
X109339761Y-69471428D02*
X109111190Y-69471428D01*
X109111190Y-69680952D02*
X109111190Y-69280952D01*
X108920714Y-69680952D02*
X108920714Y-69280952D01*
X108825476Y-69280952D01*
X108768333Y-69300000D01*
X108730238Y-69338095D01*
X108711190Y-69376190D01*
X108692142Y-69452380D01*
X108692142Y-69509523D01*
X108711190Y-69585714D01*
X108730238Y-69623809D01*
X108768333Y-69661904D01*
X108825476Y-69680952D01*
X108920714Y-69680952D01*
X108520714Y-69680952D02*
X108520714Y-69280952D01*
X108387380Y-69566666D01*
X108254047Y-69280952D01*
X108254047Y-69680952D01*
X108063571Y-69680952D02*
X108063571Y-69280952D01*
X107968333Y-69719047D02*
X107663571Y-69719047D01*
X107568333Y-69680952D02*
X107568333Y-69280952D01*
X107415952Y-69280952D01*
X107377857Y-69300000D01*
X107358809Y-69319047D01*
X107339761Y-69357142D01*
X107339761Y-69414285D01*
X107358809Y-69452380D01*
X107377857Y-69471428D01*
X107415952Y-69490476D01*
X107568333Y-69490476D01*
X107168333Y-69680952D02*
X107168333Y-69280952D01*
X107035000Y-69566666D01*
X106901666Y-69280952D01*
X106901666Y-69680952D01*
X106635000Y-69280952D02*
X106558809Y-69280952D01*
X106520714Y-69300000D01*
X106482619Y-69338095D01*
X106463571Y-69414285D01*
X106463571Y-69547619D01*
X106482619Y-69623809D01*
X106520714Y-69661904D01*
X106558809Y-69680952D01*
X106635000Y-69680952D01*
X106673095Y-69661904D01*
X106711190Y-69623809D01*
X106730238Y-69547619D01*
X106730238Y-69414285D01*
X106711190Y-69338095D01*
X106673095Y-69300000D01*
X106635000Y-69280952D01*
X106292142Y-69680952D02*
X106292142Y-69280952D01*
X106196904Y-69280952D01*
X106139761Y-69300000D01*
X106101666Y-69338095D01*
X106082619Y-69376190D01*
X106063571Y-69452380D01*
X106063571Y-69509523D01*
X106082619Y-69585714D01*
X106101666Y-69623809D01*
X106139761Y-69661904D01*
X106196904Y-69680952D01*
X106292142Y-69680952D01*
X105358809Y-69680952D02*
X105492142Y-69490476D01*
X105587380Y-69680952D02*
X105587380Y-69280952D01*
X105435000Y-69280952D01*
X105396904Y-69300000D01*
X105377857Y-69319047D01*
X105358809Y-69357142D01*
X105358809Y-69414285D01*
X105377857Y-69452380D01*
X105396904Y-69471428D01*
X105435000Y-69490476D01*
X105587380Y-69490476D01*
X105035000Y-69661904D02*
X105073095Y-69680952D01*
X105149285Y-69680952D01*
X105187380Y-69661904D01*
X105206428Y-69623809D01*
X105206428Y-69471428D01*
X105187380Y-69433333D01*
X105149285Y-69414285D01*
X105073095Y-69414285D01*
X105035000Y-69433333D01*
X105015952Y-69471428D01*
X105015952Y-69509523D01*
X105206428Y-69547619D01*
X104882619Y-69414285D02*
X104787380Y-69680952D01*
X104692142Y-69414285D01*
X104539761Y-69642857D02*
X104520714Y-69661904D01*
X104539761Y-69680952D01*
X104558809Y-69661904D01*
X104539761Y-69642857D01*
X104539761Y-69680952D01*
X104063571Y-69319047D02*
X104044523Y-69300000D01*
X104006428Y-69280952D01*
X103911190Y-69280952D01*
X103873095Y-69300000D01*
X103854047Y-69319047D01*
X103835000Y-69357142D01*
X103835000Y-69395238D01*
X103854047Y-69452380D01*
X104082619Y-69680952D01*
X103835000Y-69680952D01*
X109358809Y-70266666D02*
X109168333Y-70266666D01*
X109396904Y-70380952D02*
X109263571Y-69980952D01*
X109130238Y-70380952D01*
X108939761Y-70380952D02*
X108977857Y-70361904D01*
X108996904Y-70323809D01*
X108996904Y-69980952D01*
X108635000Y-70361904D02*
X108673095Y-70380952D01*
X108749285Y-70380952D01*
X108787380Y-70361904D01*
X108806428Y-70323809D01*
X108806428Y-70171428D01*
X108787380Y-70133333D01*
X108749285Y-70114285D01*
X108673095Y-70114285D01*
X108635000Y-70133333D01*
X108615952Y-70171428D01*
X108615952Y-70209523D01*
X108806428Y-70247619D01*
X108482619Y-70380952D02*
X108273095Y-70114285D01*
X108482619Y-70114285D02*
X108273095Y-70380952D01*
X107854047Y-69980952D02*
X107758809Y-70380952D01*
X107682619Y-70095238D01*
X107606428Y-70380952D01*
X107511190Y-69980952D01*
X107358809Y-70380952D02*
X107358809Y-70114285D01*
X107358809Y-70190476D02*
X107339761Y-70152380D01*
X107320714Y-70133333D01*
X107282619Y-70114285D01*
X107244523Y-70114285D01*
X106939761Y-70380952D02*
X106939761Y-70171428D01*
X106958809Y-70133333D01*
X106996904Y-70114285D01*
X107073095Y-70114285D01*
X107111190Y-70133333D01*
X106939761Y-70361904D02*
X106977857Y-70380952D01*
X107073095Y-70380952D01*
X107111190Y-70361904D01*
X107130238Y-70323809D01*
X107130238Y-70285714D01*
X107111190Y-70247619D01*
X107073095Y-70228571D01*
X106977857Y-70228571D01*
X106939761Y-70209523D01*
X106749285Y-70114285D02*
X106749285Y-70380952D01*
X106749285Y-70152380D02*
X106730238Y-70133333D01*
X106692142Y-70114285D01*
X106635000Y-70114285D01*
X106596904Y-70133333D01*
X106577857Y-70171428D01*
X106577857Y-70380952D01*
X106330238Y-70380952D02*
X106368333Y-70361904D01*
X106387380Y-70342857D01*
X106406428Y-70304761D01*
X106406428Y-70190476D01*
X106387380Y-70152380D01*
X106368333Y-70133333D01*
X106330238Y-70114285D01*
X106273095Y-70114285D01*
X106235000Y-70133333D01*
X106215952Y-70152380D01*
X106196904Y-70190476D01*
X106196904Y-70304761D01*
X106215952Y-70342857D01*
X106235000Y-70361904D01*
X106273095Y-70380952D01*
X106330238Y-70380952D01*
X106063571Y-70114285D02*
X105968333Y-70380952D01*
X105873095Y-70114285D01*
X105739761Y-70361904D02*
X105701666Y-70380952D01*
X105625476Y-70380952D01*
X105587380Y-70361904D01*
X105568333Y-70323809D01*
X105568333Y-70304761D01*
X105587380Y-70266666D01*
X105625476Y-70247619D01*
X105682619Y-70247619D01*
X105720714Y-70228571D01*
X105739761Y-70190476D01*
X105739761Y-70171428D01*
X105720714Y-70133333D01*
X105682619Y-70114285D01*
X105625476Y-70114285D01*
X105587380Y-70133333D01*
X105396904Y-70380952D02*
X105396904Y-69980952D01*
X105358809Y-70228571D02*
X105244523Y-70380952D01*
X105244523Y-70114285D02*
X105396904Y-70266666D01*
X105111190Y-70114285D02*
X105015952Y-70380952D01*
X104920714Y-70114285D02*
X105015952Y-70380952D01*
X105054047Y-70476190D01*
X105073095Y-70495238D01*
X105111190Y-70514285D01*
X109339761Y-71080952D02*
X109339761Y-70680952D01*
X109168333Y-71080952D02*
X109168333Y-70871428D01*
X109187380Y-70833333D01*
X109225476Y-70814285D01*
X109282619Y-70814285D01*
X109320714Y-70833333D01*
X109339761Y-70852380D01*
X109035000Y-70814285D02*
X108882619Y-70814285D01*
X108977857Y-70680952D02*
X108977857Y-71023809D01*
X108958809Y-71061904D01*
X108920714Y-71080952D01*
X108882619Y-71080952D01*
X108806428Y-70814285D02*
X108654047Y-70814285D01*
X108749285Y-70680952D02*
X108749285Y-71023809D01*
X108730238Y-71061904D01*
X108692142Y-71080952D01*
X108654047Y-71080952D01*
X108520714Y-70814285D02*
X108520714Y-71214285D01*
X108520714Y-70833333D02*
X108482619Y-70814285D01*
X108406428Y-70814285D01*
X108368333Y-70833333D01*
X108349285Y-70852380D01*
X108330238Y-70890476D01*
X108330238Y-71004761D01*
X108349285Y-71042857D01*
X108368333Y-71061904D01*
X108406428Y-71080952D01*
X108482619Y-71080952D01*
X108520714Y-71061904D01*
X108177857Y-71061904D02*
X108139761Y-71080952D01*
X108063571Y-71080952D01*
X108025476Y-71061904D01*
X108006428Y-71023809D01*
X108006428Y-71004761D01*
X108025476Y-70966666D01*
X108063571Y-70947619D01*
X108120714Y-70947619D01*
X108158809Y-70928571D01*
X108177857Y-70890476D01*
X108177857Y-70871428D01*
X108158809Y-70833333D01*
X108120714Y-70814285D01*
X108063571Y-70814285D01*
X108025476Y-70833333D01*
X107835000Y-71042857D02*
X107815952Y-71061904D01*
X107835000Y-71080952D01*
X107854047Y-71061904D01*
X107835000Y-71042857D01*
X107835000Y-71080952D01*
X107835000Y-70833333D02*
X107815952Y-70852380D01*
X107835000Y-70871428D01*
X107854047Y-70852380D01*
X107835000Y-70833333D01*
X107835000Y-70871428D01*
X107358809Y-70661904D02*
X107701666Y-71176190D01*
X106939761Y-70661904D02*
X107282619Y-71176190D01*
X106635000Y-70814285D02*
X106635000Y-71138095D01*
X106654047Y-71176190D01*
X106673095Y-71195238D01*
X106711190Y-71214285D01*
X106768333Y-71214285D01*
X106806428Y-71195238D01*
X106635000Y-71061904D02*
X106673095Y-71080952D01*
X106749285Y-71080952D01*
X106787380Y-71061904D01*
X106806428Y-71042857D01*
X106825476Y-71004761D01*
X106825476Y-70890476D01*
X106806428Y-70852380D01*
X106787380Y-70833333D01*
X106749285Y-70814285D01*
X106673095Y-70814285D01*
X106635000Y-70833333D01*
X106444523Y-71080952D02*
X106444523Y-70814285D01*
X106444523Y-70680952D02*
X106463571Y-70700000D01*
X106444523Y-70719047D01*
X106425476Y-70700000D01*
X106444523Y-70680952D01*
X106444523Y-70719047D01*
X106311190Y-70814285D02*
X106158809Y-70814285D01*
X106254047Y-70680952D02*
X106254047Y-71023809D01*
X106235000Y-71061904D01*
X106196904Y-71080952D01*
X106158809Y-71080952D01*
X106025476Y-71080952D02*
X106025476Y-70680952D01*
X105854047Y-71080952D02*
X105854047Y-70871428D01*
X105873095Y-70833333D01*
X105911190Y-70814285D01*
X105968333Y-70814285D01*
X106006428Y-70833333D01*
X106025476Y-70852380D01*
X105492142Y-70814285D02*
X105492142Y-71080952D01*
X105663571Y-70814285D02*
X105663571Y-71023809D01*
X105644523Y-71061904D01*
X105606428Y-71080952D01*
X105549285Y-71080952D01*
X105511190Y-71061904D01*
X105492142Y-71042857D01*
X105301666Y-71080952D02*
X105301666Y-70680952D01*
X105301666Y-70833333D02*
X105263571Y-70814285D01*
X105187380Y-70814285D01*
X105149285Y-70833333D01*
X105130238Y-70852380D01*
X105111190Y-70890476D01*
X105111190Y-71004761D01*
X105130238Y-71042857D01*
X105149285Y-71061904D01*
X105187380Y-71080952D01*
X105263571Y-71080952D01*
X105301666Y-71061904D01*
X104939761Y-71042857D02*
X104920714Y-71061904D01*
X104939761Y-71080952D01*
X104958809Y-71061904D01*
X104939761Y-71042857D01*
X104939761Y-71080952D01*
X104577857Y-71061904D02*
X104615952Y-71080952D01*
X104692142Y-71080952D01*
X104730238Y-71061904D01*
X104749285Y-71042857D01*
X104768333Y-71004761D01*
X104768333Y-70890476D01*
X104749285Y-70852380D01*
X104730238Y-70833333D01*
X104692142Y-70814285D01*
X104615952Y-70814285D01*
X104577857Y-70833333D01*
X104349285Y-71080952D02*
X104387380Y-71061904D01*
X104406428Y-71042857D01*
X104425476Y-71004761D01*
X104425476Y-70890476D01*
X104406428Y-70852380D01*
X104387380Y-70833333D01*
X104349285Y-70814285D01*
X104292142Y-70814285D01*
X104254047Y-70833333D01*
X104235000Y-70852380D01*
X104215952Y-70890476D01*
X104215952Y-71004761D01*
X104235000Y-71042857D01*
X104254047Y-71061904D01*
X104292142Y-71080952D01*
X104349285Y-71080952D01*
X104044523Y-71080952D02*
X104044523Y-70814285D01*
X104044523Y-70852380D02*
X104025476Y-70833333D01*
X103987380Y-70814285D01*
X103930238Y-70814285D01*
X103892142Y-70833333D01*
X103873095Y-70871428D01*
X103873095Y-71080952D01*
X103873095Y-70871428D02*
X103854047Y-70833333D01*
X103815952Y-70814285D01*
X103758809Y-70814285D01*
X103720714Y-70833333D01*
X103701666Y-70871428D01*
X103701666Y-71080952D01*
X103225476Y-70661904D02*
X103568333Y-71176190D01*
X102920714Y-71080952D02*
X102920714Y-70871428D01*
X102939761Y-70833333D01*
X102977857Y-70814285D01*
X103054047Y-70814285D01*
X103092142Y-70833333D01*
X102920714Y-71061904D02*
X102958809Y-71080952D01*
X103054047Y-71080952D01*
X103092142Y-71061904D01*
X103111190Y-71023809D01*
X103111190Y-70985714D01*
X103092142Y-70947619D01*
X103054047Y-70928571D01*
X102958809Y-70928571D01*
X102920714Y-70909523D01*
X102558809Y-71080952D02*
X102558809Y-70680952D01*
X102558809Y-71061904D02*
X102596904Y-71080952D01*
X102673095Y-71080952D01*
X102711190Y-71061904D01*
X102730238Y-71042857D01*
X102749285Y-71004761D01*
X102749285Y-70890476D01*
X102730238Y-70852380D01*
X102711190Y-70833333D01*
X102673095Y-70814285D01*
X102596904Y-70814285D01*
X102558809Y-70833333D01*
X102406428Y-70814285D02*
X102330238Y-71080952D01*
X102254047Y-70890476D01*
X102177857Y-71080952D01*
X102101666Y-70814285D01*
X101949285Y-71080952D02*
X101949285Y-70814285D01*
X101949285Y-70890476D02*
X101930238Y-70852380D01*
X101911190Y-70833333D01*
X101873095Y-70814285D01*
X101835000Y-70814285D01*
X101530238Y-71080952D02*
X101530238Y-70871428D01*
X101549285Y-70833333D01*
X101587380Y-70814285D01*
X101663571Y-70814285D01*
X101701666Y-70833333D01*
X101530238Y-71061904D02*
X101568333Y-71080952D01*
X101663571Y-71080952D01*
X101701666Y-71061904D01*
X101720714Y-71023809D01*
X101720714Y-70985714D01*
X101701666Y-70947619D01*
X101663571Y-70928571D01*
X101568333Y-70928571D01*
X101530238Y-70909523D01*
X101339761Y-70814285D02*
X101339761Y-71080952D01*
X101339761Y-70852380D02*
X101320714Y-70833333D01*
X101282619Y-70814285D01*
X101225476Y-70814285D01*
X101187380Y-70833333D01*
X101168333Y-70871428D01*
X101168333Y-71080952D01*
X100920714Y-71080952D02*
X100958809Y-71061904D01*
X100977857Y-71042857D01*
X100996904Y-71004761D01*
X100996904Y-70890476D01*
X100977857Y-70852380D01*
X100958809Y-70833333D01*
X100920714Y-70814285D01*
X100863571Y-70814285D01*
X100825476Y-70833333D01*
X100806428Y-70852380D01*
X100787380Y-70890476D01*
X100787380Y-71004761D01*
X100806428Y-71042857D01*
X100825476Y-71061904D01*
X100863571Y-71080952D01*
X100920714Y-71080952D01*
X100654047Y-70814285D02*
X100558809Y-71080952D01*
X100463571Y-70814285D01*
X100330238Y-71061904D02*
X100292142Y-71080952D01*
X100215952Y-71080952D01*
X100177857Y-71061904D01*
X100158809Y-71023809D01*
X100158809Y-71004761D01*
X100177857Y-70966666D01*
X100215952Y-70947619D01*
X100273095Y-70947619D01*
X100311190Y-70928571D01*
X100330238Y-70890476D01*
X100330238Y-70871428D01*
X100311190Y-70833333D01*
X100273095Y-70814285D01*
X100215952Y-70814285D01*
X100177857Y-70833333D01*
X99987380Y-71080952D02*
X99987380Y-70680952D01*
X99949285Y-70928571D02*
X99835000Y-71080952D01*
X99835000Y-70814285D02*
X99987380Y-70966666D01*
X99701666Y-70814285D02*
X99606428Y-71080952D01*
X99511190Y-70814285D02*
X99606428Y-71080952D01*
X99644523Y-71176190D01*
X99663571Y-71195238D01*
X99701666Y-71214285D01*
X99073095Y-70661904D02*
X99415952Y-71176190D01*
X98939761Y-71080952D02*
X98939761Y-70680952D01*
X98768333Y-71080952D02*
X98768333Y-70871428D01*
X98787380Y-70833333D01*
X98825476Y-70814285D01*
X98882619Y-70814285D01*
X98920714Y-70833333D01*
X98939761Y-70852380D01*
X98406428Y-71080952D02*
X98406428Y-70680952D01*
X98406428Y-71061904D02*
X98444523Y-71080952D01*
X98520714Y-71080952D01*
X98558809Y-71061904D01*
X98577857Y-71042857D01*
X98596904Y-71004761D01*
X98596904Y-70890476D01*
X98577857Y-70852380D01*
X98558809Y-70833333D01*
X98520714Y-70814285D01*
X98444523Y-70814285D01*
X98406428Y-70833333D01*
X98215952Y-71080952D02*
X98215952Y-70814285D01*
X98215952Y-70852380D02*
X98196904Y-70833333D01*
X98158809Y-70814285D01*
X98101666Y-70814285D01*
X98063571Y-70833333D01*
X98044523Y-70871428D01*
X98044523Y-71080952D01*
X98044523Y-70871428D02*
X98025476Y-70833333D01*
X97987380Y-70814285D01*
X97930238Y-70814285D01*
X97892142Y-70833333D01*
X97873095Y-70871428D01*
X97873095Y-71080952D01*
X97682619Y-71080952D02*
X97682619Y-70814285D01*
X97682619Y-70680952D02*
X97701666Y-70700000D01*
X97682619Y-70719047D01*
X97663571Y-70700000D01*
X97682619Y-70680952D01*
X97682619Y-70719047D01*
X97587380Y-71119047D02*
X97282619Y-71119047D01*
X97187380Y-70814285D02*
X97187380Y-71214285D01*
X97187380Y-70833333D02*
X97149285Y-70814285D01*
X97073095Y-70814285D01*
X97035000Y-70833333D01*
X97015952Y-70852380D01*
X96996904Y-70890476D01*
X96996904Y-71004761D01*
X97015952Y-71042857D01*
X97035000Y-71061904D01*
X97073095Y-71080952D01*
X97149285Y-71080952D01*
X97187380Y-71061904D01*
X96825476Y-71080952D02*
X96825476Y-70814285D01*
X96825476Y-70852380D02*
X96806428Y-70833333D01*
X96768333Y-70814285D01*
X96711190Y-70814285D01*
X96673095Y-70833333D01*
X96654047Y-70871428D01*
X96654047Y-71080952D01*
X96654047Y-70871428D02*
X96635000Y-70833333D01*
X96596904Y-70814285D01*
X96539761Y-70814285D01*
X96501666Y-70833333D01*
X96482619Y-70871428D01*
X96482619Y-71080952D01*
X96235000Y-71080952D02*
X96273095Y-71061904D01*
X96292142Y-71042857D01*
X96311190Y-71004761D01*
X96311190Y-70890476D01*
X96292142Y-70852380D01*
X96273095Y-70833333D01*
X96235000Y-70814285D01*
X96177857Y-70814285D01*
X96139761Y-70833333D01*
X96120714Y-70852380D01*
X96101666Y-70890476D01*
X96101666Y-71004761D01*
X96120714Y-71042857D01*
X96139761Y-71061904D01*
X96177857Y-71080952D01*
X96235000Y-71080952D01*
X95758809Y-71080952D02*
X95758809Y-70680952D01*
X95758809Y-71061904D02*
X95796904Y-71080952D01*
X95873095Y-71080952D01*
X95911190Y-71061904D01*
X95930238Y-71042857D01*
X95949285Y-71004761D01*
X95949285Y-70890476D01*
X95930238Y-70852380D01*
X95911190Y-70833333D01*
X95873095Y-70814285D01*
X95796904Y-70814285D01*
X95758809Y-70833333D01*
D11*
X116700000Y-84200000D02*
X84836000Y-84201000D01*
X116700000Y-63880000D02*
X116700000Y-84200000D01*
X84836000Y-63881000D02*
X116700000Y-63880000D01*
X84836000Y-84201000D02*
X84836000Y-63881000D01*
D12*
G04 #@! TO.C,PMOD0*
X92481001Y-71526001D02*
X94513001Y-71526001D01*
D13*
X89941001Y-71526001D02*
X89941001Y-76606001D01*
X89941001Y-71526001D02*
X89941001Y-66446001D01*
X92481001Y-71526001D02*
X87401001Y-71526001D01*
X92481001Y-76606001D02*
X87401001Y-76606001D01*
X92481001Y-66446001D02*
X87401001Y-66446001D01*
X92481001Y-81686001D02*
X92481001Y-66446001D01*
X87401001Y-81686001D02*
X92481001Y-81686001D01*
X87401001Y-66446001D02*
X87401001Y-81686001D01*
D12*
X85369001Y-71526001D02*
X87401001Y-71526001D01*
X85369001Y-76606001D02*
X87401001Y-76606001D01*
X92481001Y-76606001D02*
X94513001Y-76606001D01*
X92481001Y-66446001D02*
X94513001Y-66446001D01*
X85369001Y-66446001D02*
X87401001Y-66446001D01*
D14*
G04 #@! TO.C,J0*
X108966000Y-81999699D02*
G75*
G03*
X108966000Y-81999699I-381000J0D01*
G01*
D15*
G04 #@! TO.C,R1*
X100835000Y-75327064D02*
X100835000Y-74872936D01*
X99365000Y-75327064D02*
X99365000Y-74872936D01*
G04 #@! TO.C,R2*
X103335000Y-75327064D02*
X103335000Y-74872936D01*
X101865000Y-75327064D02*
X101865000Y-74872936D01*
G04 #@! TO.C,R3*
X98335000Y-75327064D02*
X98335000Y-74872936D01*
X96865000Y-75327064D02*
X96865000Y-74872936D01*
G04 #@! TO.C,R4*
X104365000Y-74872936D02*
X104365000Y-75327064D01*
X105835000Y-74872936D02*
X105835000Y-75327064D01*
G04 #@! TD*
G04 #@! TO.C,PMOD0*
D16*
X95592334Y-79868381D02*
X95259001Y-80868381D01*
X94925667Y-79868381D01*
X94020905Y-80773143D02*
X94068524Y-80820762D01*
X94211381Y-80868381D01*
X94306620Y-80868381D01*
X94449477Y-80820762D01*
X94544715Y-80725524D01*
X94592334Y-80630286D01*
X94639953Y-80439810D01*
X94639953Y-80296953D01*
X94592334Y-80106477D01*
X94544715Y-80011239D01*
X94449477Y-79916001D01*
X94306620Y-79868381D01*
X94211381Y-79868381D01*
X94068524Y-79916001D01*
X94020905Y-79963620D01*
X93020905Y-80773143D02*
X93068524Y-80820762D01*
X93211381Y-80868381D01*
X93306620Y-80868381D01*
X93449477Y-80820762D01*
X93544715Y-80725524D01*
X93592334Y-80630286D01*
X93639953Y-80439810D01*
X93639953Y-80296953D01*
X93592334Y-80106477D01*
X93544715Y-80011239D01*
X93449477Y-79916001D01*
X93306620Y-79868381D01*
X93211381Y-79868381D01*
X93068524Y-79916001D01*
X93020905Y-79963620D01*
X95020905Y-77376001D02*
X95116143Y-77328381D01*
X95259001Y-77328381D01*
X95401858Y-77376001D01*
X95497096Y-77471239D01*
X95544715Y-77566477D01*
X95592334Y-77756953D01*
X95592334Y-77899810D01*
X95544715Y-78090286D01*
X95497096Y-78185524D01*
X95401858Y-78280762D01*
X95259001Y-78328381D01*
X95163762Y-78328381D01*
X95020905Y-78280762D01*
X94973286Y-78233143D01*
X94973286Y-77899810D01*
X95163762Y-77899810D01*
X94544715Y-78328381D02*
X94544715Y-77328381D01*
X93973286Y-78328381D01*
X93973286Y-77328381D01*
X93497096Y-78328381D02*
X93497096Y-77328381D01*
X93259001Y-77328381D01*
X93116143Y-77376001D01*
X93020905Y-77471239D01*
X92973286Y-77566477D01*
X92925667Y-77756953D01*
X92925667Y-77899810D01*
X92973286Y-78090286D01*
X93020905Y-78185524D01*
X93116143Y-78280762D01*
X93259001Y-78328381D01*
X93497096Y-78328381D01*
X86964334Y-67168381D02*
X86345286Y-67168381D01*
X86678620Y-67549334D01*
X86535762Y-67549334D01*
X86440524Y-67596953D01*
X86392905Y-67644572D01*
X86345286Y-67739810D01*
X86345286Y-67977905D01*
X86392905Y-68073143D01*
X86440524Y-68120762D01*
X86535762Y-68168381D01*
X86821477Y-68168381D01*
X86916715Y-68120762D01*
X86964334Y-68073143D01*
X85916715Y-68168381D02*
X85916715Y-67168381D01*
X85535762Y-67168381D01*
X85440524Y-67216001D01*
X85392905Y-67263620D01*
X85345286Y-67358858D01*
X85345286Y-67501715D01*
X85392905Y-67596953D01*
X85440524Y-67644572D01*
X85535762Y-67692191D01*
X85916715Y-67692191D01*
X86988143Y-69708381D02*
X86369096Y-69708381D01*
X86702429Y-70089334D01*
X86559572Y-70089334D01*
X86464334Y-70136953D01*
X86416715Y-70184572D01*
X86369096Y-70279810D01*
X86369096Y-70517905D01*
X86416715Y-70613143D01*
X86464334Y-70660762D01*
X86559572Y-70708381D01*
X86845286Y-70708381D01*
X86940524Y-70660762D01*
X86988143Y-70613143D01*
X85940524Y-70708381D02*
X85940524Y-69708381D01*
X85369096Y-70708381D01*
X85369096Y-69708381D01*
X86440524Y-72581715D02*
X86440524Y-73248381D01*
X86678620Y-72200762D02*
X86916715Y-72915048D01*
X86297667Y-72915048D01*
X85916715Y-73248381D02*
X85916715Y-72248381D01*
X85535762Y-72248381D01*
X85440524Y-72296001D01*
X85392905Y-72343620D01*
X85345286Y-72438858D01*
X85345286Y-72581715D01*
X85392905Y-72676953D01*
X85440524Y-72724572D01*
X85535762Y-72772191D01*
X85916715Y-72772191D01*
X86464334Y-75121715D02*
X86464334Y-75788381D01*
X86702429Y-74740762D02*
X86940524Y-75455048D01*
X86321477Y-75455048D01*
X85940524Y-75788381D02*
X85940524Y-74788381D01*
X85369096Y-75788381D01*
X85369096Y-74788381D01*
X93965286Y-68168381D02*
X94536715Y-68168381D01*
X94251001Y-68168381D02*
X94251001Y-67168381D01*
X94346239Y-67311239D01*
X94441477Y-67406477D01*
X94536715Y-67454096D01*
X93536715Y-68168381D02*
X93536715Y-67168381D01*
X93155762Y-67168381D01*
X93060524Y-67216001D01*
X93012905Y-67263620D01*
X92965286Y-67358858D01*
X92965286Y-67501715D01*
X93012905Y-67596953D01*
X93060524Y-67644572D01*
X93155762Y-67692191D01*
X93536715Y-67692191D01*
X93989096Y-70708381D02*
X94560524Y-70708381D01*
X94274810Y-70708381D02*
X94274810Y-69708381D01*
X94370048Y-69851239D01*
X94465286Y-69946477D01*
X94560524Y-69994096D01*
X93560524Y-70708381D02*
X93560524Y-69708381D01*
X92989096Y-70708381D01*
X92989096Y-69708381D01*
X94536715Y-72343620D02*
X94489096Y-72296001D01*
X94393858Y-72248381D01*
X94155762Y-72248381D01*
X94060524Y-72296001D01*
X94012905Y-72343620D01*
X93965286Y-72438858D01*
X93965286Y-72534096D01*
X94012905Y-72676953D01*
X94584334Y-73248381D01*
X93965286Y-73248381D01*
X93536715Y-73248381D02*
X93536715Y-72248381D01*
X93155762Y-72248381D01*
X93060524Y-72296001D01*
X93012905Y-72343620D01*
X92965286Y-72438858D01*
X92965286Y-72581715D01*
X93012905Y-72676953D01*
X93060524Y-72724572D01*
X93155762Y-72772191D01*
X93536715Y-72772191D01*
X94560524Y-74883620D02*
X94512905Y-74836001D01*
X94417667Y-74788381D01*
X94179572Y-74788381D01*
X94084334Y-74836001D01*
X94036715Y-74883620D01*
X93989096Y-74978858D01*
X93989096Y-75074096D01*
X94036715Y-75216953D01*
X94608143Y-75788381D01*
X93989096Y-75788381D01*
X93560524Y-75788381D02*
X93560524Y-74788381D01*
X92989096Y-75788381D01*
X92989096Y-74788381D01*
G04 #@! TO.C,R1*
X100266666Y-73302380D02*
X100600000Y-72826190D01*
X100838095Y-73302380D02*
X100838095Y-72302380D01*
X100457142Y-72302380D01*
X100361904Y-72350000D01*
X100314285Y-72397619D01*
X100266666Y-72492857D01*
X100266666Y-72635714D01*
X100314285Y-72730952D01*
X100361904Y-72778571D01*
X100457142Y-72826190D01*
X100838095Y-72826190D01*
X99314285Y-73302380D02*
X99885714Y-73302380D01*
X99600000Y-73302380D02*
X99600000Y-72302380D01*
X99695238Y-72445238D01*
X99790476Y-72540476D01*
X99885714Y-72588095D01*
G04 #@! TO.C,R2*
X102816666Y-73302380D02*
X103150000Y-72826190D01*
X103388095Y-73302380D02*
X103388095Y-72302380D01*
X103007142Y-72302380D01*
X102911904Y-72350000D01*
X102864285Y-72397619D01*
X102816666Y-72492857D01*
X102816666Y-72635714D01*
X102864285Y-72730952D01*
X102911904Y-72778571D01*
X103007142Y-72826190D01*
X103388095Y-72826190D01*
X102435714Y-72397619D02*
X102388095Y-72350000D01*
X102292857Y-72302380D01*
X102054761Y-72302380D01*
X101959523Y-72350000D01*
X101911904Y-72397619D01*
X101864285Y-72492857D01*
X101864285Y-72588095D01*
X101911904Y-72730952D01*
X102483333Y-73302380D01*
X101864285Y-73302380D01*
G04 #@! TO.C,R3*
X97766666Y-73252380D02*
X98100000Y-72776190D01*
X98338095Y-73252380D02*
X98338095Y-72252380D01*
X97957142Y-72252380D01*
X97861904Y-72300000D01*
X97814285Y-72347619D01*
X97766666Y-72442857D01*
X97766666Y-72585714D01*
X97814285Y-72680952D01*
X97861904Y-72728571D01*
X97957142Y-72776190D01*
X98338095Y-72776190D01*
X97433333Y-72252380D02*
X96814285Y-72252380D01*
X97147619Y-72633333D01*
X97004761Y-72633333D01*
X96909523Y-72680952D01*
X96861904Y-72728571D01*
X96814285Y-72823809D01*
X96814285Y-73061904D01*
X96861904Y-73157142D01*
X96909523Y-73204761D01*
X97004761Y-73252380D01*
X97290476Y-73252380D01*
X97385714Y-73204761D01*
X97433333Y-73157142D01*
G04 #@! TO.C,R4*
X105166666Y-73252380D02*
X105500000Y-72776190D01*
X105738095Y-73252380D02*
X105738095Y-72252380D01*
X105357142Y-72252380D01*
X105261904Y-72300000D01*
X105214285Y-72347619D01*
X105166666Y-72442857D01*
X105166666Y-72585714D01*
X105214285Y-72680952D01*
X105261904Y-72728571D01*
X105357142Y-72776190D01*
X105738095Y-72776190D01*
X104309523Y-72585714D02*
X104309523Y-73252380D01*
X104547619Y-72204761D02*
X104785714Y-72919047D01*
X104166666Y-72919047D01*
G04 #@! TD*
M02*
