G04 #@! TF.GenerationSoftware,KiCad,Pcbnew,5.1.9*
G04 #@! TF.CreationDate,2021-01-31T15:24:44-06:00*
G04 #@! TF.ProjectId,hdmi_pmod,68646d69-5f70-46d6-9f64-2e6b69636164,rev?*
G04 #@! TF.SameCoordinates,Original*
G04 #@! TF.FileFunction,Copper,L3,Inr*
G04 #@! TF.FilePolarity,Positive*
%FSLAX46Y46*%
G04 Gerber Fmt 4.6, Leading zero omitted, Abs format (unit mm)*
G04 Created by KiCad (PCBNEW 5.1.9) date 2021-01-31 15:24:44*
%MOMM*%
%LPD*%
G01*
G04 APERTURE LIST*
G04 #@! TA.AperFunction,Profile*
%ADD10C,0.038100*%
G04 #@! TD*
G04 #@! TA.AperFunction,ComponentPad*
%ADD11R,1.700000X1.700000*%
G04 #@! TD*
G04 #@! TA.AperFunction,ComponentPad*
%ADD12O,1.700000X1.700000*%
G04 #@! TD*
G04 #@! TA.AperFunction,ComponentPad*
%ADD13C,1.524000*%
G04 #@! TD*
G04 #@! TA.AperFunction,ComponentPad*
%ADD14R,1.524000X1.524000*%
G04 #@! TD*
G04 #@! TA.AperFunction,ComponentPad*
%ADD15C,1.828800*%
G04 #@! TD*
G04 #@! TA.AperFunction,ViaPad*
%ADD16C,0.600000*%
G04 #@! TD*
G04 #@! TA.AperFunction,Conductor*
%ADD17C,0.127000*%
G04 #@! TD*
G04 #@! TA.AperFunction,Conductor*
%ADD18C,0.100000*%
G04 #@! TD*
G04 APERTURE END LIST*
D10*
X116700000Y-84200000D02*
X84836000Y-84201000D01*
X116700000Y-63880000D02*
X116700000Y-84200000D01*
X84836000Y-63881000D02*
X116700000Y-63880000D01*
X84836000Y-84201000D02*
X84836000Y-63881000D01*
D11*
G04 #@! TO.N,+5V*
G04 #@! TO.C,J1*
X97525000Y-82325000D03*
D12*
G04 #@! TO.N,+3V3*
X97525000Y-79785000D03*
G04 #@! TO.N,GND*
X100065000Y-82325000D03*
G04 #@! TO.N,/CEC*
X100065000Y-79785000D03*
G04 #@! TO.N,/HEAC+*
X102605000Y-82325000D03*
G04 #@! TO.N,/SCL*
X102605000Y-79785000D03*
G04 #@! TO.N,/HEAC-*
X105145000Y-82325000D03*
G04 #@! TO.N,/SDA*
X105145000Y-79785000D03*
G04 #@! TD*
D13*
G04 #@! TO.N,+3V3*
G04 #@! TO.C,PMOD0*
X88671001Y-80416001D03*
X91211001Y-80416001D03*
G04 #@! TO.N,GND*
X88671001Y-77876001D03*
X91211001Y-77876001D03*
G04 #@! TO.N,/TMDS_R-*
X88671001Y-75336001D03*
G04 #@! TO.N,/TMDS_CLK-*
X91211001Y-75336001D03*
G04 #@! TO.N,/TMDS_R+*
X88671001Y-72796001D03*
G04 #@! TO.N,/TMDS_CLK+*
X91211001Y-72796001D03*
G04 #@! TO.N,/TMDS_B-*
X88671001Y-70256001D03*
G04 #@! TO.N,/TMDS_G-*
X91211001Y-70256001D03*
G04 #@! TO.N,/TMDS_B+*
X88671001Y-67716001D03*
D14*
G04 #@! TO.N,/TMDS_G+*
X91211001Y-67716001D03*
G04 #@! TD*
D15*
G04 #@! TO.N,GND*
G04 #@! TO.C,J0*
X109778800Y-66407020D03*
X109778800Y-81056978D03*
X114678790Y-65806945D03*
X114678790Y-81657053D03*
G04 #@! TD*
D16*
G04 #@! TO.N,GND*
X110700000Y-77250000D03*
X110700000Y-74250000D03*
X110700000Y-72750000D03*
X110700000Y-71250000D03*
X110700000Y-69800000D03*
X105100000Y-77200000D03*
G04 #@! TO.N,/CEC*
X110700000Y-75241500D03*
G04 #@! TO.N,/HEAC+*
X111300000Y-75750000D03*
G04 #@! TO.N,/SCL*
X110700000Y-76241488D03*
G04 #@! TO.N,/SDA*
X111300000Y-76700000D03*
G04 #@! TO.N,+5V*
X111300000Y-77750000D03*
G04 #@! TO.N,/HEAC-*
X110700000Y-78250000D03*
G04 #@! TD*
D17*
G04 #@! TO.N,GND*
X116490451Y-83990457D02*
X85045550Y-83991444D01*
X85045550Y-81475000D01*
X96483579Y-81475000D01*
X96483579Y-83175000D01*
X96487257Y-83212344D01*
X96498150Y-83248254D01*
X96515839Y-83281348D01*
X96539645Y-83310355D01*
X96568652Y-83334161D01*
X96601746Y-83351850D01*
X96637656Y-83362743D01*
X96675000Y-83366421D01*
X98375000Y-83366421D01*
X98412344Y-83362743D01*
X98448254Y-83351850D01*
X98481348Y-83334161D01*
X98510355Y-83310355D01*
X98534161Y-83281348D01*
X98551850Y-83248254D01*
X98562743Y-83212344D01*
X98566421Y-83175000D01*
X98566421Y-82570086D01*
X98923511Y-82570086D01*
X98993258Y-82788070D01*
X99104192Y-82988259D01*
X99252049Y-83162959D01*
X99431147Y-83305457D01*
X99634604Y-83410276D01*
X99819915Y-83466486D01*
X100001500Y-83411271D01*
X100001500Y-82388500D01*
X100128500Y-82388500D01*
X100128500Y-83411271D01*
X100310085Y-83466486D01*
X100495396Y-83410276D01*
X100698853Y-83305457D01*
X100877951Y-83162959D01*
X101025808Y-82988259D01*
X101136742Y-82788070D01*
X101206489Y-82570086D01*
X101151400Y-82388500D01*
X100128500Y-82388500D01*
X100001500Y-82388500D01*
X98978600Y-82388500D01*
X98923511Y-82570086D01*
X98566421Y-82570086D01*
X98566421Y-82079914D01*
X98923511Y-82079914D01*
X98978600Y-82261500D01*
X100001500Y-82261500D01*
X100001500Y-81238729D01*
X100128500Y-81238729D01*
X100128500Y-82261500D01*
X101151400Y-82261500D01*
X101163225Y-82222520D01*
X101564500Y-82222520D01*
X101564500Y-82427480D01*
X101604485Y-82628503D01*
X101682920Y-82817862D01*
X101796791Y-82988280D01*
X101941720Y-83133209D01*
X102112138Y-83247080D01*
X102301497Y-83325515D01*
X102502520Y-83365500D01*
X102707480Y-83365500D01*
X102908503Y-83325515D01*
X103097862Y-83247080D01*
X103268280Y-83133209D01*
X103413209Y-82988280D01*
X103527080Y-82817862D01*
X103605515Y-82628503D01*
X103645500Y-82427480D01*
X103645500Y-82222520D01*
X104104500Y-82222520D01*
X104104500Y-82427480D01*
X104144485Y-82628503D01*
X104222920Y-82817862D01*
X104336791Y-82988280D01*
X104481720Y-83133209D01*
X104652138Y-83247080D01*
X104841497Y-83325515D01*
X105042520Y-83365500D01*
X105247480Y-83365500D01*
X105448503Y-83325515D01*
X105637862Y-83247080D01*
X105808280Y-83133209D01*
X105953209Y-82988280D01*
X106067080Y-82817862D01*
X106145515Y-82628503D01*
X106167117Y-82519896D01*
X113905750Y-82519896D01*
X114003524Y-82694509D01*
X114218897Y-82806312D01*
X114451943Y-82873950D01*
X114693706Y-82894823D01*
X114934896Y-82868130D01*
X115166244Y-82794895D01*
X115354056Y-82694509D01*
X115451830Y-82519896D01*
X114678790Y-81746856D01*
X113905750Y-82519896D01*
X106167117Y-82519896D01*
X106185500Y-82427480D01*
X106185500Y-82222520D01*
X106145515Y-82021497D01*
X106103400Y-81919821D01*
X109005760Y-81919821D01*
X109103534Y-82094434D01*
X109318907Y-82206237D01*
X109551953Y-82273875D01*
X109793716Y-82294748D01*
X110034906Y-82268055D01*
X110266254Y-82194820D01*
X110454066Y-82094434D01*
X110551840Y-81919821D01*
X109778800Y-81146781D01*
X109005760Y-81919821D01*
X106103400Y-81919821D01*
X106067080Y-81832138D01*
X105953209Y-81661720D01*
X105808280Y-81516791D01*
X105637862Y-81402920D01*
X105448503Y-81324485D01*
X105247480Y-81284500D01*
X105042520Y-81284500D01*
X104841497Y-81324485D01*
X104652138Y-81402920D01*
X104481720Y-81516791D01*
X104336791Y-81661720D01*
X104222920Y-81832138D01*
X104144485Y-82021497D01*
X104104500Y-82222520D01*
X103645500Y-82222520D01*
X103605515Y-82021497D01*
X103527080Y-81832138D01*
X103413209Y-81661720D01*
X103268280Y-81516791D01*
X103097862Y-81402920D01*
X102908503Y-81324485D01*
X102707480Y-81284500D01*
X102502520Y-81284500D01*
X102301497Y-81324485D01*
X102112138Y-81402920D01*
X101941720Y-81516791D01*
X101796791Y-81661720D01*
X101682920Y-81832138D01*
X101604485Y-82021497D01*
X101564500Y-82222520D01*
X101163225Y-82222520D01*
X101206489Y-82079914D01*
X101136742Y-81861930D01*
X101025808Y-81661741D01*
X100877951Y-81487041D01*
X100698853Y-81344543D01*
X100495396Y-81239724D01*
X100310085Y-81183514D01*
X100128500Y-81238729D01*
X100001500Y-81238729D01*
X99819915Y-81183514D01*
X99634604Y-81239724D01*
X99431147Y-81344543D01*
X99252049Y-81487041D01*
X99104192Y-81661741D01*
X98993258Y-81861930D01*
X98923511Y-82079914D01*
X98566421Y-82079914D01*
X98566421Y-81475000D01*
X98562743Y-81437656D01*
X98551850Y-81401746D01*
X98534161Y-81368652D01*
X98510355Y-81339645D01*
X98481348Y-81315839D01*
X98448254Y-81298150D01*
X98412344Y-81287257D01*
X98375000Y-81283579D01*
X96675000Y-81283579D01*
X96637656Y-81287257D01*
X96601746Y-81298150D01*
X96568652Y-81315839D01*
X96539645Y-81339645D01*
X96515839Y-81368652D01*
X96498150Y-81401746D01*
X96487257Y-81437656D01*
X96483579Y-81475000D01*
X85045550Y-81475000D01*
X85045550Y-80322188D01*
X87718501Y-80322188D01*
X87718501Y-80509814D01*
X87755105Y-80693835D01*
X87826906Y-80867179D01*
X87931146Y-81023185D01*
X88063817Y-81155856D01*
X88219823Y-81260096D01*
X88393167Y-81331897D01*
X88577188Y-81368501D01*
X88764814Y-81368501D01*
X88948835Y-81331897D01*
X89122179Y-81260096D01*
X89278185Y-81155856D01*
X89410856Y-81023185D01*
X89515096Y-80867179D01*
X89586897Y-80693835D01*
X89623501Y-80509814D01*
X89623501Y-80322188D01*
X90258501Y-80322188D01*
X90258501Y-80509814D01*
X90295105Y-80693835D01*
X90366906Y-80867179D01*
X90471146Y-81023185D01*
X90603817Y-81155856D01*
X90759823Y-81260096D01*
X90933167Y-81331897D01*
X91117188Y-81368501D01*
X91304814Y-81368501D01*
X91488835Y-81331897D01*
X91662179Y-81260096D01*
X91818185Y-81155856D01*
X91902147Y-81071894D01*
X108541030Y-81071894D01*
X108567723Y-81313084D01*
X108640958Y-81544432D01*
X108741344Y-81732244D01*
X108915957Y-81830018D01*
X109688997Y-81056978D01*
X109868603Y-81056978D01*
X110641643Y-81830018D01*
X110816256Y-81732244D01*
X110847545Y-81671969D01*
X113441020Y-81671969D01*
X113467713Y-81913159D01*
X113540948Y-82144507D01*
X113641334Y-82332319D01*
X113815947Y-82430093D01*
X114588987Y-81657053D01*
X114768593Y-81657053D01*
X115541633Y-82430093D01*
X115716246Y-82332319D01*
X115828049Y-82116946D01*
X115895687Y-81883900D01*
X115916560Y-81642137D01*
X115889867Y-81400947D01*
X115816632Y-81169599D01*
X115716246Y-80981787D01*
X115541633Y-80884013D01*
X114768593Y-81657053D01*
X114588987Y-81657053D01*
X113815947Y-80884013D01*
X113641334Y-80981787D01*
X113529531Y-81197160D01*
X113461893Y-81430206D01*
X113441020Y-81671969D01*
X110847545Y-81671969D01*
X110928059Y-81516871D01*
X110995697Y-81283825D01*
X111016570Y-81042062D01*
X110989877Y-80800872D01*
X110987769Y-80794210D01*
X113905750Y-80794210D01*
X114678790Y-81567250D01*
X115451830Y-80794210D01*
X115354056Y-80619597D01*
X115138683Y-80507794D01*
X114905637Y-80440156D01*
X114663874Y-80419283D01*
X114422684Y-80445976D01*
X114191336Y-80519211D01*
X114003524Y-80619597D01*
X113905750Y-80794210D01*
X110987769Y-80794210D01*
X110916642Y-80569524D01*
X110816256Y-80381712D01*
X110641643Y-80283938D01*
X109868603Y-81056978D01*
X109688997Y-81056978D01*
X108915957Y-80283938D01*
X108741344Y-80381712D01*
X108629541Y-80597085D01*
X108561903Y-80830131D01*
X108541030Y-81071894D01*
X91902147Y-81071894D01*
X91950856Y-81023185D01*
X92055096Y-80867179D01*
X92126897Y-80693835D01*
X92163501Y-80509814D01*
X92163501Y-80322188D01*
X92126897Y-80138167D01*
X92055096Y-79964823D01*
X91950856Y-79808817D01*
X91824559Y-79682520D01*
X96484500Y-79682520D01*
X96484500Y-79887480D01*
X96524485Y-80088503D01*
X96602920Y-80277862D01*
X96716791Y-80448280D01*
X96861720Y-80593209D01*
X97032138Y-80707080D01*
X97221497Y-80785515D01*
X97422520Y-80825500D01*
X97627480Y-80825500D01*
X97828503Y-80785515D01*
X98017862Y-80707080D01*
X98188280Y-80593209D01*
X98333209Y-80448280D01*
X98447080Y-80277862D01*
X98525515Y-80088503D01*
X98565500Y-79887480D01*
X98565500Y-79682520D01*
X99024500Y-79682520D01*
X99024500Y-79887480D01*
X99064485Y-80088503D01*
X99142920Y-80277862D01*
X99256791Y-80448280D01*
X99401720Y-80593209D01*
X99572138Y-80707080D01*
X99761497Y-80785515D01*
X99962520Y-80825500D01*
X100167480Y-80825500D01*
X100368503Y-80785515D01*
X100557862Y-80707080D01*
X100728280Y-80593209D01*
X100873209Y-80448280D01*
X100987080Y-80277862D01*
X101065515Y-80088503D01*
X101105500Y-79887480D01*
X101105500Y-79682520D01*
X101564500Y-79682520D01*
X101564500Y-79887480D01*
X101604485Y-80088503D01*
X101682920Y-80277862D01*
X101796791Y-80448280D01*
X101941720Y-80593209D01*
X102112138Y-80707080D01*
X102301497Y-80785515D01*
X102502520Y-80825500D01*
X102707480Y-80825500D01*
X102908503Y-80785515D01*
X103097862Y-80707080D01*
X103268280Y-80593209D01*
X103413209Y-80448280D01*
X103527080Y-80277862D01*
X103605515Y-80088503D01*
X103645500Y-79887480D01*
X103645500Y-79682520D01*
X104104500Y-79682520D01*
X104104500Y-79887480D01*
X104144485Y-80088503D01*
X104222920Y-80277862D01*
X104336791Y-80448280D01*
X104481720Y-80593209D01*
X104652138Y-80707080D01*
X104841497Y-80785515D01*
X105042520Y-80825500D01*
X105247480Y-80825500D01*
X105448503Y-80785515D01*
X105637862Y-80707080D01*
X105808280Y-80593209D01*
X105953209Y-80448280D01*
X106067080Y-80277862D01*
X106101760Y-80194135D01*
X109005760Y-80194135D01*
X109778800Y-80967175D01*
X110551840Y-80194135D01*
X110454066Y-80019522D01*
X110238693Y-79907719D01*
X110005647Y-79840081D01*
X109763884Y-79819208D01*
X109522694Y-79845901D01*
X109291346Y-79919136D01*
X109103534Y-80019522D01*
X109005760Y-80194135D01*
X106101760Y-80194135D01*
X106145515Y-80088503D01*
X106185500Y-79887480D01*
X106185500Y-79682520D01*
X106145515Y-79481497D01*
X106067080Y-79292138D01*
X105953209Y-79121720D01*
X105808280Y-78976791D01*
X105637862Y-78862920D01*
X105448503Y-78784485D01*
X105247480Y-78744500D01*
X105042520Y-78744500D01*
X104841497Y-78784485D01*
X104652138Y-78862920D01*
X104481720Y-78976791D01*
X104336791Y-79121720D01*
X104222920Y-79292138D01*
X104144485Y-79481497D01*
X104104500Y-79682520D01*
X103645500Y-79682520D01*
X103605515Y-79481497D01*
X103527080Y-79292138D01*
X103413209Y-79121720D01*
X103268280Y-78976791D01*
X103097862Y-78862920D01*
X102908503Y-78784485D01*
X102707480Y-78744500D01*
X102502520Y-78744500D01*
X102301497Y-78784485D01*
X102112138Y-78862920D01*
X101941720Y-78976791D01*
X101796791Y-79121720D01*
X101682920Y-79292138D01*
X101604485Y-79481497D01*
X101564500Y-79682520D01*
X101105500Y-79682520D01*
X101065515Y-79481497D01*
X100987080Y-79292138D01*
X100873209Y-79121720D01*
X100728280Y-78976791D01*
X100557862Y-78862920D01*
X100368503Y-78784485D01*
X100167480Y-78744500D01*
X99962520Y-78744500D01*
X99761497Y-78784485D01*
X99572138Y-78862920D01*
X99401720Y-78976791D01*
X99256791Y-79121720D01*
X99142920Y-79292138D01*
X99064485Y-79481497D01*
X99024500Y-79682520D01*
X98565500Y-79682520D01*
X98525515Y-79481497D01*
X98447080Y-79292138D01*
X98333209Y-79121720D01*
X98188280Y-78976791D01*
X98017862Y-78862920D01*
X97828503Y-78784485D01*
X97627480Y-78744500D01*
X97422520Y-78744500D01*
X97221497Y-78784485D01*
X97032138Y-78862920D01*
X96861720Y-78976791D01*
X96716791Y-79121720D01*
X96602920Y-79292138D01*
X96524485Y-79481497D01*
X96484500Y-79682520D01*
X91824559Y-79682520D01*
X91818185Y-79676146D01*
X91662179Y-79571906D01*
X91488835Y-79500105D01*
X91304814Y-79463501D01*
X91117188Y-79463501D01*
X90933167Y-79500105D01*
X90759823Y-79571906D01*
X90603817Y-79676146D01*
X90471146Y-79808817D01*
X90366906Y-79964823D01*
X90295105Y-80138167D01*
X90258501Y-80322188D01*
X89623501Y-80322188D01*
X89586897Y-80138167D01*
X89515096Y-79964823D01*
X89410856Y-79808817D01*
X89278185Y-79676146D01*
X89122179Y-79571906D01*
X88948835Y-79500105D01*
X88764814Y-79463501D01*
X88577188Y-79463501D01*
X88393167Y-79500105D01*
X88219823Y-79571906D01*
X88063817Y-79676146D01*
X87931146Y-79808817D01*
X87826906Y-79964823D01*
X87755105Y-80138167D01*
X87718501Y-80322188D01*
X85045550Y-80322188D01*
X85045550Y-78630372D01*
X88006433Y-78630372D01*
X88085882Y-78789380D01*
X88275316Y-78885981D01*
X88479956Y-78943769D01*
X88691938Y-78960523D01*
X88903116Y-78935599D01*
X89105373Y-78869956D01*
X89256120Y-78789380D01*
X89335569Y-78630372D01*
X90546433Y-78630372D01*
X90625882Y-78789380D01*
X90815316Y-78885981D01*
X91019956Y-78943769D01*
X91231938Y-78960523D01*
X91443116Y-78935599D01*
X91645373Y-78869956D01*
X91796120Y-78789380D01*
X91875569Y-78630372D01*
X91211001Y-77965804D01*
X90546433Y-78630372D01*
X89335569Y-78630372D01*
X88671001Y-77965804D01*
X88006433Y-78630372D01*
X85045550Y-78630372D01*
X85045550Y-77896938D01*
X87586479Y-77896938D01*
X87611403Y-78108116D01*
X87677046Y-78310373D01*
X87757622Y-78461120D01*
X87916630Y-78540569D01*
X88581198Y-77876001D01*
X88760804Y-77876001D01*
X89425372Y-78540569D01*
X89584380Y-78461120D01*
X89680981Y-78271686D01*
X89738769Y-78067046D01*
X89752213Y-77896938D01*
X90126479Y-77896938D01*
X90151403Y-78108116D01*
X90217046Y-78310373D01*
X90297622Y-78461120D01*
X90456630Y-78540569D01*
X91121198Y-77876001D01*
X91300804Y-77876001D01*
X91965372Y-78540569D01*
X92124380Y-78461120D01*
X92220981Y-78271686D01*
X92240747Y-78201690D01*
X110209500Y-78201690D01*
X110209500Y-78298310D01*
X110228350Y-78393073D01*
X110265325Y-78482339D01*
X110319004Y-78562675D01*
X110387325Y-78630996D01*
X110467661Y-78684675D01*
X110556927Y-78721650D01*
X110651690Y-78740500D01*
X110748310Y-78740500D01*
X110843073Y-78721650D01*
X110932339Y-78684675D01*
X111012675Y-78630996D01*
X111080996Y-78562675D01*
X111134675Y-78482339D01*
X111171650Y-78393073D01*
X111190500Y-78298310D01*
X111190500Y-78228328D01*
X111251690Y-78240500D01*
X111348310Y-78240500D01*
X111443073Y-78221650D01*
X111532339Y-78184675D01*
X111612675Y-78130996D01*
X111680996Y-78062675D01*
X111734675Y-77982339D01*
X111771650Y-77893073D01*
X111790500Y-77798310D01*
X111790500Y-77701690D01*
X111771650Y-77606927D01*
X111734675Y-77517661D01*
X111680996Y-77437325D01*
X111612675Y-77369004D01*
X111532339Y-77315325D01*
X111443073Y-77278350D01*
X111348310Y-77259500D01*
X111251690Y-77259500D01*
X111156927Y-77278350D01*
X111067661Y-77315325D01*
X110987325Y-77369004D01*
X110919004Y-77437325D01*
X110865325Y-77517661D01*
X110828350Y-77606927D01*
X110809500Y-77701690D01*
X110809500Y-77771672D01*
X110748310Y-77759500D01*
X110651690Y-77759500D01*
X110556927Y-77778350D01*
X110467661Y-77815325D01*
X110387325Y-77869004D01*
X110319004Y-77937325D01*
X110265325Y-78017661D01*
X110228350Y-78106927D01*
X110209500Y-78201690D01*
X92240747Y-78201690D01*
X92278769Y-78067046D01*
X92295523Y-77855064D01*
X92270599Y-77643886D01*
X92204956Y-77441629D01*
X92124380Y-77290882D01*
X91965372Y-77211433D01*
X91300804Y-77876001D01*
X91121198Y-77876001D01*
X90456630Y-77211433D01*
X90297622Y-77290882D01*
X90201021Y-77480316D01*
X90143233Y-77684956D01*
X90126479Y-77896938D01*
X89752213Y-77896938D01*
X89755523Y-77855064D01*
X89730599Y-77643886D01*
X89664956Y-77441629D01*
X89584380Y-77290882D01*
X89425372Y-77211433D01*
X88760804Y-77876001D01*
X88581198Y-77876001D01*
X87916630Y-77211433D01*
X87757622Y-77290882D01*
X87661021Y-77480316D01*
X87603233Y-77684956D01*
X87586479Y-77896938D01*
X85045550Y-77896938D01*
X85045550Y-77121630D01*
X88006433Y-77121630D01*
X88671001Y-77786198D01*
X89335569Y-77121630D01*
X90546433Y-77121630D01*
X91211001Y-77786198D01*
X91875569Y-77121630D01*
X91796120Y-76962622D01*
X91606686Y-76866021D01*
X91402046Y-76808233D01*
X91190064Y-76791479D01*
X90978886Y-76816403D01*
X90776629Y-76882046D01*
X90625882Y-76962622D01*
X90546433Y-77121630D01*
X89335569Y-77121630D01*
X89256120Y-76962622D01*
X89066686Y-76866021D01*
X88862046Y-76808233D01*
X88650064Y-76791479D01*
X88438886Y-76816403D01*
X88236629Y-76882046D01*
X88085882Y-76962622D01*
X88006433Y-77121630D01*
X85045550Y-77121630D01*
X85045550Y-75242188D01*
X87718501Y-75242188D01*
X87718501Y-75429814D01*
X87755105Y-75613835D01*
X87826906Y-75787179D01*
X87931146Y-75943185D01*
X88063817Y-76075856D01*
X88219823Y-76180096D01*
X88393167Y-76251897D01*
X88577188Y-76288501D01*
X88764814Y-76288501D01*
X88948835Y-76251897D01*
X89122179Y-76180096D01*
X89278185Y-76075856D01*
X89410856Y-75943185D01*
X89515096Y-75787179D01*
X89586897Y-75613835D01*
X89623501Y-75429814D01*
X89623501Y-75242188D01*
X90258501Y-75242188D01*
X90258501Y-75429814D01*
X90295105Y-75613835D01*
X90366906Y-75787179D01*
X90471146Y-75943185D01*
X90603817Y-76075856D01*
X90759823Y-76180096D01*
X90933167Y-76251897D01*
X91117188Y-76288501D01*
X91304814Y-76288501D01*
X91488835Y-76251897D01*
X91662179Y-76180096D01*
X91818185Y-76075856D01*
X91950856Y-75943185D01*
X92055096Y-75787179D01*
X92126897Y-75613835D01*
X92163501Y-75429814D01*
X92163501Y-75242188D01*
X92153755Y-75193190D01*
X110209500Y-75193190D01*
X110209500Y-75289810D01*
X110228350Y-75384573D01*
X110265325Y-75473839D01*
X110319004Y-75554175D01*
X110387325Y-75622496D01*
X110467661Y-75676175D01*
X110556927Y-75713150D01*
X110651690Y-75732000D01*
X110748310Y-75732000D01*
X110809500Y-75719828D01*
X110809500Y-75763160D01*
X110748310Y-75750988D01*
X110651690Y-75750988D01*
X110556927Y-75769838D01*
X110467661Y-75806813D01*
X110387325Y-75860492D01*
X110319004Y-75928813D01*
X110265325Y-76009149D01*
X110228350Y-76098415D01*
X110209500Y-76193178D01*
X110209500Y-76289798D01*
X110228350Y-76384561D01*
X110265325Y-76473827D01*
X110319004Y-76554163D01*
X110387325Y-76622484D01*
X110467661Y-76676163D01*
X110556927Y-76713138D01*
X110651690Y-76731988D01*
X110748310Y-76731988D01*
X110809500Y-76719816D01*
X110809500Y-76748310D01*
X110828350Y-76843073D01*
X110865325Y-76932339D01*
X110919004Y-77012675D01*
X110987325Y-77080996D01*
X111067661Y-77134675D01*
X111156927Y-77171650D01*
X111251690Y-77190500D01*
X111348310Y-77190500D01*
X111443073Y-77171650D01*
X111532339Y-77134675D01*
X111612675Y-77080996D01*
X111680996Y-77012675D01*
X111734675Y-76932339D01*
X111771650Y-76843073D01*
X111790500Y-76748310D01*
X111790500Y-76651690D01*
X111771650Y-76556927D01*
X111734675Y-76467661D01*
X111680996Y-76387325D01*
X111612675Y-76319004D01*
X111532339Y-76265325D01*
X111443073Y-76228350D01*
X111426232Y-76225000D01*
X111443073Y-76221650D01*
X111532339Y-76184675D01*
X111612675Y-76130996D01*
X111680996Y-76062675D01*
X111734675Y-75982339D01*
X111771650Y-75893073D01*
X111790500Y-75798310D01*
X111790500Y-75701690D01*
X111771650Y-75606927D01*
X111734675Y-75517661D01*
X111680996Y-75437325D01*
X111612675Y-75369004D01*
X111532339Y-75315325D01*
X111443073Y-75278350D01*
X111348310Y-75259500D01*
X111251690Y-75259500D01*
X111190500Y-75271672D01*
X111190500Y-75193190D01*
X111171650Y-75098427D01*
X111134675Y-75009161D01*
X111080996Y-74928825D01*
X111012675Y-74860504D01*
X110932339Y-74806825D01*
X110843073Y-74769850D01*
X110748310Y-74751000D01*
X110651690Y-74751000D01*
X110556927Y-74769850D01*
X110467661Y-74806825D01*
X110387325Y-74860504D01*
X110319004Y-74928825D01*
X110265325Y-75009161D01*
X110228350Y-75098427D01*
X110209500Y-75193190D01*
X92153755Y-75193190D01*
X92126897Y-75058167D01*
X92055096Y-74884823D01*
X91950856Y-74728817D01*
X91818185Y-74596146D01*
X91662179Y-74491906D01*
X91488835Y-74420105D01*
X91304814Y-74383501D01*
X91117188Y-74383501D01*
X90933167Y-74420105D01*
X90759823Y-74491906D01*
X90603817Y-74596146D01*
X90471146Y-74728817D01*
X90366906Y-74884823D01*
X90295105Y-75058167D01*
X90258501Y-75242188D01*
X89623501Y-75242188D01*
X89586897Y-75058167D01*
X89515096Y-74884823D01*
X89410856Y-74728817D01*
X89278185Y-74596146D01*
X89122179Y-74491906D01*
X88948835Y-74420105D01*
X88764814Y-74383501D01*
X88577188Y-74383501D01*
X88393167Y-74420105D01*
X88219823Y-74491906D01*
X88063817Y-74596146D01*
X87931146Y-74728817D01*
X87826906Y-74884823D01*
X87755105Y-75058167D01*
X87718501Y-75242188D01*
X85045550Y-75242188D01*
X85045550Y-72702188D01*
X87718501Y-72702188D01*
X87718501Y-72889814D01*
X87755105Y-73073835D01*
X87826906Y-73247179D01*
X87931146Y-73403185D01*
X88063817Y-73535856D01*
X88219823Y-73640096D01*
X88393167Y-73711897D01*
X88577188Y-73748501D01*
X88764814Y-73748501D01*
X88948835Y-73711897D01*
X89122179Y-73640096D01*
X89278185Y-73535856D01*
X89410856Y-73403185D01*
X89515096Y-73247179D01*
X89586897Y-73073835D01*
X89623501Y-72889814D01*
X89623501Y-72702188D01*
X90258501Y-72702188D01*
X90258501Y-72889814D01*
X90295105Y-73073835D01*
X90366906Y-73247179D01*
X90471146Y-73403185D01*
X90603817Y-73535856D01*
X90759823Y-73640096D01*
X90933167Y-73711897D01*
X91117188Y-73748501D01*
X91304814Y-73748501D01*
X91488835Y-73711897D01*
X91662179Y-73640096D01*
X91818185Y-73535856D01*
X91950856Y-73403185D01*
X92055096Y-73247179D01*
X92126897Y-73073835D01*
X92163501Y-72889814D01*
X92163501Y-72702188D01*
X92126897Y-72518167D01*
X92055096Y-72344823D01*
X91950856Y-72188817D01*
X91818185Y-72056146D01*
X91662179Y-71951906D01*
X91488835Y-71880105D01*
X91304814Y-71843501D01*
X91117188Y-71843501D01*
X90933167Y-71880105D01*
X90759823Y-71951906D01*
X90603817Y-72056146D01*
X90471146Y-72188817D01*
X90366906Y-72344823D01*
X90295105Y-72518167D01*
X90258501Y-72702188D01*
X89623501Y-72702188D01*
X89586897Y-72518167D01*
X89515096Y-72344823D01*
X89410856Y-72188817D01*
X89278185Y-72056146D01*
X89122179Y-71951906D01*
X88948835Y-71880105D01*
X88764814Y-71843501D01*
X88577188Y-71843501D01*
X88393167Y-71880105D01*
X88219823Y-71951906D01*
X88063817Y-72056146D01*
X87931146Y-72188817D01*
X87826906Y-72344823D01*
X87755105Y-72518167D01*
X87718501Y-72702188D01*
X85045550Y-72702188D01*
X85045550Y-70162188D01*
X87718501Y-70162188D01*
X87718501Y-70349814D01*
X87755105Y-70533835D01*
X87826906Y-70707179D01*
X87931146Y-70863185D01*
X88063817Y-70995856D01*
X88219823Y-71100096D01*
X88393167Y-71171897D01*
X88577188Y-71208501D01*
X88764814Y-71208501D01*
X88948835Y-71171897D01*
X89122179Y-71100096D01*
X89278185Y-70995856D01*
X89410856Y-70863185D01*
X89515096Y-70707179D01*
X89586897Y-70533835D01*
X89623501Y-70349814D01*
X89623501Y-70162188D01*
X90258501Y-70162188D01*
X90258501Y-70349814D01*
X90295105Y-70533835D01*
X90366906Y-70707179D01*
X90471146Y-70863185D01*
X90603817Y-70995856D01*
X90759823Y-71100096D01*
X90933167Y-71171897D01*
X91117188Y-71208501D01*
X91304814Y-71208501D01*
X91488835Y-71171897D01*
X91662179Y-71100096D01*
X91818185Y-70995856D01*
X91950856Y-70863185D01*
X92055096Y-70707179D01*
X92126897Y-70533835D01*
X92163501Y-70349814D01*
X92163501Y-70162188D01*
X92126897Y-69978167D01*
X92055096Y-69804823D01*
X91950856Y-69648817D01*
X91818185Y-69516146D01*
X91662179Y-69411906D01*
X91488835Y-69340105D01*
X91304814Y-69303501D01*
X91117188Y-69303501D01*
X90933167Y-69340105D01*
X90759823Y-69411906D01*
X90603817Y-69516146D01*
X90471146Y-69648817D01*
X90366906Y-69804823D01*
X90295105Y-69978167D01*
X90258501Y-70162188D01*
X89623501Y-70162188D01*
X89586897Y-69978167D01*
X89515096Y-69804823D01*
X89410856Y-69648817D01*
X89278185Y-69516146D01*
X89122179Y-69411906D01*
X88948835Y-69340105D01*
X88764814Y-69303501D01*
X88577188Y-69303501D01*
X88393167Y-69340105D01*
X88219823Y-69411906D01*
X88063817Y-69516146D01*
X87931146Y-69648817D01*
X87826906Y-69804823D01*
X87755105Y-69978167D01*
X87718501Y-70162188D01*
X85045550Y-70162188D01*
X85045550Y-67622188D01*
X87718501Y-67622188D01*
X87718501Y-67809814D01*
X87755105Y-67993835D01*
X87826906Y-68167179D01*
X87931146Y-68323185D01*
X88063817Y-68455856D01*
X88219823Y-68560096D01*
X88393167Y-68631897D01*
X88577188Y-68668501D01*
X88764814Y-68668501D01*
X88948835Y-68631897D01*
X89122179Y-68560096D01*
X89278185Y-68455856D01*
X89410856Y-68323185D01*
X89515096Y-68167179D01*
X89586897Y-67993835D01*
X89623501Y-67809814D01*
X89623501Y-67622188D01*
X89586897Y-67438167D01*
X89515096Y-67264823D01*
X89410856Y-67108817D01*
X89278185Y-66976146D01*
X89245043Y-66954001D01*
X90257580Y-66954001D01*
X90257580Y-68478001D01*
X90261258Y-68515345D01*
X90272151Y-68551255D01*
X90289840Y-68584349D01*
X90313646Y-68613356D01*
X90342653Y-68637162D01*
X90375747Y-68654851D01*
X90411657Y-68665744D01*
X90449001Y-68669422D01*
X91973001Y-68669422D01*
X92010345Y-68665744D01*
X92046255Y-68654851D01*
X92079349Y-68637162D01*
X92108356Y-68613356D01*
X92132162Y-68584349D01*
X92149851Y-68551255D01*
X92160744Y-68515345D01*
X92164422Y-68478001D01*
X92164422Y-67269863D01*
X109005760Y-67269863D01*
X109103534Y-67444476D01*
X109318907Y-67556279D01*
X109551953Y-67623917D01*
X109793716Y-67644790D01*
X110034906Y-67618097D01*
X110266254Y-67544862D01*
X110454066Y-67444476D01*
X110551840Y-67269863D01*
X109778800Y-66496823D01*
X109005760Y-67269863D01*
X92164422Y-67269863D01*
X92164422Y-66954001D01*
X92160744Y-66916657D01*
X92149851Y-66880747D01*
X92132162Y-66847653D01*
X92108356Y-66818646D01*
X92079349Y-66794840D01*
X92046255Y-66777151D01*
X92010345Y-66766258D01*
X91973001Y-66762580D01*
X90449001Y-66762580D01*
X90411657Y-66766258D01*
X90375747Y-66777151D01*
X90342653Y-66794840D01*
X90313646Y-66818646D01*
X90289840Y-66847653D01*
X90272151Y-66880747D01*
X90261258Y-66916657D01*
X90257580Y-66954001D01*
X89245043Y-66954001D01*
X89122179Y-66871906D01*
X88948835Y-66800105D01*
X88764814Y-66763501D01*
X88577188Y-66763501D01*
X88393167Y-66800105D01*
X88219823Y-66871906D01*
X88063817Y-66976146D01*
X87931146Y-67108817D01*
X87826906Y-67264823D01*
X87755105Y-67438167D01*
X87718501Y-67622188D01*
X85045550Y-67622188D01*
X85045550Y-66421936D01*
X108541030Y-66421936D01*
X108567723Y-66663126D01*
X108640958Y-66894474D01*
X108741344Y-67082286D01*
X108915957Y-67180060D01*
X109688997Y-66407020D01*
X109868603Y-66407020D01*
X110641643Y-67180060D01*
X110816256Y-67082286D01*
X110928059Y-66866913D01*
X110985271Y-66669788D01*
X113905750Y-66669788D01*
X114003524Y-66844401D01*
X114218897Y-66956204D01*
X114451943Y-67023842D01*
X114693706Y-67044715D01*
X114934896Y-67018022D01*
X115166244Y-66944787D01*
X115354056Y-66844401D01*
X115451830Y-66669788D01*
X114678790Y-65896748D01*
X113905750Y-66669788D01*
X110985271Y-66669788D01*
X110995697Y-66633867D01*
X111016570Y-66392104D01*
X110989877Y-66150914D01*
X110916642Y-65919566D01*
X110864419Y-65821861D01*
X113441020Y-65821861D01*
X113467713Y-66063051D01*
X113540948Y-66294399D01*
X113641334Y-66482211D01*
X113815947Y-66579985D01*
X114588987Y-65806945D01*
X114768593Y-65806945D01*
X115541633Y-66579985D01*
X115716246Y-66482211D01*
X115828049Y-66266838D01*
X115895687Y-66033792D01*
X115916560Y-65792029D01*
X115889867Y-65550839D01*
X115816632Y-65319491D01*
X115716246Y-65131679D01*
X115541633Y-65033905D01*
X114768593Y-65806945D01*
X114588987Y-65806945D01*
X113815947Y-65033905D01*
X113641334Y-65131679D01*
X113529531Y-65347052D01*
X113461893Y-65580098D01*
X113441020Y-65821861D01*
X110864419Y-65821861D01*
X110816256Y-65731754D01*
X110641643Y-65633980D01*
X109868603Y-66407020D01*
X109688997Y-66407020D01*
X108915957Y-65633980D01*
X108741344Y-65731754D01*
X108629541Y-65947127D01*
X108561903Y-66180173D01*
X108541030Y-66421936D01*
X85045550Y-66421936D01*
X85045550Y-65544177D01*
X109005760Y-65544177D01*
X109778800Y-66317217D01*
X110551840Y-65544177D01*
X110454066Y-65369564D01*
X110238693Y-65257761D01*
X110005647Y-65190123D01*
X109763884Y-65169250D01*
X109522694Y-65195943D01*
X109291346Y-65269178D01*
X109103534Y-65369564D01*
X109005760Y-65544177D01*
X85045550Y-65544177D01*
X85045550Y-64944102D01*
X113905750Y-64944102D01*
X114678790Y-65717142D01*
X115451830Y-64944102D01*
X115354056Y-64769489D01*
X115138683Y-64657686D01*
X114905637Y-64590048D01*
X114663874Y-64569175D01*
X114422684Y-64595868D01*
X114191336Y-64669103D01*
X114003524Y-64769489D01*
X113905750Y-64944102D01*
X85045550Y-64944102D01*
X85045550Y-64090543D01*
X116490450Y-64089556D01*
X116490451Y-83990457D01*
G04 #@! TA.AperFunction,Conductor*
D18*
G36*
X116490451Y-83990457D02*
G01*
X85045550Y-83991444D01*
X85045550Y-81475000D01*
X96483579Y-81475000D01*
X96483579Y-83175000D01*
X96487257Y-83212344D01*
X96498150Y-83248254D01*
X96515839Y-83281348D01*
X96539645Y-83310355D01*
X96568652Y-83334161D01*
X96601746Y-83351850D01*
X96637656Y-83362743D01*
X96675000Y-83366421D01*
X98375000Y-83366421D01*
X98412344Y-83362743D01*
X98448254Y-83351850D01*
X98481348Y-83334161D01*
X98510355Y-83310355D01*
X98534161Y-83281348D01*
X98551850Y-83248254D01*
X98562743Y-83212344D01*
X98566421Y-83175000D01*
X98566421Y-82570086D01*
X98923511Y-82570086D01*
X98993258Y-82788070D01*
X99104192Y-82988259D01*
X99252049Y-83162959D01*
X99431147Y-83305457D01*
X99634604Y-83410276D01*
X99819915Y-83466486D01*
X100001500Y-83411271D01*
X100001500Y-82388500D01*
X100128500Y-82388500D01*
X100128500Y-83411271D01*
X100310085Y-83466486D01*
X100495396Y-83410276D01*
X100698853Y-83305457D01*
X100877951Y-83162959D01*
X101025808Y-82988259D01*
X101136742Y-82788070D01*
X101206489Y-82570086D01*
X101151400Y-82388500D01*
X100128500Y-82388500D01*
X100001500Y-82388500D01*
X98978600Y-82388500D01*
X98923511Y-82570086D01*
X98566421Y-82570086D01*
X98566421Y-82079914D01*
X98923511Y-82079914D01*
X98978600Y-82261500D01*
X100001500Y-82261500D01*
X100001500Y-81238729D01*
X100128500Y-81238729D01*
X100128500Y-82261500D01*
X101151400Y-82261500D01*
X101163225Y-82222520D01*
X101564500Y-82222520D01*
X101564500Y-82427480D01*
X101604485Y-82628503D01*
X101682920Y-82817862D01*
X101796791Y-82988280D01*
X101941720Y-83133209D01*
X102112138Y-83247080D01*
X102301497Y-83325515D01*
X102502520Y-83365500D01*
X102707480Y-83365500D01*
X102908503Y-83325515D01*
X103097862Y-83247080D01*
X103268280Y-83133209D01*
X103413209Y-82988280D01*
X103527080Y-82817862D01*
X103605515Y-82628503D01*
X103645500Y-82427480D01*
X103645500Y-82222520D01*
X104104500Y-82222520D01*
X104104500Y-82427480D01*
X104144485Y-82628503D01*
X104222920Y-82817862D01*
X104336791Y-82988280D01*
X104481720Y-83133209D01*
X104652138Y-83247080D01*
X104841497Y-83325515D01*
X105042520Y-83365500D01*
X105247480Y-83365500D01*
X105448503Y-83325515D01*
X105637862Y-83247080D01*
X105808280Y-83133209D01*
X105953209Y-82988280D01*
X106067080Y-82817862D01*
X106145515Y-82628503D01*
X106167117Y-82519896D01*
X113905750Y-82519896D01*
X114003524Y-82694509D01*
X114218897Y-82806312D01*
X114451943Y-82873950D01*
X114693706Y-82894823D01*
X114934896Y-82868130D01*
X115166244Y-82794895D01*
X115354056Y-82694509D01*
X115451830Y-82519896D01*
X114678790Y-81746856D01*
X113905750Y-82519896D01*
X106167117Y-82519896D01*
X106185500Y-82427480D01*
X106185500Y-82222520D01*
X106145515Y-82021497D01*
X106103400Y-81919821D01*
X109005760Y-81919821D01*
X109103534Y-82094434D01*
X109318907Y-82206237D01*
X109551953Y-82273875D01*
X109793716Y-82294748D01*
X110034906Y-82268055D01*
X110266254Y-82194820D01*
X110454066Y-82094434D01*
X110551840Y-81919821D01*
X109778800Y-81146781D01*
X109005760Y-81919821D01*
X106103400Y-81919821D01*
X106067080Y-81832138D01*
X105953209Y-81661720D01*
X105808280Y-81516791D01*
X105637862Y-81402920D01*
X105448503Y-81324485D01*
X105247480Y-81284500D01*
X105042520Y-81284500D01*
X104841497Y-81324485D01*
X104652138Y-81402920D01*
X104481720Y-81516791D01*
X104336791Y-81661720D01*
X104222920Y-81832138D01*
X104144485Y-82021497D01*
X104104500Y-82222520D01*
X103645500Y-82222520D01*
X103605515Y-82021497D01*
X103527080Y-81832138D01*
X103413209Y-81661720D01*
X103268280Y-81516791D01*
X103097862Y-81402920D01*
X102908503Y-81324485D01*
X102707480Y-81284500D01*
X102502520Y-81284500D01*
X102301497Y-81324485D01*
X102112138Y-81402920D01*
X101941720Y-81516791D01*
X101796791Y-81661720D01*
X101682920Y-81832138D01*
X101604485Y-82021497D01*
X101564500Y-82222520D01*
X101163225Y-82222520D01*
X101206489Y-82079914D01*
X101136742Y-81861930D01*
X101025808Y-81661741D01*
X100877951Y-81487041D01*
X100698853Y-81344543D01*
X100495396Y-81239724D01*
X100310085Y-81183514D01*
X100128500Y-81238729D01*
X100001500Y-81238729D01*
X99819915Y-81183514D01*
X99634604Y-81239724D01*
X99431147Y-81344543D01*
X99252049Y-81487041D01*
X99104192Y-81661741D01*
X98993258Y-81861930D01*
X98923511Y-82079914D01*
X98566421Y-82079914D01*
X98566421Y-81475000D01*
X98562743Y-81437656D01*
X98551850Y-81401746D01*
X98534161Y-81368652D01*
X98510355Y-81339645D01*
X98481348Y-81315839D01*
X98448254Y-81298150D01*
X98412344Y-81287257D01*
X98375000Y-81283579D01*
X96675000Y-81283579D01*
X96637656Y-81287257D01*
X96601746Y-81298150D01*
X96568652Y-81315839D01*
X96539645Y-81339645D01*
X96515839Y-81368652D01*
X96498150Y-81401746D01*
X96487257Y-81437656D01*
X96483579Y-81475000D01*
X85045550Y-81475000D01*
X85045550Y-80322188D01*
X87718501Y-80322188D01*
X87718501Y-80509814D01*
X87755105Y-80693835D01*
X87826906Y-80867179D01*
X87931146Y-81023185D01*
X88063817Y-81155856D01*
X88219823Y-81260096D01*
X88393167Y-81331897D01*
X88577188Y-81368501D01*
X88764814Y-81368501D01*
X88948835Y-81331897D01*
X89122179Y-81260096D01*
X89278185Y-81155856D01*
X89410856Y-81023185D01*
X89515096Y-80867179D01*
X89586897Y-80693835D01*
X89623501Y-80509814D01*
X89623501Y-80322188D01*
X90258501Y-80322188D01*
X90258501Y-80509814D01*
X90295105Y-80693835D01*
X90366906Y-80867179D01*
X90471146Y-81023185D01*
X90603817Y-81155856D01*
X90759823Y-81260096D01*
X90933167Y-81331897D01*
X91117188Y-81368501D01*
X91304814Y-81368501D01*
X91488835Y-81331897D01*
X91662179Y-81260096D01*
X91818185Y-81155856D01*
X91902147Y-81071894D01*
X108541030Y-81071894D01*
X108567723Y-81313084D01*
X108640958Y-81544432D01*
X108741344Y-81732244D01*
X108915957Y-81830018D01*
X109688997Y-81056978D01*
X109868603Y-81056978D01*
X110641643Y-81830018D01*
X110816256Y-81732244D01*
X110847545Y-81671969D01*
X113441020Y-81671969D01*
X113467713Y-81913159D01*
X113540948Y-82144507D01*
X113641334Y-82332319D01*
X113815947Y-82430093D01*
X114588987Y-81657053D01*
X114768593Y-81657053D01*
X115541633Y-82430093D01*
X115716246Y-82332319D01*
X115828049Y-82116946D01*
X115895687Y-81883900D01*
X115916560Y-81642137D01*
X115889867Y-81400947D01*
X115816632Y-81169599D01*
X115716246Y-80981787D01*
X115541633Y-80884013D01*
X114768593Y-81657053D01*
X114588987Y-81657053D01*
X113815947Y-80884013D01*
X113641334Y-80981787D01*
X113529531Y-81197160D01*
X113461893Y-81430206D01*
X113441020Y-81671969D01*
X110847545Y-81671969D01*
X110928059Y-81516871D01*
X110995697Y-81283825D01*
X111016570Y-81042062D01*
X110989877Y-80800872D01*
X110987769Y-80794210D01*
X113905750Y-80794210D01*
X114678790Y-81567250D01*
X115451830Y-80794210D01*
X115354056Y-80619597D01*
X115138683Y-80507794D01*
X114905637Y-80440156D01*
X114663874Y-80419283D01*
X114422684Y-80445976D01*
X114191336Y-80519211D01*
X114003524Y-80619597D01*
X113905750Y-80794210D01*
X110987769Y-80794210D01*
X110916642Y-80569524D01*
X110816256Y-80381712D01*
X110641643Y-80283938D01*
X109868603Y-81056978D01*
X109688997Y-81056978D01*
X108915957Y-80283938D01*
X108741344Y-80381712D01*
X108629541Y-80597085D01*
X108561903Y-80830131D01*
X108541030Y-81071894D01*
X91902147Y-81071894D01*
X91950856Y-81023185D01*
X92055096Y-80867179D01*
X92126897Y-80693835D01*
X92163501Y-80509814D01*
X92163501Y-80322188D01*
X92126897Y-80138167D01*
X92055096Y-79964823D01*
X91950856Y-79808817D01*
X91824559Y-79682520D01*
X96484500Y-79682520D01*
X96484500Y-79887480D01*
X96524485Y-80088503D01*
X96602920Y-80277862D01*
X96716791Y-80448280D01*
X96861720Y-80593209D01*
X97032138Y-80707080D01*
X97221497Y-80785515D01*
X97422520Y-80825500D01*
X97627480Y-80825500D01*
X97828503Y-80785515D01*
X98017862Y-80707080D01*
X98188280Y-80593209D01*
X98333209Y-80448280D01*
X98447080Y-80277862D01*
X98525515Y-80088503D01*
X98565500Y-79887480D01*
X98565500Y-79682520D01*
X99024500Y-79682520D01*
X99024500Y-79887480D01*
X99064485Y-80088503D01*
X99142920Y-80277862D01*
X99256791Y-80448280D01*
X99401720Y-80593209D01*
X99572138Y-80707080D01*
X99761497Y-80785515D01*
X99962520Y-80825500D01*
X100167480Y-80825500D01*
X100368503Y-80785515D01*
X100557862Y-80707080D01*
X100728280Y-80593209D01*
X100873209Y-80448280D01*
X100987080Y-80277862D01*
X101065515Y-80088503D01*
X101105500Y-79887480D01*
X101105500Y-79682520D01*
X101564500Y-79682520D01*
X101564500Y-79887480D01*
X101604485Y-80088503D01*
X101682920Y-80277862D01*
X101796791Y-80448280D01*
X101941720Y-80593209D01*
X102112138Y-80707080D01*
X102301497Y-80785515D01*
X102502520Y-80825500D01*
X102707480Y-80825500D01*
X102908503Y-80785515D01*
X103097862Y-80707080D01*
X103268280Y-80593209D01*
X103413209Y-80448280D01*
X103527080Y-80277862D01*
X103605515Y-80088503D01*
X103645500Y-79887480D01*
X103645500Y-79682520D01*
X104104500Y-79682520D01*
X104104500Y-79887480D01*
X104144485Y-80088503D01*
X104222920Y-80277862D01*
X104336791Y-80448280D01*
X104481720Y-80593209D01*
X104652138Y-80707080D01*
X104841497Y-80785515D01*
X105042520Y-80825500D01*
X105247480Y-80825500D01*
X105448503Y-80785515D01*
X105637862Y-80707080D01*
X105808280Y-80593209D01*
X105953209Y-80448280D01*
X106067080Y-80277862D01*
X106101760Y-80194135D01*
X109005760Y-80194135D01*
X109778800Y-80967175D01*
X110551840Y-80194135D01*
X110454066Y-80019522D01*
X110238693Y-79907719D01*
X110005647Y-79840081D01*
X109763884Y-79819208D01*
X109522694Y-79845901D01*
X109291346Y-79919136D01*
X109103534Y-80019522D01*
X109005760Y-80194135D01*
X106101760Y-80194135D01*
X106145515Y-80088503D01*
X106185500Y-79887480D01*
X106185500Y-79682520D01*
X106145515Y-79481497D01*
X106067080Y-79292138D01*
X105953209Y-79121720D01*
X105808280Y-78976791D01*
X105637862Y-78862920D01*
X105448503Y-78784485D01*
X105247480Y-78744500D01*
X105042520Y-78744500D01*
X104841497Y-78784485D01*
X104652138Y-78862920D01*
X104481720Y-78976791D01*
X104336791Y-79121720D01*
X104222920Y-79292138D01*
X104144485Y-79481497D01*
X104104500Y-79682520D01*
X103645500Y-79682520D01*
X103605515Y-79481497D01*
X103527080Y-79292138D01*
X103413209Y-79121720D01*
X103268280Y-78976791D01*
X103097862Y-78862920D01*
X102908503Y-78784485D01*
X102707480Y-78744500D01*
X102502520Y-78744500D01*
X102301497Y-78784485D01*
X102112138Y-78862920D01*
X101941720Y-78976791D01*
X101796791Y-79121720D01*
X101682920Y-79292138D01*
X101604485Y-79481497D01*
X101564500Y-79682520D01*
X101105500Y-79682520D01*
X101065515Y-79481497D01*
X100987080Y-79292138D01*
X100873209Y-79121720D01*
X100728280Y-78976791D01*
X100557862Y-78862920D01*
X100368503Y-78784485D01*
X100167480Y-78744500D01*
X99962520Y-78744500D01*
X99761497Y-78784485D01*
X99572138Y-78862920D01*
X99401720Y-78976791D01*
X99256791Y-79121720D01*
X99142920Y-79292138D01*
X99064485Y-79481497D01*
X99024500Y-79682520D01*
X98565500Y-79682520D01*
X98525515Y-79481497D01*
X98447080Y-79292138D01*
X98333209Y-79121720D01*
X98188280Y-78976791D01*
X98017862Y-78862920D01*
X97828503Y-78784485D01*
X97627480Y-78744500D01*
X97422520Y-78744500D01*
X97221497Y-78784485D01*
X97032138Y-78862920D01*
X96861720Y-78976791D01*
X96716791Y-79121720D01*
X96602920Y-79292138D01*
X96524485Y-79481497D01*
X96484500Y-79682520D01*
X91824559Y-79682520D01*
X91818185Y-79676146D01*
X91662179Y-79571906D01*
X91488835Y-79500105D01*
X91304814Y-79463501D01*
X91117188Y-79463501D01*
X90933167Y-79500105D01*
X90759823Y-79571906D01*
X90603817Y-79676146D01*
X90471146Y-79808817D01*
X90366906Y-79964823D01*
X90295105Y-80138167D01*
X90258501Y-80322188D01*
X89623501Y-80322188D01*
X89586897Y-80138167D01*
X89515096Y-79964823D01*
X89410856Y-79808817D01*
X89278185Y-79676146D01*
X89122179Y-79571906D01*
X88948835Y-79500105D01*
X88764814Y-79463501D01*
X88577188Y-79463501D01*
X88393167Y-79500105D01*
X88219823Y-79571906D01*
X88063817Y-79676146D01*
X87931146Y-79808817D01*
X87826906Y-79964823D01*
X87755105Y-80138167D01*
X87718501Y-80322188D01*
X85045550Y-80322188D01*
X85045550Y-78630372D01*
X88006433Y-78630372D01*
X88085882Y-78789380D01*
X88275316Y-78885981D01*
X88479956Y-78943769D01*
X88691938Y-78960523D01*
X88903116Y-78935599D01*
X89105373Y-78869956D01*
X89256120Y-78789380D01*
X89335569Y-78630372D01*
X90546433Y-78630372D01*
X90625882Y-78789380D01*
X90815316Y-78885981D01*
X91019956Y-78943769D01*
X91231938Y-78960523D01*
X91443116Y-78935599D01*
X91645373Y-78869956D01*
X91796120Y-78789380D01*
X91875569Y-78630372D01*
X91211001Y-77965804D01*
X90546433Y-78630372D01*
X89335569Y-78630372D01*
X88671001Y-77965804D01*
X88006433Y-78630372D01*
X85045550Y-78630372D01*
X85045550Y-77896938D01*
X87586479Y-77896938D01*
X87611403Y-78108116D01*
X87677046Y-78310373D01*
X87757622Y-78461120D01*
X87916630Y-78540569D01*
X88581198Y-77876001D01*
X88760804Y-77876001D01*
X89425372Y-78540569D01*
X89584380Y-78461120D01*
X89680981Y-78271686D01*
X89738769Y-78067046D01*
X89752213Y-77896938D01*
X90126479Y-77896938D01*
X90151403Y-78108116D01*
X90217046Y-78310373D01*
X90297622Y-78461120D01*
X90456630Y-78540569D01*
X91121198Y-77876001D01*
X91300804Y-77876001D01*
X91965372Y-78540569D01*
X92124380Y-78461120D01*
X92220981Y-78271686D01*
X92240747Y-78201690D01*
X110209500Y-78201690D01*
X110209500Y-78298310D01*
X110228350Y-78393073D01*
X110265325Y-78482339D01*
X110319004Y-78562675D01*
X110387325Y-78630996D01*
X110467661Y-78684675D01*
X110556927Y-78721650D01*
X110651690Y-78740500D01*
X110748310Y-78740500D01*
X110843073Y-78721650D01*
X110932339Y-78684675D01*
X111012675Y-78630996D01*
X111080996Y-78562675D01*
X111134675Y-78482339D01*
X111171650Y-78393073D01*
X111190500Y-78298310D01*
X111190500Y-78228328D01*
X111251690Y-78240500D01*
X111348310Y-78240500D01*
X111443073Y-78221650D01*
X111532339Y-78184675D01*
X111612675Y-78130996D01*
X111680996Y-78062675D01*
X111734675Y-77982339D01*
X111771650Y-77893073D01*
X111790500Y-77798310D01*
X111790500Y-77701690D01*
X111771650Y-77606927D01*
X111734675Y-77517661D01*
X111680996Y-77437325D01*
X111612675Y-77369004D01*
X111532339Y-77315325D01*
X111443073Y-77278350D01*
X111348310Y-77259500D01*
X111251690Y-77259500D01*
X111156927Y-77278350D01*
X111067661Y-77315325D01*
X110987325Y-77369004D01*
X110919004Y-77437325D01*
X110865325Y-77517661D01*
X110828350Y-77606927D01*
X110809500Y-77701690D01*
X110809500Y-77771672D01*
X110748310Y-77759500D01*
X110651690Y-77759500D01*
X110556927Y-77778350D01*
X110467661Y-77815325D01*
X110387325Y-77869004D01*
X110319004Y-77937325D01*
X110265325Y-78017661D01*
X110228350Y-78106927D01*
X110209500Y-78201690D01*
X92240747Y-78201690D01*
X92278769Y-78067046D01*
X92295523Y-77855064D01*
X92270599Y-77643886D01*
X92204956Y-77441629D01*
X92124380Y-77290882D01*
X91965372Y-77211433D01*
X91300804Y-77876001D01*
X91121198Y-77876001D01*
X90456630Y-77211433D01*
X90297622Y-77290882D01*
X90201021Y-77480316D01*
X90143233Y-77684956D01*
X90126479Y-77896938D01*
X89752213Y-77896938D01*
X89755523Y-77855064D01*
X89730599Y-77643886D01*
X89664956Y-77441629D01*
X89584380Y-77290882D01*
X89425372Y-77211433D01*
X88760804Y-77876001D01*
X88581198Y-77876001D01*
X87916630Y-77211433D01*
X87757622Y-77290882D01*
X87661021Y-77480316D01*
X87603233Y-77684956D01*
X87586479Y-77896938D01*
X85045550Y-77896938D01*
X85045550Y-77121630D01*
X88006433Y-77121630D01*
X88671001Y-77786198D01*
X89335569Y-77121630D01*
X90546433Y-77121630D01*
X91211001Y-77786198D01*
X91875569Y-77121630D01*
X91796120Y-76962622D01*
X91606686Y-76866021D01*
X91402046Y-76808233D01*
X91190064Y-76791479D01*
X90978886Y-76816403D01*
X90776629Y-76882046D01*
X90625882Y-76962622D01*
X90546433Y-77121630D01*
X89335569Y-77121630D01*
X89256120Y-76962622D01*
X89066686Y-76866021D01*
X88862046Y-76808233D01*
X88650064Y-76791479D01*
X88438886Y-76816403D01*
X88236629Y-76882046D01*
X88085882Y-76962622D01*
X88006433Y-77121630D01*
X85045550Y-77121630D01*
X85045550Y-75242188D01*
X87718501Y-75242188D01*
X87718501Y-75429814D01*
X87755105Y-75613835D01*
X87826906Y-75787179D01*
X87931146Y-75943185D01*
X88063817Y-76075856D01*
X88219823Y-76180096D01*
X88393167Y-76251897D01*
X88577188Y-76288501D01*
X88764814Y-76288501D01*
X88948835Y-76251897D01*
X89122179Y-76180096D01*
X89278185Y-76075856D01*
X89410856Y-75943185D01*
X89515096Y-75787179D01*
X89586897Y-75613835D01*
X89623501Y-75429814D01*
X89623501Y-75242188D01*
X90258501Y-75242188D01*
X90258501Y-75429814D01*
X90295105Y-75613835D01*
X90366906Y-75787179D01*
X90471146Y-75943185D01*
X90603817Y-76075856D01*
X90759823Y-76180096D01*
X90933167Y-76251897D01*
X91117188Y-76288501D01*
X91304814Y-76288501D01*
X91488835Y-76251897D01*
X91662179Y-76180096D01*
X91818185Y-76075856D01*
X91950856Y-75943185D01*
X92055096Y-75787179D01*
X92126897Y-75613835D01*
X92163501Y-75429814D01*
X92163501Y-75242188D01*
X92153755Y-75193190D01*
X110209500Y-75193190D01*
X110209500Y-75289810D01*
X110228350Y-75384573D01*
X110265325Y-75473839D01*
X110319004Y-75554175D01*
X110387325Y-75622496D01*
X110467661Y-75676175D01*
X110556927Y-75713150D01*
X110651690Y-75732000D01*
X110748310Y-75732000D01*
X110809500Y-75719828D01*
X110809500Y-75763160D01*
X110748310Y-75750988D01*
X110651690Y-75750988D01*
X110556927Y-75769838D01*
X110467661Y-75806813D01*
X110387325Y-75860492D01*
X110319004Y-75928813D01*
X110265325Y-76009149D01*
X110228350Y-76098415D01*
X110209500Y-76193178D01*
X110209500Y-76289798D01*
X110228350Y-76384561D01*
X110265325Y-76473827D01*
X110319004Y-76554163D01*
X110387325Y-76622484D01*
X110467661Y-76676163D01*
X110556927Y-76713138D01*
X110651690Y-76731988D01*
X110748310Y-76731988D01*
X110809500Y-76719816D01*
X110809500Y-76748310D01*
X110828350Y-76843073D01*
X110865325Y-76932339D01*
X110919004Y-77012675D01*
X110987325Y-77080996D01*
X111067661Y-77134675D01*
X111156927Y-77171650D01*
X111251690Y-77190500D01*
X111348310Y-77190500D01*
X111443073Y-77171650D01*
X111532339Y-77134675D01*
X111612675Y-77080996D01*
X111680996Y-77012675D01*
X111734675Y-76932339D01*
X111771650Y-76843073D01*
X111790500Y-76748310D01*
X111790500Y-76651690D01*
X111771650Y-76556927D01*
X111734675Y-76467661D01*
X111680996Y-76387325D01*
X111612675Y-76319004D01*
X111532339Y-76265325D01*
X111443073Y-76228350D01*
X111426232Y-76225000D01*
X111443073Y-76221650D01*
X111532339Y-76184675D01*
X111612675Y-76130996D01*
X111680996Y-76062675D01*
X111734675Y-75982339D01*
X111771650Y-75893073D01*
X111790500Y-75798310D01*
X111790500Y-75701690D01*
X111771650Y-75606927D01*
X111734675Y-75517661D01*
X111680996Y-75437325D01*
X111612675Y-75369004D01*
X111532339Y-75315325D01*
X111443073Y-75278350D01*
X111348310Y-75259500D01*
X111251690Y-75259500D01*
X111190500Y-75271672D01*
X111190500Y-75193190D01*
X111171650Y-75098427D01*
X111134675Y-75009161D01*
X111080996Y-74928825D01*
X111012675Y-74860504D01*
X110932339Y-74806825D01*
X110843073Y-74769850D01*
X110748310Y-74751000D01*
X110651690Y-74751000D01*
X110556927Y-74769850D01*
X110467661Y-74806825D01*
X110387325Y-74860504D01*
X110319004Y-74928825D01*
X110265325Y-75009161D01*
X110228350Y-75098427D01*
X110209500Y-75193190D01*
X92153755Y-75193190D01*
X92126897Y-75058167D01*
X92055096Y-74884823D01*
X91950856Y-74728817D01*
X91818185Y-74596146D01*
X91662179Y-74491906D01*
X91488835Y-74420105D01*
X91304814Y-74383501D01*
X91117188Y-74383501D01*
X90933167Y-74420105D01*
X90759823Y-74491906D01*
X90603817Y-74596146D01*
X90471146Y-74728817D01*
X90366906Y-74884823D01*
X90295105Y-75058167D01*
X90258501Y-75242188D01*
X89623501Y-75242188D01*
X89586897Y-75058167D01*
X89515096Y-74884823D01*
X89410856Y-74728817D01*
X89278185Y-74596146D01*
X89122179Y-74491906D01*
X88948835Y-74420105D01*
X88764814Y-74383501D01*
X88577188Y-74383501D01*
X88393167Y-74420105D01*
X88219823Y-74491906D01*
X88063817Y-74596146D01*
X87931146Y-74728817D01*
X87826906Y-74884823D01*
X87755105Y-75058167D01*
X87718501Y-75242188D01*
X85045550Y-75242188D01*
X85045550Y-72702188D01*
X87718501Y-72702188D01*
X87718501Y-72889814D01*
X87755105Y-73073835D01*
X87826906Y-73247179D01*
X87931146Y-73403185D01*
X88063817Y-73535856D01*
X88219823Y-73640096D01*
X88393167Y-73711897D01*
X88577188Y-73748501D01*
X88764814Y-73748501D01*
X88948835Y-73711897D01*
X89122179Y-73640096D01*
X89278185Y-73535856D01*
X89410856Y-73403185D01*
X89515096Y-73247179D01*
X89586897Y-73073835D01*
X89623501Y-72889814D01*
X89623501Y-72702188D01*
X90258501Y-72702188D01*
X90258501Y-72889814D01*
X90295105Y-73073835D01*
X90366906Y-73247179D01*
X90471146Y-73403185D01*
X90603817Y-73535856D01*
X90759823Y-73640096D01*
X90933167Y-73711897D01*
X91117188Y-73748501D01*
X91304814Y-73748501D01*
X91488835Y-73711897D01*
X91662179Y-73640096D01*
X91818185Y-73535856D01*
X91950856Y-73403185D01*
X92055096Y-73247179D01*
X92126897Y-73073835D01*
X92163501Y-72889814D01*
X92163501Y-72702188D01*
X92126897Y-72518167D01*
X92055096Y-72344823D01*
X91950856Y-72188817D01*
X91818185Y-72056146D01*
X91662179Y-71951906D01*
X91488835Y-71880105D01*
X91304814Y-71843501D01*
X91117188Y-71843501D01*
X90933167Y-71880105D01*
X90759823Y-71951906D01*
X90603817Y-72056146D01*
X90471146Y-72188817D01*
X90366906Y-72344823D01*
X90295105Y-72518167D01*
X90258501Y-72702188D01*
X89623501Y-72702188D01*
X89586897Y-72518167D01*
X89515096Y-72344823D01*
X89410856Y-72188817D01*
X89278185Y-72056146D01*
X89122179Y-71951906D01*
X88948835Y-71880105D01*
X88764814Y-71843501D01*
X88577188Y-71843501D01*
X88393167Y-71880105D01*
X88219823Y-71951906D01*
X88063817Y-72056146D01*
X87931146Y-72188817D01*
X87826906Y-72344823D01*
X87755105Y-72518167D01*
X87718501Y-72702188D01*
X85045550Y-72702188D01*
X85045550Y-70162188D01*
X87718501Y-70162188D01*
X87718501Y-70349814D01*
X87755105Y-70533835D01*
X87826906Y-70707179D01*
X87931146Y-70863185D01*
X88063817Y-70995856D01*
X88219823Y-71100096D01*
X88393167Y-71171897D01*
X88577188Y-71208501D01*
X88764814Y-71208501D01*
X88948835Y-71171897D01*
X89122179Y-71100096D01*
X89278185Y-70995856D01*
X89410856Y-70863185D01*
X89515096Y-70707179D01*
X89586897Y-70533835D01*
X89623501Y-70349814D01*
X89623501Y-70162188D01*
X90258501Y-70162188D01*
X90258501Y-70349814D01*
X90295105Y-70533835D01*
X90366906Y-70707179D01*
X90471146Y-70863185D01*
X90603817Y-70995856D01*
X90759823Y-71100096D01*
X90933167Y-71171897D01*
X91117188Y-71208501D01*
X91304814Y-71208501D01*
X91488835Y-71171897D01*
X91662179Y-71100096D01*
X91818185Y-70995856D01*
X91950856Y-70863185D01*
X92055096Y-70707179D01*
X92126897Y-70533835D01*
X92163501Y-70349814D01*
X92163501Y-70162188D01*
X92126897Y-69978167D01*
X92055096Y-69804823D01*
X91950856Y-69648817D01*
X91818185Y-69516146D01*
X91662179Y-69411906D01*
X91488835Y-69340105D01*
X91304814Y-69303501D01*
X91117188Y-69303501D01*
X90933167Y-69340105D01*
X90759823Y-69411906D01*
X90603817Y-69516146D01*
X90471146Y-69648817D01*
X90366906Y-69804823D01*
X90295105Y-69978167D01*
X90258501Y-70162188D01*
X89623501Y-70162188D01*
X89586897Y-69978167D01*
X89515096Y-69804823D01*
X89410856Y-69648817D01*
X89278185Y-69516146D01*
X89122179Y-69411906D01*
X88948835Y-69340105D01*
X88764814Y-69303501D01*
X88577188Y-69303501D01*
X88393167Y-69340105D01*
X88219823Y-69411906D01*
X88063817Y-69516146D01*
X87931146Y-69648817D01*
X87826906Y-69804823D01*
X87755105Y-69978167D01*
X87718501Y-70162188D01*
X85045550Y-70162188D01*
X85045550Y-67622188D01*
X87718501Y-67622188D01*
X87718501Y-67809814D01*
X87755105Y-67993835D01*
X87826906Y-68167179D01*
X87931146Y-68323185D01*
X88063817Y-68455856D01*
X88219823Y-68560096D01*
X88393167Y-68631897D01*
X88577188Y-68668501D01*
X88764814Y-68668501D01*
X88948835Y-68631897D01*
X89122179Y-68560096D01*
X89278185Y-68455856D01*
X89410856Y-68323185D01*
X89515096Y-68167179D01*
X89586897Y-67993835D01*
X89623501Y-67809814D01*
X89623501Y-67622188D01*
X89586897Y-67438167D01*
X89515096Y-67264823D01*
X89410856Y-67108817D01*
X89278185Y-66976146D01*
X89245043Y-66954001D01*
X90257580Y-66954001D01*
X90257580Y-68478001D01*
X90261258Y-68515345D01*
X90272151Y-68551255D01*
X90289840Y-68584349D01*
X90313646Y-68613356D01*
X90342653Y-68637162D01*
X90375747Y-68654851D01*
X90411657Y-68665744D01*
X90449001Y-68669422D01*
X91973001Y-68669422D01*
X92010345Y-68665744D01*
X92046255Y-68654851D01*
X92079349Y-68637162D01*
X92108356Y-68613356D01*
X92132162Y-68584349D01*
X92149851Y-68551255D01*
X92160744Y-68515345D01*
X92164422Y-68478001D01*
X92164422Y-67269863D01*
X109005760Y-67269863D01*
X109103534Y-67444476D01*
X109318907Y-67556279D01*
X109551953Y-67623917D01*
X109793716Y-67644790D01*
X110034906Y-67618097D01*
X110266254Y-67544862D01*
X110454066Y-67444476D01*
X110551840Y-67269863D01*
X109778800Y-66496823D01*
X109005760Y-67269863D01*
X92164422Y-67269863D01*
X92164422Y-66954001D01*
X92160744Y-66916657D01*
X92149851Y-66880747D01*
X92132162Y-66847653D01*
X92108356Y-66818646D01*
X92079349Y-66794840D01*
X92046255Y-66777151D01*
X92010345Y-66766258D01*
X91973001Y-66762580D01*
X90449001Y-66762580D01*
X90411657Y-66766258D01*
X90375747Y-66777151D01*
X90342653Y-66794840D01*
X90313646Y-66818646D01*
X90289840Y-66847653D01*
X90272151Y-66880747D01*
X90261258Y-66916657D01*
X90257580Y-66954001D01*
X89245043Y-66954001D01*
X89122179Y-66871906D01*
X88948835Y-66800105D01*
X88764814Y-66763501D01*
X88577188Y-66763501D01*
X88393167Y-66800105D01*
X88219823Y-66871906D01*
X88063817Y-66976146D01*
X87931146Y-67108817D01*
X87826906Y-67264823D01*
X87755105Y-67438167D01*
X87718501Y-67622188D01*
X85045550Y-67622188D01*
X85045550Y-66421936D01*
X108541030Y-66421936D01*
X108567723Y-66663126D01*
X108640958Y-66894474D01*
X108741344Y-67082286D01*
X108915957Y-67180060D01*
X109688997Y-66407020D01*
X109868603Y-66407020D01*
X110641643Y-67180060D01*
X110816256Y-67082286D01*
X110928059Y-66866913D01*
X110985271Y-66669788D01*
X113905750Y-66669788D01*
X114003524Y-66844401D01*
X114218897Y-66956204D01*
X114451943Y-67023842D01*
X114693706Y-67044715D01*
X114934896Y-67018022D01*
X115166244Y-66944787D01*
X115354056Y-66844401D01*
X115451830Y-66669788D01*
X114678790Y-65896748D01*
X113905750Y-66669788D01*
X110985271Y-66669788D01*
X110995697Y-66633867D01*
X111016570Y-66392104D01*
X110989877Y-66150914D01*
X110916642Y-65919566D01*
X110864419Y-65821861D01*
X113441020Y-65821861D01*
X113467713Y-66063051D01*
X113540948Y-66294399D01*
X113641334Y-66482211D01*
X113815947Y-66579985D01*
X114588987Y-65806945D01*
X114768593Y-65806945D01*
X115541633Y-66579985D01*
X115716246Y-66482211D01*
X115828049Y-66266838D01*
X115895687Y-66033792D01*
X115916560Y-65792029D01*
X115889867Y-65550839D01*
X115816632Y-65319491D01*
X115716246Y-65131679D01*
X115541633Y-65033905D01*
X114768593Y-65806945D01*
X114588987Y-65806945D01*
X113815947Y-65033905D01*
X113641334Y-65131679D01*
X113529531Y-65347052D01*
X113461893Y-65580098D01*
X113441020Y-65821861D01*
X110864419Y-65821861D01*
X110816256Y-65731754D01*
X110641643Y-65633980D01*
X109868603Y-66407020D01*
X109688997Y-66407020D01*
X108915957Y-65633980D01*
X108741344Y-65731754D01*
X108629541Y-65947127D01*
X108561903Y-66180173D01*
X108541030Y-66421936D01*
X85045550Y-66421936D01*
X85045550Y-65544177D01*
X109005760Y-65544177D01*
X109778800Y-66317217D01*
X110551840Y-65544177D01*
X110454066Y-65369564D01*
X110238693Y-65257761D01*
X110005647Y-65190123D01*
X109763884Y-65169250D01*
X109522694Y-65195943D01*
X109291346Y-65269178D01*
X109103534Y-65369564D01*
X109005760Y-65544177D01*
X85045550Y-65544177D01*
X85045550Y-64944102D01*
X113905750Y-64944102D01*
X114678790Y-65717142D01*
X115451830Y-64944102D01*
X115354056Y-64769489D01*
X115138683Y-64657686D01*
X114905637Y-64590048D01*
X114663874Y-64569175D01*
X114422684Y-64595868D01*
X114191336Y-64669103D01*
X114003524Y-64769489D01*
X113905750Y-64944102D01*
X85045550Y-64944102D01*
X85045550Y-64090543D01*
X116490450Y-64089556D01*
X116490451Y-83990457D01*
G37*
G04 #@! TD.AperFunction*
G04 #@! TD*
M02*
